<?xml version="1.0" encoding="UTF-8"?>
<svg id="a" data-name="Layer 1" xmlns="http://www.w3.org/2000/svg" viewBox="501.46 230.09 954.30 682.31" preserveAspectRatio="xMidYMid meet">
  <polygon points="902.188 311.712 544.836 543.236 1077.285 869.018 1412.382 659.994 902.188 311.712" fill="#003865"/>
  <path d="M1407.314,587.502c-.575,4.293-2.742,8.664-6.457,12.777-2.862,3.199-6.677,6.239-11.405,8.981l-263.02,151.847c-21.797,12.597-54.781,13.948-73.659,3.059l-82.44-47.589-195.124-112.662-38.19-22.056-91.423-52.795-88.024-50.807c-2.385-1.371-4.431-2.881-6.14-4.491-4.411-4.152-6.597-8.981-6.597-13.968,0-8.365,6.1-17.188,18.022-24.062l263.02-151.867c20.406-11.783,50.629-13.73,69.883-4.967,1.311.596,2.583,1.231,3.775,1.927l87.826,50.689,38.19,22.056,195.123,112.663,174.062,100.483c7.61,4.411,11.763,10.114,12.577,16.194.219,1.51.219,3.04,0,4.589Z" fill="#dc96be"/>
  <polygon points="1011.888 426.388 828.634 320.587 857.43 303.962 1040.684 409.763 1011.888 426.388" fill="#fff"/>
  <g>
    <path d="M1184.019,509.143c-12.147,7.013-31.842,7.013-43.99,0-12.147-7.014-12.147-18.384,0-25.398,12.147-7.013,31.841-7.013,43.989,0,12.147,7.014,12.148,18.384,0,25.398Z" fill="#fff"/>
    <path d="M1327.9,604.043l-127.487-73.605c-4.901-2.829-4.286-7.771,1.373-11.039h0c5.658-3.266,14.219-3.621,19.119-.792l127.487,73.605c4.9,2.83,4.286,7.771-1.373,11.039h0c-5.659,3.267-14.219,3.621-19.12.792Z" fill="#fff"/>
  </g>
  <g>
    <path d="M855.516,398.796l-2.464,1.422-81.172-46.865,2.464-1.422c6.052-3.494,15.851-3.494,21.902,0l59.269,34.219c6.052,3.494,6.052,9.152,0,12.645Z" fill="#f9c626"/>
    <polygon points="846.322 404.105 832.425 412.128 751.253 365.263 765.149 357.24 846.322 404.105" fill="#f9c626"/>
    <path d="M744.531,369.144l81.172,46.865-2.464,1.422c-6.052,3.494-15.851,3.494-21.903,0l-59.269-34.219c-6.051-3.494-6.052-9.152,0-12.645l2.464-1.422Z" fill="#f9c626"/>
  </g>
  <g>
    <path d="M751.284,467.304l-77.901-44.975c-5.79-3.344-5.064-9.183,1.621-13.043h0c6.686-3.86,16.801-4.279,22.591-.937l77.901,44.976c5.79,3.344,5.064,9.183-1.622,13.043h0c-6.686,3.86-16.801,4.279-22.59.936Z" fill="#fff"/>
    <path d="M886.322,545.269l-77.901-44.976c-5.79-3.344-5.064-9.183,1.622-13.043h0c6.686-3.86,16.801-4.279,22.591-.936l77.901,44.975c5.79,3.344,5.064,9.183-1.622,13.043h0c-6.686,3.86-16.801,4.279-22.591.937Z" fill="#fff"/>
    <path d="M1021.362,623.234l-77.901-44.976c-5.79-3.344-5.064-9.183,1.622-13.043h0c6.685-3.859,16.8-4.279,22.59-.936l77.901,44.976c5.79,3.343,5.064,9.182-1.622,13.042h0c-6.686,3.86-16.8,4.279-22.59.937Z" fill="#fff"/>
    <path d="M1156.4,701.199l-77.901-44.976c-5.79-3.343-5.064-9.183,1.622-13.042h0c6.686-3.86,16.801-4.28,22.591-.937l77.901,44.976c5.79,3.343,5.064,9.182-1.622,13.042h0c-6.686,3.86-16.801,4.279-22.591.937Z" fill="#fff"/>
  </g>
  <g>
    <polygon points="717.766 509.525 609.576 447.061 635.936 431.842 744.126 494.305 717.766 509.525" fill="#fff"/>
    <polygon points="906.673 618.591 745.322 525.434 771.682 510.215 933.034 603.371 906.673 618.591" fill="#fff"/>
  </g>
  <g>
    <path d="M1076.284,716.515c-15.227,8.791-39.915,8.791-55.143,0-15.227-8.791-15.227-23.045,0-31.836,15.227-8.791,39.915-8.791,55.143,0,15.227,8.791,15.227,23.045,0,31.836Z" fill="#6a2d79"/>
    <path d="M1114.429,738.538c-15.227,8.791-39.915,8.791-55.143,0-15.227-8.792-15.228-23.046,0-31.837,15.227-8.791,39.915-8.791,55.143,0,15.227,8.791,15.227,23.045,0,31.836Z" fill="#fbd96e"/>
  </g>
  <path d="M1407.314,587.502v28.991c-.954,7.67-6.994,15.539-17.862,21.818l-263.02,151.867c-11.346,6.537-25.732,10.074-39.581,10.372-12.737.298-25.036-2.106-34.078-7.332l-495.2-285.89c-8.545-4.947-12.737-11.544-12.737-18.459v-29.07c0,4.987,2.186,9.816,6.597,13.968,1.709,1.61,3.756,3.12,6.14,4.491l495.2,285.91c9.042,5.226,21.341,7.63,34.078,7.312,13.849-.298,28.235-3.815,39.581-10.372l263.02-151.847c4.729-2.743,8.544-5.782,11.405-8.981,3.716-4.113,5.882-8.484,6.457-12.777Z" fill="#ebc2d9"/>
  <path d="M1407.314,587.502v28.991c-.954,7.67-6.994,15.539-17.862,21.818l-263.02,151.867c-11.346,6.537-25.732,10.074-39.581,10.372v-29.07c13.849-.298,28.235-3.815,39.581-10.372l263.02-151.847c4.729-2.743,8.544-5.782,11.405-8.981,3.716-4.113,5.882-8.484,6.457-12.777Z" fill="#c0428a"/>
</svg>