<?xml version="1.0" encoding="UTF-8"?>
<svg id="a" data-name="Layer 1" xmlns="http://www.w3.org/2000/svg" viewBox="523.30 195.20 961.45 701.80" preserveAspectRatio="xMidYMid meet">
  <g>
    <polygon points="1014.179 631.517 955.581 496.188 838.541 423.103 838.405 524.192 1014.179 631.517" fill="#c2d3ef"/>
    <polygon points="722.382 353.223 635.763 403.719 733.998 460.269 735.009 358.821 722.382 353.223" fill="#c2d3ef"/>
    <polygon points="726.634 353.223 726.634 456.048 838.405 524.192 838.541 423.103 726.634 353.223" fill="#c2d3ef"/>
    <polygon points="757.526 372.347 757.493 475.118 765.909 480.28 765.9 377.945 757.526 372.347" fill="#b0c6ea"/>
    <polygon points="869.433 442.227 869.257 543.344 880.142 549.964 880.172 448.933 869.433 442.227" fill="#b0c6ea"/>
    <polygon points="706.688 353.223 696.502 360.949 961.884 512.922 955.581 496.188 706.688 353.223" fill="#b0c6ea"/>
  </g>
  <polygon points="727.237 365.026 719.427 360.54 635.763 403.719 642.589 407.648 727.237 365.026" fill="#b0c6ea"/>
  <g>
    <polygon points="735.695 571.428 691.628 601.213 619.399 476.097 665.241 457.008 727.614 486.634 735.695 571.428" fill="#6e5f81"/>
    <path d="M691.628,601.213c-20.016,11.553-52.414-7.078-72.359-41.631-16.903-29.273-19.436-60.57-7.647-76.478,2.119-2.876,4.711-5.244,7.777-7.007,20.016-11.565,52.414,7.078,72.371,41.63,4.273,7.41,7.635,14.962,10.061,22.348h.012c8.925,27.047,5.516,52.059-10.215,61.138Z" fill="#a096ad"/>
    <path d="M668.524,562.134c-7.513,4.336-19.674-2.657-27.16-15.626-6.345-10.987-7.295-22.735-2.87-28.706.795-1.08,1.768-1.968,2.919-2.63,7.513-4.341,19.674,2.657,27.164,15.626,1.604,2.781,2.866,5.616,3.777,8.388h.004c3.35,10.152,2.07,19.54-3.834,22.948Z" fill="#706183"/>
    <polygon points="1081.12 787.708 1037.053 817.493 964.824 692.377 1010.666 673.288 1073.039 702.914 1081.12 787.708" fill="#6e5f81"/>
    <path d="M1182.75,734.171l-1.458,85.956-.562,33.103-99.646-62.84c-2.244-12.007-6.172-24.463-11.782-36.806-2.356-5.162-5.05-10.324-7.967-15.373-30.747-53.302-70.134-72.378-102.901-53.414-.897.561-1.795,1.122-2.693,1.907-6.059,3.927-10.997,9.538-14.7,16.383l-206.024-131.29c0-8.753-.898-17.169-2.469-25.023-13.017-64.187-74.846-98.187-113.897-83.151-1.908.673-3.703,1.683-5.274,2.918-6.284,4.377-10.66,11.67-14.027,19.3l-32.318-20.198v-106.939l159.568,97.289.112.112,8.304,5.05,103.348,63.064,10.885,6.62,140.267,85.507,14.7,8.978,178.532,108.847Z" fill="#91b0e2"/>
    <path d="M1180.751,820.449v32.837l-99.631-62.913v-.015c-2.254-11.941-6.209-24.389-11.866-36.778v-.657l111.497,67.525Z" fill="#b0c6ea"/>
    <path d="M1037.053,817.493c-20.016,11.553-52.414-7.078-72.359-41.631-16.903-29.273-19.436-60.57-7.647-76.478,2.119-2.876,4.711-5.244,7.777-7.007,20.016-11.565,52.414,7.078,72.371,41.63,4.273,7.41,7.635,14.962,10.061,22.348h.012c8.925,27.047,5.516,52.059-10.215,61.138Z" fill="#a096ad"/>
    <path d="M1014.497,778.414c-7.513,4.336-19.674-2.657-27.16-15.626-6.345-10.987-7.295-22.735-2.87-28.706.795-1.08,1.768-1.968,2.919-2.63,7.513-4.341,19.674,2.657,27.164,15.626,1.604,2.781,2.866,5.616,3.777,8.388h.004c3.35,10.152,2.07,19.54-3.834,22.948Z" fill="#706183"/>
    <path d="M955.741,686.705c-6.059,3.927-10.997,9.538-14.7,16.383l-206.024-131.29c0-8.753-.898-17.169-2.469-25.023l223.193,139.93Z" fill="#b0c6ea"/>
    <path d="M613.377,466.542c-6.284,4.377-10.66,11.67-14.027,19.3l-32.318-20.198v-26.931l46.344,27.829Z" fill="#b0c6ea"/>
  </g>
  <g>
    <polyline points="635.763 403.719 567.001 358.723 806.744 238.902 880.172 279.527" fill="#7a9fdc"/>
    <g>
      <polygon points="1022.868 637.318 1276.353 504.848 1196.213 369.662 955.581 496.188 1022.868 637.318" fill="#c2d3ef"/>
      <polygon points="1441.05 589.035 1435.787 703.089 1180.744 853.293 1182.73 734.119 1441.05 589.035" fill="#638ed5"/>
      <polygon points="1180.751 820.449 1180.751 853.286 1435.787 703.089 1437.138 673.821 1180.751 820.449" fill="#7a9fdc"/>
      <polygon points="1196.213 369.662 955.581 496.188 719.427 360.54 946.805 242.965 1196.213 369.662" fill="#638ed5"/>
      <polygon points="1276.353 504.848 1022.868 637.318 1182.73 734.119 1441.05 589.035 1276.353 504.848" fill="#7a9fdc"/>
      <polygon points="1216.521 742.386 1216.521 771.82 1265.75 746.005 1265.75 714.737 1216.521 742.386" fill="#fcebb0"/>
      <polygon points="1374.179 659.167 1374.179 688.601 1423.408 662.785 1423.408 631.517 1374.179 659.167" fill="#fcebb0"/>
    </g>
  </g>
  <g>
    <polygon points="955.581 496.188 961.884 512.922 1204.336 385.358 1196.213 369.662 955.581 496.188" fill="#7a9fdc"/>
    <polygon points="945.843 490.595 955.581 496.188 1022.868 637.318 1014.179 631.517 945.843 490.595" fill="#b0c6ea"/>
    <polygon points="959.609 504.848 967.099 510.077 1026.709 635.31 1022.868 637.318 959.609 504.848" fill="#7a9fdc"/>
    <polygon points="1196.213 369.662 1276.353 504.848 1269.452 508.455 1190.482 372.675 1196.213 369.662" fill="#7a9fdc"/>
  </g>
</svg>