<?xml version="1.0" encoding="UTF-8"?>
<svg id="a" data-name="Layer 1" xmlns="http://www.w3.org/2000/svg" xmlns:xlink="http://www.w3.org/1999/xlink" viewBox="-99.06 -99.75 2121.99 1814.49" preserveAspectRatio="xMidYMid meet">
  <defs>
    <clipPath id="b">
      <rect x="1.906" y=".561" width="1921.919" height="1078.848" fill="none"/>
    </clipPath>
  </defs>
  <g clip-path="url(#b)">
    <polygon points="610.827 1298.115 720.834 1361.622 720.838 625.191 665.837 554.176 610.832 561.684 610.827 1298.115" fill="#00365f"/>
    <polygon points="720.077 624.432 830.084 1297.348 830.088 560.917 775.087 489.902 720.082 497.41 720.077 624.432" fill="#00365f"/>
    <polygon points="720.431 1361.691 830.438 1298.184 830.433 561.753 720.426 625.26 720.431 1361.691" fill="#b40264"/>
    <g>
      <polygon points="1606.634 1161.013 1606.654 619.749 1767.151 712.404 1767.131 1253.668 1606.634 1161.013" fill="#00365f"/>
      <polygon points="1764.641 1251.442 1764.621 710.178 1925.118 617.523 1925.138 1158.787 1764.641 1251.442" fill="#6c3075"/>
      <polygon points="1926.478 621.846 1765.988 714.513 1605.498 621.846 1765.988 529.179 1926.478 621.846" fill="#0047ba"/>
    </g>
    <polygon points="156.513 915.691 156.532 391.683 311.913 481.384 311.893 1005.393 156.513 915.691" fill="#00365f"/>
    <polygon points="309.483 1003.238 309.463 479.23 464.844 389.529 464.863 913.537 309.483 1003.238" fill="#f1f8f0"/>
    <polygon points="466.161 393.714 310.787 483.427 155.413 393.714 310.787 304.001 466.161 393.714" fill="#0047ba"/>
    <g>
      <polygon points="1128.795 1066.43 1128.809 675.455 1244.742 742.384 1244.728 1133.358 1128.795 1066.43" fill="#00365f"/>
      <polygon points="1242.929 1131.751 1242.915 740.776 1358.847 673.848 1358.862 1064.823 1242.929 1131.751" fill="#b39cbb"/>
      <polygon points="1359.83 676.971 1243.902 743.908 1127.975 676.971 1243.902 610.034 1359.83 676.971" fill="#b40264"/>
    </g>
    <polygon points="1148.456 1506.498 955.022 1618.168 955.013 904.707 1051.728 779.836 1148.448 793.038 1148.456 1506.498" fill="#f1f8f0"/>
    <polygon points="956.352 903.372 762.918 1505.149 762.91 791.688 859.624 666.817 956.344 680.018 956.352 903.372" fill="#00365f"/>
    <polygon points="955.73 1618.289 762.296 1506.62 762.304 793.159 955.738 904.829 955.73 1618.289" fill="#6c3075"/>
    <g>
      <polygon points="1362.89 1327.618 1650.174 1160.631 1650.156 797.415 1362.872 964.403 1362.89 1327.618" fill="#b39cbb"/>
      <polygon points="1367.556 980.232 1634.037 832.797 1473.57 740.143 1207.089 887.579 1367.556 980.232" fill="#b40264"/>
      <polygon points="1413.431 714.969 1570.949 805.921 1657.028 755.284 1499.51 664.333 1413.431 714.969" fill="#0047ba"/>
      <polygon points="1655.914 1208.981 1655.894 753.225 1569.808 803.85 1569.828 1259.606 1655.914 1208.981" fill="#b39cbb"/>
      <polygon points="1568.919 864.073 1568.924 804.683 1412.699 714.494 1412.694 773.885 1568.919 864.073" fill="#00365f"/>
      <polygon points="1367.756 1517.415 1367.776 980.03 1208.429 888.039 1208.409 1425.424 1367.756 1517.415" fill="#6c3075"/>
    </g>
    <g>
      <polygon points="308.976 1268.955 308.995 744.947 464.376 834.648 464.356 1358.657 308.976 1268.955" fill="#00365f"/>
      <polygon points="461.946 1356.502 461.926 832.494 617.307 742.793 617.326 1266.801 461.946 1356.502" fill="#b39cbb"/>
      <polygon points="616.971 744.499 461.597 834.211 306.223 744.499 461.597 654.786 616.971 744.499" fill="#b40264"/>
    </g>
    <g>
      <polygon points="3.852 1265.674 3.871 741.666 159.252 831.367 159.232 1355.376 3.852 1265.674" fill="#00365f"/>
      <polygon points="155.169 1357.354 155.149 833.345 310.53 743.644 310.549 1267.652 155.169 1357.354" fill="#6c3075"/>
      <polygon points="311.02 744.523 155.647 834.236 .273 744.523 155.647 654.811 311.02 744.523" fill="#b40264"/>
    </g>
    <polygon points="760.424 795.184 956.319 908.216 1053.529 778.683 859.624 666.817 760.424 795.184" fill="#00365f"/>
    <polygon points="1051.728 779.836 1148.448 793.038 956.344 680.018 859.624 666.817 1051.728 779.836" fill="#b39cbb"/>
    <g>
      <polygon points="832.049 563.471 719.329 628.51 663.393 553.976 774.968 489.606 832.049 563.471" fill="#6c3075"/>
      <polygon points="664.429 554.639 608.776 562.236 719.315 497.203 774.968 489.606 664.429 554.639" fill="#f1f8f0"/>
    </g>
    <polygon points="521.73 857.747 566.725 831.771 566.728 909.162 521.733 935.138 521.73 857.747" fill="#b40264"/>
    <polygon points="219.653 888.189 264.649 862.213 264.652 939.604 219.656 965.58 219.653 888.189" fill="#b40264"/>
    <g>
      <polygon points="1038.439 923.57 1056.397 913.203 1056.396 892.467 1038.438 902.834 1038.439 923.57" fill="#00365f"/>
      <polygon points="1067.203 906.965 1085.161 896.597 1085.16 875.862 1067.202 886.229 1067.203 906.965" fill="#00365f"/>
      <polygon points="1038.439 889.16 1056.397 878.793 1056.396 858.057 1038.438 868.424 1038.439 889.16" fill="#00365f"/>
      <polygon points="1067.203 872.555 1085.161 862.188 1085.16 841.452 1067.202 851.819 1067.203 872.555" fill="#00365f"/>
    </g>
    <g>
      <polygon points="766.85 677.335 778.167 670.802 778.167 657.734 766.85 664.268 766.85 677.335" fill="#f1f8f0"/>
      <polygon points="784.977 666.871 796.294 660.337 796.294 647.269 784.976 653.803 784.977 666.871" fill="#f1f8f0"/>
      <polygon points="766.85 655.65 778.167 649.117 778.167 636.049 766.85 642.582 766.85 655.65" fill="#f1f8f0"/>
      <polygon points="784.977 645.186 796.294 638.652 796.294 625.584 784.976 632.118 784.977 645.186" fill="#f1f8f0"/>
    </g>
    <g>
      <polygon points="674.752 667.736 663.435 661.202 663.435 648.134 674.752 654.668 674.752 667.736" fill="#b39cbb"/>
      <polygon points="656.625 657.271 645.308 650.738 645.308 637.67 656.625 644.203 656.625 657.271" fill="#b39cbb"/>
      <polygon points="674.752 646.051 663.435 639.517 663.435 626.449 674.752 632.983 674.752 646.051" fill="#b39cbb"/>
      <polygon points="656.625 635.586 645.308 629.052 645.308 615.985 656.625 622.518 656.625 635.586" fill="#b39cbb"/>
    </g>
    <polygon points="443.15 486.901 341.391 545.646 341.39 525.646 443.149 466.901 443.15 486.901" fill="#b39cbb"/>
    <polygon points="443.15 554.669 341.391 613.415 341.39 593.415 443.149 534.669 443.15 554.669" fill="#b39cbb"/>
    <polygon points="443.15 622.437 341.391 681.183 341.39 661.183 443.149 602.438 443.15 622.437" fill="#b39cbb"/>
    <polygon points="178.305 486.901 280.064 545.646 280.065 525.646 178.306 466.901 178.305 486.901" fill="#b39cbb"/>
    <polygon points="178.305 554.669 280.064 613.415 280.065 593.415 178.306 534.669 178.305 554.669" fill="#b39cbb"/>
    <polygon points="178.305 622.437 280.064 681.183 280.065 661.183 178.306 602.438 178.305 622.437" fill="#b39cbb"/>
    <polygon points="334.779 837.313 436.538 896.058 436.538 876.058 334.779 817.313 334.779 837.313" fill="#b39cbb"/>
    <polygon points="334.779 905.081 436.538 963.826 436.538 943.827 334.779 885.081 334.779 905.081" fill="#b39cbb"/>
    <polygon points="334.779 972.849 436.538 1031.595 436.538 1011.595 334.779 952.849 334.779 972.849" fill="#b39cbb"/>
    <polyline points="566.728 909.162 521.215 884.144 521.733 935.138 566.728 909.162" fill="#00365f"/>
    <polygon points="1626.356 889.662 1600.642 904.507 1600.639 823.53 1626.353 808.686 1626.356 889.662" fill="#00365f"/>
    <polygon points="1626.356 996.549 1600.642 1011.393 1600.639 930.417 1626.353 915.572 1626.356 996.549" fill="#00365f"/>
    <polygon points="1575.667 1024.097 1549.953 1038.941 1549.95 957.965 1575.664 943.12 1575.667 1024.097" fill="#00365f"/>
    <polygon points="1528.284 1048.339 1502.57 1063.184 1502.567 982.207 1528.281 967.363 1528.284 1048.339" fill="#00365f"/>
    <rect x="-2.603" y="-3.295" width="1926.428" height="1082.621" fill="none"/>
  </g>
</svg>