<?xml version="1.0" encoding="UTF-8"?>
<svg id="a" data-name="Layer 1" xmlns="http://www.w3.org/2000/svg" viewBox="696.15 224.84 562.43 665.25" preserveAspectRatio="xMidYMid meet">
  <path d="M852.873,415.975c6.497,56.132,27.088,118.495,61.774,178.819,34.678,60.328,78.123,109.33,123.197,142.909l61.691,107.288,64.782-37.403c85.361-49.901,85.361-210.713,0-359.185-85.36-148.472-223.758-228.375-309.119-178.474l-64.785,37.406,62.461,108.639Z" fill="#76ab48"/>
  <path d="M1099.531,485.809c85.365,148.468,85.365,309.28,0,359.186-85.361,49.901-223.758-30.003-309.119-178.474-85.365-148.468-85.365-309.28,0-359.185,85.361-49.902,223.758,30.002,309.119,178.473Z" fill="#97bf74"/>
  <path d="M1070.352,502.869c69.244,120.438,69.244,250.891,0,291.372-69.244,40.481-181.517-24.338-250.761-144.779-69.248-120.438-69.248-250.887,0-291.368,69.244-40.481,181.517,24.334,250.761,144.776Z" fill="#bed8a9"/>
  <path d="M798.288,506.831l21.736-12.635c7.444-4.327,17.281-3.02,27.148,2.674,9.073,5.24,18.174,14.201,25.45,25.912l-21.736,12.632c-7.28-11.711-16.376-20.669-25.45-25.913-9.867-5.694-19.703-6.997-27.148-2.67Z" fill="#adbfce"/>
  <polygon points="850.887 535.414 872.622 522.782 912.757 587.606 891.018 600.237 850.887 535.414" fill="#adbfce"/>
  <path d="M983.049,525.461l21.736-12.635c7.419-4.309,17.293-3.039,27.212,2.692l-21.736,12.631c-9.922-5.727-19.793-7.001-27.212-2.689Z" fill="#adbfce"/>
  <path d="M1010.26,528.149l21.736-12.631c8.53,4.924,17.097,13.142,24.169,23.948,16.256,24.857,18.506,53.796,5.015,64.684l-21.736,12.635c13.491-10.888,11.241-39.831-5.019-64.688-7.069-10.806-15.636-19.023-24.166-23.948Z" fill="#adbfce"/>
  <path d="M1010.26,528.149c8.53,4.925,17.097,13.142,24.166,23.948,16.259,24.857,18.509,53.8,5.019,64.688l-110.612,90.131c-8.962,7.282-21.841,6.235-34.765-1.224-10.667-6.16-21.367-16.692-29.915-30.537l-64.414-103.956c-15.655-25.199-16.842-53.676-2.754-63.539,7.58-5.3,17.998-4.191,28.452,1.84,9.075,5.244,18.171,14.202,25.45,25.913l40.131,64.823,89.702-73.173c7.602-6.141,18.539-5.266,29.54,1.085Z" fill="#fff"/>
</svg>