<?xml version="1.0" encoding="UTF-8"?>
<svg id="a" data-name="Layer 1" xmlns="http://www.w3.org/2000/svg" viewBox="625.95 155.96 590.44 710.59" preserveAspectRatio="xMidYMid meet">
  <path d="M872.898,603.165l41.735-24.254c-.044,15.531,10.884,34.461,24.495,42.32l-41.735,24.254c-13.611-7.859-24.539-26.788-24.495-42.319Z" fill="#fdb101"/>
  <polygon points="897.393 645.485 939.129 621.23 945.083 624.668 903.348 648.922 897.393 645.485" fill="#fdb101"/>
  <polygon points="872.943 587.199 914.679 562.944 914.633 578.911 872.898 603.165 872.943 587.199" fill="#fdb101"/>
  <path d="M962.501,626.37l-41.735,24.255c-4.452,2.586-10.616,2.223-17.417-1.704l41.735-24.254c6.801,3.927,12.967,4.29,17.417,1.703Z" fill="#fdb101"/>
  <path d="M880.074,571.521l41.735-24.254c-4.393,2.552-7.109,7.977-7.13,15.678l-41.737,24.254c.022-7.701,2.739-13.126,7.131-15.678Z" fill="#fdb101"/>
  <path d="M962.501,626.37l-41.735,24.255c4.395-2.555,7.121-7.985,7.143-15.7l41.735-24.254c-.021,7.715-2.748,13.145-7.143,15.699Z" fill="#fff"/>
  <path d="M880.074,571.521l41.735-24.254c4.465-2.595,10.663-2.224,17.524,1.737l-41.735,24.254c-6.862-3.961-13.059-4.333-17.524-1.737Z" fill="#fff"/>
  <polygon points="927.953 618.959 969.689 594.705 969.644 610.671 927.908 634.925 927.953 618.959" fill="#fff"/>
  <polygon points="897.598 573.258 939.333 549.003 945.288 552.442 903.552 576.696 897.598 573.258" fill="#fff"/>
  <path d="M873.158,511.497l41.735-24.254c-.044,15.531,10.884,34.46,24.495,42.318l-41.735,24.254c-13.611-7.859-24.54-26.787-24.495-42.318Z" fill="#fdb101"/>
  <path d="M903.552,576.696l41.735-24.254c13.517,7.804,24.446,26.733,24.401,42.263l-41.735,24.254c.044-15.53-10.884-34.459-24.401-42.263Z" fill="#fff"/>
  <polygon points="897.653 553.816 939.389 529.562 945.343 532.999 903.608 557.253 897.653 553.816" fill="#fdb101"/>
  <polygon points="928.677 363.724 970.412 339.47 969.904 519.004 928.168 543.258 928.677 363.724" fill="#fff"/>
  <path d="M962.762,534.703l-41.737,24.254c-4.452,2.587-10.616,2.223-17.417-1.704l41.735-24.254c6.803,3.927,12.967,4.291,17.419,1.704Z" fill="#fdb101"/>
  <path d="M962.762,534.703l-41.737,24.254c4.395-2.554,7.121-7.984,7.143-15.699l41.735-24.254c-.023,7.715-2.748,13.145-7.142,15.699Z" fill="#fff"/>
  <polygon points="873.666 331.964 915.403 307.71 914.893 487.243 873.158 511.497 873.666 331.964" fill="#fdb101"/>
  <path d="M1171.612,807.181l-41.737,24.254c12.669-7.362,16.979-28.442,6.863-54.619l41.735-24.254c10.116,26.177,5.806,47.257-6.862,54.619Z" fill="#aa0062"/>
  <path d="M880.821,316.176l41.736-24.254c-4.407,2.561-7.134,8.018-7.155,15.788l-41.737,24.254c.022-7.77,2.748-13.227,7.155-15.788Z" fill="#fdb101"/>
  <path d="M880.821,316.176l41.736-24.254c4.462-2.594,10.652-2.217,17.5,1.737l-41.737,24.254c-6.849-3.954-13.036-4.331-17.5-1.737Z" fill="#fff"/>
  <polygon points="898.321 317.913 940.058 293.659 946.013 297.098 904.276 321.352 898.321 317.913" fill="#fff"/>
  <path d="M904.276,321.352l41.737-24.254c13.517,7.803,24.445,26.733,24.4,42.373l-41.735,24.254c.044-15.64-10.884-34.57-24.401-42.373Z" fill="#fff"/>
  <polygon points="937.956 263.664 979.691 239.41 1178.473 752.562 1136.738 776.816 937.956 263.664" fill="#aa0062"/>
  <path d="M871.701,215.294l41.737-24.254c8.168-4.747,19.03-3.208,29.873,3.052,14.189,8.193,28.344,24.471,36.38,45.318l-41.735,24.254c-8.036-20.848-22.191-37.125-36.381-45.318-10.842-6.26-21.705-7.799-29.873-3.052Z" fill="#aa0062"/>
  <g>
    <path d="M1100.043,828.408l-399.72-230.78c-32.42-18.72-52.63-70.85-36.28-93.72l200.94-282.37c8.18-11.49,22.4-11.38,36.59-3.19s28.35,24.47,36.38,45.32l198.79,513.15c16.07,41.59-4.28,70.31-36.7,51.59Z" fill="#ecc7dc"/>
    <path d="M1136.743,776.818l-198.79-513.15c-8.03-20.85-22.19-37.13-36.38-45.32s-28.41-8.3-36.59,3.19l-200.94,282.37c-16.35,22.87,3.86,75,36.28,93.72l399.72,230.78c32.42,18.72,52.77-10,36.7-51.59ZM1119.883,814.098c-.4.34-3.86.44-9.84-3.01l-399.72-230.78c-13.94-8.05-26.95-27.21-30.92-45.55-2.2-10.17-.89-16.71.93-19.26l200.95-282.37c.25-.35.43-.52.44-.53.12-.04.38-.09.78-.09,1.4,0,4.5.52,9.07,3.16,8.8,5.08,20.71,16.99,27.73,35.22l198.78,513.14c7,18.12,3.77,28.39,1.8,30.07Z" fill="#aa0062"/>
  </g>
  <g>
    <path d="M891.915,573.971c13.516,7.804,24.445,26.733,24.401,42.263l-.045,15.966c-.044,15.531-11.044,21.801-24.56,13.997l-5.955-3.437c-13.611-7.859-24.539-26.788-24.495-42.319l.045-15.967c.044-15.53,11.044-21.798,24.655-13.941l5.955,3.439Z" fill="#231834"/>
    <path d="M892.639,318.626c13.516,7.803,24.445,26.733,24.401,42.373l-.508,179.533c-.045,15.531-11.044,21.799-24.56,13.995l-5.955-3.437c-13.611-7.859-24.54-26.787-24.495-42.318l.508-179.533c.045-15.64,11.044-21.91,24.655-14.051l5.955,3.439Z" fill="#231834"/>
  </g>
</svg>