<?xml version="1.0" encoding="UTF-8"?>
<svg id="a" data-name="Layer 1" xmlns="http://www.w3.org/2000/svg" viewBox="362.37 186.57 1247.77 726.44" preserveAspectRatio="xMidYMid meet">
  <path d="M1492.574,768.765c-338.141-29.604-671.107-39.366-1010.39-29.22-19.411.58-41.49,2.524-53.327,17.92-14.768,19.209-3.321,49.2,17.007,62.385,20.328,13.185,45.947,14.206,70.169,14.814,264.783,6.646,561.408,13.349,826.192,19.939,40.753,1.014,81.516,2.028,122.279,1.57,18.325-.206,37.103-.799,54.114-7.614,17.011-6.815,34.909-20.136,34.802-39.301-.102-18.325-12.744-35.72-61.919-40.539" fill="#003051"/>
  <g>
    <path d="M617.169,779.501c.921-.038,1.658-.786,1.674-1.716l3.299-209.313c.005-.718.24-6.843,6.593-7.282,1.217-.138,2.314.256,3.107,1.054,2.258,2.277,2.389,7.623,2.245,9.493-.072.96.649,1.799,1.609,1.871.944.062,1.799-.641,1.875-1.605.066-.848.531-8.4-3.248-12.211-1.509-1.52-3.442-2.155-5.827-2.088-7.792.539-9.847,7.261-9.843,10.742l-3.3,209.283c-.015.965.755,1.759,1.717,1.774.035-.001.07,0,.1,0Z" fill="#336185"/>
    <path d="M625.705,554.327s-11.172,3.233-12.574,4.112c-1.403.88-.985,3.534-1.157,4.364-.172.829-.014,7.189.324,7.894.337.705,4.711,7.451,6.257,7.549,1.545.098.764-2.186.497-3.444-.403-1.906-.179-4.374-.179-4.374,0,0,2.023.077,5.207-.62,5.135-1.125,7.553-6.27,7.553-6.27l-5.927-9.211Z" fill="#ffa190"/>
    <path d="M698.127,781.898c1.475,3.998.188,7.072-.493,8.013-.681.941-9.77,4.969-19.792,1.725-10.022-3.244-20.689-6.131-21.564-10.156-.876-4.024,1.788-6.654,2.669-6.69,3.402-.14,39.18,7.108,39.18,7.108Z" fill="#1f517a"/>
    <path d="M698.113,762.435s1.406,18.974-.55,20.792c-1.956,1.818-15.326,2.546-19.66.807-4.335-1.739-17.204-3.647-19.947-6.174-2.743-2.527,3.448-5.704,11.517-6.978,8.069-1.275,10.538-3.511,12.039-7.764,1.501-4.253,16.602-.681,16.602-.681Z" fill="#003967"/>
    <path d="M762.906,777.802c1.475,3.998.188,7.072-.493,8.013-.681.941-9.77,4.969-19.792,1.725-10.022-3.244-13.569-2.93-14.445-6.954-.876-4.025,1.788-6.654,2.669-6.69,3.402-.14,32.061,3.906,32.061,3.906Z" fill="#1f517a"/>
    <path d="M762.892,758.339s1.406,18.974-.55,20.792c-1.956,1.818-8.517,3.858-19.66.807-4.505-1.234-10.043-1.148-12.786-3.674-2.743-2.527,4.945-5.533,8.513-6.456,7.909-2.046,6.381-6.534,7.881-10.787,1.501-4.253,16.602-.681,16.602-.681Z" fill="#003967"/>
    <path d="M724.992,410.999c-9.596-10.655-10.368-25.847-10.368-25.847l-26.153,12.145s2.761,14.685,5.861,20.049c4.701,8.136,30.661-6.348,30.661-6.348Z" fill="#ffa190"/>
    <path d="M714.47,392.115c-1.241-20.259,13.081-36.844-11.069-44.428-23.069-7.245-26.515,14.455-27.14,27.563-.624,13.108,5.49,25.625,11.223,28.059,5.733,2.434,26.986-11.194,26.986-11.194Z" fill="#ffa190"/>
    <path d="M700.297,761.692c-7.677,3.259-14.724,2.554-20.895-.342,0,0,1.441-74.49,1.206-84.448-.337-14.295.877-74.594,1.65-86.658,1.049-16.355,1.62-29.979,1.62-29.979,32.698-14.195,63.439-21.549,86.816-3.492,2.301,23.703-6.061,201.081-6.061,201.081-5.913,4.054-12.665,4.164-20.151.827,0,0-5.403-51.393-6.092-68.171-.688-16.778-12.034-53.671-12.034-53.671,0,0-12.308,42.195-13.039,47.856-3.154,24.401-13.02,76.998-13.02,76.998Z" fill="#028c7b"/>
    <path d="M691.488,567.314c20.791,6.982,54.702,5.555,71.811-2.348,4.908-2.268,8.059-7.193,8.215-12.597,1.226-42.366-.025-80.203-7.71-109.46-5.764-21.944-26.199-37.485-48.818-35.71-8.24.647-16.38,2.806-24.028,7.072-11.56,6.448-18.256,19.117-18.107,32.353.424,37.751,7.018,68.377,9.126,107.961.307,5.766,4.036,10.892,9.51,12.73Z" fill="#456f90"/>
    <path d="M726.78,636.945c4.441-17.979,8.545-20.93,13.744-24.666,3.066-2.206,6.541-4.702,10.679-10.579l-.715-.503c-4.051,5.757-7.466,8.209-10.476,10.374-5.341,3.839-9.562,6.871-14.083,25.162l.85.212Z" fill="#42a99c"/>
    <path d="M729.121,585.684c-17.054,3.534-40.385-2.332-42.882-4.581,0,0-1.315,25.891-.605,27.765.711,1.873,13.997,14.07,17.63,13.763,3.633-.308,22.375-8.43,23.043-11.469.668-3.039,2.814-25.477,2.814-25.477Z" fill="#42a99c"/>
    <path d="M771.062,578.649c-3.528,3.486-9.863,3.46-13.043,3.417,0,0-.208,22.285,2.01,25.56,2.218,3.275,9.988,12.265,9.988,12.265,0,0,1.612-10.177,2.492-22.233.88-12.056-1.447-19.01-1.447-19.01Z" fill="#42a99c"/>
    <path d="M715.003,388.422c-7.828,12.682-24.368,8.665-28.284-8.779-1.32-5.88-5.789-6.275-5.789-6.275-2.603-9.155-5.859-17.077,3.789-23.49,0,0,12.461,11.712,26.252,9.707,7.08-1.029-.915-9.058-.915-9.058,0,0,8.019,2.278,10.178,8.164,3.992,10.883-5.231,29.731-5.231,29.731Z" fill="#bfcdd9"/>
    <path d="M680.309,423.601c-19.2,26.921-25.8,87.733-28.267,95.233-2.467,7.5-26.337,35.493-26.337,35.493.164,5.491,3.313,10.23,8.802,11.662.819-.428,35.496-24.27,41.487-39.006,5.991-14.735,12.306-63.705,8.547-80.198-3.76-16.493-4.231-23.185-4.231-23.185Z" fill="#456f90"/>
    <path d="M748.344,418.262c35.898,31.524,43.322,92.262,36.647,102.401-6.674,10.139-29.655,3.375-29.655,3.375l-6.992-105.776Z" fill="#456f90"/>
    <path d="M772.357,526.234c.981-44.089-12.688-88.055-12.826-88.497l-.83.266c.138.434,13.759,44.271,12.783,88.213l.873.018Z" fill="#1f517a"/>
    <path d="M679.228,517.841c12.629-49.791,7.704-76.805,7.654-77.073l-.858.166c.05.264,4.929,27.114-7.639,76.694l.842.212Z" fill="#1f517a"/>
    <path d="M680.93,373.368s1.256-2.788,3.805-2.019c3.851,1.161,3.074,13.13-1.484,11.211-4.558-1.92-2.321-9.192-2.321-9.192Z" fill="#ffa190"/>
    <path d="M681.443,376.846c.403-3.229,2.839-4.353,3.509-2.871.67,1.481.089,2.162-.54,3.102-.629.94.864,2.686-.123,3.365-1.202.826-3.217-.621-2.846-3.596Z" fill="#f4806f"/>
    <path d="M613.685,786.066l6.296.101c.295.005.533-.241.518-.536l-.462-9.196c-.014-.269-.233-.48-.502-.485l-4.992-.08c-.267-.005-.492.198-.516.464l-.842,9.175c-.027.296.203.552.5.557Z" fill="#6184a1"/>
    <path d="M663.536,356.7c-1.087,8.931,13.849,18.097,33.361,20.472,19.512,2.375,36.211-2.939,37.298-11.871,1.087-8.931-13.849-18.097-33.362-20.472-19.512-2.375-36.211,2.94-37.298,11.87Z" fill="#6a2d79"/>
    <path d="M677.741,351.845c.256,6.247,42.349,12.502,43.007,5.068.735-8.298-1.656-16.015-6.5-21.169-3.196-3.399-7.907,1.831-12.627,1.275-4.253-.501-7.832-7.044-11.46-4.974-6.502,3.71-12.784,10.932-12.42,19.8Z" fill="#835090"/>
    <path d="M734.465,561.07c12.632-.518,25.77-2.786,37.24-8.307l-.38-.787c-35.994,17.332-88.699,2.346-89.226,2.19l-.244.836c.363.108,25.284,7.19,52.609,6.069Z" fill="#1f517a"/>
    <path d="M708.486,421.834c9.507-.39,19.862-3.08,26.867-11.328l-.664-.567c-15.776,18.579-49.172,8.207-49.508,8.105l-.267.829c.195.062,11.163,3.471,23.572,2.962Z" fill="#1f517a"/>
    <path d="M710.578,433.865c11.853-.486,25.224-4.435,37.025-16.179l-.612-.615c-29.23,29.067-68.269,9.631-68.655,9.427l-.4.78c.24.121,14.701,7.323,32.642,6.587Z" fill="#1f517a"/>
    <path d="M712.374,683.29l.283-.822c-12.891-4.48-21.274-.397-21.619-.224l.387.779c.087-.042,8.419-4.069,20.949.268Z" fill="#42a99c"/>
    <path d="M767.767,682.445l.282-.83c-11.857-4.013-15.96-.835-16.128-.704l.553.679c.034-.028,3.987-2.992,15.293.854Z" fill="#42a99c"/>
    <path d="M690.172,679.941c.008-.008.87-1.086,4.709-3.076l-.402-.775c-4.016,2.082-4.919,3.212-5.007,3.331l.701.519Z" fill="#42a99c"/>
    <path d="M767.555,676.905l.251-.836c-5.017-1.519-9.262-1.152-9.443-1.141l.082.869c.046-.009,4.257-.364,9.11,1.108Z" fill="#42a99c"/>
    <path d="M747.596,766.611c.208-.009.387-.155.429-.365.048-.249-.113-.489-.357-.537-1.268-.249-2.433-1.251-2.444-1.262-.192-.166-.481-.146-.643.046-.166.188-.146.477.046.642.052.048,1.352,1.172,2.862,1.469.039.006.073.009.108.007Z" fill="#c2c3e9"/>
    <path d="M746.145,769.704c.177-.007.343-.118.408-.295.087-.235-.032-.501-.267-.587-1.795-.671-2.548-1.732-2.557-1.743-.14-.214-.423-.253-.634-.117-.206.144-.261.424-.117.634.033.053.906,1.302,2.987,2.081.059.021.121.03.179.027Z" fill="#c2c3e9"/>
    <path d="M742.498,771.763c.146-.006.286-.081.369-.212.134-.214.068-.497-.146-.631-1.58-.985-1.646-1.847-1.647-1.854-.014-.246-.218-.442-.465-.436-.253.045-.444.196-.445.443-.002.135.048,1.357,2.072,2.624.083.051.173.07.262.066Z" fill="#c2c3e9"/>
    <path d="M681.967,768.424c.185-.008.354-.126.416-.31.079-.239-.051-.496-.29-.579-1.224-.405-2.251-1.551-2.26-1.563-.17-.186-.456-.205-.646-.039-.186.17-.205.456-.04.646.049.052,1.197,1.336,2.657,1.824.054.017.109.023.163.021Z" fill="#c2c3e9"/>
    <path d="M680.129,771.304c.158-.006.305-.094.384-.239.118-.225.033-.499-.187-.617-1.696-.895-2.307-2.051-2.315-2.062-.114-.223-.387-.32-.61-.195-.227.114-.316.388-.203.611.03.056.733,1.413,2.698,2.451.075.04.156.055.234.052Z" fill="#c2c3e9"/>
    <path d="M676.245,772.876c.127-.005.249-.06.333-.164.162-.196.134-.484-.061-.642-1.441-1.184-1.392-2.042-1.393-2.054.017-.244-.162-.468-.406-.493-.241-.032-.465.139-.498.383-.021.136-.13,1.352,1.715,2.866.092.073.201.107.309.103Z" fill="#c2c3e9"/>
    <path d="M617.159,577.49l.351-.107c-1.506-5.005-1.515-8.709-1.517-8.747h-.363c-.002.038.005,3.792,1.529,8.854Z" fill="#e86b58"/>
    <path d="M614.375,574.058l.36-.069c-.735-3.991-.781-6.894-.782-6.926l-.362.007c-.003.027.044,2.962.785,6.987Z" fill="#e86b58"/>
    <path d="M612.073,563.927c1.065-1.962,1.142-3.018,1.144-3.061l-.364-.024c0,.011-.081,1.03-1.103,2.912l.324.172Z" fill="#e86b58"/>
  </g>
  <g>
    <path d="M848.753,638.021s.297,10.826,1.038,22.505c.556,8.601,1.372,17.648,2.522,23.098,2.743,12.791,6.451,81.75,6.451,81.75h9.157c11.234-41.19,10.196-93.021,10.196-94.541,0-.964.705-7.6,1.743-14.867.593-4.041,1.297-8.268,2.002-11.827l-33.108-6.117Z" fill="#ffa190"/>
    <path d="M808.675,638.021s.297,11.085,1.075,22.875c.557,8.49,1.409,17.351,2.521,22.727,2.707,12.791,6.452,81.75,6.452,81.75h9.157c11.197-41.19,10.196-93.021,10.196-94.541,0-.704.407-4.486,1.001-9.269.667-5.413,1.631-12.16,2.706-17.425l-33.108-6.117Z" fill="#ffa190"/>
    <path d="M870.19,787.35s4.686-27.957-3.682-30.497c-8.368-2.54-6.559,9.55-16.278,15.037-16.982,9.588-14.03,15.46-14.03,15.46h33.991Z" fill="#3e2a57"/>
    <path d="M830.972,787.35s4.685-27.957-3.683-30.497c-8.368-2.54-7.345,9.15-16.694,15.249-17.12,11.168-12.45,15.249-12.45,15.249h32.827Z" fill="#3e2a57"/>
    <path d="M993.295,552.083c18.264,24.043,17.069,63.081,10.849,66.381-5.99,3.178-28.569-13.253-28.569-13.253l17.721-53.128Z" fill="#69d0fb"/>
    <path d="M914.816,545.076s2.861,9.267,2.891,13.519c.081,11.522-5.271,9.306-6.972,8.267-1.701-1.039-2.041-1.549-3.571-2.059-1.53-.51-5.612-2.041-6.462-2.891-.522-.523.161-4.197.881-5.084.397-.489.318-2.344.439-2.492.651-.788,1.061-.247,1.061-.247,0,0-.595-5.016,1.616-7.737,2.211-2.721,10.118-1.276,10.118-1.276Z" fill="#ffa190"/>
    <path d="M894.073,397.546c28.592,29.465,26.585,118.508,25.338,144.578-.198,4.145-3.692,7.492-8.162,7.828h0c-4.485.338-8.531-2.475-9.432-6.556-2.375-10.757-6.841-31.94-9.723-51.501-4.081-27.697,1.978-94.349,1.978-94.349Z" fill="#3e2a57"/>
    <polygon points="858.066 375.137 854.709 359.139 833.694 359.139 832.235 377.906 858.066 375.137" fill="#ffa190"/>
    <path d="M849.869,369.907c19.756-3.642,19.776-50.247,9.656-57.802-8.294-6.191-33.111-1.508-37.749,10.312-3.405,8.679-9.486,54.418,28.093,47.49Z" fill="#ffa190"/>
    <path d="M812.29,484.464s-22.463,30.166-34.226,10.779c-6.509-10.727,11.657-88.277,17.938-95.648,6.281-7.371,12.115,42.889,11.378,49.517-.736,6.628,4.91,35.352,4.91,35.352Z" fill="#3e2a57"/>
    <path d="M895.89,642.109s16.291-55.207-14.039-140.665c-19.024-53.605-56.555-52.262-74.88-.869-27.919,78.303-16.479,142.941-16.479,142.941,23.829,8.13,87.317,6.77,105.398-1.406Z" fill="#fad45c"/>
    <path d="M890.065,536.685c5.798-1.371,9.771-6.653,9.375-12.598-2.272-34.204-2.967-117.864-4.369-124.492-1.559-7.365-29.399-20.216-50.044-19.442-26.575.996-48.24,16.987-48.24,18.951,0,5.698-5.919,93.339-7.944,123.156-.411,6.046,3.699,11.367,9.603,12.734,26.379,6.107,66.632,7.602,91.62,1.692Z" fill="#3e2a57"/>
    <path d="M856.501,302.154c22.282,11.054,24.432,61.252,23.576,84.627-.855,23.374-65.651,23.879-59.569-5.874,9.346-45.719,1.268-46.272,1.268-46.272,0,0-7.619-5.612-5.579-17.176,3.052-17.298,26.245-22.279,40.303-15.305Z" fill="#aa0062"/>
    <path d="M882.335,620.019c.004-.439.301-44.424-6.682-80.327l-.948.185c6.967,35.807,6.67,79.695,6.666,80.134l.964.007Z" fill="#fdeebf"/>
    <path d="M845.048,602.225c.004-.208.47-21.105-.351-61.188l-.964.023c.821,40.055.355,60.937.351,61.142l.964.023Z" fill="#fdeebf"/>
    <path d="M809.172,613.565c.011-.509,1.269-51.302,6.3-75.133l-.941-.201c-5.051,23.92-6.311,74.798-6.323,75.311l.964.023Z" fill="#fdeebf"/>
    <path d="M790.834,499.984c2.406-30.177,7.052-87.671,7.407-89.26l-.941-.208c-.459,2.047-7.144,85.825-7.429,89.391l.964.077Z" fill="#5d4c72"/>
    <polygon points="974.97 545.571 975.752 532.84 957.484 534.471 955.362 546.758 974.97 545.571" fill="#ffa190"/>
    <path d="M968.41,540.839c2.703-.488,5.431-2.091,7.732-4.484,8.793-9.145,6.56-32.128.456-36.685-6.137-4.581-22.431-4.193-25.862,4.553-1.725,4.395-4.527,22.875,2.226,32.596,3.115,4.485,7.222,5.505,15.449,4.02Z" fill="#ffa190"/>
    <path d="M976.846,788.468v3.87c0,.611.311,1.166.83,1.439,1.04.546,3.086,1.241,6.299.757,4.949-.745,7.317-2.516,11.028-3.778,3.712-1.263,4.537-2.815,4.537-2.815,0,0,.725-3.016-.551-3.868-1.276-.852-22.143,4.396-22.143,4.396Z" fill="#786a8a"/>
    <path d="M943.72,788.054v3.87c0,.611-.311,1.166-.83,1.439-1.04.547-3.085,1.241-6.299.757-4.949-.745-7.317-2.516-11.029-3.779-3.712-1.263-4.536-2.815-4.536-2.815,0,0-.725-3.016.551-3.868,1.276-.852,22.143,4.396,22.143,4.396Z" fill="#786a8a"/>
    <path d="M943.686,778.697s.079,7.949,0,9.771-5.106,2.732-8.955,1.159c-3.849-1.573-12.482-3.178-13.032-4.172-.55-.993-.236-3.892,3.928-4.471,4.163-.58,3.29-3.446,4.783-3.943l1.492-.497s11.755-1.884,11.783,2.153Z" fill="#3e2a57"/>
    <path d="M976.846,778.697s-.079,7.949,0,9.771c.079,1.822,5.106,2.732,8.955,1.159,3.849-1.573,12.482-3.178,13.032-4.172.55-.993.236-3.892-3.928-4.471-4.164-.58-3.291-3.446-4.783-3.943l-1.493-.497s-11.755-1.884-11.783,2.153Z" fill="#3e2a57"/>
    <path d="M987.782,772.202l-.029,6.148s-.295,1.149-4.242,1.149-5.715-1.739-5.715-1.739v-5.806l9.986.248Z" fill="#ff8d71"/>
    <path d="M943.941,772.332l-.943,6.396s-.294,1.149-4.242,1.149-5.715-1.739-5.715-1.739l.774-6.809,10.125,1.003Z" fill="#ff8d71"/>
    <path d="M943.453,775.356c-3.766,1.06-7.228.715-10.338-.528-1.027-.41-1.645-1.448-1.633-2.554.096-8.801.515-47.209.615-52.925.162-9.277,2.488-48.339,3.31-56.14,1.115-10.575.784-17.575.784-17.575,21.577-8.334,43.058-12.712,57.734-.383.799,14.313-4.183,112.928-4.908,127.118-.055,1.073-.638,2.081-1.619,2.521-3.113,1.396-6.481,1.295-10.078-.156-.933-.376-1.591-1.232-1.784-2.219-1.314-6.714-5.679-33.345-6.403-42.806-.883-11.543-5.551-43.584-5.551-43.584,0,0-7.574,35.496-8.199,39.147-2.35,13.725-8.498,41.219-10.032,48.025-.22.975-.937,1.789-1.899,2.06Z" fill="#7594ad"/>
    <path d="M963.857,686.211c.135-.428,3.208-10.248,3.663-12.859,1.257-.169,7.507-1.295,16.467-7.696l-.332-.463c-9.697,6.925-16.344,7.611-16.409,7.615l-.224.023-.031.223c-.297,2.167-3.647,12.878-3.682,12.986l.548.17Z" fill="#1f517a"/>
    <path d="M931.023,651.954c-.255,1.971,3.175,2.263,5.036,2.883,5.694,1.935,22.993,4.38,37.629,3.613,17.555-.876,24.489-5.584,24.489-5.584,0,0,1.424-10.183,2.445-24.417.985-14.234,1.569-32.519-.109-48.578-1.168-10.949-3.358-20.876-7.227-27.774-7.956-14.27-51.461-10.913-55.84,2.263-4.38,13.103-1.752,62.884-6.424,97.593Z" fill="#93ddfc"/>
    <path d="M975.853,538.378c5.326-3.684,20.05-30.462,3.154-43.478-12.905-9.941-35.758-.969-31.172,12.6,4.587,13.57,11.302,42.44,28.018,30.877Z" fill="#d88ab7"/>
    <path d="M940.228,550.341c-17.039,17.759-20.217,54.583-20.217,54.583,0,0,3.307,16.299,9.459,13.131,6.152-3.168,15.548-28.096,16.681-44.875,1.134-16.779-5.924-22.839-5.924-22.839Z" fill="#93ddfc"/>
    <path d="M927.323,596.667c-8.843-11.047-12.915-25.471-12.915-25.471-4.742.186-7.947,1.294-9.061,3.656,0,0,10.437,46.099,22.794,43.548,8.418-1.738-.818-21.734-.818-21.734Z" fill="#93ddfc"/>
    <path d="M905.346,574.853s-3.309-4.92-4.512-6.842c-1.171-1.868-.428-7.698-.031-8.889.397-1.19,3.344-1.077,3.798,0,.453,1.077,3.684,7.142,5.725,6.689,2.041-.453,4.022-2.496,5.271-1.588l-1.19,6.973s-2.805,1.512-5.101,2.438c-2.045.824-3.96,1.219-3.96,1.219Z" fill="#ffa190"/>
    <path d="M841.281,447.664l29.958-1.014.239-.524c.143-.316,14.478-32.171,15.002-55.235l-1.85-.039c-.482,21.071-12.754,49.768-14.609,53.986l-27.698.937-32.834-55.802-1.596.941,33.389,56.75Z" fill="#6994da"/>
    <path d="M819.415,480.795c0,27.718,15.133,32.201,33.799,32.201s33.8-4.483,33.8-32.201-15.133-50.188-33.8-50.188-33.799,22.47-33.799,50.188Z" fill="#3870cd"/>
    <path d="M821.54,474.173c0,27.718,15.133,32.201,33.799,32.201s33.8-4.483,33.8-32.201-15.133-50.188-33.8-50.188-33.799,22.47-33.799,50.188Z" fill="#6994da"/>
    <path d="M843.506,424.789c0-7.557,5.56-13.703,12.391-13.703s12.396,6.146,12.396,13.703-5.56,13.703-12.396,13.703-12.391-6.146-12.391-13.703ZM845.356,424.789c0,6.535,4.731,11.852,10.541,11.852s10.545-5.317,10.545-11.852-4.731-11.852-10.545-11.852-10.541,5.317-10.541,11.852Z" fill="#3870cd"/>
    <polygon points="899.816 509.041 900.703 507.414 875.622 493.711 874.735 495.338 899.816 509.041" fill="#6994da"/>
    <rect x="789.007" y="501" width="51.226" height="1.854" transform="translate(-98.432 215.792) rotate(-14.239)" fill="#6994da"/>
    <path d="M899.457,528.353c4.515-16.282-2.857-113.635-3.173-117.772l-.964.077c.077,1.01,7.676,101.316,3.212,117.44l.925.255Z" fill="#5d4c72"/>
    <path d="M855.535,465.28c7.831,0,16.988-1.033,26.492-4.26l-1.195-3.509c-24.603,8.359-47.505,1.072-47.736.998l-1.153,3.524c.621.201,10.148,3.247,23.592,3.247Z" fill="#3870cd"/>
    <path d="M880.664,470.171c-22.354,6.325-47.325.764-47.325.764,0,0,2.399,26.598,25.625,24.694,23.226-1.904,21.699-25.457,21.699-25.457Z" fill="#3870cd"/>
    <path d="M934.315,612.832c11.162-27.232,13.132-50.612,13.152-50.843l-.925-.077c-.019.235-1.982,23.477-13.082,50.566l.856.355Z" fill="#69d0fb"/>
    <path d="M983.216,518.313c.143-.336,3.455-8.285-1.878-17.362l-.902.532c5.066,8.625,1.85,16.336,1.816,16.413l.964.417Z" fill="#cc66a1"/>
    <path d="M974.741,524.081c.031-.092.76-2.317,1.037-5.938l-1.041-.077c-.27,3.478-.983,5.664-.991,5.683l.995.331Z" fill="#cc66a1"/>
    <path d="M962.372,533.238l.679-.794c-.058-.05-5.653-4.92-6.127-12.658l-1.041.062c.501,8.193,6.246,13.182,6.489,13.39Z" fill="#cc66a1"/>
    <path d="M958.432,507.363c.015-.15.366-3.74-1.604-6.454l-.848.617c1.735,2.383,1.415,5.694,1.411,5.729l1.041.108Z" fill="#cc66a1"/>
    <path d="M971.714,504.957c.035-.262.786-6.412-4.075-10.121l-.633.833c4.372,3.335,3.678,9.091,3.675,9.149l1.033.139Z" fill="#cc66a1"/>
    <path d="M973.152,535.328c.1-.07,2.46-1.693,3.355-4.226l-.987-.347c-.783,2.209-2.934,3.693-2.954,3.709l.586.864Z" fill="#cc66a1"/>
    <path d="M874.188,387.532c1.299-11.898.015-30.648.004-30.833l-.925.062c.012.189,1.288,18.854.004,30.671l.918.1Z" fill="#b92e7e"/>
    <path d="M869.692,346.76l.925-.07c-.57-7.819-2.942-14.69-2.969-14.759l-.871.308c.023.066,2.356,6.824,2.915,14.52Z" fill="#b92e7e"/>
    <path d="M866.77,321.668l.887-.262c-1.816-6.103-4.353-8.533-4.461-8.633l-.633.678c.023.023,2.472,2.383,4.206,8.216Z" fill="#b92e7e"/>
    <path d="M853.896,312.052l.786-.49c-.139-.227-3.551-5.587-11.883-7.407l-.2.903c7.934,1.735,11.262,6.94,11.297,6.994Z" fill="#b92e7e"/>
    <path d="M840.752,320.635l.914-.154c-.035-.189-.859-4.708-7.572-7.306l-.332.864c6.188,2.394,6.982,6.554,6.99,6.597Z" fill="#b92e7e"/>
    <path d="M832.694,372.889c.023-.146,2.425-15.21,1.697-39.589l-.925.031c.725,24.278-1.662,39.261-1.689,39.412l.918.146Z" fill="#b92e7e"/>
    <path d="M851.552,395.664c.027-.116,2.784-11.578,1.974-31.045l-.925.039c.806,19.32-1.924,30.671-1.951,30.783l.902.224Z" fill="#b92e7e"/>
    <path d="M865.501,384.837c.035-.185.779-4.588.008-14.258l-.925.077c.76,9.527.015,13.976.008,14.019l.91.162Z" fill="#b92e7e"/>
    <path d="M857.605,355.011l.925-.046c-.004-.089-.49-9.08-5.938-24.502l-.871.309c5.394,15.28,5.88,24.151,5.883,24.24Z" fill="#b92e7e"/>
    <path d="M836.65,391.793c.031-.077,3.138-8.043,3.301-17.99l-.925-.015c-.158,9.77-3.208,17.589-3.239,17.666l.863.339Z" fill="#b92e7e"/>
    <path d="M829.047,324.517l.274-.887c-.039-.012-3.655-1.211-7.38-7.657l-.802.463c3.929,6.805,7.746,8.031,7.908,8.081Z" fill="#b92e7e"/>
    <path d="M846.316,348.067c.042-.158.995-3.917.007-8.752l-.91.185c.944,4.615.015,8.297.007,8.336l.895.231Z" fill="#b92e7e"/>
    <path d="M950.196,514.931c3.32-3.186,5.086,3.482,3.633,6.896-1.453,3.414-6.994-3.671-3.633-6.896Z" fill="#ffa190"/>
    <path d="M950.31,517.267c.333-2.218,2.007-1.573,2.23.222.222,1.795-.274,3.419-.889,2.821-.615-.598.156-1.591-.752-1.795-.838-.188-.691-.564-.588-1.248Z" fill="#f48979"/>
    <path d="M920.967,600.321l.925-.077c-.004-.039-.297-3.995,1.041-10.553l-.91-.185c-1.365,6.701-1.068,10.649-1.057,10.815Z" fill="#69d0fb"/>
    <path d="M902.256,560.674l.293-.223c-.096-.185-1.241-4.133-.262-6.285l-.332-.154c-1.021,2.244.139,6.443.301,6.662Z" fill="#e86b58"/>
    <path d="M900.244,561.268l.362-.023c-.158-2.294,1.246-4.341,1.261-4.361l-.301-.208c-.062.089-1.492,2.175-1.323,4.592Z" fill="#e86b58"/>
    <path d="M903.772,571.813c1.804,0,7.31-.351,11.42-4.345l-.255-.262c-4.831,4.7-11.671,4.23-11.736,4.23l-.031.362c.011,0,.227.015.601.015Z" fill="#e86b58"/>
    <path d="M902.538,570.552c1.797-2.021,5.17-3.031,5.201-3.042l-.1-.347c-.142.038-3.509,1.049-5.371,3.15l.27.239Z" fill="#e86b58"/>
    <path d="M901.547,568.983c.012-.019,1.207-1.912,3.59-3.212l-.177-.324c-2.468,1.349-3.671,3.262-3.721,3.343l.308.193Z" fill="#e86b58"/>
    <path d="M900.572,566.935c1.885-3.397,4.303-7.368,4.326-7.406l.054-.089-.046-.092c-.011-.023-1.334-2.63-1.642-5.279l-.362.039c.281,2.437,1.396,4.823,1.635,5.317-.362.598-2.548,4.206-4.28,7.333l.316.177Z" fill="#e86b58"/>
    <rect x="836.199" y="787.35" width="33.991" height="3.083" transform="translate(1706.3895 1577.7834) rotate(-180)" fill="#786a8a"/>
    <rect x="798.253" y="787.35" width="32.74" height="3.083" transform="translate(1629.2456 1577.7834) rotate(-180)" fill="#786a8a"/>
    <g>
      <path d="M818.525,763.018c-.258-.015-6.339-.451-8.128-2.53-.393-.455-.57-.968-.528-1.515.146-1.774,1.67-3.886,3.493-4.052,1.635-.174,3.89,1.045,5.633,7.522l.166.617-.636-.042ZM813.447,755.831c-1.365.123-2.556,1.831-2.668,3.215-.023.301.077.578.308.848,1.137,1.318,4.877,1.955,6.852,2.155-1.161-3.983-2.718-6.227-4.334-6.227-.054,0-.108.004-.158.008Z" fill="#786a8a"/>
      <path d="M813.413,765.404c3.061,0,5.359-2.406,5.475-2.53l-.663-.625c-.031.035-3.084,3.22-6.531,1.928l-.316.856c.702.262,1.388.37,2.036.37Z" fill="#786a8a"/>
      <path d="M859.39,763.018c-.258-.015-6.339-.451-8.128-2.53-.393-.455-.57-.968-.528-1.515.146-1.774,1.67-3.886,3.493-4.052.085-.008.166-.011.251-.011,1.588,0,3.728,1.384,5.382,7.534l.166.617-.636-.042ZM854.313,755.831c-1.365.123-2.556,1.831-2.668,3.215-.023.301.077.578.308.848,1.137,1.318,4.878,1.955,6.852,2.155-1.161-3.983-2.718-6.227-4.334-6.227-.054,0-.108.004-.158.008Z" fill="#786a8a"/>
      <path d="M854.278,765.404c3.061,0,5.359-2.406,5.475-2.53l-.663-.625c-.031.035-3.084,3.22-6.531,1.928l-.316.856c.702.262,1.388.37,2.036.37Z" fill="#786a8a"/>
      <polygon points="858.353 769.676 858.908 768.951 855.878 766.638 855.323 767.363 858.353 769.676" fill="#786a8a"/>
      <polygon points="854.96 772.942 855.647 772.341 853.283 769.661 852.597 770.262 854.96 772.942" fill="#786a8a"/>
      <polygon points="850.33 775.201 851.155 774.808 849.871 772.136 849.046 772.53 850.33 775.201" fill="#786a8a"/>
      <rect x="845.567" y="774.615" width=".908" height="1.863" transform="translate(-239.151 401.88) rotate(-23.511)" fill="#786a8a"/>
      <polygon points="820.38 769.133 820.881 768.369 816.732 765.655 816.231 766.418 820.38 769.133" fill="#786a8a"/>
      <rect x="814.42" y="769.287" width=".916" height="4.488" transform="translate(-306.439 815.501) rotate(-45.68)" fill="#786a8a"/>
      <polygon points="811.146 775.784 811.924 775.313 810.162 772.406 809.384 772.876 811.146 775.784" fill="#786a8a"/>
      <polygon points="806.55 777.114 807.336 776.651 806.411 775.066 805.624 775.529 806.55 777.114" fill="#786a8a"/>
    </g>
  </g>
  <g>
    <path d="M1052.836,628.543s.074,3.114.185,7.934c.186,6.08.445,14.941.89,23.765.557,11.345,1.409,22.579,2.522,27.769,2.706,12.346,6.451,82.619,6.451,82.619h9.157c11.197-39.781,10.196-93.519,10.196-95.002,0-.779.482-9.565,1.224-19.056.519-6.674,1.149-13.681,1.854-18.575.222-1.372.408-2.558.631-3.559l-33.108-5.895Z" fill="#ffa190"/>
    <path d="M1012.796,628.543s.037,2.706.185,6.97c.111,5.746.407,14.385.816,23.135.556,11.864,1.409,23.95,2.595,29.363,2.706,12.346,6.451,82.619,6.451,82.619h9.157c11.197-39.781,10.158-93.519,10.158-95.002,0-.667.334-7.192.927-15.052.63-8.601,1.52-18.723,2.521-24.469.074-.593.186-1.149.297-1.668l-33.107-5.895Z" fill="#ffa190"/>
    <path d="M1074.238,793.726s4.746-28.883-3.622-31.336c-8.368-2.454-9.329,6.628-16.694,14.73-7.365,8.101-6.137,14.73-6.137,14.73,1.683,1.877,7.265,5.108,16.389,2.928,1.511-.361-.12-7.462,1.449-7.374,1.798.1,1.288,7.377,2.804,7.374,1.917-.004,3.845-.512,5.81-1.051Z" fill="#3e2a57"/>
    <path d="M1035.081,791.849s4.686-27.006-3.682-29.46c-8.368-2.454-9.329,6.628-16.694,14.73-7.365,8.101-6.137,14.73-6.137,14.73,4.724,1.286,9.499,2.162,14.309,1.871,5.956-.36,3.818-7.691,5.231-7.847,1.413-.156,1.827,7.199,3.25,6.906,1.237-.256,2.479-.565,3.724-.93Z" fill="#3e2a57"/>
    <polygon points="1062.175 382.557 1058.818 366.559 1037.803 366.559 1036.343 385.326 1062.175 382.557" fill="#ffa190"/>
    <path d="M1053.978,377.327c19.77-3.569,19.777-50.247,9.656-57.802-8.294-6.191-30.315-5.667-34.952,6.154-3.405,8.679-9.924,58.007,25.296,51.649Z" fill="#ffa190"/>
    <path d="M1082.891,491.884s27.987,2.209,34.37-8.593c6.383-10.802-12.382-70.327-18.663-77.698-6.281-7.371-11.533,44.311-10.796,50.939.736,6.629-4.91,35.352-4.91,35.352Z" fill="#835090"/>
    <path d="M1018.701,499.372s-21.827,3.61-31.744-13.604c-6.263-10.872,6.872-71.382,13.153-78.753,6.281-7.371,12.115,42.889,11.378,49.517-.737,6.629,7.212,42.84,7.212,42.84Z" fill="#835090"/>
    <path d="M1000.91,572.185c0,32.373,4.416,73.14,4.416,73.14,30.876,6.277,58.104,5.876,86.17-.767,0,0,9.562-58.395,7.336-81.242-1.205-12.664-4.489-24.088-7.518-32.227-2.044-5.438-3.686-10.986-5-16.643-.766-3.211-1.423-6.459-1.971-9.708-.073-.402-.146-.803-.219-1.205-9.051-55.694-55.111-53.431-66.716-1.168-.073.402-.183.803-.256,1.205-.839,4.015-1.788,7.993-2.883,11.935-1.424,5.219-3.139,10.329-5.219,15.292-3.868,9.27-8.139,23.577-8.139,41.387Z" fill="#94be70"/>
    <path d="M1014.268,515.505c11.752,3.321,40.402,9.161,72.045-1.059-.766-3.211-1.423-6.459-1.971-9.708l-66.936-2.372c-.073.402-.183.803-.256,1.205-.839,4.015-1.788,7.993-2.883,11.935Z" fill="#7a4488"/>
    <path d="M1000.91,406.525c0,6.861,5.876,100.075,5.876,100.075,20.255,6.825,39.234,9.233,57.008,7.19,9.672-1.058,18.979-3.467,27.921-7.19-.146-1.314-.292-2.774-.365-4.343-1.277-27.008,9.307-88.286,7.847-95.257-1.569-7.336-29.416-20.183-50.074-19.416-26.569.985-48.212,16.971-48.212,18.942Z" fill="#835090"/>
    <path d="M1091.837,492.076c2.918-33.898,7.777-79.228,7.823-79.683l-.956-.1c-.05.451-4.908,45.792-7.831,79.698l.964.085Z" fill="#6a2d79"/>
    <path d="M1006.829,499.61c.004-.567.289-56.874-5.463-84.718l-.94.193c5.729,27.748,5.444,83.955,5.44,84.518l.964.008Z" fill="#6a2d79"/>
    <path d="M1003.768,433.652c.27-.088,27.586-8.818,93.47-2.722l.093-.956c-66.154-6.134-93.594,2.672-93.864,2.761l.3.918Z" fill="#6a2d79"/>
    <path d="M1052.761,428.054c.008-.258.636-25.986-3.158-40.599l-.933.239c3.759,14.482,3.134,40.079,3.127,40.337l.964.023Z" fill="#7e68be"/>
    <path d="M1060.609,309.574c22.282,11.054,8.503,46.695,8.503,46.695,0,0,14.634,22.874,13.779,46.249-.855,23.374-28.574,44.156-28.574,44.156,0,0-33.95-18.571-31.515-48.841,2.435-30.27,11.413-41.076,11.413-41.076l-8.33-14.702s-9.205-4.951-5.579-17.176c4.996-16.839,26.245-22.279,40.303-15.305Z" fill="#fce7a3"/>
    <path d="M1050.748,527.84c11.863,0,25.026-1.681,37.283-6.898l-.362-.856c-33.863,14.42-74.786,1.546-75.199,1.411l-.285.879c.266.088,17.335,5.463,38.563,5.463Z" fill="#77ac4a"/>
    <path d="M1065.094,354.953c7.171-19.243.717-36.046.652-36.212l-.864.34c.066.166,6.389,16.648-.659,35.548l.871.324Z" fill="#fbde82"/>
    <path d="M1054.156,336.122c.116-.636,2.73-15.615-5.752-23.06l-.609.694c8.085,7.102,5.479,22.05,5.452,22.196l.91.17Z" fill="#fbde82"/>
    <path d="M1039.239,353.723l.786-.486c-.031-.054-3.381-5.548-3.855-11.952l-.925.069c.494,6.636,3.852,12.137,3.994,12.369Z" fill="#fbde82"/>
    <path d="M1043.785,428.575l.856-.362c-.139-.324-13.707-32.877-3.262-61.157l-.871-.324c-10.576,28.632,3.138,61.516,3.277,61.843Z" fill="#fbde82"/>
    <path d="M1072.077,419.167c.069-.1,6.936-10.51,3.505-28.713l-.91.17c3.354,17.801-3.296,27.926-3.366,28.026l.771.517Z" fill="#fbde82"/>
    <path d="M1057.916,419.657c.038-.189.991-4.735.663-13.398l-.925.039c.32,8.529-.636,13.12-.648,13.167l.91.193Z" fill="#fbde82"/>
    <path d="M1060.106,374.616l.925-.066c-.007-.1-.204-2.456-3.161-7.881l-.818.447c2.842,5.197,3.054,7.476,3.054,7.499Z" fill="#fbde82"/>
    <path d="M1036.78,616.784c.112-.17,11.308-17.25,39.026-30.555l-.401-.833c-27.972,13.425-39.292,30.713-39.404,30.887l.779.501Z" fill="#77ac4a"/>
    <path d="M1039.737,624.406c.027-.034,2.934-3.562,6.512-7.565l-.694-.617c-3.586,4.018-6.504,7.557-6.535,7.595l.717.586Z" fill="#77ac4a"/>
    <path d="M1051.284,788.564c2.795,0,6.732-.879,9.361-5.166,2.294-3.736,5.051-6.05,7.966-6.694,2.267-.49,4.538,0,6.766,1.481l.401-.609c-2.36-1.569-4.904-2.113-7.322-1.584-3.119.686-6.034,3.115-8.436,7.025-4.145,6.766-11.794,4.446-11.875,4.422l-.216.694c.031.012,1.419.432,3.354.432Z" fill="#55436c"/>
    <path d="M1013.962,788.11c2.888,0,6.265-.833,7.973-4.253l.532-1.076c2.811-5.687,4.195-8.525,13.853-7.588l.069-.725c-10.14-1.002-11.709,2.19-14.578,7.989l-.532,1.076c-3.046,6.088-12.064,3.15-12.161,3.123l-.231.694c.046.015,2.344.76,5.074.76Z" fill="#55436c"/>
    <path d="M1057.025,792.332c2.267,0,4.924-.301,7.946-1.122l-.193-.702c-10.645,2.88-16.772-.968-16.833-1.006l-.401.609c.185.123,3.482,2.221,9.481,2.221Z" fill="#55436c"/>
    <path d="M1016.33,790.835c2.807,0,6.454-.409,11.096-1.623l-.185-.709c-13.394,3.52-18.353.093-18.399.058l-.432.59c.139.1,2.395,1.685,7.919,1.685Z" fill="#55436c"/>
    <path d="M1111.265,531.988s-4.169,53.286,1.647,54.909c12.671,3.537,29.677-32.002,29.677-32.002l-31.325-22.908Z" fill="#003967"/>
    <path d="M1040.838,442.657c7.08,8.613,9.27,12.153,11.131,13.139,1.679.876,3.54,47.628,11.825,57.994,9.672-1.058,18.979-3.467,27.921-7.19-.146-1.314-.292-2.774-.365-4.343-6.643-10.949-19.344-31.826-19.672-31.935-.401-.109-14.234-24.051-14.234-24.051l-16.606-3.613Z" fill="#6a2d79"/>
    <path d="M1208.713,390.614c32.946,41.956,42.072,94.11,39.749,109.639-2.154,14.398-41.154,37.752-41.154,36.732s-2.721-22.107-2.721-22.107c0,0,16.629-13.699,17.731-18.399.976-4.162-15.939-49.745-17.731-53.548-.807-1.714,4.126-52.316,4.126-52.316Z" fill="#24557d"/>
    <path d="M1048.259,443.38c-9.187-5.09-11.663-4.226-11.844-3.863-.149.298,2.412,1.558,5.026,3.607,2.039,1.598,4.802,4.427,5.506,4.299.704-.128,1.312-4.044,1.312-4.044Z" fill="#ffa190"/>
    <path d="M1047.907,439.213c-9.187-5.09-12.676-5.001-12.9-4.193-.08.288,3.566,2.342,6.082,3.937,2.188,1.387,4.482,4.097,5.186,3.969.704-.128,1.633-3.713,1.633-3.713Z" fill="#ffa190"/>
    <path d="M1048.259,441.421c-9.187-5.09-12.892-5.031-12.9-4.194-.002.192,3.566,2.343,6.082,3.937,2.188,1.387,4.481,4.097,5.186,3.969.704-.128,1.633-3.713,1.633-3.713Z" fill="#ffa190"/>
    <path d="M1066.047,445.562s-.792-8.003-2.04-9.59c-1.247-1.587-10.855-4.464-11.875-4.634-1.02-.17-.34,2.253,1.488,2.891,1.828.638,3.316,1.786,3.316,1.786,0,0-5.867.553-7.822-.255-1.956-.808-10.489-4.181-11.241-2.821-.107.194.43.736,3.105,2.593,2.03,1.409,4.182,3.416,4.267,3.969.085.553-.552,1.7-.34,2.593.212.893.34,3.401.723,4.421.383,1.021,5.782,3.055,7.652,3.911,1.871.857,2.296,2.381,2.296,2.381l10.472-7.245Z" fill="#ffa190"/>
    <path d="M1133.517,341.319c0,3.369,1.447,6.099,3.233,6.099s3.232-2.731,3.232-6.099-1.447-6.1-3.232-6.1-3.233,2.731-3.233,6.1Z" fill="#ffa190"/>
    <path d="M1183.96,341.319c0,3.369,1.447,6.099,3.232,6.099s3.233-2.731,3.233-6.099-1.447-6.1-3.233-6.1-3.232,2.731-3.232,6.1Z" fill="#ffa190"/>
    <polygon points="1177.228 380.65 1174.968 363.151 1150.57 363.151 1148.974 383.679 1177.228 380.65" fill="#ffa190"/>
    <path d="M1168.263,374.929c21.624-3.904,21.632-54.961,10.562-63.225-9.072-6.772-33.158-6.198-38.231,6.731-3.725,9.493-10.855,63.449,27.669,56.494Z" fill="#ffa190"/>
    <path d="M1182.785,790.448v6.454c0,1.019.518,1.945,1.384,2.4,1.734.911,5.146,2.069,10.505,1.262,8.254-1.243,12.202-4.196,18.393-6.302,6.19-2.106,7.566-4.696,7.566-4.696,0,0,1.209-5.029-.918-6.45s-36.93,7.332-36.93,7.332Z" fill="#b8cced"/>
    <path d="M1127.538,789.757v6.453c0,1.019-.518,1.945-1.384,2.4-1.734.911-5.146,2.069-10.505,1.262-8.254-1.243-12.202-4.196-18.393-6.301-6.191-2.106-7.566-4.696-7.566-4.696,0,0-1.209-5.029.918-6.45,2.128-1.421,36.93,7.332,36.93,7.332Z" fill="#b8cced"/>
    <path d="M1127.48,774.152s.131,13.257,0,16.296c-.131,3.038-8.516,4.557-14.936,1.933-6.42-2.624-20.816-5.301-21.733-6.958-.917-1.657-.393-6.491,6.551-7.457,6.943-.967,5.488-5.747,7.977-6.576l2.489-.829s19.604-3.142,19.652,3.59Z" fill="#6994da"/>
    <path d="M1182.785,774.152s-.131,13.257,0,16.296c.131,3.038,8.516,4.557,14.935,1.933,6.42-2.624,20.817-5.301,21.734-6.958.917-1.657.393-6.491-6.551-7.457-6.944-.967-5.488-5.747-7.977-6.576l-2.489-.829s-19.604-3.142-19.652,3.59Z" fill="#6994da"/>
    <path d="M1201.023,763.32l-.049,10.254s-.491,1.916-7.075,1.916-9.531-2.9-9.531-2.9v-9.684l16.655.414Z" fill="#ff8d71"/>
    <path d="M1127.906,763.537l-1.573,10.668s-.491,1.916-7.075,1.916-9.531-2.9-9.531-2.9l1.291-11.357,16.887,1.672Z" fill="#ff8d71"/>
    <path d="M1133.573,766.739c-8.446,3.183-24.049-.428-30.593-3.833,0,0,4.986-80.604,5.174-91.383.27-15.473,4.15-80.62,5.521-93.63,1.859-17.638,1.307-45.003,1.307-45.003,35.986-13.899,71.811-5.508,96.288,15.053,1.437,25.732-6.475,217.454-6.475,217.454-6.574,4.121-20.822,4.976-28.768,1.036,0,0-6.104-59.461-6.104-77.633s-9.259-72.689-9.259-72.689c0,0-12.632,59.2-13.674,65.288-4.493,26.245-13.418,85.339-13.418,85.339Z" fill="#93ddfc"/>
    <path d="M1161.121,616.256c.223-.717,5.348-17.092,6.111-21.444,2.093-.281,12.523-2.159,27.463-12.831l-.555-.779c-16.17,11.551-27.255,12.692-27.363,12.704l-.378.035-.054.374c-.494,3.62-6.077,21.475-6.135,21.656l.91.285Z" fill="#69d0fb"/>
    <path d="M1177.835,678.608c.062-.05,6.308-4.793,16.502-3.05l.162-.941c-10.645-1.785-16.984,3.031-17.25,3.235l.586.756Z" fill="#69d0fb"/>
    <path d="M1136.581,678.608l.586-.756c-.266-.209-6.604-5.032-17.25-3.235l.162.941c10.198-1.762,16.444,3,16.502,3.05Z" fill="#69d0fb"/>
    <path d="M1211.573,555.068s11.156-148.958-2.86-164.454c-17.657-19.522-84.328-16.218-91.66,5.761-8.258,24.755-5.788,135.613-5.788,135.613,0,0,45.111,65.154,78.181,63.484,29.275-1.479,22.128-40.404,22.128-40.404Z" fill="#24557d"/>
    <path d="M1115.309,476.103c9.8-17.162,5.692-85.563,5.692-85.563,0,0-15.918,10.432-36.726,80.771-.88,2.975-18.228-25.749-18.228-25.749,0,0-4.964-1.767-7.908.168-3.206,2.107-3.029,6.478-3.029,6.478,0,0,15.881,56.474,32.034,54.679,16.153-1.795,28.166-30.784,28.166-30.784Z" fill="#24557d"/>
    <path d="M1111.705,486.104c.937-3.335,1.839-6.524,2.703-9.577,7.753-27.386,12.434-43.919,12.835-62.333l-.91-.023c-.401,18.303-5.07,34.789-12.804,62.109-.863,3.053-1.766,6.242-2.702,9.577l.879.247Z" fill="#003967"/>
    <path d="M1082.587,482.448l.91-.077c-.004-.039-.312-4.172,1.222-10.961l-.887-.201c-1.573,6.94-1.261,11.065-1.245,11.239Z" fill="#1f517a"/>
    <path d="M1163.101,372.032c24.475-2.698,24.091-36.812,24.091-36.812,0,0,.91-4.075,3.233-9.123,2.323-5.048-2.516-7.186-2.516-7.186,0,0-.658-8.178-6.716-12.389-6.058-4.211-12.844-2.3-12.844-2.3,0,0-3.182-5.007-10.264-4.206-4.838.547-7.111,5.163-7.111,5.163,0,0-6.575-1.349-9.659,2.245-3.222,3.753-3.141,12.166-3.141,12.166,0,0-5.334,1.178-4.658,6.113.676,4.936,4.827,6.955,5.948,15.032,1.122,8.077,5.32,33.316,23.637,31.297Z" fill="#6a5b7e"/>
    <path d="M1215.396,470.882c1.083-41.709-1.153-56.623-1.176-56.769l-.902.139c.023.146,2.248,15.006,1.168,56.607l.91.023Z" fill="#25805d"/>
    <path d="M1177.627,325.08c.035-.058,3.308-5.714,10.102-5.714h.173l.015-.91c-.066-.004-.127-.004-.193-.004-7.337,0-10.857,6.119-10.892,6.18l.794.447Z" fill="#5d4c72"/>
    <path d="M1146.324,330.023c.035-.046,3.13-4.642-1.558-8.49l-.578.702c4.048,3.324,1.496,7.11,1.388,7.272l.748.517Z" fill="#5d4c72"/>
    <path d="M1164.984,313.556l.864-.293c-2.896-8.509-12.091-5.564-12.191-5.521l.285.864c.347-.112,8.44-2.695,11.042,4.951Z" fill="#5d4c72"/>
    <path d="M1164.962,336.057l.91-.039c-.008-.185-.223-4.607-4.511-6.666l-.394.825c3.779,1.812,3.987,5.714,3.995,5.88Z" fill="#5d4c72"/>
    <path d="M1148.579,350.932l.786-.459c-.062-.112-1.565-2.799.023-6.288l-.833-.378c-1.789,3.933-.054,6.994.023,7.125Z" fill="#5d4c72"/>
    <path d="M1175.799,354.995c.023-.047,2.236-4.592-1.234-7.974l-.64.656c2.992,2.911,1.137,6.747,1.057,6.909l.817.409Z" fill="#5d4c72"/>
    <path d="M1212.953,533.994c-41.542,2.332-52.921-8.939-45.649-51.583,7.729-45.327,45.649,51.583,45.649,51.583Z" fill="#028c7b"/>
    <path d="M1192.251,567.12c4.11,0,8.255-.552,12.376-1.804l-.262-.872c-34.365,10.441-70.576-28.643-70.938-29.04l-.671.617c.32.351,28.84,31.099,59.495,31.099Z" fill="#003967"/>
    <path d="M1188.149,541.674l.015-.91c-27.91-.486-44.559-7.225-44.724-7.291l-.347.841c.166.069,16.957,6.87,45.056,7.36Z" fill="#003967"/>
    <path d="M1217.033,509.082c-1.074,9.854-4.079,24.912-4.079,24.912,0,0-11.164-5.457-11.593-13.478-.429-8.021,15.672-12.315,15.672-12.315v.88Z" fill="#028c7b"/>
    <path d="M1172.373,510.213c21.242,28.103,44.672,18.905,52.811-9.854,1.205-4.307,1.679-10.62,1.533-18.139-.219-12.665-2.227-28.651-5.183-43.505-4.379-21.934-10.876-41.387-17.044-44.198-12.774-5.803-15.255-14.015-15.255-14.015,0,0-1.971-2.263-5.292-2.774-3.285-.475-6.168.693-6.168.693,23.505,28.066-27.007,103.177-5.401,131.791Z" fill="#2d9f91"/>
    <path d="M1185.476,482.694c9.598,15.73,35.949,10.73,41.241-.474-.219-12.665-2.227-28.651-5.183-43.505-4.416-16.679-10.146-31.971-14.051-33.468-17.008-6.496-32.008,61.132-22.007,77.447Z" fill="#028c7b"/>
    <path d="M1208.665,400.775c-17.017-6.488-31.994,61.161-22.011,77.477,9.983,16.316,37.892,10.313,41.757-1.713,3.864-12.027-11.797-72.733-19.746-75.764Z" fill="#6abbb1"/>
    <path d="M1225.493,499.154c-4.228.648-8.263,1.453-12.367,1.659-4.073.34-8.145.249-12.17-.164-8.085-.753-15.963-2.986-23.749-6.296,3.082,2.967,6.868,5.159,10.84,6.797,3.977,1.67,8.23,2.706,12.545,3.128,4.312.37,8.698.294,12.918-.655,4.246-.765,8.283-2.406,11.982-4.47Z" fill="#6abbb1"/>
    <path d="M1186.154,483.188c0,2.262,1.834,4.096,4.097,4.096s4.096-1.834,4.096-4.096-1.834-4.096-4.096-4.096-4.097,1.834-4.097,4.096Z" fill="#b9dfda"/>
    <path d="M1192.021,482.956c0-.483.805-7.729.805-7.729l-3.381,6.924,2.576.805Z" fill="#b9dfda"/>
    <path d="M1206.852,478.481c4.507,0,9.832-.848,15.873-3.254l-.339-.848c-19.868,7.912-31.731-1.38-31.851-1.473l-.574.709c.089.069,6.176,4.866,16.891,4.866Z" fill="#028c7b"/>
    <polygon points="1045.057 438.321 1045.397 437.674 1042.15 435.947 1041.811 436.594 1045.057 438.321" fill="#e86b58"/>
    <path d="M1044.487,441.286l.37-.632c-.062-.035-6.119-3.57-6.809-3.991l-.378.625c.69.424,6.57,3.852,6.816,3.998Z" fill="#e86b58"/>
    <path d="M1042.971,443.226l.432-.594c-2.51-1.824-4.665-3.582-4.684-3.597l-.463.563c.023.019,2.19,1.785,4.715,3.628Z" fill="#e86b58"/>
    <path d="M1106.843,764.429c.058-.563,5.883-56.361,4.549-76.575-.401-6.119-.698-13.919.193-16.34.158-.428.085-.617-.212-.929-.077-.084-.185-.2-.335-.381-.297-.359-.42-.663-.378-.925.092-.602,1.079-1.234,2.124-1.905.475-.305.98-.628,1.481-.991.27-.197,1.091-.794.983-1.596-.127-.952-1.45-1.454-2.845-1.982-.401-.15-.802-.3-1.161-.463-.995-3.327,4.708-55.709,8.826-90.428l.015-.139-.062-.127c-1.041-2.155-3.355-8.124-1.585-9.863l.143-.143c2.344-2.306,4.365-4.295,1.793-7.576-1.403-1.789-2.04-3.879-1.708-5.591.266-1.365,1.111-2.46,2.502-3.258l-.47-.825c-1.623.925-2.649,2.275-2.965,3.902-.393,2.009.297,4.326,1.893,6.358,2.043,2.614.628,4.006-1.712,6.311l-.146.142c-2.472,2.429.721,9.531,1.338,10.83-.227,1.924-2.776,23.523-5.066,44.956-4.873,45.546-3.936,45.978-3.32,46.259.409.189.879.366,1.345.544.818.312,2.186.829,2.24,1.218.015.112-.135.359-.601.698-.482.351-.972.667-1.43.96-1.284.825-2.395,1.535-2.552,2.56-.089.547.104,1.095.586,1.681.162.197.285.328.37.42-.748,2.248-.818,7.831-.231,16.683,1.326,20.134-4.492,75.854-4.55,76.413l.949.1Z" fill="#69d0fb"/>
    <path d="M1180.06,767.829l.948-.054c-.439-8.212-4.361-80.346-6.516-83.581-1.997-2.992-1.858-6.007.42-9.226,1.754-2.472.702-3.941-.517-5.645-.609-.848-1.299-1.808-1.789-3.069-1.465-3.771-8.71-58.45-8.783-59.002l-.949.124c.301,2.259,7.337,55.35,8.845,59.225.532,1.369,1.261,2.383,1.901,3.277,1.211,1.689,1.874,2.618.513,4.538-2.498,3.528-2.645,6.998-.435,10.31,1.523,2.282,4.638,50.947,6.362,83.103Z" fill="#69d0fb"/>
  </g>
  <g>
    <path d="M441.512,372.016s3.478-3.673,3.068-6.416c-.41-2.743-3.032-7.717-3.032-7.717,0,0-1.749.759-1.394,2.282.355,1.523.528,2.926.333,3.118-.194.193-1.794,1.554-2.267,1.273-.472-.282-2.528-4.167-2.692-4.98-.164-.812.445-6.947.418-7.984-.071-2.732-.77-3.486-1.276-3.488-.085,0-.71,4.158-1.365,5.632-.655,1.474-1.039,1.027-1.788,1.794-1.099,1.124-2.259,2.584-2.556,3.72-5.253,20.066,7.365,19.509,8.889,18.523,1.524-.986,3.661-5.756,3.661-5.756Z" fill="#ffa190"/>
    <path d="M431.811,359.002l.361.033c.181-2.122,1.047-4.819,1.056-4.846l-.343-.114c-.011.03-.893,2.764-1.075,4.927Z" fill="#e86b58"/>
    <path d="M430.141,358.838l.349.118c.527-1.523,1.198-3.364,1.198-3.364l-.345-.125s-.671,1.841-1.202,3.37Z" fill="#e86b58"/>
    <path d="M557.486,415.371c56.265,46.473,38.668,124.306,21.038,143.866-11.762,13.05-24.976,4.009-27.074-20.825-2.099-24.834,15.128-61.983,6.749-86.003-8.379-24.02-.713-37.037-.713-37.037Z" fill="#d073a9"/>
    <path d="M545.707,775.496c1.141,3.878.388,7.662,0,8.629-.388.966-3.77,2.093-9.325,1.368s-17.962-1.932-21.621-2.818c-3.659-.886-3.966-4.778-2.444-7.179,1.522-2.401,33.389,0,33.389,0Z" fill="#c6afcc"/>
    <path d="M508.848,774.378c1.141,3.879.388,7.662,0,8.629-.388.966-3.77,2.093-9.325,1.368-5.555-.724-20.32-2.075-23.979-2.961-3.659-.886-3.455-5.227-1.933-7.628,1.522-2.401,35.236.592,35.236.592Z" fill="#c6afcc"/>
    <path d="M557.603,641.479c-.961,8.331-3.226,25.665-3.226,27.076s5.323,35.585-8.11,86.84l-11.405-1.122s-3.348-61.869-5.862-73.715c-2.513-11.845-3.315-42.192-3.315-42.192l31.918,3.114Z" fill="#835090"/>
    <path d="M519.261,644.011c-1.885,9.175-2.768,25.862-2.768,27.273s7.136,36.415-6.402,84.942h-12.12s-3.531-63.823-6.045-75.668c-2.513-11.845-3.315-42.192-3.315-42.192l30.649,5.646Z" fill="#835090"/>
    <path d="M556.442,651.059s27.004-86.344-.107-139.134c-24.053-46.836-66.139-51.21-69.313-.804-5.894,93.631,2.011,138.234,2.011,138.234,8.928,3.046,18.984,5.241,28.655,5.657,0,0,5.108-28.442,6.418-28.433,1.66.013,2.266,27.942,2.266,27.942,10.98-.412,22.203.095,30.07-3.462Z" fill="#835090"/>
    <path d="M545.541,776.575s4.337-25.879-3.409-28.23c-7.746-2.351-5.35,10.412-15.068,13.92-17.756,6.409-14.536,14.31-14.536,14.31,13.14,1.854,31.264,4.277,33.013,0Z" fill="#3e2a57"/>
    <path d="M509.238,776.575s4.337-25.879-3.409-28.23c-7.746-2.351-5.466,11.467-15.453,14.115-21.001,5.569-16.774,13.183-16.774,13.183,3.043,1.879,31.226,4.702,35.636.932Z" fill="#3e2a57"/>
    <path d="M546.746,762.903c3.329-17.739,4.588-24.665,4.588-24.665,0,0-.84-4.303-8.081-4.512-7.241-.21-9.655,2.308-10.179,3.778-.525,1.469,1.679,16.581-2.099,23.297-3.778,6.716,15.771,2.103,15.771,2.103Z" fill="#3e2a57"/>
    <path d="M510.174,762.903c3.328-17.739,4.588-24.665,4.588-24.665,0,0-.839-4.303-8.081-4.512-7.241-.21-9.655,2.308-10.179,3.778-.525,1.469,1.679,16.581-2.099,23.297-3.778,6.716,15.771,2.103,15.771,2.103Z" fill="#3e2a57"/>
    <path d="M524.499,626.788c4.102-7.753,7.121-14.308,9.115-18.642,1.192-2.587,2.051-4.453,2.514-5.205,1.002-1.623,12.195-10.348,16.425-13.576l-.54-.709c-.629.478-15.353,11.721-16.641,13.814-.494.798-1.319,2.591-2.568,5.301-1.989,4.326-5.001,10.865-9.091,18.599l.786.416Z" fill="#6a2d79"/>
    <path d="M505.495,603.921c-7.337-.509-8.698-21.128-8.752-22.007l-.023-.343.324-.108c.073-.023,7.349-2.379,17.042-1.165,9.701,1.222,16.128,4.465,16.193,4.496l.413.212-.227.405c-7.295,12.874-17.447,18.538-24.182,18.538-.266,0-.528-.008-.787-.027ZM513.978,581.185c-8.343-1.049-14.817.594-16.321,1.026.212,2.73,1.812,20.4,7.9,20.824.243.015.49.023.744.023,6.396,0,16.054-5.409,23.148-17.67-1.565-.721-7.341-3.181-15.472-4.203Z" fill="#6a2d79"/>
    <path d="M565.793,604.781l.717-.532c-5.668-7.58-5.471-14.952-5.332-16.683h6.701v-.895h-7.488l-.054.382c-.054.355-1.226,8.79,5.456,17.728Z" fill="#6a2d79"/>
    <path d="M513.438,670.503l.385-.802c-7.827-3.763-12.064-1.832-12.249-1.747l.382.81c.042-.027,4.083-1.812,11.482,1.739Z" fill="#6a2d79"/>
    <path d="M538.511,671.509c.027-.031,3.073-2.934,11.686-3.223l-.031-.895c-9.014.305-12.157,3.358-12.288,3.485l.633.632Z" fill="#6a2d79"/>
    <path d="M535.014,761.043c.227,0,.424-.17.451-.401.031-.25-.146-.478-.397-.505-2.009-.243-3.196-1.353-3.208-1.365-.189-.166-.474-.162-.644.015-.173.185-.17.471.011.644.058.054,1.404,1.33,3.732,1.608.019.004.035.004.054.004Z" fill="#c6afcc"/>
    <path d="M535.014,757.503c.239,0,.439-.181.455-.424.019-.251-.173-.47-.424-.486-1.461-.1-2.533-.513-2.545-.517-.239-.096-.501.023-.59.258-.093.235.023.497.258.59.046.019,1.207.467,2.815.578h.031Z" fill="#c6afcc"/>
    <path d="M535.658,754.014c.251,0,.455-.204.455-.455s-.204-.455-.455-.455c-1.87,0-3.011-.401-3.023-.405-.231-.088-.497.039-.582.274-.085.235.035.497.274.582.05.019,1.288.459,3.331.459Z" fill="#c6afcc"/>
    <path d="M535.23,750.587c.146,0,.297,0,.443-.008.251-.008.451-.22.439-.47-.007-.251-.212-.482-.47-.439-1.454.05-3.073-.208-3.088-.212-.247-.046-.482.131-.524.378-.039.247.127.482.378.525.062.007,1.392.227,2.822.227Z" fill="#c6afcc"/>
    <path d="M531.748,763.962c.143,0,.282-.066.37-.189.146-.204.1-.49-.104-.636-1.824-1.311-2.036-2.395-2.036-2.402-.042-.247-.282-.413-.52-.378-.247.038-.417.266-.382.509.019.146.262,1.473,2.406,3.011.081.058.173.085.266.085Z" fill="#c6afcc"/>
    <path d="M527.888,765.739c.089,0,.177-.023.259-.077.208-.143.262-.428.119-.636-.86-1.253-1.342-2.973-1.345-2.988-.065-.243-.328-.39-.559-.32-.243.066-.386.316-.32.559.019.077.524,1.885,1.469,3.266.089.127.231.197.378.197Z" fill="#c6afcc"/>
    <path d="M499.55,760.222c.227,0,.424-.17.451-.401.031-.247-.146-.474-.397-.505-2.055-.254-3.84-1.492-3.86-1.503-.208-.135-.494-.1-.636.112-.143.208-.092.49.112.636.081.054,1.985,1.38,4.276,1.658.015.004.035.004.054.004Z" fill="#c6afcc"/>
    <path d="M499.832,756.678c.239,0,.439-.181.455-.424.019-.251-.173-.47-.424-.486-1.481-.104-3.586-.786-3.605-.79-.231-.085-.497.05-.575.289-.081.239.05.497.289.574.093.031,2.233.725,3.829.837h.031Z" fill="#c6afcc"/>
    <path d="M500.194,753.189c.251,0,.455-.204.455-.455s-.204-.455-.455-.455c-1.901,0-3.574-.413-3.59-.417-.266-.062-.49.093-.555.332-.062.247.088.494.332.555.073.015,1.793.44,3.813.44Z" fill="#c6afcc"/>
    <path d="M499.758,749.762c.15,0,.301,0,.451-.008.251-.008.451-.22.439-.47-.007-.247-.208-.439-.455-.439-.201-.023-.285.008-.428.008-1.357,0-2.661-.212-2.676-.216-.247-.035-.482.131-.524.378-.038.247.127.482.378.524.062.008,1.388.224,2.815.224Z" fill="#c6afcc"/>
    <path d="M496.74,763.962c.142,0,.281-.066.37-.189.146-.204.1-.49-.104-.636-1.92-1.38-2.676-2.784-2.684-2.799-.116-.227-.393-.308-.617-.193-.223.119-.308.393-.193.617.035.062.848,1.6,2.961,3.115.081.058.173.085.266.085Z" fill="#c6afcc"/>
    <path d="M492.587,765.824c.089,0,.177-.023.258-.077.209-.143.263-.428.12-.636-.864-1.265-1.507-3.204-1.515-3.223-.077-.239-.335-.37-.574-.289-.239.077-.37.336-.289.574.027.085.69,2.078,1.623,3.455.089.127.231.197.378.197Z" fill="#c6afcc"/>
    <path d="M546.147,782.208c2.15-8.227,2.07-13.219-.668-13.863-2.737-.644-5.591,10.547-11.41,11.029-5.819.483,12.078,2.833,12.078,2.833Z" fill="#c6afcc"/>
    <path d="M508.939,781.374c2.15-8.227,2.069-13.219-.668-13.863-2.737-.644-5.591,10.547-11.41,11.029-5.819.483,12.078,2.833,12.078,2.833Z" fill="#c6afcc"/>
    <polygon points="537.623 416.793 534.515 392.212 515.063 392.212 513.712 421.047 537.623 416.793" fill="#ffa190"/>
    <path d="M530.035,402.18c18.288-3.371,18.306-46.511,8.938-53.505-7.677-5.731-30.65-1.396-34.943,9.545-3.152,8.034-8.781,50.372,26.005,43.959Z" fill="#ffa190"/>
    <path d="M536.846,345.803c20.629,9.074,22.16,49.957,8.605,55.057-8.023,3.019-31.427,6.797-43.81-.34-12.383-7.136-5.779-72.745,35.205-54.717Z" fill="#6a5b7e"/>
    <path d="M528.878,361.224c27.764-3.617,38.668-20.855,21.933-30.063-22.925-12.615-21.933,30.063-21.933,30.063Z" fill="#6a5b7e"/>
    <path d="M535.639,353.069c4.796-13.861,5.062-19.744,5.07-19.991l-.91-.031c-.004.058-.281,6.026-5.023,19.721l.863.301Z" fill="#5d4c72"/>
    <path d="M539.475,351.207c.023-.046,2.537-4.546,10.113-11.806l-.632-.655c-7.692,7.368-10.179,11.837-10.283,12.022l.802.44Z" fill="#5d4c72"/>
    <path d="M542.259,352.803s.752-.324,7.194-3.111l-.362-.841c-6.439,2.788-7.194,3.112-7.194,3.112l.362.841Z" fill="#5d4c72"/>
    <path d="M510.466,392.438c5.429,0,17.628-2.205,23.993-20.801l-.864-.293c-8.035,23.473-24.953,20.149-25.663,19.987l-.193.894c.042.008,1.072.212,2.726.212Z" fill="#5d4c72"/>
    <path d="M527.912,388.787c.239-.062,2.494-.867,7.696-10.641l-.802-.432c-4.962,9.323-7.052,10.164-7.141,10.194l.247.879Z" fill="#5d4c72"/>
    <path d="M534.771,391.914c1.623,0,11.378-.409,17.462-9.92l-.771-.494c-6.331,9.898-16.81,9.523-16.876,9.5l-.046.91c.007,0,.088.004.231.004Z" fill="#5d4c72"/>
    <path d="M500.002,380.405l.91-.008c0-.116-.05-11.505,4.468-21.387l-.833-.378c-4.603,10.071-4.549,21.657-4.546,21.773Z" fill="#5d4c72"/>
    <path d="M507.389,381.369l.895-.169c-.008-.039-.694-3.983,1.488-10.534l-.863-.285c-2.267,6.794-1.55,10.819-1.519,10.988Z" fill="#5d4c72"/>
    <path d="M547.785,577.926c66.248-5.339,27.546-156.35,7.976-163.369-17.033-6.108-57.088-8.676-62.965,2.063-5.877,10.74-31.197,165.302-8.253,152.456,22.944-12.847,27.949,11.694,63.242,8.85Z" fill="#d073a9"/>
    <path d="M517.001,511.632c.185-.189,18.553-19.1,38.444-30.694l-.447-.771c-20.003,11.655-38.451,30.655-38.636,30.848l.64.617Z" fill="#c2478d"/>
    <path d="M505.693,529.53c.274-.038,6.932-1.041,24.298-10.464l-.424-.786c-17.173,9.319-23.931,10.356-23.997,10.364l.123.887Z" fill="#c2478d"/>
    <path d="M486.124,551.037c3.733,33.736,2.894,46.539-7.181,51.367-10.074,4.827-23.927,0-23.297-16.581.63-16.581,2.282-36.94,12.986-40.009,13.02-3.734,17.492,5.223,17.492,5.223Z" fill="#94be70"/>
    <path d="M556.521,570.391c9.045,0,14.315-2.637,14.597-2.78l.135-.108c18.536-20.475,13.656-55.919,12.402-74.804-.131-2.009-5.777-45.041-15.39-60.519l-.779.432c8.683,15.758,14.391,58.95,14.563,60.963,2.775,32.568,2.953,56.354-11.413,73.279-.887.417-9.373,4.218-22.671,1.882-6.963-1.218-12.94-3.663-18.715-6.026-6.227-2.548-12.11-4.954-19.077-5.93-13.483-1.882-23.299,1.411-23.396,1.446l.285.841c.1-.031,9.716-3.25,22.987-1.4,6.855.956,12.688,3.343,18.861,5.868,5.822,2.383,11.84,4.846,18.9,6.08,3.196.559,6.107.775,8.71.775Z" fill="#c2478d"/>
    <path d="M465.572,603.618c6.343-1.573,16.355-9.349,12.176-43.733l-.948.116c4.095,33.655-5.421,41.193-11.459,42.693l.231.925Z" fill="#b5d29c"/>
    <path d="M550.017,412.94c-32.322,104.732-74.222,147.001-74.222,147.001l-2.912-5.313s27.223-37.936,46.862-79.643c20.359-43.236,20.792-64.083,20.792-64.083,3.873-.073,5.139.797,9.481,2.038Z" fill="#94be70"/>
    <path d="M482.436,469.723c-9.321-.913-18.708-1.839-27.692-4.485-8.984-2.646-17.644-7.149-23.806-14.202-6.227-7.126-9.531-16.427-10.908-25.789-1.377-9.362-.958-18.885-.536-28.338.212-4.749.447-9.605,2.227-14.013,1.78-4.408,5.433-8.36,10.119-9.162,6.261-1.072,12.235,3.799,14.937,9.548,2.701,5.749,3.027,12.275,4.045,18.544,1.018,6.27,3.05,12.855,8.048,16.774,6.578,5.159,16.116,4.047,23.954,1.139,7.838-2.908,13.811-8.386,22.121-9.301,2.861-.315,7.457.902,9.675,2.736,3.059,2.529,3.247,7.079,3.073,11.044-.477,10.877-1.92,22.088-7.494,31.44-5.574,9.352-16.177,16.42-26.962,14.928" fill="#d073a9"/>
  </g>
  <g>
    <g>
      <path d="M1228.11,694.111c4.773,0,9.531-1.23,13.776-3.755,11.089-6.601,15.175-19.698,10.93-35.031-1.828-6.601-4.133-13.996-6.57-21.823-7.703-24.722-16.436-52.744-11.258-60.671.767-1.176,1.828-1.828,3.239-1.985,5.055-.567,14.169-.848,18.526,3.566,2.001,2.04,2.78,4.932,2.31,8.602-.949,7.407-7.561,11.991-13.144,11.991-1.562,0-5.255-.443-5.78-4.553-1.153-8.945,1.018-11.312,1.037-11.335l-1.299-1.376c-.301.274-2.899,2.98-1.62,12.951.494,3.828,3.428,6.207,7.661,6.207,6.384,0,13.942-5.216,15.025-13.645.548-4.276-.409-7.696-2.841-10.167-4.92-4.993-14.709-4.719-20.084-4.122-1.982.224-3.536,1.176-4.619,2.83-5.664,8.675,2.826,35.922,11.038,62.271,2.433,7.815,4.731,15.195,6.55,21.769,4.006,14.458.239,26.757-10.071,32.896-9.889,5.887-22.794,4.203-31.396-4.087l-1.311,1.365c5.529,5.328,12.727,8.104,19.898,8.104Z" fill="#3870cd"/>
      <path d="M1237.221,576.271c1.001.556,4.115,2.261,4.671,3.93.556,1.668,4.004,2.892,6.785,3.115,2.817.222,6.71.445,8.379-.89,1.668-1.334,1.557-3.559,0-3.856-1.557-.297.445-.519,2.002-4.745.445-1.261.964-2.595,1.446-3.893.63-1.705,1.261-3.299,1.668-4.412.334-.927.556-1.483.556-1.483l-12.865-7.712s-.371.223-.964.63c-1.334.927-3.856,2.67-5.895,4.523-1.335,1.186-2.484,2.447-3.003,3.485-1.668,3.411-3.781,10.752-2.781,11.308Z" fill="#ffa190"/>
      <path d="M1243.005,561.478c2.076,2.262,8.638,8.527,17.499,8.453.63-1.705,1.261-3.299,1.668-4.412l-13.273-8.565c-1.334.927-3.856,2.67-5.895,4.523Z" fill="#ef7968"/>
      <path d="M1332.133,638.63s.037,2.855.185,7.341c.111,5.042.334,12.161.667,19.687.593,13.236,1.446,27.658,2.818,33.738,2.781,12.605,6.6,87.974,6.6,87.974h9.342c11.456-40.634,10.418-99.133,10.418-100.616,0-1.001.741-14.311,1.817-26.175.445-4.819.927-9.38,1.483-12.791.148-1.186.334-2.224.519-3.114l-33.849-6.043Z" fill="#ffa190"/>
      <path d="M1291.239,638.63s.037,1.928.111,5.116c.111,4.968.371,12.976.704,21.54.556,13.347,1.483,27.954,2.818,34.109,2.781,12.605,6.599,87.974,6.599,87.974h9.38c11.419-40.634,10.381-99.133,10.381-100.616,0-.815.519-10.306,1.334-20.317.593-7.934,1.409-16.164,2.299-20.873.074-.297.111-.593.186-.89l-33.812-6.043Z" fill="#ffa190"/>
      <path d="M1354.064,809.053s4.787-27.592-3.763-30.099c-8.549-2.507-9.531,6.772-17.056,15.049-7.525,8.278-6.271,15.05-6.271,15.05,8.474,2.478,17.468,2.636,27.089,0Z" fill="#3e2a57"/>
      <path d="M1313.995,809.053s4.787-27.592-3.763-30.099c-8.549-2.507-9.477,11.016-19.588,15.801-16.263,7.696-14.169,14.298-14.169,14.298,8.864,2.414,28.305,2.701,37.52,0Z" fill="#3e2a57"/>
      <path d="M1279.079,581.053c0,7.786.26,16.016.63,24.062.26,6.006.631,11.938,1.001,17.462,1.297,18.686,2.855,33.219,2.855,33.219,31.587,6.377,59.393,5.969,88.052-.816,0,0,2.41-14.793,4.597-32.514.445-3.93.927-7.971,1.335-12.05,1.52-14.533,2.484-29.252,1.594-38.409-1.261-12.976-4.598-24.655-7.712-32.959-3.411-9.083-5.784-18.538-7.341-28.14-9.343-57.354-57.058-54.537-68.403.037-2.002,9.454-4.56,18.871-8.305,27.806-3.93,9.491-8.305,24.099-8.305,42.302Z" fill="#55436c"/>
      <path d="M1279.709,605.115c.26,6.006.631,11.938,1.001,17.462,12.494,4.931,42.228,12.086,95.504-.111.445-3.93.927-7.971,1.335-12.05l-97.841-5.301Z" fill="#3e2a57"/>
      <polygon points="1341.677 387.306 1338.248 370.96 1316.776 370.96 1315.285 390.135 1341.677 387.306" fill="#ffa190"/>
      <path d="M1333.302,381.962c20.199-3.646,20.206-51.338,9.866-59.057-8.474-6.326-30.973-5.79-35.711,6.287-3.479,8.867-10.139,59.266,25.845,52.77Z" fill="#ffa190"/>
      <path d="M1340.198,314.922c22.766,11.294,8.627,45.198,8.627,45.198,0,0,9.965,35.495-31.144-.054-5.737-4.961-13.081-14.141-13.081-14.141,0,0-4.693-5.705-1.64-15.846,5.174-17.184,22.875-22.282,37.238-15.157Z" fill="#bfcdd9"/>
      <path d="M1352.179,402.603s1.888-22.058-16.56-25.29c-18.448-3.232-35.825,11.036-37.98,16.377-2.155,5.34-.94,14.261-.94,14.261l55.481-5.348Z" fill="#c2478d"/>
      <path d="M1355.713,507.199s34.393,11.036,40.915,0c6.522-11.037-10.725-87.372-17.142-94.904-6.418-7.531-12.378,43.819-11.626,50.592.753,6.772-12.147,44.311-12.147,44.311Z" fill="#c2478d"/>
      <path d="M1384.644,611.706c-3.01-24.581-3.566-191.886-5.158-199.411-1.593-7.525-30.038-20.654-51.131-19.864-27.152,1.018-49.288,17.356-49.288,19.362,0,7.023-6.725,199.467-6.725,199.467,32.309,16.711,95.813,11.587,112.302.446Z" fill="#d073a9"/>
      <path d="M1279.067,411.793c18.056.001,9.652,87.072,7.647,102.651-2.005,15.58-19.553,54.206-19.553,54.206-11.995.966-20.052-3.044-23.062-13.43,0,0,14.262-31.732,17.714-45.455,3.489-13.872,10.528-97.973,17.254-97.972Z" fill="#c2478d"/>
      <path d="M1344.45,358.104c19.301,9.814,12.041,36.589-8.505,25.68-18.483-9.814,8.505-25.68,8.505-25.68Z" fill="#bfcdd9"/>
      <path d="M1331.701,370.128c.802-3.362,2.934-6.304,5.853-8.073,3.138-1.901,6.909-2.391,10.927-1.372l.223-.903c-4.237-1.064-8.266-.555-11.632,1.484-3.127,1.897-5.413,5.047-6.273,8.648l.902.216Z" fill="#e0e7ed"/>
      <path d="M1346.213,359.876c5.486-20.847,1.222-28.516,1.037-28.832l-.802.467c.043.077,4.237,7.726-1.13,28.126l.895.239Z" fill="#e0e7ed"/>
      <path d="M1341.089,360.08l.91-.154c-2.14-12.4-3.354-17.898-3.366-17.952l-.902.201c.012.054,1.222,5.536,3.358,17.905Z" fill="#e0e7ed"/>
      <path d="M1335.152,363.408l.57-.733c-11.112-8.644-15.835-17.986-15.881-18.082l-.833.416c.05.093,4.866,9.623,16.143,18.399Z" fill="#e0e7ed"/>
      <path d="M1340.908,522.723c13.309,0,27.675-1.754,41.405-6.824l-1.287-3.477c-43.071,15.908-92.896-1.874-93.389-2.059l-1.272,3.485c.355.127,24.822,8.875,54.544,8.875Z" fill="#c2478d"/>
      <path d="M1305.765,347.058c5.67-7.431,9.595,3.762,5.891,9.019-2.331,3.31-9.207-4.674-5.891-9.019Z" fill="#ffa190"/>
      <path d="M1306.786,349.529c.745-2.99,2.778-2.404,3.301-.523.727,2.612-.808,3.147-.848,4.999-.04,1.852-3.491-.312-2.453-4.476Z" fill="#ea7e6f"/>
      <path d="M1307.197,357.912c0,.99.803,1.793,1.793,1.793s1.794-.803,1.794-1.793-.803-1.794-1.794-1.794-1.793.803-1.793,1.794Z" fill="#fdeebf"/>
      <path d="M1325.052,804.706h29.627v5.461c0,.996-.808,1.804-1.804,1.804h-27.823v-7.265h0Z" transform="translate(2679.73 1616.6777) rotate(-180)" fill="#786a8a"/>
      <path d="M1276.015,804.706h38.731v5.202c0,1.139-.924,2.063-2.063,2.063h-36.668v-7.265h0Z" transform="translate(2590.7621 1616.6777) rotate(-180)" fill="#786a8a"/>
      <path d="M1340.549,789.143c.12,0,.239-.046.328-.139.177-.181.17-.47-.011-.644-1.419-1.369-1.693-2.406-1.697-2.417-.062-.243-.297-.405-.552-.332-.243.058-.393.3-.335.544.011.05.316,1.287,1.951,2.861.089.085.201.127.316.127Z" fill="#786a8a"/>
      <path d="M1338.355,792.324c.146,0,.289-.07.378-.197.143-.208.089-.49-.119-.636-1.515-1.041-1.758-2.02-1.758-2.028-.058-.243-.293-.409-.544-.347-.243.054-.401.289-.351.536.011.054.289,1.323,2.136,2.591.077.058.17.081.258.081Z" fill="#786a8a"/>
      <path d="M1336.409,795.215c.154,0,.3-.077.389-.216.131-.212.066-.494-.15-.628-1.422-.879-1.743-1.931-1.754-1.974-.07-.243-.32-.374-.563-.312-.243.066-.382.316-.316.555.015.058.405,1.427,2.155,2.51.073.046.158.066.239.066Z" fill="#786a8a"/>
      <path d="M1334.026,797.035c.131,0,.258-.054.347-.162.166-.193.139-.478-.054-.64-1.157-.979-1.488-1.619-1.492-1.627-.116-.224-.401-.32-.609-.201-.227.108-.32.378-.208.605.039.081.417.814,1.723,1.916.085.073.189.108.293.108Z" fill="#786a8a"/>
      <path d="M1301.269,791.333c.162,0,.32-.085.401-.239.12-.22.039-.497-.185-.617-2.29-1.242-2.958-2.441-2.965-2.456-.116-.22-.397-.297-.613-.185-.223.116-.308.39-.193.613.031.058.771,1.438,3.339,2.83.065.039.142.054.216.054Z" fill="#786a8a"/>
      <path d="M1298.478,794.286c.135,0,.27-.062.362-.177.154-.201.116-.486-.084-.64-1.947-1.496-2.468-2.718-2.472-2.73-.096-.231-.359-.343-.598-.247-.231.092-.343.358-.251.59.023.058.598,1.442,2.764,3.112.081.062.181.092.278.092Z" fill="#786a8a"/>
      <path d="M1295.096,796.537c.12,0,.239-.046.328-.139.177-.181.17-.471-.011-.644-1.376-1.323-1.704-2.653-1.708-2.664-.058-.243-.309-.389-.548-.339-.243.058-.397.3-.339.547.015.062.378,1.589,1.962,3.112.089.085.201.127.316.127Z" fill="#786a8a"/>
      <path d="M1291.24,798.149c.108,0,.216-.038.305-.115.185-.166.204-.455.035-.644-1.056-1.188-1.13-2.336-1.13-2.348-.011-.25-.235-.416-.478-.431-.251.011-.444.223-.432.474,0,.058.073,1.465,1.361,2.915.089.1.212.15.339.15Z" fill="#786a8a"/>
      <path d="M1355.401,794.64s3.941-25.982,1.847-27.109c-2.093-1.127-15.363-1.932-16.698,0-1.335,1.932-.919,17.394,0,18.519.919,1.125,14.851,8.59,14.851,8.59Z" fill="#3e2a57"/>
      <path d="M1315.325,794.64s3.038-25.901.945-27.028c-2.093-1.127-15.242-1.422-16.577.51-1.335,1.932.08,17.526.998,18.651.919,1.125,14.634,7.867,14.634,7.867Z" fill="#3e2a57"/>
      <path d="M1349.572,805.162c.231,0,.432-.173.455-.409.011-.143,1.372-14.293-1.415-23.403-1.519-4.978-1.504-8.255.05-10.017,1.488-1.693,4.457-2.14,9.076-1.334.247.031.486-.124.528-.374.042-.247-.127-.486-.374-.528-4.951-.841-8.201-.313-9.916,1.631-1.805,2.051-1.882,5.51-.235,10.892,2.734,8.933,1.392,22.902,1.376,23.041-.023.25.158.474.409.501h.047Z" fill="#786a8a"/>
      <path d="M1305.649,805.162c.173,0,.339-.1.416-.266.108-.239,2.629-5.995.806-18.911-1.079-7.653-1.249-12.215.945-14.377,1.538-1.515,4.395-1.893,9.037-1.172.251.039.482-.131.521-.382.038-.247-.131-.482-.382-.52-5.001-.771-8.031-.336-9.816,1.426-2.468,2.433-2.329,7.202-1.207,15.156,1.777,12.608-.709,18.349-.736,18.402-.104.231,0,.501.227.606.062.027.127.038.189.038Z" fill="#786a8a"/>
    </g>
    <g>
      <path d="M1169.711,637.222c.417.644.796,1.364,1.212,2.121,0,.038.038.038.038.038,2.576,4.849,5.379,12.046,9.167,16.515.606.682.985,1.061.985,1.061,2.008,2.045,4.318,3.295,7.008,3.068,9.242-.833,8.963-32.314,8.963-32.314-13.341-.991-25.441-2.915-27.714-2.573-2.348.341-1.629,9.015.341,12.084Z" fill="#3e2a57"/>
      <path d="M1173.335,625.309c-3.734.5-4.695,3.991-5.43,3.699-.735-.293-1.219-3.827-.003-4.343,1.774-.752,5.433.644,5.433.644Z" fill="#57456d"/>
      <path d="M1170.961,639.382c.417.796.833,1.629,1.288,2.538,1.098,2.311,2.311,4.849,3.599,7.311,1.288,2.462,2.689,4.811,4.281,6.667.606.682.985,1.061.985,1.061,0,0,1.818-7.046-3.864-13.107-1.061-1.136-2.387-2.235-4.015-3.22-.682-.454-1.439-.871-2.273-1.25Z" fill="#57456d"/>
      <path d="M1173.84,656.958c2.273-.72,1.704-3.939,2.008-7.728.152-1.742.492-3.598,1.402-5.379-1.061-1.136-2.387-2.235-4.015-3.22-.341.417-.682.871-.985,1.288-5.644,8.258-1.629,16.023,1.591,15.038Z" fill="#d073a9"/>
      <path d="M1180.102,626.911c-.129.691.145,1.322.612,1.41.467.087.537-.734.666-1.425.129-.691.269-.991-.198-1.078-.467-.087-.951.402-1.08,1.093Z" fill="#57456d"/>
      <path d="M1216.647,807.488c54.566.801,13.968-124.539-13.672-128.484-27.639-3.945-16.506,22.204-19.349,61.268-2.695,37.039-8.479,66.606,33.02,67.215Z" fill="#3e2a57"/>
      <path d="M1221.454,808.054c40.96-4.363,34.407-55.094,16.268-61.573-18.139-6.478-49.992-10.688-61.766,2.458-11.775,13.146-12.325,65.275,45.498,59.115Z" fill="#3e2a57"/>
      <path d="M1229.223,710.36c-3.83-14.351-11.159-35.696-12.806-41.578-1.545-5.517-2.946-33.93-17.961-36.242-15.016-2.312-17.519,24.811-16.049,43.708,1.47,18.897,1.708,44.689,1.708,44.689l45.108-10.577Z" fill="#3e2a57"/>
      <path d="M1192.538,784.959s-19.728-23.865-29.415-20.109c-9.687,3.756,15.73,38.302,27.931,38.768,12.201.466,1.484-18.659,1.484-18.659Z" fill="#3e2a57"/>
      <path d="M1187.9,670.649c-13.367,37.159-16.688,78.918-10.84,84.077,5.848,5.159,12.044-33.393,12.044-33.393l-1.204-50.684Z" fill="#3e2a57"/>
      <path d="M1183.537,670.291c2.6,8.537,29.395-19.281,29.395-19.281,4.583-25.607-1.288-41.743-3.523-41.667-2.235.038-4.659,13.636-4.659,13.636-4.353-1.549-9.002-1.302-13.864.227,0,0-4.848-14.053-7.121-13.561-.152.038-.303.265-.454.682-.758,2.121-1.629,8.864-2.197,17.16-1.212,16.402-.004,34.83,2.424,42.804Z" fill="#3e2a57"/>
      <path d="M1224.938,799.252c1.423,29.712,38.651,26.724,39.116,29.564.466,2.841-19.201,6.816-35.904-2.128-18.785-10.06-16.462-25.721-16.462-25.721l13.249-1.716Z" fill="#3e2a57"/>
      <path d="M1241.766,784.227c.066-.154,6.632-15.723.015-35.911l-.902.293c6.504,19.833.081,35.09.015,35.24l.871.378Z" fill="#605076"/>
      <path d="M1197.362,786.155c.031-.259,2.992-26.006-15.322-41.979l-.625.717c17.94,15.646,15.037,40.892,15.006,41.147l.941.116Z" fill="#605076"/>
      <path d="M1173.866,786.309l.848-.424c-.042-.085-4.318-8.729-4.438-19.636l-.949.007c.124,11.135,4.496,19.964,4.538,20.053Z" fill="#605076"/>
      <path d="M1209.383,628.589l.802-.501c-2.892-4.596-5.174-5.498-5.267-5.536l-.34.887c.019.007,2.109.875,4.804,5.151Z" fill="#605076"/>
      <path d="M1191.358,629.125c.015-.066.432-1.715.011-5.949l-.94.092c.397,4.025.015,5.602.011,5.618l.918.239Z" fill="#605076"/>
    </g>
  </g>
  <g>
    <path d="M1502.321,407.673c42.875,30.418,44.931,97.268,42.598,113.283-2.164,14.849-42.271,39.072-42.275,38.021-.004-1.052-2.89-22.776-2.89-22.776,0,0,17.086-14.185,18.203-19.033.989-4.293-16.622-51.211-18.484-55.124-.839-1.764,2.848-54.37,2.848-54.37Z" fill="#fad45c"/>
    <path d="M1413.178,408.258c-40.305,28.432-43.731,96.837-41.397,112.852,2.164,14.849,42.271,39.072,42.275,38.021.004-1.052,2.891-22.776,2.891-22.776,0,0-18.076-18.478-19.193-23.326-.989-4.293,17.612-46.918,19.473-50.831.839-1.764-4.049-53.939-4.049-53.939Z" fill="#fad45c"/>
    <path d="M1425.824,357.588c.013,3.472,1.515,6.281,3.356,6.274,1.84-.007,3.321-2.828,3.308-6.3-.013-3.472-1.516-6.281-3.355-6.274-1.84.007-3.321,2.827-3.308,6.3Z" fill="#ffa190"/>
    <path d="M1477.816,357.391c.013,3.472,1.515,6.281,3.356,6.274,1.84-.007,3.321-2.827,3.308-6.3-.013-3.472-1.515-6.281-3.355-6.274-1.84.007-3.321,2.828-3.308,6.3Z" fill="#ffa190"/>
    <polygon points="1471.031 397.957 1468.633 379.929 1443.486 380.024 1441.921 401.189 1471.031 397.957" fill="#ffa190"/>
    <path d="M1461.768,392.095c22.273-4.108,22.082-56.734,10.64-65.208-9.377-6.945-34.201-6.259-39.379,7.086-3.802,9.8-10.941,65.44,28.739,58.122Z" fill="#ffa190"/>
    <path d="M1478.34,816.559l.025,6.652c.004,1.051.542,2.003,1.436,2.468,1.791.933,5.313,2.113,10.833,1.26,8.503-1.313,12.561-4.372,18.933-6.567,6.373-2.195,7.781-4.869,7.781-4.869,0,0,1.227-5.189-.972-6.645-2.198-1.456-38.036,7.701-38.036,7.701Z" fill="#1f517a"/>
    <path d="M1429.34,816.062l.025,6.652c.004,1.051-.527,2.006-1.417,2.479-1.784.946-5.296,2.153-10.823,1.342-8.512-1.249-12.594-4.277-18.982-6.424-6.389-2.147-7.816-4.81-7.816-4.81,0,0-1.266-5.179.921-6.653,2.188-1.473,38.093,7.414,38.093,7.414Z" fill="#1f517a"/>
    <path d="M1429.22,799.978s.186,13.664.063,16.796c-.123,3.132-8.76,4.73-15.387,2.051-6.627-2.679-21.477-5.382-22.428-7.086-.952-1.705-.43-6.688,6.723-7.712,7.153-1.023,5.634-5.945,8.197-6.809l2.562-.864s20.194-3.315,20.27,3.624Z" fill="#003967"/>
    <path d="M1478.277,799.763s-.083,13.665.064,16.796c.147,3.131,8.795,4.664,15.402,1.935,6.606-2.729,21.435-5.544,22.374-7.256.939-1.712.38-6.692-6.781-7.661-7.161-.969-7.167-4.268-8.248-6.747-.971-2.228-3.935-1.563-3.935-1.563,0,0-18.852-2.443-18.875,4.496Z" fill="#003967"/>
    <path d="M1497.543,787.706l-.518,10.03s-1.34,2.812-8.126,2.838c-6.786.026-8.995-2.427-8.995-2.427l-.038-9.982,17.677-.46Z" fill="#ff8d71"/>
    <path d="M1429.617,789.035l-1.579,11.002s-.499,1.977-7.284,2.003c-6.786.026-9.836-2.952-9.836-2.952l1.287-11.71,17.412,1.658Z" fill="#ff8d71"/>
    <path d="M1408.178,792.088c6.754,3.496,14.581,4.569,23.283,1.271,0,0,5.046-58.245,9.574-85.301,1.033-6.277,13.826-67.343,13.826-67.343,0,0,10.806,44.379,13.826,66.946,2.424,18.554,7.827,84.149,7.827,84.149,8.224,4.052,15.733,4.211,22.488-.079,9.734-203.182,8.979-201.393,7.787-221.457-25.308-21.097-62.218-13.429-99.246,1.033,0,0,.596,11.999-1.232,30.195-.516,5.125-.834,19.15-.993,35.479-.159,16.25-.238,34.764-.238,48.948-.04,8.979-.08,16.21-.119,20.064-.159,11.085,3.218,86.096,3.218,86.096Z" fill="#2b5a81"/>
    <path d="M1455.35,640.861c.228-.736,5.448-17.628,6.219-22.123,2.167-.301,12.905-2.282,28.25-13.329l-.578-.81c-16.621,11.968-28.037,13.186-28.15,13.198l-.393.039-.054.389c-.494,3.732-6.184,22.158-6.242,22.343l.948.293Z" fill="#003967"/>
    <path d="M1510.517,575.98c3.691-6.777,6.13-149.343-6.709-166.634-12.84-17.291-87.268-17.63-94.739,5.054-8.415,25.547-7.625,150.83-4.339,160.178,3.286,9.349,26.787,18.736,60.867,16.886,30.168-1.638,41.23-8.706,44.921-15.483Z" fill="#fbde82"/>
    <path d="M1431.952,356.963c1.384,8.29,5.613,34.318,24.485,32.166,25.217-2.877,24.688-38.037,24.688-38.037,0,0-53.038-17.292-49.172,5.871Z" fill="#fdf0c7"/>
    <path d="M1454.876,602.506c-28.893-5.96-40.823-11.043-40.823-11.043l-2.574,11.437s11.504,12.549,15.848,14.095c6.895,2.454,25.124-4.148,25.124-4.148l2.426-10.342Z" fill="#003967"/>
    <path d="M1509.619,417.149s-35.559,30.18-53.143,30.233c-16.051.049-51.712-30.086-51.712-30.086l104.855-.148Z" fill="#fad45c"/>
    <path d="M1404.233,415.751c-.219,1.241,1.752,3.285,5.109,5.657,10.329,7.299,34.088,17.701,48.577,17.628,13.614-.073,34.891-11.533,45.877-18.03v-.036c4.343-2.555,7.081-4.343,7.081-4.343-5.146-55.402-97.009-57.008-106.644-.876Z" fill="#fbde82"/>
    <path d="M1409.342,421.408c10.329,7.299,34.088,17.701,48.577,17.628,13.614-.073,34.891-11.533,45.877-18.03v-.036c-18.468-31.643-74.49-32.081-94.454.438Z" fill="#fdebb2"/>
    <path d="M1500.776,784.203l-.715,7.362s-3.213,4.031-11.16,3.768c-7.946-.263-12.739-2.348-12.739-2.348l-.759-8.782h25.372Z" fill="#003967"/>
    <path d="M1432.883,785.812l-1.041,7.324s-3.442,3.888-11.517,3.28c-8.075-.608-12.864-2.901-12.864-2.901l-.397-8.807,25.819,1.104Z" fill="#003967"/>
    <path d="M1481.021,354.074c5.815-17.934-1.535-27.537-1.535-27.537,0,0-2.534-12.232-3.936-16.321-2.171-6.335-9.252.389-20.549-6.505-7.316-4.465-12.775,12.153-13.943,14.724-1.169,2.571-6.889,7.711-9.816,17.293s-1.766,15.61-1.766,15.61c0,0,4.687,10.217,23.267,13.722,18.58,3.506,28.279-10.984,28.279-10.984Z" fill="#3870cd"/>
    <path d="M1464.97,331.113c3.443,0,9.165-.647,14.763-4.183l-.494-.786c-8.343,5.275-17.234,3.86-17.323,3.84l-.154.918c.131.019,1.33.212,3.208.212Z" fill="#6994da"/>
    <path d="M1445.669,324.454l.278-.887c-.019-.004-2.286-.798-4.773-4.85l-.786.486c2.687,4.384,5.174,5.217,5.282,5.251Z" fill="#6994da"/>
    <path d="M1458.35,466.258c16.86,0,35.76-1.539,53.893-6.3l-.255-.964c-50.743,13.344-107.628,1.288-108.194,1.161l-.208.972c.366.081,24.213,5.132,54.764,5.132Z" fill="#f8bc00"/>
    <path d="M1461.878,492.491c16.517,0,34.607-1.496,51.718-5.992l-.255-.964c-50.735,13.332-110.23.17-110.828.027l-.216.972c.394.089,26.893,5.957,59.58,5.957Z" fill="#f8bc00"/>
    <path d="M1461.261,522.487c16.494,0,34.727-1.438,52.328-5.749l-.239-.964c-52.293,12.812-110.258.131-110.836-.004l-.216.972c.386.085,26.241,5.745,58.963,5.745Z" fill="#f8bc00"/>
    <path d="M1462.198,555.101c15.777,0,33.301-1.492,50.782-5.879l-.239-.964c-54.402,13.649-109.275-.825-109.814-.972l-.262.956c.378.104,25.994,6.859,59.534,6.859Z" fill="#f8bc00"/>
    <path d="M1528.39,519.221c.717,0,1.168-.023,1.238-.027l-.046-.91c-.081,0-6.716.332-11.416-1.739l-.37.833c3.701,1.631,8.393,1.843,10.595,1.843Z" fill="#fad45c"/>
    <path d="M1383.919,517.356c.223-.004,5.56-.15,14.019-3.91l-.37-.833c-8.27,3.674-13.614,3.828-13.664,3.832l.015.91Z" fill="#fad45c"/>
    <path d="M1404.981,805.042l.609-.679c-1.715-1.527-2.309-2.541-2.313-2.552l-.794.451c.027.046.655,1.141,2.498,2.78Z" fill="#ededff"/>
    <path d="M1398.778,807.193l.779-.471c-1.033-1.704-1.114-2.684-1.114-2.691l-.91.05c0,.046.073,1.188,1.245,3.112Z" fill="#ededff"/>
  </g>
  <g>
    <path d="M544.027,265.659c0,4.076-1.391,7.568-3.004,11.198l-12.164,26.112-1.051,2.25c-1.369,2.017-3.683,3.333-6.305,3.333-2.303,0-4.373-1.019-5.775-2.643l-1.762-3.789-12.324-26.484c-.106-.202-.265-.563-.414-.87-.127-.298-.244-.552-.244-.552-1.146-2.632-1.698-5.53-1.698-8.556,0-12.356,10.02-22.376,22.376-22.376s22.365,10.02,22.365,22.376Z" fill="#fad45c"/>
    <circle cx="521.449" cy="266.18" r="17.657" fill="#fdecb8"/>
    <path d="M516.951,270.862h3.445v-10.536l-3.267.937-.81-2.609,5.218-1.545h2.355v13.753h2.938v2.71h-9.878v-2.71Z" fill="#003967"/>
  </g>
</svg>