<?xml version="1.0" encoding="UTF-8"?>
<svg id="a" data-name="Layer 1" xmlns="http://www.w3.org/2000/svg" viewBox="556.83 136.27 807.74 811.42" preserveAspectRatio="xMidYMid meet">
  <path d="M1122.674,869.413c-181.71,89.469-401.647,14.66-491.185-167.184-34.546-70.162-44.589-146.159-33.418-218.15,3.765-24.258,10.015-48.189,18.478-71.07,23.939-65.065,66.246-123.393,124.08-166.536,17.873-13.352,37.295-25.228,57.922-35.386,59.712-29.4,123.551-41.065,185.491-37.169,53.017,3.574,104.7,18.395,151.359,43.642,32.364,17.447,62.251,39.826,88.334,66.776,26.218,26.88,48.565,58.217,66.074,93.771,3.808,7.734,7.348,15.599,10.48,23.333,20.796,50.793,29.424,103.664,27.008,155.604-.227,3.988-.492,7.849-.787,11.703-5.725,73.632-33.729,144.441-80.488,202.198-32.448,40.256-73.949,74.146-123.347,98.469Z" fill="#c5bfcd"/>
  <path d="M1144.519,770.645c-181.844,89.538-401.785,14.725-491.323-167.119-30.201-61.338-41.774-126.96-36.647-190.518,23.939-65.065,66.246-123.393,124.08-166.536,17.873-13.352,37.295-25.228,57.922-35.386,59.712-29.4,123.551-41.065,185.491-37.169,53.017,3.574,104.7,18.395,151.359,43.642,32.364,17.447,62.251,39.826,88.334,66.776,26.218,26.88,48.565,58.217,66.074,93.771,3.808,7.734,7.348,15.599,10.48,23.333,20.796,50.793,29.424,103.664,27.008,155.604-.227,3.988-.492,7.849-.787,11.703-13.689,37.257-33.522,72.313-58.673,103.411-32.448,40.256-73.919,74.165-123.317,98.488Z" fill="#f1f0f3"/>
  <path d="M964.148,316.994s56.395,3.984,87.885,12.669c31.494,8.685,74.484,22.294,74.484,22.294,0,0,9.942,60.119,14.663,81.987,4.72,21.869,8.018,77.697,8.018,77.697l-144.476,65.088-121.484-123.129,80.91-136.607Z" fill="#3e2a57"/>
  <path d="M1246.021,770.944l-35.834-15.664,37.962-156.29,67.151-66.312,11.995,24.365c-3.64,77.815-32.104,153.016-81.275,213.901Z" fill="#3e2a57"/>
  <path d="M1300.288,401.439c-8.685-9.763-18.54-20.523-28.295-30.393-27.114-27.471-79.077-65.391-79.077-65.391l-24.001-42.614c-10.495-18.644-22.893-34.04-33.514-45.482,64.655,34.956,119.463,89.576,154.408,160.547,3.792,7.704,7.278,15.496,10.48,23.333Z" fill="#3e2a57"/>
  <path d="M902.787,232.307s-54.056,9.97-84.43,18.893c-30.385,8.904-77.727,32.272-77.727,32.272v-37c17.835-13.341,37.222-25.193,57.922-35.386,59.693-29.392,123.547-41.187,185.491-37.169-24.449,14.92-51.959,32.441-59.904,40.302-15.254,15.085-21.351,18.088-21.351,18.088Z" fill="#3e2a57"/>
  <path d="M664.628,390.384s10.059,41.92,24.495,62.028c14.433,20.109,36.755,40.869,36.755,40.869,0,0-23.495,72.048-25.159,96.302l-3.942,58.658-90.37-12.221-8.336-151.942s36.697-71.431,66.556-93.694Z" fill="#3e2a57"/>
  <path d="M959.213,727.659s-62.01,21.458-86.892,23.126c-24.883,1.668-67.401,10.507-67.401,10.507,0,0,18.916,81.405,19.461,91.72l.541,10.319s131.362,45.693,159.952,33.127c28.587-12.562,89.078-83.168,89.078-83.168l-114.738-85.63Z" fill="#3e2a57"/>
  <rect x="804.593" y="857.348" width="21.423" height="21.426" transform="translate(-299.576 449.38) rotate(-26.212)" fill="#99c1fd"/>
  <rect x="976.536" y="895.906" width="21.425" height="10.721" transform="translate(-296.711 529.261) rotate(-26.235)" fill="#99c1fd"/>
</svg>