<?xml version="1.0" encoding="UTF-8"?>
<svg id="a" data-name="Layer 1" xmlns="http://www.w3.org/2000/svg" viewBox="601.64 204.60 595.44 833.52" preserveAspectRatio="xMidYMid meet">
  <rect x="869.097" y="363.28" width="172.55" height="131.166" fill="#aa0062"/>
  <path d="M986.987,321.531c-4.267-2.027-9.072-1.466-14.65,1.747-30.711,17.62-36.644,52.954-36.55,93.93l74.587-50.071c-7.752-31.502-16.667-42.407-23.386-45.606Z" fill="#38a497"/>
  <polygon points="855.93 963.813 768.38 871.529 673.114 863.905 676.122 845.345 639.531 868.22 857.643 1000.236 1159.199 799.419 1113.27 768.846 1114.283 790.382 855.93 963.813" fill="#003865"/>
  <path d="M875.506,257.291c5.583-3.205,10.376-3.772,14.65-1.746,7.85,3.734,18.706,17.936,27.194,63.32l10.666-7.158c-7.688-38.511-18.218-59.918-32.776-66.844-7.935-3.778-16.553-3.047-25.625,2.16-43.207,24.792-44.045,78.06-41.767,131.919l11.526-7.731c-1.788-49.254.518-93.492,36.131-113.92Z" fill="#91b0e2"/>
  <path d="M833.449,485.817l90.46-60.727c-.797-46.716,4.523-90.341,42.398-112.075,9.071-5.206,17.698-5.937,25.625-2.16,12.174,5.79,21.531,21.7,28.764,49.267l71.106-47.736-67.175,45.094-4.529-58.605-19.286-36.034-72.795,48.865-10.666,7.158-77.975,52.345-11.526,7.731-85.392,57.323,62.39,9.735,28.602,39.818Z" fill="#38a497"/>
  <path d="M1020.695,360.122c1.763,6.709,3.396,14.139,4.916,22.259,3.316,1.943,5.736,6.045,5.966,10.949.328,6.975-3.865,12.842-9.369,13.101s-10.228-5.189-10.556-12.164c-.163-3.468.792-6.654,2.467-9.023-1.25-6.7-2.553-12.675-3.886-18.1l-74.587,50.071c.02,9.821.377,19.951.834,30.26,2.553,2.186,4.327,5.769,4.522,9.927.328,6.975-3.865,12.843-9.368,13.101-5.499.259-10.229-5.189-10.557-12.164-.196-4.174,1.242-7.915,3.59-10.332-.341-7.667-.63-15.327-.76-22.916l-90.46,60.727,22.481,477.996,258.353-173.431-1.013-21.536-21.468-456.461-71.106,47.736Z" fill="#92cdc6"/>
  <polygon points="772.33 825.464 855.93 963.813 833.449 485.817 804.847 445.999 772.33 825.464" fill="#80c5bd"/>
  <polygon points="772.33 825.464 772.33 825.464 804.847 445.999 742.457 436.264 676.122 845.345 673.114 863.905 772.33 825.464" fill="#58b3a8"/>
  <path d="M991.932,310.856c-7.927-3.778-16.553-3.047-25.625,2.16-37.875,21.735-43.195,65.359-42.398,112.075.131,7.588.419,15.249.76,22.916.147,3.381.306,6.769.465,10.141.153,3.262,2.921,5.788,6.186,5.634s5.783-2.928,5.629-6.19c-.159-3.388-.318-6.76-.468-10.118-.457-10.309-.814-20.439-.834-30.26-.094-40.975,5.839-76.31,36.55-93.93,5.579-3.213,10.384-3.773,14.65-1.747,6.719,3.199,15.634,14.104,23.386,45.606,1.333,5.425,2.636,11.4,3.886,18.1.564,3.035,1.114,6.199,1.655,9.505.53,3.236,3.598,5.398,6.794,4.89,3.225-.525,5.411-3.571,4.886-6.791-.592-3.623-1.212-7.085-1.844-10.466-1.52-8.12-3.153-15.55-4.916-22.259-7.233-27.566-16.59-43.477-28.764-49.267Z" fill="#91b0e2"/>
  <polygon points="1091.802 312.386 1020.098 298.875 1024.627 357.48 1091.802 312.386" fill="#028c7b"/>
  <polygon points="673.114 863.905 768.38 871.529 772.33 825.464 673.114 863.905" fill="#3aa598"/>
  <polygon points="772.33 825.464 768.38 871.529 855.93 963.813 772.33 825.464" fill="#38a497"/>
</svg>