<?xml version="1.0" encoding="UTF-8"?>
<svg id="a" data-name="Layer 1" xmlns="http://www.w3.org/2000/svg" viewBox="534.29 52.90 830.91 897.51" preserveAspectRatio="xMidYMid meet">
  <path d="M910.439,909.611l39.303-257.708-183.43-111.005c-.401,2.579-.789,5.042-1.164,7.429,7.058.409,12.719,10.886,12.719,23.826,0,1.578-.092,3.114-.255,4.6l26.059,15.769.268-11.763,15.752,10.536-.258,10.769,32.006,19.368.092-11.011,15.753,10.527-.109,10.001,52.209,31.598-4.095,29.144.368.233,3.907,21.163-6.691-4.182-4.708,33.501,11.22,6.996-4.065,16.362-9.597-5.969-5.222,37.174,8.944,5.451-2.199,17.106-9.125-5.618-3.414,24.309,6.211,3.598-3.461,16.43-5.15-2.947-3.799,27.04-23.959-14.501-.063,5.459-15.177-6.277.071-8.357-35.505-21.488-.155,6.603-15.528-8.832.162-7.163-20.478-12.389.067,8.089-16.149-10.402-.063-7.463-25.316-15.319.096,11.362-16.053-9.576-.121-11.52-21.927-13.266.067,7.347-16.1-9.843-.067-7.246-10.669-6.453.676,6.152-16.889-10.819-.601-5.51-5.798-3.507-3.886-23.608-9.326-5.343-8.181-24.827,13.862,8.031-6.537-39.729-7.325-4.509-7.179-21.17,11.424,6.962-8.027-48.787-12.539-7.797-4.099-21.797,13.111,8.165-6.808-41.374-15.907-9.951-2.968-20.579,15.44,9.659-4.642-28.2,21.668,13.115-1.745-16.079,15.966,6.57,2.141,19.41,36.741,22.231-.155-17.715,15.987,9.167.167,18.232,21.576,13.056-.158-14.634,16.679,13.198.097,11.488,10.088,6.11c1.328-2.821,2.964-5.142,4.872-6.603.805-5.017,1.757-11.045,2.805-17.773l-177.086-107.157,52.264,280.958,6.746,36.24,276.341,167.231Z" fill="#2e69cb"/>
  <path d="M755.509,510.743l-141.384-85.56,172.08-104.135c5.047-11.604,13.52-21.53,24.561-28.217l147.467-89.234-8.491-5.134-374.654,226.72,177.086,107.157c1.022-6.57,2.146-13.825,3.335-21.597Z" fill="#4278d0"/>
  <path d="M1285.36,425.183l-335.618,203.094-180.104-108.985c-1.169,7.655-2.291,14.944-3.326,21.606l183.43,111.005,374.658-226.72-347.13-210.065-19.522,11.812,327.612,198.252Z" fill="#4278d0"/>
  <path d="M614.125,425.183l141.384,85.56-141.384-85.56Z" fill="#c90d61"/>
  <polygon points="949.742 628.277 1285.36 425.183 957.748 226.93 948.54 232.499 905.964 601.788 769.638 519.292 949.742 628.277" fill="#5485d4"/>
  <path d="M781.71,336.333c.814-5.335,2.383-10.444,4.495-15.286l-172.08,104.135,141.384,85.56c10.464-68.213,26.201-174.41,26.201-174.41Z" fill="#0048bf"/>
  <path d="M905.964,601.788l42.576-369.29-124.939,75.609c-15.657,9.475-26.3,25.404-29.06,43.494,0,0-14.526,99.736-24.903,167.69l136.326,82.497Z" fill="#0048bf"/>
  <path d="M949.742,651.902l-39.303,257.708,351.061-260.639,8.632-30.705,54.268-193.085-374.658,226.72ZM1165.108,525.92l-4.888,27.073,32.771-19.543,4.967-28.735,15.987-9.174-4.897,28.333,35.852-21.371,6.457-29.393,15.97-6.57-5.715,25.996,33.48-19.968-4.846,18.616,12.281-7.68-10.256,25.136-7.852,4.909-7.284,27.966,14.021-9.333-11.663,26.84-8.369,5.568-10.944,42.025,1.318-.902-5.764,22.565-1.457,1.002-3.752,14.401-26.335,19.108-2.689,12.222-16.888,10.82,2.308-10.51-27.499,19.944-1.862,10.769-16.104,9.843,1.499-8.657-35.205,25.537-2.308,12.79-16.053,9.567,1.878-10.393-25.583,18.558-2.404,14.117-16.146,10.402,2.146-12.623-28.488,20.67-1.653,12.013-15.523,8.841,1.281-9.317-33.188,24.076-2.275,16.187-15.181,6.277,1.536-10.919-27.674,20.077,4.57-26.856-16.641,11.421-.844-18.041,21.071-14.459,7.851-46.141-17.013,11.329-8.849-13.173,29.52-19.66,6.829-40.138-20.871,13.057,3.902-21.163,20.533-12.848,4.708-27.666,20.574-12.264,2.559-18.199,15.753-10.527-2.734,19.434,31.889-19.017,2.689-19.543,15.753-10.535-2.859,20.787,34.557-20.604,3.886-22.857,16.174-10.569-4.057,23.876,27.124-16.17,4.237-23.434,16.68-13.198Z" fill="#0048bf"/>
  <g>
    <polygon points="1290.247 491.183 1295.093 472.567 1261.613 492.536 1257.393 511.736 1290.247 491.183" fill="#2e69cb"/>
    <polygon points="1232.34 625.722 1260.182 606.614 1271.126 564.589 1241.431 584.366 1232.34 625.722" fill="#2e69cb"/>
    <polygon points="1240.559 522.264 1244.9 502.503 1209.049 523.874 1205.542 544.17 1240.559 522.264" fill="#2e69cb"/>
    <polygon points="1246.34 562.026 1277.136 541.514 1284.42 513.548 1252.622 533.442 1246.34 562.026" fill="#2e69cb"/>
    <polygon points="996.847 693.452 974.611 707.359 967.783 747.497 991.453 731.736 996.847 693.452" fill="#2e69cb"/>
    <polygon points="1039.727 699.595 1044.686 663.523 1012.499 683.659 1007.215 721.242 1039.727 699.595" fill="#2e69cb"/>
    <polygon points="1087.549 667.747 1093.455 633.01 1060.338 653.731 1055.476 689.11 1087.549 667.747" fill="#2e69cb"/>
    <polygon points="1169.603 668.766 1176.75 627.425 1142.68 650.116 1135.025 692.492 1169.603 668.766" fill="#2e69cb"/>
    <polygon points="1140.118 585.101 1144.192 562.552 1117.068 578.723 1113.111 601.997 1140.118 585.101" fill="#2e69cb"/>
    <polygon points="1215.247 637.443 1224.422 595.686 1193.025 616.589 1185.941 657.554 1215.247 637.443" fill="#2e69cb"/>
    <polygon points="1196.747 595.043 1229.331 573.347 1235.788 543.977 1201.911 565.165 1196.747 595.043" fill="#2e69cb"/>
    <polygon points="1097.02 612.057 1101.065 588.272 1066.508 608.876 1063.156 633.244 1097.02 612.057" fill="#2e69cb"/>
    <polygon points="1003.458 646.476 982.884 658.74 978.176 686.405 999.735 672.923 1003.458 646.476" fill="#2e69cb"/>
    <polygon points="1047.503 643.037 1050.926 618.167 1019.036 637.184 1015.388 663.122 1047.503 643.037" fill="#2e69cb"/>
    <polygon points="1130.325 639.272 1136.302 606.204 1109.547 622.951 1103.766 656.953 1130.325 639.272" fill="#2e69cb"/>
    <polygon points="1180.473 605.879 1185.766 575.267 1152.432 596.12 1146.596 628.436 1180.473 605.879" fill="#2e69cb"/>
    <polygon points="1076.517 732.637 1083.893 689.26 1052.587 710.106 1046.673 753.116 1076.517 732.637" fill="#2e69cb"/>
    <polygon points="995.14 807.095 991.713 831.455 1024.901 807.379 1028.044 784.513 995.14 807.095" fill="#2e69cb"/>
    <polygon points="1089.211 742.547 1085.687 763.275 1111.271 744.717 1114.84 724.957 1089.211 742.547" fill="#2e69cb"/>
    <polygon points="1156.243 575.016 1189.393 554.271 1192.991 533.451 1160.22 552.993 1156.243 575.016" fill="#2e69cb"/>
    <polygon points="1224.192 662.788 1250.527 643.68 1254.279 629.279 1227.523 647.637 1224.192 662.788" fill="#2e69cb"/>
    <polygon points="952.688 836.222 948.119 863.078 975.793 843.001 979.32 817.947 952.688 836.222" fill="#2e69cb"/>
    <polygon points="988.494 752.782 964.126 769.002 956.275 815.143 982.22 797.345 988.494 752.782" fill="#2e69cb"/>
    <polygon points="1131.189 713.737 1127.754 732.754 1162.958 707.217 1165.955 689.887 1131.189 713.737" fill="#2e69cb"/>
    <polygon points="1118.68 703.712 1126.41 660.952 1100.11 678.459 1092.792 721.468 1118.68 703.712" fill="#2e69cb"/>
    <polygon points="1043.842 773.668 1040.796 795.842 1069.284 775.171 1072.932 753.717 1043.842 773.668" fill="#2e69cb"/>
    <polygon points="1030.873 763.96 1036.838 720.592 1004.256 742.28 998.036 786.491 1030.873 763.96" fill="#2e69cb"/>
    <polygon points="1182.293 678.675 1179.426 695.263 1206.924 675.319 1210.43 659.366 1182.293 678.675" fill="#2e69cb"/>
  </g>
  <g>
    <polygon points="1205.542 544.17 1209.049 523.874 1213.945 495.541 1197.958 504.716 1192.991 533.451 1189.393 554.271 1205.542 544.17" fill="#0048bf"/>
    <polygon points="1165.955 689.887 1162.958 707.217 1161.46 715.874 1177.564 706.032 1179.426 695.263 1182.293 678.675 1165.955 689.887" fill="#0048bf"/>
    <polygon points="1180.473 605.879 1196.747 595.043 1201.911 565.165 1185.766 575.267 1180.473 605.879" fill="#0048bf"/>
    <polygon points="1185.941 657.554 1193.025 616.589 1176.75 627.425 1169.603 668.766 1185.941 657.554" fill="#0048bf"/>
    <polygon points="1144.192 562.552 1140.118 585.101 1156.243 575.016 1160.22 552.993 1165.108 525.92 1148.429 539.118 1144.192 562.552" fill="#0048bf"/>
    <polygon points="1114.84 724.957 1111.271 744.717 1109.392 755.11 1125.446 745.544 1127.754 732.754 1131.189 713.737 1114.84 724.957" fill="#0048bf"/>
    <polygon points="1135.025 692.492 1142.68 650.116 1126.41 660.952 1118.68 703.712 1135.025 692.492" fill="#0048bf"/>
    <polygon points="1146.596 628.436 1152.432 596.12 1136.302 606.204 1130.325 639.272 1146.596 628.436" fill="#0048bf"/>
    <polygon points="1113.111 601.997 1117.068 578.723 1121.125 554.847 1104.952 565.415 1101.065 588.272 1097.02 612.057 1113.111 601.997" fill="#0048bf"/>
    <polygon points="1072.932 753.717 1069.284 775.171 1067.138 787.794 1083.284 777.392 1085.687 763.275 1089.211 742.547 1072.932 753.717" fill="#0048bf"/>
    <polygon points="1092.792 721.468 1100.11 678.459 1083.893 689.26 1076.517 732.637 1092.792 721.468" fill="#0048bf"/>
    <polygon points="1103.766 656.953 1109.547 622.951 1093.455 633.01 1087.549 667.747 1103.766 656.953" fill="#0048bf"/>
    <polygon points="1055.476 689.11 1060.338 653.731 1044.686 663.523 1039.727 699.595 1055.476 689.11" fill="#0048bf"/>
    <polygon points="1046.673 753.116 1052.587 710.106 1036.838 720.592 1030.873 763.96 1046.673 753.116" fill="#0048bf"/>
    <polygon points="1028.044 784.513 1024.901 807.379 1023.619 816.696 1039.142 807.855 1040.796 795.842 1043.842 773.668 1028.044 784.513" fill="#0048bf"/>
    <polygon points="1063.156 633.244 1066.508 608.876 1069.367 588.089 1053.614 598.625 1050.926 618.167 1047.503 643.037 1063.156 633.244" fill="#0048bf"/>
    <polygon points="979.32 817.947 975.793 843.001 974.256 853.92 989.438 847.642 991.713 831.455 995.14 807.095 979.32 817.947" fill="#0048bf"/>
    <polygon points="1007.215 721.242 1012.499 683.659 996.847 693.452 991.453 731.736 1007.215 721.242" fill="#0048bf"/>
    <polygon points="998.036 786.491 1004.256 742.28 988.494 752.782 982.22 797.345 998.036 786.491" fill="#0048bf"/>
    <polygon points="1015.388 663.122 1019.036 637.184 1021.77 617.75 1006.017 628.277 1003.458 646.476 999.735 672.923 1015.388 663.122" fill="#0048bf"/>
    <polygon points="1257.393 511.736 1261.613 492.536 1267.327 466.54 1251.357 473.11 1244.9 502.503 1240.559 522.264 1257.393 511.736" fill="#0048bf"/>
    <polygon points="1246.34 562.026 1252.622 533.442 1235.788 543.977 1229.331 573.347 1246.34 562.026" fill="#0048bf"/>
    <polygon points="1215.247 637.443 1232.34 625.722 1241.431 584.366 1224.422 595.686 1215.247 637.443" fill="#0048bf"/>
    <polygon points="1210.43 659.366 1206.924 675.319 1204.616 685.83 1221.504 675.01 1224.192 662.788 1227.523 647.637 1210.43 659.366" fill="#0048bf"/>
    <polygon points="1232.34 625.722 1215.247 637.443 1185.941 657.554 1169.603 668.766 1135.025 692.492 1118.68 703.712 1092.792 721.468 1076.517 732.637 1046.673 753.116 1030.873 763.96 998.036 786.491 982.22 797.345 956.275 815.143 935.203 829.602 936.047 847.642 952.688 836.222 979.32 817.947 995.14 807.095 1028.044 784.513 1043.842 773.668 1072.932 753.717 1089.211 742.547 1114.84 724.957 1131.189 713.737 1165.955 689.887 1182.293 678.675 1210.43 659.366 1227.523 647.637 1254.279 629.279 1255.736 628.277 1261.5 605.712 1260.182 606.614 1232.34 625.722" fill="#0048bf"/>
    <polygon points="1229.331 573.347 1196.747 595.043 1180.473 605.879 1146.596 628.436 1130.325 639.272 1103.766 656.953 1087.549 667.747 1055.476 689.11 1039.727 699.595 1007.215 721.242 991.453 731.736 967.783 747.497 938.263 767.157 947.112 780.33 964.126 769.002 988.494 752.782 1004.256 742.28 1036.838 720.592 1052.587 710.106 1083.893 689.26 1100.11 678.459 1126.41 660.952 1142.68 650.116 1176.75 627.425 1193.025 616.589 1224.422 595.686 1241.431 584.366 1271.126 564.589 1279.495 559.021 1291.157 532.181 1277.136 541.514 1246.34 562.026 1229.331 573.347" fill="#0048bf"/>
    <polygon points="1240.559 522.264 1205.542 544.17 1189.393 554.271 1156.243 575.016 1140.118 585.101 1113.111 601.997 1097.02 612.057 1063.156 633.244 1047.503 643.037 1015.388 663.122 999.735 672.923 978.176 686.405 957.643 699.254 953.741 720.416 974.611 707.359 996.847 693.452 1012.499 683.659 1044.686 663.523 1060.338 653.731 1093.455 633.01 1109.547 622.951 1136.302 606.204 1152.432 596.12 1185.766 575.267 1201.911 565.165 1235.788 543.977 1252.622 533.442 1284.42 513.548 1292.272 508.639 1302.528 483.503 1290.247 491.183 1257.393 511.736 1240.559 522.264" fill="#0048bf"/>
  </g>
  <g>
    <g>
      <polygon points="680.944 600.795 680.618 563.612 648.778 543.693 653.164 583.481 680.944 600.795" fill="#0048bf"/>
      <polygon points="632.294 533.375 613.523 521.637 620.331 563.011 636.614 573.163 632.294 533.375" fill="#0048bf"/>
      <polygon points="680.455 544.779 680.217 517.814 643.476 495.583 646.562 523.583 680.455 544.779" fill="#0048bf"/>
      <path d="M743.103,583.973c-1.105-3.498-1.786-7.496-1.786-11.821,0-5.919,1.227-11.262,3.18-15.436l-10.088-6.11.233,28.075,8.46,5.292Z" fill="#0048bf"/>
      <path d="M776.125,604.635l26.894,16.822.651-28.935-26.059-15.769c-.297,2.763-.885,5.318-1.658,7.647l.171,20.236Z" fill="#0048bf"/>
      <polygon points="718.677 624.312 718.284 587.17 696.638 573.63 696.98 610.787 718.677 624.312" fill="#0048bf"/>
      <polygon points="760.426 650.333 760.113 613.343 734.802 597.506 735.115 634.555 760.426 650.333" fill="#0048bf"/>
      <polygon points="718.084 568.321 717.792 540.554 696.216 527.498 696.467 554.796 718.084 568.321" fill="#0048bf"/>
      <polygon points="681.49 663.464 681.11 620.063 655.436 604.085 660.578 650.717 681.49 663.464" fill="#0048bf"/>
      <polygon points="638.851 593.774 623.858 584.441 631.885 633.227 643.936 640.574 638.851 593.774" fill="#0048bf"/>
      <polygon points="627.114 485.682 605.446 472.567 610.088 500.767 630.116 513.29 627.114 485.682" fill="#0048bf"/>
      <polygon points="865.066 821.062 894.706 838.217 898.121 813.907 865.371 793.755 865.066 821.062" fill="#0048bf"/>
      <polygon points="850.699 706.592 851.012 670.201 818.304 649.749 817.452 685.871 850.699 706.592" fill="#0048bf"/>
      <polygon points="814.502 810.751 813.876 837.174 849.38 858.662 849.622 830.863 814.502 810.751" fill="#0048bf"/>
      <polygon points="777.665 789.664 777.878 815.393 798.356 827.782 798.945 801.852 777.665 789.664" fill="#0048bf"/>
      <polygon points="864.549 867.837 888.508 882.337 892.307 855.298 864.862 839.586 864.549 867.837" fill="#0048bf"/>
      <polygon points="760.944 711.901 760.585 669.5 735.273 653.756 735.632 696.465 760.944 711.901" fill="#0048bf"/>
      <polygon points="915.289 691.69 919.384 662.546 867.174 630.948 866.836 661.378 915.289 691.69" fill="#0048bf"/>
      <polygon points="865.571 775.672 900.501 796.968 905.722 759.794 866.018 735.093 865.571 775.672" fill="#0048bf"/>
      <polygon points="736.217 765.939 736.417 790.299 761.732 805.618 761.519 780.431 736.217 765.939" fill="#0048bf"/>
      <polygon points="849.785 812.221 850.027 784.305 815.624 763.133 814.944 792.051 849.785 812.221" fill="#0048bf"/>
      <polygon points="761.357 761.038 761.094 729.574 735.778 713.996 736.05 746.387 761.357 761.038" fill="#0048bf"/>
      <polygon points="866.227 716.267 908.164 742.405 912.872 708.904 866.631 679.978 866.227 716.267" fill="#0048bf"/>
      <polygon points="851.175 651.585 851.438 621.432 819.432 602.064 818.742 631.291 851.175 651.585" fill="#0048bf"/>
      <polygon points="799.367 783.036 800.034 753.542 777.248 739.516 777.503 770.38 799.367 783.036" fill="#0048bf"/>
      <polygon points="697.552 673.257 719.337 686.539 718.881 643.562 697.155 630.047 697.552 673.257" fill="#0048bf"/>
      <polygon points="800.431 735.969 801.357 694.871 776.747 679.56 777.098 721.743 800.431 735.969" fill="#0048bf"/>
      <polygon points="650.018 696.598 645.898 658.673 634.965 651.944 641.502 691.674 650.018 696.598" fill="#0048bf"/>
      <polygon points="645.147 713.813 649.033 737.421 654.83 740.928 652.334 717.92 645.147 713.813" fill="#0048bf"/>
      <polygon points="719.875 737.029 719.524 703.987 697.711 690.563 698.019 724.381 719.875 737.029" fill="#0048bf"/>
      <polygon points="698.199 744.183 698.412 767.299 720.339 780.565 720.084 756.706 698.199 744.183" fill="#0048bf"/>
      <polygon points="669.039 727.487 671.644 751.104 682.312 757.557 682.116 734.975 669.039 727.487" fill="#0048bf"/>
      <polygon points="666.697 706.249 681.941 715.074 681.64 680.67 662.586 668.941 666.697 706.249" fill="#0048bf"/>
      <polygon points="850.181 766.297 850.536 725.467 817.011 704.604 816.042 745.486 850.181 766.297" fill="#0048bf"/>
      <polygon points="801.783 676.104 802.601 639.915 776.279 623.452 776.588 660.4 801.783 676.104" fill="#0048bf"/>
    </g>
    <path d="M775.954,584.399c-2.295,6.954-6.445,11.654-11.228,11.654h-2.312l13.712,8.582-.171-20.236Z" fill="#0048bf"/>
  </g>
  <g>
    <polygon points="697.552 673.257 697.155 630.047 681.11 620.063 681.49 663.464 697.552 673.257" fill="#2e69cb"/>
    <polygon points="696.467 554.796 696.216 527.498 696.05 509.266 680.062 500.099 680.217 517.814 680.455 544.779 696.467 554.796" fill="#2e69cb"/>
    <polygon points="696.98 610.787 696.638 573.63 680.618 563.612 680.944 600.795 696.98 610.787" fill="#2e69cb"/>
    <polygon points="682.116 734.975 682.312 757.557 682.379 764.803 698.478 774.646 698.412 767.299 698.199 744.183 682.116 734.975" fill="#2e69cb"/>
    <polygon points="698.019 724.381 697.711 690.563 681.64 680.67 681.941 715.074 698.019 724.381" fill="#2e69cb"/>
    <polygon points="735.115 634.555 734.802 597.506 718.284 587.17 718.677 624.312 735.115 634.555" fill="#2e69cb"/>
    <polygon points="734.643 578.681 734.409 550.606 734.313 539.118 717.634 525.92 717.792 540.554 718.084 568.321 734.643 578.681" fill="#2e69cb"/>
    <polygon points="720.084 756.706 720.339 780.565 720.459 792.085 736.512 801.661 736.417 790.299 736.217 765.939 720.084 756.706" fill="#2e69cb"/>
    <polygon points="736.05 746.387 735.778 713.996 719.524 703.987 719.875 737.029 736.05 746.387" fill="#2e69cb"/>
    <polygon points="719.337 686.539 735.632 696.465 735.273 653.756 718.881 643.562 719.337 686.539" fill="#2e69cb"/>
    <polygon points="760.426 650.333 776.588 660.4 776.279 623.452 760.113 613.343 760.426 650.333" fill="#2e69cb"/>
    <polygon points="761.519 780.431 761.732 805.618 761.796 813.081 777.945 823.483 777.878 815.393 777.665 789.664 761.519 780.431" fill="#2e69cb"/>
    <polygon points="777.503 770.38 777.248 739.516 761.094 729.574 761.357 761.038 777.503 770.38" fill="#2e69cb"/>
    <polygon points="777.098 721.743 776.747 679.56 760.585 669.5 760.944 711.901 777.098 721.743" fill="#2e69cb"/>
    <polygon points="803.018 621.457 818.742 631.291 819.432 602.064 819.69 591.295 803.937 580.759 803.67 592.522 803.018 621.457" fill="#2e69cb"/>
    <polygon points="817.452 685.871 818.304 649.749 802.601 639.915 801.783 676.104 817.452 685.871" fill="#2e69cb"/>
    <polygon points="798.945 801.852 798.356 827.782 798.194 834.944 813.721 843.777 813.876 837.174 814.502 810.751 798.945 801.852" fill="#2e69cb"/>
    <polygon points="814.944 792.051 815.624 763.133 800.034 753.542 799.367 783.036 814.944 792.051" fill="#2e69cb"/>
    <polygon points="816.042 745.486 817.011 704.604 801.357 694.871 800.431 735.969 816.042 745.486" fill="#2e69cb"/>
    <polygon points="866.227 716.267 866.631 679.978 851.012 670.201 850.699 706.592 866.227 716.267" fill="#2e69cb"/>
    <polygon points="865.571 775.672 866.018 735.093 850.536 725.467 850.181 766.297 865.571 775.672" fill="#2e69cb"/>
    <polygon points="866.836 661.378 867.174 630.948 867.283 620.947 851.53 610.421 851.438 621.432 851.175 651.585 866.836 661.378" fill="#2e69cb"/>
    <polygon points="865.066 821.062 865.371 793.755 850.027 784.305 849.785 812.221 865.066 821.062" fill="#2e69cb"/>
    <polygon points="849.622 830.863 849.38 858.662 849.309 867.019 864.486 873.296 864.549 867.837 864.862 839.586 849.622 830.863" fill="#2e69cb"/>
    <polygon points="660.578 650.717 655.436 604.085 638.851 593.774 643.936 640.574 660.578 650.717" fill="#2e69cb"/>
    <polygon points="646.562 523.583 643.476 495.583 641.336 476.174 625.37 469.603 627.114 485.682 630.116 513.29 646.562 523.583" fill="#2e69cb"/>
    <polygon points="653.164 583.481 648.778 543.693 632.294 533.375 636.614 573.163 653.164 583.481" fill="#2e69cb"/>
    <polygon points="652.334 717.92 654.83 740.928 655.431 746.437 672.32 757.256 671.644 751.104 669.039 727.487 652.334 717.92" fill="#2e69cb"/>
    <polygon points="650.018 696.598 666.697 706.249 662.586 668.941 645.898 658.673 650.018 696.598" fill="#2e69cb"/>
    <polygon points="849.785 812.221 814.944 792.051 799.367 783.036 777.503 770.38 761.357 761.038 736.05 746.387 719.875 737.029 698.019 724.381 681.941 715.074 666.697 706.249 650.018 696.598 641.502 691.674 627.64 683.642 635.821 708.47 645.147 713.813 652.334 717.92 669.039 727.487 682.116 734.975 698.199 744.183 720.084 756.706 736.217 765.939 761.519 780.431 777.665 789.664 798.945 801.852 814.502 810.751 849.622 830.863 864.862 839.586 892.307 855.298 897.457 858.244 900.918 841.815 894.706 838.217 865.066 821.062 849.785 812.221" fill="#2e69cb"/>
    <polygon points="850.181 766.297 816.042 745.486 800.431 735.969 777.098 721.743 760.944 711.901 735.632 696.465 719.337 686.539 697.552 673.257 681.49 663.464 660.578 650.717 643.936 640.574 631.885 633.227 620.461 626.265 627.64 647.436 634.965 651.944 645.898 658.673 662.586 668.941 681.64 680.67 697.711 690.563 719.524 703.987 735.778 713.996 761.094 729.574 777.248 739.516 800.034 753.542 815.624 763.133 850.027 784.305 865.371 793.755 898.121 813.907 907.245 819.525 909.445 802.42 900.501 796.968 865.571 775.672 850.181 766.297" fill="#2e69cb"/>
    <polygon points="850.699 706.592 817.452 685.871 801.783 676.104 776.588 660.4 760.426 650.333 735.115 634.555 718.677 624.312 696.98 610.787 680.944 600.795 653.164 583.481 636.614 573.163 620.331 563.011 607.22 554.847 611.319 576.644 623.858 584.441 638.851 593.774 655.436 604.085 681.11 620.063 697.155 630.047 718.881 643.562 735.273 653.756 760.585 669.5 776.747 679.56 801.357 694.871 817.011 704.604 850.536 725.467 866.018 735.093 905.722 759.794 915.319 765.763 919.384 749.401 908.164 742.405 866.227 716.267 850.699 706.592" fill="#2e69cb"/>
    <path d="M851.175,651.585l-32.432-20.294-15.724-9.834-26.894-16.822-13.712-8.582h-7.955c-4.879,0-9.091-4.892-11.354-12.08l-8.46-5.292-16.559-10.36-21.617-13.525-16.012-10.017-33.893-21.196-16.446-10.293-20.028-12.523-15.44-9.659,2.968,20.579,15.907,9.951,18.771,11.738,16.484,10.318,31.84,19.919,16.02,10.018,21.647,13.54,16.517,10.335,25.311,15.837,16.166,10.109,26.322,16.463,15.703,9.834,32.708,20.452,15.619,9.776,46.241,28.926,6.691,4.182-3.907-21.163-.368-.233-48.452-30.312-15.662-9.792Z" fill="#2e69cb"/>
  </g>
  <path d="M763.975,555.732c2.233,4.291,3.627,10.051,3.627,16.421,0,13.199-5.886,23.901-13.144,23.901h10.268c4.784,0,8.933-4.7,11.228-11.654.773-2.329,1.361-4.884,1.658-7.647.162-1.486.255-3.022.255-4.6,0-12.94-5.661-23.417-12.719-23.826-.409,2.588-.798,5.068-1.173,7.405Z" fill="#5787d5"/>
  <path d="M743.103,583.973c2.263,7.188,6.475,12.08,11.354,12.08,7.259,0,13.144-10.702,13.144-23.901,0-6.369-1.394-12.129-3.627-16.421-2.238,14.033-3.845,23.391-4.383,25.028-2.822,8.616-16.563,3.172-12.831-15.269.468-2.329,1.381-7.739,2.609-15.377-1.908,1.461-3.544,3.782-4.872,6.603-1.953,4.174-3.18,9.517-3.18,15.436,0,4.325.68,8.323,1.786,11.821Z" fill="#91b0e4"/>
  <path d="M786.205,321.048c-2.112,4.842-3.681,9.95-4.495,15.286,0,0-15.737,106.197-26.201,174.41-1.189,7.772-2.312,15.027-3.335,21.597-1.048,6.729-2,12.756-2.805,17.773-1.228,7.638-2.141,13.048-2.609,15.377-3.731,18.441,10.009,23.885,12.831,15.269.538-1.636,2.145-10.994,4.383-25.028.375-2.337.763-4.817,1.173-7.405.375-2.387.763-4.85,1.164-7.429,1.035-6.662,2.158-13.95,3.326-21.606,10.377-67.954,24.903-167.69,24.903-167.69,2.76-18.09,13.403-34.019,29.06-43.494l124.939-75.609,9.208-5.568,19.522-11.812,135.349-81.904c9.513-5.76,21.351,2.454,19.289,13.383l-27.466,145.483,18.829,11.387,32.792-194.746c1.828-10.852-9.926-18.833-19.335-13.14l-178.496,108.017-147.467,89.234c-11.04,6.687-19.514,16.613-24.561,28.217Z" fill="#c9d8f2"/>
</svg>