<?xml version="1.0" encoding="UTF-8"?>
<svg id="a" data-name="Layer 1" xmlns="http://www.w3.org/2000/svg" viewBox="438.89 233.60 1005.94 663.85" preserveAspectRatio="xMidYMid meet">
  <polyline points="1001.411 301.037 484.612 631.45 854.561 851.725 1393.952 555.201 1009.883 303.861" fill="#002f4f"/>
  <g>
    <path d="M1392.483,496.544c-1.825,1.749-4.107,3.345-6.691,4.866l-492.195,284.231c-16.044,9.277-40.375,10.265-54.216,2.282l-321.108-185.457c-.989-.61-1.901-1.141-2.737-1.901,1.825-1.749,4.029-3.345,6.615-4.866l492.271-284.154c16.044-9.277,40.301-10.265,54.139-2.282l321.185,185.382c.989.608,1.901,1.215,2.737,1.9Z" fill="#976b3e"/>
    <path d="M1399.099,483.693c0,4.334-2.206,8.897-6.617,12.851-1.825,1.749-4.107,3.345-6.691,4.866l-492.195,284.231c-16.044,9.277-40.375,10.265-54.216,2.282l-321.108-185.457c-.989-.61-1.901-1.141-2.737-1.901-4.486-3.269-6.691-7.375-6.691-11.634,0-6.16,4.562-12.622,13.306-17.717l492.271-284.23c16.044-9.277,40.301-10.266,54.139-2.205l321.185,185.381c6.235,3.651,9.354,8.44,9.354,13.535Z" fill="#a2d5ce"/>
    <polygon points="870.609 766 562.078 587.87 1025.401 320.37 1333.932 498.501 870.609 766" fill="#6abbb1"/>
    <polygon points="876.581 751.305 568.049 573.175 1031.373 305.675 1339.904 483.806 876.581 751.305" fill="#fff"/>
    <path d="M1399.099,483.693v24.561c0,6.158-4.488,12.622-13.307,17.716l-492.195,284.232c-16.044,9.2-40.375,10.264-54.216,2.204l-321.108-185.381c-6.312-3.65-9.429-8.516-9.429-13.612v-24.484c0,4.259,2.205,8.365,6.691,11.634.836.76,1.748,1.292,2.737,1.901l321.108,185.457c13.84,7.983,38.172,6.995,54.216-2.282l492.195-284.231c2.584-1.52,4.866-3.117,6.691-4.866,4.411-3.954,6.617-8.517,6.617-12.851Z" fill="#6abbb1"/>
    <path d="M1250.167,358.597l-.027,9.37c.003-1.321-.873-2.646-2.641-3.666-3.45-1.992-9.119-2.013-12.582,0-1.707.992-2.551,2.288-2.555,3.586l.027-9.371c.003-1.298.847-2.593,2.554-3.585,3.464-2.013,9.133-1.992,12.583,0,1.768,1.021,2.644,2.346,2.641,3.667Z" fill="#91b0e2"/>
    <path d="M1257.902,359.317l-.026,9.371c-.007,2.564-1.747,5.138-5.118,7.096l.027-9.37c3.37-1.959,5.111-4.533,5.117-7.097Z" fill="#91b0e2"/>
    <polygon points="1252.785 366.414 1252.758 375.784 1244.19 380.764 1244.217 371.393 1252.785 366.414" fill="#91b0e2"/>
    <polygon points="1268.547 385.441 1268.521 394.811 1250.602 421.635 1250.629 412.264 1268.547 385.441" fill="#91b0e2"/>
    <polygon points="1268.391 422.519 1268.364 431.889 1256.004 439.072 1256.031 429.701 1268.391 422.519" fill="#91b0e2"/>
    <polygon points="1253.177 442.498 1253.15 451.869 1096.304 361.314 1096.33 351.944 1253.177 442.498" fill="#a3bde6"/>
    <path d="M1256.031,429.701l9.615,5.551-12.469,7.246-156.846-90.555,12.47-7.246,9.615,5.551,12.36-7.183,17.799,10.276,47.68-9.641,22.899,13.221,8.568-4.979c6.891-4.004,18.01-4.004,24.947,0,3.486,2.013,5.22,4.619,5.234,7.246.052,2.606-1.689,5.234-5.117,7.225l-8.568,4.979,24.331,14.047-17.918,26.823,17.762,10.255-12.36,7.182ZM1235.02,362.198c3.523,2.034,9.083,2.034,12.547.021,3.463-2.013,3.482-5.255-.041-7.289-3.45-1.992-9.119-2.013-12.583,0-3.463,2.013-3.373,5.276.077,7.267h0Z" fill="#c2d3ef"/>
    <polygon points="1265.646 435.252 1265.619 444.623 1253.15 451.869 1253.177 442.498 1265.646 435.252" fill="#91b0e2"/>
    <path d="M1223.92,414.037l-78.699-45.437c-1.738-1.004-1.52-2.756.487-3.916h0c2.007-1.159,5.043-1.285,6.782-.281l78.699,45.437c1.738,1.004,1.52,2.757-.487,3.916h0c-2.007,1.159-5.043,1.285-6.782.281Z" fill="#fff"/>
    <path d="M980.68,389.927c11.742,6.78,11.742,17.773,0,24.553-11.742,6.78-30.781,6.78-42.523,0-11.742-6.78-11.742-17.773,0-24.553,11.742-6.78,30.781-6.78,42.523,0Z" fill="#003967"/>
    <path d="M900.527,432.936c11.742,6.78,11.742,17.773,0,24.553-11.742,6.78-30.781,6.78-42.523,0-11.742-6.78-11.742-17.773,0-24.553,11.742-6.78,30.781-6.78,42.523,0Z" fill="#003967"/>
    <path d="M824.935,474.642c11.742,6.78,11.742,17.773,0,24.553-11.742,6.78-30.781,6.78-42.523,0-11.742-6.78-11.742-17.773,0-24.553,11.742-6.78,30.781-6.78,42.523,0Z" fill="#003967"/>
    <path d="M746.085,520.258c11.742,6.78,11.742,17.773,0,24.553-11.742,6.78-30.781,6.78-42.523,0-11.742-6.78-11.742-17.773,0-24.553,11.742-6.78,30.781-6.78,42.523,0Z" fill="#003967"/>
    <g>
      <g>
        <polygon points="1186.955 523.316 1002.71 416.933 1010.082 412.676 1194.328 519.059 1186.955 523.316" fill="#5d7280"/>
        <polygon points="1171.903 532.007 987.657 425.624 995.03 421.367 1179.275 527.75 1171.903 532.007" fill="#5d7280"/>
        <polygon points="1100.894 508.39 972.605 434.315 979.977 430.058 1108.267 504.133 1100.894 508.39" fill="#5d7280"/>
      </g>
      <g>
        <polygon points="1111.714 566.76 927.469 460.377 934.841 456.12 1119.087 562.503 1111.714 566.76" fill="#5d7280"/>
        <polygon points="1096.662 575.452 912.416 469.068 919.789 464.811 1104.034 571.195 1096.662 575.452" fill="#5d7280"/>
        <polygon points="1011.664 543.757 897.364 477.76 904.736 473.503 1019.037 539.5 1011.664 543.757" fill="#5d7280"/>
      </g>
      <g>
        <polygon points="1036.473 610.205 852.228 503.821 859.6 499.564 1043.846 605.948 1036.473 610.205" fill="#5d7280"/>
        <polygon points="1021.421 618.896 837.175 512.513 844.548 508.256 1028.793 614.639 1021.421 618.896" fill="#5d7280"/>
        <polygon points="1006.368 627.587 822.123 521.204 829.495 516.947 1013.741 623.33 1006.368 627.587" fill="#5d7280"/>
      </g>
      <g>
        <polygon points="961.232 653.649 776.987 547.265 784.359 543.008 968.605 649.392 961.232 653.649" fill="#5d7280"/>
        <polygon points="946.18 662.34 761.934 555.957 769.307 551.7 953.552 658.083 946.18 662.34" fill="#5d7280"/>
        <polygon points="903.149 654.877 746.882 564.648 754.254 560.391 910.522 650.62 903.149 654.877" fill="#5d7280"/>
      </g>
    </g>
    <g>
      <path d="M982.647,415.284c-6.396,3.693-14.876,5.451-23.255,5.271-2.382-.051-4.756-.258-7.073-.622-.613-.097-1.223-.203-1.828-.323-.511-.1-1.018-.207-1.52-.324-.141-.032-.281-.064-.42-.098-3.668-.88-7.104-2.181-10.087-3.903-2.685-1.551-4.779-3.312-6.282-5.193-.419-.525-.792-1.059-1.12-1.601-.099-.164-.194-.33-.285-.497-.048-.085-.095-.171-.139-.259-.23-.441-.43-.886-.6-1.335-2.197-5.804.612-12.114,8.428-16.627,12.201-7.045,31.981-7.045,44.182,0,12.201,7.045,12.201,18.466,0,25.51Z" fill="#002f4f"/>
      <path d="M963.808,390.514c-22.04,5.826-30.746,17.643-31.223,18.69s23.185,9.971,23.185,9.971c0,0,24.998-14.544,24.043-21.044-.954-6.501-16.005-7.616-16.005-7.616Z" fill="#fce7a3"/>
      <path d="M932.181,410.092c-.419-.525-.792-1.059-1.12-1.601-.099-.164-.194-.33-.285-.497-.048-.085-.095-.171-.139-.259-.23-.441-.43-.886-.6-1.335,2.667-1.202,5.276-2.186,7.618-2.745h.001c1.12-.269,2.177-.438,3.152-.488,0,0-.003.002-.008.007-.003.002-.007.004-.01.007-.28.225-3.923,3.154-7.938,6.374-.221.179-.444.358-.67.538Z" fill="#028c7b"/>
      <path d="M963.528,414.504s-.342.15-.967.434h-.001c-1.421.647-4.302,1.985-7.921,3.809-.744.375-1.519.772-2.319,1.187-.613-.097-1.223-.203-1.828-.323-.511-.1-1.018-.207-1.52-.324-.141-.032-.281-.064-.42-.098-3.668-.88-7.104-2.181-10.087-3.903-2.685-1.551-4.779-3.312-6.282-5.193-.419-.525-.792-1.059-1.12-1.601.229-.029.463-.056.703-.081.44-.049,1.123-.33,1.922-.739,1.554-.794,3.546-2.072,5.026-3.064.097-.064.19-.126.281-.187,1.002-.677,1.717-1.183,1.807-1.247.006-.005.008-.007.008-.007,1.143-.027,2.837.116,4.714.417,1.449.234,3.006.564,4.499.983.897.252,1.773.538,2.585.856,2.589,1.016,4.576,2.15,6.099,3.263.981.715,1.767,1.422,2.397,2.084.003.003.004.006.006.007,1.615,1.693,2.201,3.087,2.365,3.557.04.11.055.17.055.17Z" fill="#028c7b"/>
      <path d="M961.108,410.779s-9.448.982-15.689-2.216c-.123-.071-.263-.132-.368-.192l-.07-.041-.035-.02c-3.278-1.994-.438-4.322.474-4.686.07-.02.105-.041.105-.041,0,0,3.366.486,5.259,1.073,1.911.597,5.644,2.429,5.644,2.429,3.856,2.348,4.68,3.694,4.68,3.694Z" fill="#fda492"/>
      <path d="M950.357,407.46c-1.287-.996-.663-2.819-.663-2.819.875-.176,2.049-.596,3.187-1.085,1.319-.556,2.634-1.179,3.513-1.637.687-.334,1.101-.56,1.101-.56l1.991.828,3.972,1.627s-1.219.649-2.468,1.539c-1.449,1.052-2.509,2.568-2.245,3.633.486,1.992-7.088-.52-8.388-1.526Z" fill="#fda492"/>
      <path d="M960.99,405.353c-2.418-.021-5.402-.408-8.109-1.797,1.319-.556,2.634-1.179,3.513-1.637l3.092.268,3.972,1.627s-1.219.649-2.468,1.539Z" fill="#fda492"/>
      <path d="M951.657,402.297c.415.987,4.372,1.765,6.792,2.029.84.091,1.69.112,2.53.055,8.18-.554,23.889-4.094,12.136-10.978-2.963-1.735-8.699-3.172-14.321.031-1.313.748-1.872,1.62-4.158,2.826-2.285,1.206-3.789,4.114-2.98,6.037Z" fill="#fda492"/>
      <path d="M955.571,400.204c-.129-.097-1.239-.958-.481-1.376.104-.056.294-.102.753-.209,1.097-.255,3.381-.786,3.472-1.593l.559.021c-.115,1.009-2.526,1.57-3.823,1.871-.246.057-.522.122-.582.147-.304.168.247.717.546.941l-.444.197Z" fill="#f28373"/>
      <path d="M965.14,399.05c-.005-.007-.579-.771-2.223-1.72l-.006-.004.463-.267.007.004c1.742,1.006,2.338,1.806,2.363,1.839l-.604.147Z" fill="#fce7a3"/>
      <path d="M957.686,394.219l.235-.354c1.417.311,2.521,1.357,2.567,1.402l-.561.196c-.01-.009-1.031-.978-2.24-1.244Z" fill="#fce7a3"/>
      <path d="M966.69,389.7c-1.452.051-4.238.538-4.445,1.37-.892,3.581,5.042,7.91,5.042,7.91.002.037-.21-.127.888.85-2.479,1.621-1.659,2.214-1.223,2.868l1.813-.335.533,1.305s10.819-1.616,10.633-6.157c-.218-5.36-8.284-7.987-13.242-7.812Z" fill="#fce7a3"/>
      <path d="M953.472,400.286s.503.446,1.169.79c.732.378,2.091.665,2.091.665,0,0-1.767.611-3.041.053-1.274-.558-.307-1.076-.307-1.076-.119-.17-.03-.345.088-.432Z" fill="#fff"/>
      <path d="M968.648,402.237c2.34-.436,3.471.804,2.53,1.548-1.176.931-2.557.291-4.72.633-1.541.244-1.53-.957-.171-1.502,1.252-.502,2.362-.68,2.362-.68Z" fill="#fda492"/>
      <path d="M968.394,402.912c1.503-.248,2.441-.014,2.421.372-.02.386-1.028.737-1.445.46-.578-.386-2.223.129-2.336-.046-.253-.397.998-.726,1.361-.786Z" fill="#f28373"/>
      <path d="M966.017,403.936l-1.355.464c.006.222.195.359.57.412l1.017-.708c.063-.118-.023-.17-.232-.168Z" fill="#93ddfc"/>
      <path d="M939.034,404.449c-.108.054-.216.107-.322.158-1.399.685-2.708,1.262-3.861,1.744h-.001c-.996.417-1.875.762-2.592,1.045-.599.236-1.109.435-1.482.598-.048-.085-.095-.171-.139-.259.36-.151.82-.331,1.375-.55.89-.35,2.035-.802,3.348-1.366,1.039-.447,2.183-.967,3.388-1.566l.244.167.041.029Z" fill="#42a99c"/>
      <path d="M959.392,420.555c-2.382-.051-4.756-.258-7.073-.622-.613-.097-1.223-.203-1.828-.323.842-.538,1.658-1.051,2.433-1.521,1.872-1.142,3.499-2.046,4.623-2.518,2.68-1.123,4.939-1.128,5.702-1.088.183.009.28.021.28.021-.295,1.811-1.906,3.917-4.136,6.051Z" fill="#028c7b"/>
      <path d="M948.971,419.286c-.141-.032-.281-.064-.42-.098.844-.645,1.679-1.261,2.482-1.828,2.349-1.66,4.443-2.896,5.805-3.168l.149.24c-1.293.258-3.31,1.454-5.595,3.068-.782.553-1.595,1.156-2.421,1.787Z" fill="#42a99c"/>
      <path d="M963.109,399.515c-.181.104-.474.104-.655,0s-.181-.274,0-.378.474-.104.655,0,.181.274,0,.378Z" fill="#002f4f"/>
      <path d="M957.779,396.545c-.181.104-.474.104-.655,0s-.181-.274,0-.378.474-.104.655,0,.181.274,0,.378Z" fill="#002f4f"/>
      <path d="M971.321,392.575c.578.203,1.043.402,1.611.718.254.141.501.293.741.457.11.075.218.153.325.233-.11-.084.067.055.072.058.054.044.108.089.16.135.187.161.366.332.534.513.088.095.17.193.254.292.134.158-.081-.12.036.047.036.05.072.1.107.151.123.181.235.37.33.567.025.052.049.105.072.158-.078-.174-.002.004.009.033.038.106.071.213.1.321.105.391.534.631.923.524.394-.108.63-.53.524-.923-.661-2.452-3.158-3.944-5.399-4.73-.371-.13-.837.147-.923.524-.095.419.127.783.524.923h0Z" fill="#fbde82"/>
      <path d="M976.368,399.079c-.076.367-.185.722-.323,1.07-.027.069-.028.059.001-.003-.023.048-.044.098-.066.146-.041.088-.084.175-.129.261-.091.176-.19.348-.296.516-.102.163-.211.322-.325.478-.034.047-.068.093-.104.139.048-.062.021-.027-.012.013-.067.082-.135.164-.204.245-.298.345-.622.666-.962.968-.294.261-.286.798,0,1.061.314.288.747.279,1.061,0,1.332-1.183,2.44-2.724,2.805-4.494.079-.383-.111-.829-.524-.923-.375-.085-.838.113-.923.524h0Z" fill="#fbde82"/>
      <path d="M971.903,404.903c-.318.3-.644.592-.978.874-.171.144-.344.286-.52.425-.052.041-.104.082-.157.123-.015.012-.098.075-.038.03-.096.074-.193.147-.29.219-.77.573-1.573,1.101-2.397,1.593-.337.201-.49.684-.269,1.026.218.339.666.484,1.026.269,1.675-1,3.264-2.158,4.683-3.499.286-.27.293-.792,0-1.061-.306-.281-.756-.288-1.061,0h0Z" fill="#fbde82"/>
      <path d="M965.873,406.02c-1.059.862-2.117,1.723-3.176,2.585-.306.249-.278.806,0,1.061.325.298.735.265,1.061,0,1.059-.862,2.117-1.723,3.176-2.585.306-.249.278-.806,0-1.061-.325-.298-.735-.265-1.061,0h0Z" fill="#fbde82"/>
      <path d="M965.594,410.559c-.596.448-1.192.897-1.787,1.345" fill="#fbde82"/>
      <path d="M952.279,394.937c-1.627.986-3.255,1.972-4.882,2.958-.346.21-.476.673-.269,1.026.203.346.678.48,1.026.269,1.627-.986,3.255-1.972,4.882-2.958.346-.21.476-.673.269-1.026-.203-.346-.678-.48-1.026-.269h0Z" fill="#fbde82"/>
      <path d="M948.648,399.478c-1.095.81-2.19,1.62-3.286,2.43-.162.12-.289.246-.345.448-.049.18-.027.419.076.578.201.311.689.519,1.026.269,1.095-.81,2.19-1.62,3.286-2.43.162-.12.289-.246.345-.448.049-.18.027-.419-.076-.578-.201-.311-.689-.519-1.026-.269h0Z" fill="#fbde82"/>
      <path d="M965.603,392.566c.444,2.498,2.413,4.438,4.485,5.726.344.214.826.074,1.026-.269.21-.359.076-.812-.269-1.026-.999-.621-1.896-1.352-2.641-2.295.058.073-.031-.041-.049-.065-.038-.052-.076-.104-.113-.156-.073-.104-.143-.209-.21-.316-.137-.219-.263-.445-.374-.678-.026-.054-.051-.109-.076-.164-.095-.209.043.13-.034-.084-.04-.111-.082-.22-.118-.332-.077-.242-.137-.488-.181-.738-.071-.399-.558-.624-.923-.524-.421.116-.595.522-.524.923h0Z" fill="#fbde82"/>
    </g>
    <g>
      <path d="M901.347,458.035c-5.292,3.055-11.965,4.827-18.856,5.316-.053.003-.106.007-.158.01-.028.003-.056.005-.084.006-.431.029-.862.052-1.292.071-.12.005-.242.011-.362.014-6.452.236-13.006-.642-18.716-2.635-.204-.07-.403-.141-.602-.216-.904-.331-1.785-.69-2.642-1.079-.18-.082-.36-.166-.539-.25-.815-.386-1.603-.799-2.364-1.238-5.831-3.367-8.964-7.702-9.396-12.11-.034-.333-.05-.667-.051-1.001-.003-.465.025-.932.082-1.396.053-.433.133-.866.237-1.296l.04-.155c.992-3.8,4.021-7.456,9.087-10.381,12.597-7.273,33.022-7.273,45.619,0,12.597,7.273,12.595,19.066-.001,26.339Z" fill="#002f4f"/>
      <path d="M876.939,441.814c-1.045.604-2.74.604-3.786,0-1.045-.604-1.045-1.582,0-2.186,1.045-.604,2.74-.604,3.786,0,1.045.604,1.045,1.582,0,2.186Z" fill="#aa0062"/>
      <path d="M882.692,438.492c-1.045.604-2.74.604-3.786,0-1.045-.604-1.045-1.582,0-2.186,1.045-.604,2.74-.604,3.786,0s1.045,1.582,0,2.186Z" fill="#aa0062"/>
      <path d="M882.492,463.352c-.053.003-.106.007-.158.01-.028.003-.056.005-.084.006-.431.029-.862.052-1.292.071-.12.005-.242.011-.362.014.215-.087.415-.168.601-.244.303-.121.567-.226.781-.311.252-.1.437-.173.545-.215.069-.026.106-.041.106-.041-.028.148-.057.295-.085.442-.004.03-.01.058-.018.086-.012.061-.023.12-.034.18Z" fill="#43ad89"/>
      <path d="M882.25,463.368c-.431.029-.862.052-1.292.071-.12.005-.242.011-.362.014-6.452.236-13.006-.642-18.716-2.635-.204-.07-.403-.141-.602-.216-.904-.331-1.785-.69-2.642-1.079-.18-.082-.36-.166-.539-.25-.815-.386-1.603-.799-2.364-1.238-5.831-3.367-8.964-7.702-9.396-12.11-.034-.333-.05-.667-.051-1.001-.003-.465.025-.932.082-1.396.053-.433.133-.866.237-1.296.533.063,1.061.135,1.587.214,3.92.593,7.647,1.596,11.099,2.853,1.144.417,2.261.862,3.343,1.329.149.064.296.129.444.194,2.241.987,4.338,2.07,6.26,3.195,1.833,1.07,3.511,2.18,5.01,3.282.207.153.41.305.61.457l.004.003c.681.517,1.323,1.033,1.923,1.54,3.655,3.097,5.717,5.914,5.639,7.385-.006.135-.031.26-.075.37-.041.107-.098.202-.173.286-.007.009-.016.018-.025.028Z" fill="#93ddfc"/>
      <path d="M862.201,446.748s-5.872,2.932,3.186,10.225c0,0,9.855-.628,9.357-2.983-.498-2.355-12.543-7.242-12.543-7.242Z" fill="#fff"/>
      <path d="M874.739,453.995s-.02.011-.058.011c-.521.189-4.82,1.625-7.191.746-1.214-.456-2.159-1.269-2.892-2.226l-.019-.033c-1.889-2.449-2.39-5.744-2.39-5.744,0,0,4.704-1.18,9.041-3.462.463-.245.906-.501,1.35-.757,1.176-.701,2.255-1.481,3.161-2.337.155-.156.289-.301.443-.456,0,0,10.237,5.532,6.863,7.124-1.446.679-3.046,1.959-4.414,3.195-.617.534-1.156,1.068-1.638,1.547-.965.979-2.256,2.393-2.256,2.393Z" fill="#fda492"/>
      <path d="M871.224,443.286c-4.611,2.332-2.396,5.633-.62,6.778,2.91,1.875,5.629,2.007,6.398,1.543.471-.477,1.024-1.014,1.628-1.556l-2.098-9.956-.796.099c-.907.858-1.996,1.635-3.151,2.328-.445.267-.9.523-1.362.764Z" fill="#fda492"/>
      <path d="M879.94,435.829l-3.751,3.909s-6.798,5.934-2.154,10.079c2.475,2.205,6.348,2.465,8.306,1.897s6.947-2.526,9.962-4.015c2.29-1.132,3.751-2.441,4.614-3.262l.004-.004c.27-.257.48-.462.643-.604,1.327-1.178,2.123-2.391,2.406-3.58.775-3.13-1.973-6.032-7.657-7.282-4.333-.958-7.427-.24-9.438.716-2.006.952-2.935,2.146-2.935,2.146Z" fill="#fda492"/>
      <path d="M878.779,447.137l5.465,2.419s-2.541,1.053-4.521.204c-2.244-.961-.944-2.623-.944-2.623Z" fill="#fff"/>
      <path d="M883.17,441.18c.032.018.069.033.11.042,1.731.419,4.507,1.083,4.507,1.083l.264-.363s-2.777-.664-4.507-1.083c-.172-.042-.374.005-.446.105-.057.076-.023.162.071.216Z" fill="#562809"/>
      <path d="M894.391,445.674c.082.047.207.069.326.051.185-.027.292-.136.245-.239-.019-.044-.484-1.052-1.765-1.792-.132-.076-.352-.076-.484,0s-.132.203,0,.28c1.147.662,1.587,1.602,1.589,1.611.016.034.048.067.089.09Z" fill="#562809"/>
      <path d="M865.387,456.974c-11.335-6.07-9.059-10.773-6.093-11.675,2.965-.902,4.71.481,4.178,1.091-.533.61-3.19,3.043-1.16,6.381,2.031,3.338,3.075,4.203,3.075,4.203Z" fill="#fbde82"/>
      <path d="M875.662,453.003c3.239,1.477.488,3.583-2.244,4.342-2.732.759-8.031-.372-8.031-.372,0,0,5.738-.338,8.491-1.853.843-.464.866-1.129.866-1.129l.918-.988Z" fill="#fbde82"/>
      <path d="M858.635,459.524c-.18-.082-.36-.166-.539-.25,1.942-1.554,3.448-3.062,3.965-4.293.047-.113.086-.224.117-.333.029-.107.202-.179.388-.163.062.005.116.019.158.041.076.032.125.084.13.14.001.014,0,.03-.004.045-.057.202-.142.412-.252.63-.633,1.239-2.107,2.698-3.964,4.186Z" fill="#e7f4fd"/>
      <path d="M868.9,457.397c-.072.026-.147.052-.218.08-1.98.732-4.363,1.945-6.803,3.341-.204-.07-.403-.141-.602-.216,2.277-1.305,4.519-2.462,6.46-3.237.275-.11.544-.212.806-.306.16-.057.368-.019.47.065.098.092.047.213-.113.273Z" fill="#e7f4fd"/>
      <path d="M883.296,447.814c.43.248,1.074.45,1.599.517.593.075.92-.031,1.087-.131.257-.156.471-.453.801-.905.298-.408.672-.918,1.187-1.465l-.59-.188c-.534.566-.914,1.086-1.216,1.503-.267.368-.499.684-.67.786-.063.04-.239.047-.455.02-.625-.078-1.398-.405-1.539-.631l-.634.127c.079.129.233.254.431.368Z" fill="#f28373"/>
      <path d="M848.403,442.515l-2.037,1.014c.053-.433.133-.866.237-1.296l.04-.155c.563.103,1.08.226,1.548.369.072.023.144.046.212.069Z" fill="#93ddfc"/>
      <path d="M891.273,445.923c-.187.108-.489.108-.676,0s-.187-.282,0-.39.489-.108.676,0,.187.282,0,.39Z" fill="#002f4f"/>
      <path d="M885.481,443.396c-.187.108-.489.108-.676,0s-.187-.282,0-.39.489-.108.676,0,.187.282,0,.39Z" fill="#002f4f"/>
      <path d="M873.752,441.768c-1.435-.484-4.908-1.231-3.931-3.033.496-.916,1.848-1.69,3.503-1.775-.757-1.028-.311-2.312,1.074-3.093s3.62-1.006,5.381-.543c.415-.765,1.41-1.419,2.671-1.754,1.261-.336,2.768-.349,4.045-.035.952.234,1.771.637,2.76.812,1.396.248,2.905.008,4.358.086,2.038.109,3.924.898,4.742,1.981.633.839.65,1.804,1.336,2.63.572.688,1.566,1.226,2.294,1.864,1.952,1.709,1.698,4.155-.595,5.716-.104-.313-.208-.625-.312-.938-.428.476-1.596.616-2.431.381s-1.344-.754-1.518-1.282-.062-1.07.051-1.603c-3.688-.46-6.651-2.425-6.931-4.598-1.01.589-2.493.896-3.921.812s-2.773-.557-3.557-1.251c-.831.755-2.494,1.119-3.653.526" fill="#aa0062"/>
      <path d="M879.411,438.993c1.358-1.269-.115-2.826-2.137-2.793-2.022.032-3.672,2.563-2.085,4.258.854.914,1.952.658,4.222-1.465Z" fill="#fda492"/>
      <path d="M878.224,439.001c1.43-1.618-.353-2.293-1.128-2.158-.774.135-.125.565.013,1.158.138.593-1.75.988-1.133,1.501.335.278,1.728.086,2.247-.501Z" fill="#f28373"/>
      <path d="M882.654,435.426c-.48.987.13,2.122,1.494,2.778,1.364.656,3.407.798,5.002.347.113.917.911,1.8,2.151,2.377,1.24.577,2.902.841,4.479.71-.417.942-.002,1.994,1.08,2.74.823.567,2.188.963,3.392.71,1.059-.223,1.683-.897,1.729-1.547s-.382-1.281-.886-1.863c-1.933-2.233-5.03-4.047-8.076-5.819-.972-.566-1.953-1.136-3.106-1.574-1.153-.438-2.505-.74-3.884-.709s-2.774.438-3.431,1.139" fill="#aa0062"/>
      <path d="M882.88,434.257c-.119.092.112-.068.136-.082.085-.051.173-.099.262-.142.158-.077.198-.089.417-.157.411-.126.737-.18,1.131-.195.43-.017.8.009,1.171.087.192.041.383.092.569.155.219.075.241.087.461.209.354.197.819.086,1.026-.269.202-.345.086-.828-.269-1.026-1.785-.994-4.337-.908-5.963.359-.32.249-.262.799,0,1.061.316.316.74.25,1.061,0h0Z" fill="#b92e7e"/>
      <path d="M891.614,437.753c-.111.496-.046.965.165,1.423.197.427.542.758.913,1.034.648.484,1.475.75,2.267.866.208.03.389.035.578-.076.156-.091.304-.269.345-.448.044-.192.034-.407-.076-.578-.098-.152-.26-.317-.448-.345-.357-.052-.709-.133-1.05-.253-.044-.015-.088-.032-.131-.048-.026-.01-.152-.067-.038-.014s-.01-.005-.035-.016c-.04-.018-.08-.037-.12-.057-.139-.069-.275-.146-.404-.233-.028-.019-.055-.038-.083-.058-.099-.072.002.011.042.034-.074-.042-.142-.121-.202-.181-.046-.046-.099-.14-.154-.172.066.088.083.109.051.063-.013-.018-.025-.036-.037-.054-.023-.036-.046-.072-.066-.11-.017-.03-.031-.062-.047-.093-.042-.081.06.168.021.047-.023-.07-.04-.139-.057-.211-.021-.09.013.191.009.064-.001-.039-.004-.077-.004-.116,0-.011.013-.109.007-.116.022.028-.036.208,0,.045.085-.382-.116-.83-.524-.923-.38-.087-.831.114-.923.524h0Z" fill="#b92e7e"/>
      <path d="M897.528,442.489c.138.623.702,1.023,1.261,1.243.575.226,1.215.241,1.819.149.568-.086,1.138-.34,1.537-.762.473-.501.604-1.116.675-1.78.042-.391-.375-.767-.75-.75-.442.02-.705.331-.75.75-.006.056-.013.112-.019.168-.01.088.025-.105-.008.036-.026.113-.051.222-.087.333.025-.075.016-.032-.01.016-.019.034-.04.068-.06.102-.071.124.018.016.016-.013.002.022-.072.081-.086.096-.031.032-.064.062-.097.092-.086.079.02,0,.02-.014,0,.04-.22.132-.258.151-.167.085.067-.012-.026.01-.047.011-.092.031-.138.044-.065.019-.227.084-.295.065.047.013.113-.011.014-.003-.052.004-.105.009-.157.011-.106.005-.211.005-.317-.001-.04-.002-.124.005-.157-.012l.076.011c-.03-.004-.061-.01-.091-.016-.091-.017-.181-.038-.269-.066.002,0-.187-.063-.091-.027.094.035-.058-.029-.077-.039-.043-.022-.084-.047-.125-.073-.016-.01-.031-.02-.046-.031-.046-.032-.031-.02.045.035,0-.009-.066-.062-.075-.07-.11-.096.042.086.01.023-.007-.014-.042-.091-.057-.097.041.015.057.177.022.018-.085-.383-.551-.644-.923-.524-.403.13-.615.512-.524.923h0Z" fill="#b92e7e"/>
      <path d="M892.689,435.387c.675-.107,1.486.086,2,.545.604.539.759,1.38,1.18,2.044.882,1.391,2.436,2.221,3.956,2.726.918.306,1.312-1.143.399-1.446-.776-.258-1.542-.61-2.189-1.117s-.997-1.1-1.328-1.839c-.358-.799-.868-1.507-1.655-1.932-.849-.458-1.818-.576-2.762-.426-.4.064-.623.563-.524.923.117.426.521.588.923.524h0Z" fill="#b92e7e"/>
      <path d="M884.322,435.822c.168.742.825,1.302,1.496,1.593.766.331,1.605.47,2.438.418.391-.024.769-.328.75-.75-.017-.385-.331-.776-.75-.75-.164.01-.329.014-.494.008-.087-.003-.174-.008-.26-.015-.038-.003-.076-.008-.115-.011-.096-.009-.024.004.029.005-.312-.009-.634-.139-.926-.237-.096-.032.127.06.038.017-.032-.016-.066-.03-.098-.046-.072-.035-.144-.074-.213-.115-.059-.035-.115-.074-.171-.112-.085-.059.018-.002.035.027-.016-.026-.065-.056-.089-.078-.044-.041-.087-.085-.127-.131-.089-.102.017-.008.023.033-.003-.019-.036-.053-.047-.07-.028-.044-.046-.102-.077-.143.099.131.044.126.027.051-.007-.031-.017-.061-.024-.093-.087-.383-.549-.645-.923-.524-.401.13-.617.512-.524.923h0Z" fill="#b92e7e"/>
      <path d="M877.952,433.471c-1.441.084-3.283.637-3.766,2.177-.117.374.138.835.524.923.408.093.797-.123.923-.524.008-.024.016-.048.024-.072.039-.127-.065.117-.022.054.03-.043.05-.095.078-.14.016-.025.05-.057.058-.086-.006.023-.108.129-.039.051.044-.05.088-.099.135-.146.046-.045.118-.088.156-.139-.021.028-.12.087-.037.029.027-.019.054-.038.081-.057.124-.084.255-.157.39-.223.029-.014.058-.027.087-.04.108-.051-.044.011-.045.018.002-.02.181-.069.21-.079.138-.048.279-.089.421-.124.157-.039.315-.068.474-.094.103-.017.003.013-.037.004.03.006.079-.009.109-.012.092-.009.184-.016.276-.021.391-.023.769-.329.75-.75-.017-.387-.331-.774-.75-.75h0Z" fill="#b92e7e"/>
      <path d="M872.326,437.321c-.595.336-1.087.814-1.344,1.453-.138.342-.146.705-.089,1.065.063.396.275.732.52,1.04.111.14.36.22.53.22.184,0,.404-.082.53-.22.131-.143.229-.331.22-.53-.009-.211-.089-.366-.22-.53l-.027-.034.117.152c-.082-.109-.152-.224-.207-.348l.076.179c-.044-.106-.075-.214-.093-.327l.027.199c-.015-.111-.016-.22-.003-.332l-.027.199c.017-.116.047-.226.092-.334l-.076.179c.057-.129.13-.248.215-.36l-.117.152c.121-.152.261-.284.414-.403l-.152.117c.118-.089.242-.169.37-.241.342-.193.486-.689.269-1.026-.223-.346-.66-.476-1.026-.269h0Z" fill="#b92e7e"/>
    </g>
    <g>
      <path d="M747.553,545.55c-6.331,3.655-14.631,5.48-22.926,5.475-1.175,0-2.352-.038-3.523-.113-.244-.015-.488-.032-.732-.051-.278-.021-.553-.044-.828-.07-.402-.037-.803-.078-1.205-.123-.547-.063-1.091-.134-1.634-.213-2.219-.324-4.392-.785-6.475-1.384-3.055-.877-5.917-2.051-8.462-3.52-4.899-2.829-7.9-6.338-9.002-10.001-.075-.249-.141-.498-.2-.747-.021-.09-.038-.18-.056-.27-.191-.931-.26-1.869-.207-2.805.007-.149.018-.296.032-.443.428-4.429,3.571-8.787,9.431-12.17,12.643-7.3,33.143-7.299,45.786,0,12.643,7.3,12.643,19.136,0,26.436Z" fill="#002f4f"/>
      <polyline points="709.936 532.988 727.517 541.331 729.829 539.487 716.806 530.963 709.936 532.988" fill="#bfcdd9"/>
      <path d="M724.627,551.026c-1.175,0-2.352-.038-3.523-.113-.244-.015-.488-.032-.732-.051-.278-.021-.553-.044-.828-.07-.402-.037-.803-.078-1.205-.123-.547-.063-1.091-.134-1.634-.213l1.877-1.029,5.258-2.887,1.075-.59,1.324-.727c-.032.367-.081.74-.149,1.115-.262,1.517-.783,3.1-1.464,4.689Z" fill="#d073a9"/>
      <path d="M721.104,550.913c-.244-.015-.488-.032-.732-.051-.278-.021-.553-.044-.828-.07-.402-.037-.803-.078-1.205-.123-.547-.063-1.091-.134-1.634-.213-2.219-.324-4.392-.785-6.475-1.384-3.055-.877-5.917-2.051-8.462-3.52-4.899-2.829-7.9-6.338-9.002-10.001-.075-.249-.141-.498-.2-.747-.021-.09-.038-.18-.056-.27-.191-.931-.26-1.869-.207-2.805.419-.249.821-.437,1.2-.554.132-.041.262-.073.387-.096,2.973-.541,11.199,1.94,16.713,3.785.422.142.828.279,1.213.412,2.434.833,4.098,1.454,4.098,1.454,0,0,1.511.944,3.392,2.266.566.398,1.165.831,1.768,1.282,2.19,1.643,4.411,3.537,5.164,4.945.157.291.094.669-.149,1.115-.638,1.174-2.528,2.815-4.986,4.576Z" fill="#d073a9"/>
      <path d="M718.339,550.668c-.547-.063-1.091-.134-1.634-.213-2.219-.324-4.392-.785-6.475-1.384,4.536-1.35,8.596-2.247,8.596-2.247-.025.871-.104,1.744-.244,2.602-.066.419-.149.833-.243,1.242Z" fill="#d073a9"/>
      <path d="M692.511,534.532c-.191-.931-.26-1.869-.207-2.805.007-.149.018-.296.032-.443.407-.045.799-.082,1.168-.11.769-.06,1.456-.083,2.042-.065.063.003.125.004.184.008.099.004.193.011.284.018,0,0-.024.027-.069.077h-.002c-.237.265-1.072,1.175-2.343,2.349-.334.308-.697.634-1.088.972Z" fill="#d073a9"/>
      <path d="M720.219,538.728c2.517,2.848-.805,5.073-2.225,4.993-1.42-.08-4.356-4.218-4.356-4.218,0,0-6.462.014-7.619-.716-1.158-.73,2.297-4.923,6.794-3.752,4.498,1.171,7.406,3.693,7.406,3.693Z" fill="#c2478d"/>
      <path d="M733.251,520.52c-15.62-2.632-22.843,11.426-23.316,12.467l15.616.205,7.7-12.672Z" fill="#bfcdd9"/>
      <path d="M721.96,526.656c-3.56-.158-5.249,1.301-5.271,3.04-.022,1.739-2.46,3.348-2.46,3.348l1.818.065,5.983-4.133-.07-2.32Z" fill="#bfcdd9"/>
      <path d="M710.517,536.196l.47.723c1.146,1.763,4.154,2.886,7.408,2.767h0s.653-.535,1.821-1.337c1.068-.735,2.564-1.688,4.407-2.666,1.111-.589,2.345-1.188,3.684-1.747,0,0-1.576-7.728-5.377-5.705-.469.251-1.023.566-1.617.919-.224.135-.351.04-.592.183-4.184,2.546-10.204,6.863-10.204,6.863Z" fill="#fda492"/>
      <path d="M720.524,529.454c-3.871,3.622-2.578,6.665-.307,8.896,1.068-.735,2.564-1.688,4.407-2.666.789-1.634,1.217-3.308,1.217-3.308l-4.527-3.225c-.223.135-.548.161-.79.303Z" fill="#fda492"/>
      <path d="M734.518,522.189c14.592-.06,18.346,8.324,8.552,14.592-5.485,3.511-15.553,4.549-15.553,4.549,0,0-8.365-9.782-1.082-14.981,7.282-5.199,8.084-4.161,8.084-4.161Z" fill="#bfcdd9"/>
      <path d="M744.054,528.676c.303,1.731-.596,3.451-2.267,4.898-.954.826-2.493,1.021-3.557,1.608-.959.529-1.435,1.472-2.434,1.83-5.464,1.963-11.706,2.24-13.839,1.248-3.044-1.415-2.868-6.602-1.269-8.632,2.057-2.61,5.272-4.707,5.272-4.707,0,0,10.065-3.049,15.118-.013,1.985,1.192,2.763,2.554,2.975,3.768Z" fill="#fda492"/>
      <path d="M745.698,524.762c-4.372,6.315-23.946,3.655-23.946,3.655,0,0-2.044-7.676,7.081-8.336,10.243-.741,16.865,4.681,16.865,4.681Z" fill="#bfcdd9"/>
      <path d="M719.916,527.339c-.849.688-.677,1.599.384,2.036,1.06.436,2.608.232,3.457-.457.849-.688.677-1.599-.384-2.035-1.06-.436-2.608-.232-3.456.457Z" fill="#fda492"/>
      <path d="M728.931,535.805c.353.164.775.272,1.194.154.507-.143.965-.489,1.499-.89.499-.375,1.061-.8,1.704-1.066.128-.054.158-.155.065-.229-.097-.074-.269-.091-.397-.038-.709.295-1.3.74-1.822,1.132-.47.355-.911.686-1.294.796-.368.103-1.02-.341-1.265-.562-.086-.071-.259-.098-.391-.049-.134.048-.172.148-.09.226.058.053.373.328.797.526Z" fill="#f28373"/>
      <path d="M734.439,531.501s.35-.869-1.253-1.407c-1.317-.442-2.884-.326-2.884-.326,0,0,2.246.408,3.12.852.874.443,1.017.882,1.017.882Z" fill="#bfcdd9"/>
      <path d="M739.309,535.358s1.203-.544-.081-1.425c-1.054-.724-2.345-.715-2.345-.715,0,0,1.514.362,2.197,1.116.582.64.229,1.025.229,1.025Z" fill="#bfcdd9"/>
      <path d="M722.627,528.528c1.486-.814-.214-1.745-.751-1.472-.537.273.466.503.171.932-.295.429.001.857.58.54Z" fill="#f28373"/>
      <path d="M707.37,547.816c.027.012.059.024.093.032.199.047.424-.006.509-.12l5.848-8.022c.087-.115.007-.251-.207-.293-.198-.047-.424.006-.509.12l-5.849,8.022c-.069.095-.017.201.114.262Z" fill="#c2478d"/>
      <path d="M692.766,535.549c-.075-.249-.141-.498-.2-.747.375-.427.722-.848,1.033-1.242,1.008-1.282,1.634-2.28,1.652-2.307.047-.078.162-.131.294-.144.06-.006.122-.004.184.008.006,0,.012.002.016.003.087.018.154.052.199.093h-.002c.062.057.078.127.035.193-.099.162-1.352,2.158-3.211,4.145Z" fill="#c2478d"/>
      <path d="M741.908,533.479c.753-2.946-3.904-5.332-3.904-5.332l7.694-3.385s2.279,2.61.693,5.433c-1.137,2.024-4.483,3.284-4.483,3.284Z" fill="#bfcdd9"/>
      <path d="M718.844,529.902c.141.079.376.055.46-.048l.713-.875-1.493.437c-.176.051-.211.188-.07.267l.391.219Z" fill="#fded97"/>
      <path d="M719.514,528.745c-.222.159-.178.392.098.521s.68.103.902-.056.178-.393-.097-.521-.68-.103-.902.057Z" fill="#fded97"/>
      <path d="M720.371,550.862c-.278-.021-.553-.044-.828-.07l4.296-4.252.522-.517c.107-.104.344-.141.532-.08.007.003.015.003.021.007.179.053.221.195.118.301l-4.661,4.612Z" fill="#c2478d"/>
      <path d="M732.003,531.849c-.187.108-.491.108-.678,0s-.187-.283,0-.392.491-.108.678,0,.187.283,0,.392Z" fill="#002f4f"/>
      <path d="M736.598,534.828c-.187.108-.491.108-.678,0s-.187-.283,0-.392.491-.108.678,0,.187.283,0,.392Z" fill="#002f4f"/>
      <path d="M727.134,537.249s-.929.578-1.931-.184c-1.003-.762.095-1.819.095-1.819,0,0,.515.813,1.194,1.251.617.399,1.418.699,1.418.699-.157.071-.47.124-.775.053Z" fill="#fff"/>
      <path d="M737.945,524.899c-3.307.716-6.801.713-10.106-.01-.941-.206-1.343,1.24-.399,1.446,3.577.782,7.325.784,10.904.01.943-.204.544-1.65-.399-1.446h0Z" fill="#e8edf1"/>
      <path d="M742.402,524.529c-2.898-2.492-6.975-3.446-10.722-3.485-3.801-.039-7.897.865-10.918,3.272-.755.601.313,1.657,1.061,1.061,2.691-2.144,6.496-2.868,9.857-2.833,3.321.034,7.079.826,9.661,3.046.728.626,1.794-.43,1.061-1.061h0Z" fill="#e8edf1"/>
    </g>
    <g>
      <path d="M828.107,500.093c-5.594,3.23-12.659,5.093-19.951,5.589-1.116.076-2.239.121-3.363.132-.334.004-.667.005-1.004.003-.181-.002-.363-.004-.546-.006-1.195-.019-2.388-.074-3.577-.165-7.106-.548-13.968-2.398-19.428-5.551-8.129-4.693-11.258-11.18-9.388-17.255.086-.279.181-.556.288-.834.063-.161.129-.321.198-.482.062-.142.125-.283.192-.423.123-.261.257-.523.401-.78,1.587-2.877,4.358-5.583,8.31-7.865,13.217-7.632,34.649-7.632,47.868,0,13.219,7.632,13.217,20.007,0,27.639Z" fill="#002f4f"/>
      <path d="M771.335,481.523c-.069.161-.135.321-.198.482-.106.278-.201.555-.288.834-1.87,6.075,1.259,12.561,9.388,17.255,5.461,3.153,12.322,5.003,19.428,5.551,1.189.091,2.382.147,3.577.165,3.163-2.409,5.033-4.089,5.033-4.089-1.629-2.427-4.315-4.994-7.563-7.476-.432-.331-.872-.66-1.324-.986-.186-.134-.369-.266-.557-.4h-.002c-.71-.505-1.439-1.004-2.185-1.495,0,0-.003,0-.002,0-.18-.12-.361-.239-.544-.357h-.002c-2.528-1.642-5.219-3.194-7.912-4.585h-.002c-6.054-3.131-12.098-5.445-16.256-6.102-.145.257-.278.519-.401.78l-.192.424Z" fill="#24557d"/>
      <path d="M804.879,490.893c-1.209.757-4.319,1.803-4.672,1.948s-3.491,1.863-3.491,1.863c0,0-2.016.669-6.854-2.182-4.838-2.851-3.023-5.703-3.023-5.703,0,0,6.803-2.008,11.931-3.581,0,0,7.319,6.898,6.108,7.654Z" fill="#fda492"/>
      <path d="M802.288,482.227c1.13.3,2.178.883,3.888.704.205.066.305.12.305.12l-1.673,6.356-.316,1.117-.215.973c-.552.331-1.509,1.042-1.908,1.334-.595-.06-1.381-.003-2.161.01-1.039.041-2.09.056-2.551-.182-3.238-1.691-1.905-6.627,1.113-9.42,1.308-.398,2.475-.73,3.518-1.012Z" fill="#fda492"/>
      <path d="M806.928,479.671s-1.34-1.891-4.671-.816c-3.562,1.149-.545,4.428-.545,4.428,0,0-3.63,2.75-4.349,4.809-1.292,3.703,3.674,3.163,11.771,5.028,2.299.53,4.941-.671,6.872-1.921,1.972-1.276,4.175-1.349,4.664-1.607,6.435-3.385,9.629-8.419.848-12.063-9.008-3.739-14.591,2.142-14.591,2.142Z" fill="#fda492"/>
      <path d="M802.408,481.623c-1.192-.47.617-.862.852-1.543.235-.681-.757-.695.057-.97.814-.276,2.901.578,1.54,1.759,0,0-1.258,1.224-2.449.754Z" fill="#f28373"/>
      <path d="M817.062,489.408c-.891-.674-1.06-1.077-.284-1.164.777-.088,2.75,1.859,1.544,2.419-.335.156-.37-.581-1.261-1.255Z" fill="#6a5b7e"/>
      <path d="M813.771,486.657c-.568.067-1.185-.686-2.211-1.17-.816-.386-1.829-.755-1.594-.829.986-.314,4.138.852,4.333,1.548,0,0,.038.384-.528.451Z" fill="#6a5b7e"/>
      <path d="M808.041,490.068c-.064-.2.032-.396.285-.581.086-.061.243-.071.349-.022.106.051.124.14.039.202-.161.117-.223.232-.187.349.091.289.715.507.714.508h0c1.107.354,2.66-.849,3.167-1.344.069-.068.223-.09.34-.05.114.039.157.129.087.196-.085.082-2.082,2.01-3.842,1.446-.018-.005-.238-.083-.465-.214-.21-.121-.424-.289-.487-.49Z" fill="#f28373"/>
      <path d="M814.774,476.123c-4.894-.323-7.846,3.548-7.846,3.548l-1.079,1.542.848.39s6.061-3.389,14.845-.446c0,0-1.872-4.712-6.768-5.035Z" fill="#6a5b7e"/>
      <path d="M817.479,480.68c-3.253-2.624-6.568-3.565-6.568-3.565.056-.396.652-.934,2.83-1.175,4.632-.514,14.082,2.101,15.959,6.882,1.805,4.597-1.977,8.104-6.378,6.365-5.022-1.983-2.589-5.883-5.843-8.508Z" fill="#6a5b7e"/>
      <path d="M809.017,493.042c-.485-.371-.464-1.585-2.104-2.818-1.532-1.152-3.364-1.293-5.333-2.917-1.969-1.624.134-4.024.134-4.024,0,0-8.62,5.343-4.044,9.381,3.472,3.063,10.64,2.443,16.433-.396-1.52.693-4.475,1.241-5.086.774Z" fill="#6a5b7e"/>
      <path d="M802.883,489.711c2.716,1.116,3.291,2.972,3.291,2.972,0,0-2.417.362-3.672-.644-1.631-1.31.381-2.328.381-2.328Z" fill="#fff"/>
      <path d="M808.155,505.682c-1.116.076-2.239.121-3.363.132-.334.004-.667.005-1.004.003-.181-.002-.363-.004-.546-.006-1.195-.019-2.388-.074-3.577-.165,5.084-2.351,8.61-3.924,8.61-3.924.36,1.11.289,2.456-.12,3.96Z" fill="#24557d"/>
      <path d="M810.719,486.911c-.196.113-.513.113-.709,0s-.196-.296,0-.409.513-.113.709,0,.196.296,0,.409Z" fill="#002f4f"/>
      <path d="M815.629,490.139c-.196.113-.513.113-.709,0s-.196-.296,0-.409.513-.113.709,0,.196.296,0,.409Z" fill="#002f4f"/>
      <path d="M818.825,479.425c.794.617,1.384,1.381,1.778,2.308.424.998.638,2.072,1.055,3.074.799,1.923,2.277,3.258,4.217,3.99.379.143.822-.159.923-.524.116-.421-.143-.779-.524-.923-1.808-.682-2.911-2.046-3.505-3.848-.308-.935-.558-1.885-.985-2.777-.442-.923-1.089-1.734-1.898-2.361-.32-.248-.749-.312-1.061,0-.259.259-.322.811,0,1.061h0Z" fill="#5d4c72"/>
    </g>
  </g>
</svg>