<?xml version="1.0" encoding="UTF-8"?>
<svg id="a" data-name="Layer 1" xmlns="http://www.w3.org/2000/svg" viewBox="765.11 193.83 500.34 662.78" preserveAspectRatio="xMidYMid meet">
  <path d="M1188.551,440.421c0,50.025-21.302,95.075-55.352,126.592-24.882,23.136-38.501,55.963-38.501,90.011.436,11.961-7.159,24.009-22.874,33.176-.087.087-.262.087-.349.175-30.731,17.636-80.32,17.548-111.051-.175-15.889-9.079-23.573-21.215-23.223-33.176v-1.397c-.436-34.136-15.278-66.439-40.073-89.924-34.573-32.739-55.526-79.622-53.78-131.394,3.281-96.165,86.009-169.072,174.26-166.49,94.464.786,170.943,77.701,170.943,172.602Z" fill="#fbda73"/>
  <circle cx="1015.386" cy="757.154" r="69.334" fill="#003967"/>
  <path d="M1120.003,708.081c-.539-1.615-1.257-3.77-1.885-5.476,0-.089-.09-.269-.09-.359-.628-1.347-1.615-3.231-2.244-4.578-2.433-4.867-7.344-10.616-11.758-14.81-11.198-11.202-35.37-23.301-58.611-26.838-12.476-2.245-19.171-2.488-30.338-2.782-.09,0-10.412-.089-22.978,1.616-45.573,5.696-93.443,34.535-80.871,78.896,6.973,24.416,28.64,38.227,52.598,47.212,12.656,4.398,24.952,6.193,28.991,6.822,48.314,6.629,81.298-9.693,82.487-9.874,20.795-9.407,37.657-21.858,44.25-43.622,2.587-8.906,2.368-19.815.449-26.209ZM940.847,676.845c17.782-15.804,43.886-21.922,67.228-23.068,20.281-.821,40.711,1.859,59.599,9.514,3.949,1.706,4.039,1.706,10.412,5.116,40.867,23.988,19.949,56.159-22.888,68.395-25.373,7.276-55.072,7.008-79.166-.089-17.708-5.119-39.794-16.425-44.609-34.108-1.4-4.725,2.195-19.202,9.424-25.76Z" fill="#295980"/>
  <path d="M1118.117,702.606c-5.097,14.445-17.261,25.529-30.518,33.3-3.59,2.064-8.527,4.398-12.297,6.103-.09.09-8.796,4.039-21.811,7.091-27.286,6.462-51.52,4.128-60.676,2.782-31.547-4.206-69.001-19.724-80.153-49.456,20.279-49.681,118.456-64.474,175.206-31.415,6.162,3.83,11.836,7.527,16.156,11.848,4.376,4.157,9.352,9.996,11.758,14.81.628,1.347,1.615,3.231,2.244,4.578,0,.089.09.269.09.359Z" fill="#527998"/>
  <path d="M1086.661,626.261c6.013,3.73,11.508,7.362,15.84,11.518,12.246,11.746,16.715,21.59,18.444,34.295,1.405,10.325-2.668,22.481-8.678,31.154-30.083,43.411-121.005,53.567-173.646,18.811-26.232-17.321-37.906-46.014-20.388-72.565,28.902-43.802,118.317-53.207,168.429-23.213-2.568-1.482-6.876-1.594-13.734,1.339-31.843-18.399-83.451-18.399-115.109.011-31.68,18.397-31.51,48.291.357,66.675,31.864,18.41,83.47,18.409,115.127,0,31.679-18.397,31.511-48.289-.375-66.686,6.857-2.933,11.166-2.822,13.734-1.339Z" fill="#1c4f78"/>
  <path d="M1072.927,627.6c31.886,18.396,32.055,48.289.375,66.686-31.656,18.41-83.263,18.41-115.127,0-31.868-18.384-32.037-48.278-.357-66.675,31.657-18.411,83.266-18.41,115.109-.011Z" fill="#527998"/>
  <path d="M1051.803,639.881c20.164,11.641,20.289,30.5.275,42.131-20.051,11.652-52.61,11.642-72.773,0-20.145-11.631-20.289-30.5-.237-42.153,20.014-11.631,52.591-11.609,72.736.022Z" fill="#ffb43f"/>
  <g>
    <g isolation="isolate">
      <path d="M1000.804,541.941l-.86,111.899c-.002.545-.354,1.089-1.057,1.498-2.172,1.262-6.241.404-6.236-1.519l.86-111.899c-.002.538.357,1.077,1.074,1.491,1.425.823,3.746.85,5.162.028.703-.409,1.055-.953,1.057-1.498Z" fill="#333"/>
      <path d="M999.73,540.422c1.425.823,1.433,2.194.017,3.017-1.416.823-3.737.795-5.162-.028-1.425-.823-1.433-2.139-.017-2.962,1.416-.823,3.736-.85,5.162-.028Z" fill="#1a1a1a"/>
    </g>
    <g isolation="isolate">
      <path d="M1035.248,573.656c-.956.531-1.699,1.911-1.699,2.972,0,.637.213,1.062.531,1.274l-37.364-21.76c-.425-.213-.531-.637-.531-1.274,0-1.061.637-2.441,1.698-2.973.531-.318.956-.318,1.38-.106l37.364,21.654c-.318-.107-.849-.107-1.38.212Z" fill="#4d4d4d"/>
      <path d="M1035.298,573.612c1.017-.587,1.833-.122,1.836.968.003,1.168-.807,2.572-1.824,3.159s-1.765.083-1.768-1.085c-.003-1.09.74-2.455,1.756-3.042Z" fill="#1a1a1a"/>
    </g>
    <g isolation="isolate">
      <path d="M1038.469,563.83l-.86,111.899c-.002.545-.354,1.089-1.057,1.498-2.172,1.262-6.241.404-6.236-1.519l.86-111.899c-.002.538.357,1.077,1.074,1.491,1.425.823,3.746.85,5.162.028.703-.409,1.055-.953,1.057-1.498Z" fill="#333"/>
      <path d="M1037.395,562.31c1.425.823,1.433,2.194.017,3.017-1.416.823-3.737.795-5.162-.028-1.425-.823-1.433-2.139-.017-2.962s3.736-.85,5.162-.028Z" fill="#1a1a1a"/>
    </g>
  </g>
  <g opacity=".8">
    <path d="M1188.036,440.421c0,50.025-21.302,95.075-55.352,126.592-24.882,23.136-38.501,55.963-38.501,90.011.436,11.961-7.159,24.009-22.874,33.176-.087.087-.262.087-.349.175-30.731,17.636-80.32,17.548-111.051-.175-15.889-9.079-23.573-21.215-23.223-33.176v-1.397c-.436-34.136-15.278-66.439-40.073-89.924-34.573-32.739-55.526-79.622-53.78-131.394,3.281-96.165,86.009-169.072,174.26-166.49,94.464.786,170.943,77.701,170.943,172.602Z" fill="#fbda73"/>
  </g>
  <g>
    <path d="M1109.216,281.308c-2.13-1.23-2.861-3.958-1.631-6.088l11.63-20.15c1.23-2.124,3.952-2.861,6.088-1.631,2.13,1.23,2.861,3.958,1.631,6.088l-11.63,20.15c-1.232,2.135-3.964,2.86-6.088,1.631Z" fill="#f8bc00"/>
    <path d="M1181.842,352.297c-4.54,0-6.176-6.04-2.234-8.317l20.15-11.63c2.13-1.242,4.858-.499,6.088,1.631s.499,4.858-1.631,6.088l-20.15,11.63c-.702.406-1.468.598-2.223.598Z" fill="#f8bc00"/>
    <path d="M1230.87,448.462h-23.266c-2.461,0-4.457-1.997-4.457-4.457s1.997-4.457,4.457-4.457h23.266c2.461,0,4.457,1.997,4.457,4.457,0,2.46-1.997,4.457-4.457,4.457Z" fill="#f8bc00"/>
    <path d="M822.962,448.462h-23.266c-2.461,0-4.457-1.997-4.457-4.457s1.997-4.457,4.457-4.457h23.266c2.461,0,4.457,1.997,4.457,4.457,0,2.46-1.997,4.457-4.457,4.457Z" fill="#f8bc00"/>
    <path d="M846.501,351.699l-20.15-11.63c-2.13-1.23-2.861-3.958-1.631-6.088,1.23-2.13,3.958-2.873,6.088-1.631l20.15,11.63c2.13,1.23,2.861,3.958,1.631,6.088-1.232,2.135-3.963,2.86-6.088,1.631Z" fill="#f8bc00"/>
    <path d="M919.126,281.905c-1.544,0-3.041-.801-3.865-2.229l-11.63-20.15c-1.231-2.13-.499-4.858,1.631-6.088,2.136-1.23,4.858-.493,6.088,1.631l11.63,20.15c1.23,2.13.499,4.858-1.631,6.088-.702.406-1.468.598-2.223.598Z" fill="#f8bc00"/>
    <path d="M1015.286,256.138c-2.461,0-4.457-1.997-4.457-4.457v-23.266c0-2.461,1.997-4.457,4.457-4.457s4.457,1.997,4.457,4.457v23.266c0,2.46-1.996,4.457-4.457,4.457Z" fill="#f8bc00"/>
  </g>
</svg>