<?xml version="1.0" encoding="UTF-8"?>
<svg id="a" data-name="Layer 1" xmlns="http://www.w3.org/2000/svg" xmlns:xlink="http://www.w3.org/1999/xlink" viewBox="-92.21 -746.16 2113.41 1755.64" preserveAspectRatio="xMidYMid meet">
  <defs>
    <clipPath id="b">
      <rect x="1.906" y="-1139.439" width="1921.919" height="1078.848" fill="none"/>
    </clipPath>
  </defs>
  <g clip-path="url(#b)">
    <polygon points="610.827 158.115 720.834 221.622 720.838 -514.809 665.837 -585.824 610.832 -578.316 610.827 158.115" fill="#00365f"/>
    <polygon points="720.077 -515.568 830.084 157.348 830.088 -579.083 775.087 -650.098 720.082 -642.59 720.077 -515.568" fill="#00365f"/>
    <polygon points="720.431 221.691 830.438 158.184 830.433 -578.247 720.426 -514.74 720.431 221.691" fill="#b40264"/>
    <g>
      <polygon points="1606.634 21.013 1606.654 -520.251 1767.151 -427.596 1767.131 113.668 1606.634 21.013" fill="#00365f"/>
      <polygon points="1764.641 111.442 1764.621 -429.822 1925.118 -522.477 1925.138 18.787 1764.641 111.442" fill="#6c3075"/>
    </g>
    <polygon points="1148.456 366.498 955.022 478.168 955.013 -235.293 1051.728 -360.164 1148.448 -346.962 1148.456 366.498" fill="#f1f8f0"/>
    <polygon points="956.352 -236.628 762.918 365.149 762.91 -348.312 859.624 -473.183 956.344 -459.982 956.352 -236.628" fill="#00365f"/>
    <polygon points="955.73 478.289 762.296 366.62 762.304 -346.841 955.738 -235.171 955.73 478.289" fill="#6c3075"/>
    <g>
      <polygon points="1362.89 187.618 1650.174 20.631 1650.156 -342.585 1362.872 -175.597 1362.89 187.618" fill="#b39cbb"/>
      <polygon points="1655.914 68.981 1655.894 -386.775 1569.808 -336.15 1569.828 119.606 1655.914 68.981" fill="#b39cbb"/>
      <polygon points="1367.756 377.415 1367.776 -159.97 1208.429 -251.961 1208.409 285.424 1367.756 377.415" fill="#6c3075"/>
    </g>
    <g>
      <polygon points="308.976 128.955 308.995 -395.053 464.376 -305.352 464.356 218.657 308.976 128.955" fill="#00365f"/>
      <polygon points="461.946 216.502 461.926 -307.506 617.307 -397.207 617.326 126.801 461.946 216.502" fill="#b39cbb"/>
    </g>
    <g>
      <polygon points="3.852 125.674 3.871 -398.334 159.252 -308.633 159.232 215.376 3.852 125.674" fill="#00365f"/>
      <polygon points="155.169 217.354 155.149 -306.655 310.53 -396.356 310.549 127.652 155.169 217.354" fill="#6c3075"/>
    </g>
  </g>
  <path d="M1072.121,608.166c120.937,69.829,120.937,183.045,0,252.874-120.937,69.829-317.015,69.829-437.952,0-120.937-69.829-120.937-183.045,0-252.874,120.937-69.829,317.015-69.829,437.952,0Z" fill="#002f4f"/>
  <path d="M748.315,343.624c63.809,37.503,127.606,75.006,191.415,112.509,1.449.85,2.994,1.579,4.499,2.123,1.502.544,3.062.936,4.576,1.155,1.514.229,3.04.284,4.532.173,1.504-.108,2.951-.38,4.378-.816.828-.25,1.634-.556,2.441-.915.676-.306,1.341-.652,1.993-1.035,2.58-1.526,5.163-3.04,7.743-4.564,2.027-1.187,4.041-2.385,6.068-3.572,1.307-.773,2.734-1.415,4.14-1.863.534-.173,1.066-.315,1.622-.448.185-.043.359-.087.544-.12.741-.142,1.48-.25,2.222-.315,1.492-.13,3.006-.099,4.532.108,1.526.195,3.028.556,4.542,1.078,1.634.566,3.247,1.319,4.814,2.243l87.751,51.577c.948.556,1.95,1.22,2.864,1.906.927.698,1.873,1.492,2.756,2.308.883.816,1.776,1.733,2.592,2.657,1.23,1.394,2.45,2.973,3.529,4.585,1.078,1.622,2.101,3.387,2.994,5.185.893,1.798,1.699,3.692,2.385,5.62.686,1.928,1.264,3.899,1.721,5.914.457,2.027.794,4.008,1.013,6.056.229,2.058.315,4.008.294,6.046-.01,1.35-.077,2.626-.207,3.943-.077.883-.185,1.721-.315,2.583-.173,1.143-.392,2.277-.643,3.377-19.552,83.055-39.094,166.101-58.646,249.144-4.434,18.866-16.404,32.754-26.12,39.462-7.604,5.25-17.123,8.388-24.202,4.215-.108-.065-.217-.13-.327-.195-1.851-1.155-3.519-2.811-4.934-5.076-25.357-40.488-50.715-80.975-76.072-121.451-.448-.708-.97-1.492-1.504-2.255-.556-.763-1.187-1.613-1.829-2.429-.643-.816-1.362-1.699-2.092-2.549-1.1-1.285-2.352-2.679-3.627-4.029-1.273-1.35-2.669-2.756-4.085-4.128-1.415-1.384-2.908-2.778-4.434-4.14-1.526-1.362-3.083-2.701-4.672-4.02-1.591-1.329-3.17-2.583-4.783-3.813-1.622-1.252-3.158-2.385-4.761-3.507-1.069-.751-2.08-1.449-3.115-2.135-.698-.457-1.362-.883-2.036-1.307-.905-.578-1.798-1.122-2.669-1.634l-208.329-122.452c15.446-65.605,30.879-131.211,46.325-196.828.284-1.199.643-2.45,1.023-3.594.392-1.155.85-2.32,1.341-3.399.491-1.066,1.045-2.147,1.622-3.115.871-1.471,1.894-2.886,2.951-4.106,1.066-1.23,2.255-2.352,3.476-3.3,1.23-.948,2.537-1.764,3.899-2.407,1.341-.643,2.722-1.134,4.15-1.459.022,0,.043-.012.065-.012,1.459-.327,2.908-.491,4.422-.491,1.524-.012,2.985.152,4.52.479,1.023.207,1.993.491,3.006.85,1.013.359,1.971.763,2.975,1.264.558.284,1.114.59,1.668.917Z" fill="#9d75a7"/>
  <path d="M527.73,480.439l10.258-5.081,338.933,198.497s31.176,15.808,63.306,69.864c40.081,67.434,55.288,105.339,73.949,99.56,0,0-8.65,7.644-21.723-1.43-13.602-9.441-82.162-54.208-82.162-54.208l-382.562-307.203" fill="#bfa4c5"/>
  <g>
    <path d="M1103.082,270.939c-9.373-16.232-18.748-32.467-28.12-48.7-4.711-8.157-11.094-14.933-17.757-18.849-36.822-21.644-73.644-43.289-110.475-64.933-7.055-4.149-13.429-4.568-17.989-1.887-4.403,2.587-7.113,8.066-7.113,15.851v182.727c0,15.867,11.244,35.335,25.103,43.484,46.204,27.159,92.402,54.309,138.606,81.467,7.168,4.215,13.636,4.581,18.206,1.757,4.282-2.645,6.899-8.065,6.899-15.729v-150.549c0-7.618-2.645-16.479-7.358-24.638Z" fill="#6a2d79"/>
    <polygon points="1088.616 468.746 1103.542 461.856 1106.063 441.424 1084.995 438.791 1088.616 468.746" fill="#6a2d79"/>
    <polygon points="930.278 135.611 914.806 143.182 960.234 173.467 956.284 153.058 930.278 135.611" fill="#6a2d79"/>
    <path d="M1090.244,276.865c-9.373-16.232-18.748-32.467-28.12-48.7-4.711-8.157-11.094-14.933-17.757-18.849-36.822-21.644-73.644-43.289-110.475-64.933-7.055-4.149-13.429-4.568-17.989-1.887-4.403,2.587-7.113,8.066-7.113,15.851v182.727c0,15.867,11.244,35.335,25.103,43.484,46.204,27.159,92.402,54.309,138.606,81.467,7.168,4.215,13.636,4.581,18.206,1.757,4.282-2.645,6.899-8.065,6.899-15.729v-150.549c0-7.618-2.645-16.479-7.358-24.638Z" fill="#835090"/>
  </g>
  <g>
    <polygon points="1042.78 402.849 946.915 347.507 946.918 255.708 1042.783 311.051 1042.78 402.849" fill="#bfa4c5"/>
    <polygon points="936.208 249.893 995.046 225.719 1053.493 317.583 936.208 249.893" fill="#6a2d79"/>
    <path d="M1006.868,382.241l-24.042-13.879v-38.081c.002-7.666,5.384-10.773,12.023-6.94h0c6.639,3.833,12.021,13.154,12.02,20.82v38.081Z" fill="#6a2d79"/>
    <g>
      <polygon points="976.923 309.117 957.46 297.881 957.461 275.408 976.924 286.644 976.923 309.117" fill="#6a2d79"/>
      <polygon points="1032.239 341.051 1012.776 329.815 1012.777 307.342 1032.24 318.578 1032.239 341.051" fill="#6a2d79"/>
    </g>
  </g>
  <g>
    <path d="M1020.89,353.132c-9.373-16.232-18.748-32.467-28.12-48.7-4.711-8.157-11.094-14.933-17.757-18.849-36.822-21.644-73.644-43.289-110.475-64.933-7.055-4.149-13.429-4.568-17.989-1.887-4.403,2.587-7.113,8.066-7.113,15.851v182.727c0,15.867,11.244,35.335,25.103,43.484,46.204,27.159,92.402,54.309,138.606,81.467,7.168,4.215,13.636,4.581,18.206,1.757,4.282-2.645,6.899-8.065,6.899-15.729v-150.549c0-7.618-2.645-16.479-7.358-24.638Z" fill="#6a2d79"/>
    <polygon points="1006.424 550.939 1021.349 544.049 1023.87 523.617 1002.803 520.983 1006.424 550.939" fill="#6a2d79"/>
    <polygon points="848.085 217.803 832.614 225.375 878.041 255.66 874.091 235.25 848.085 217.803" fill="#6a2d79"/>
    <path d="M1008.052,359.057c-9.373-16.232-18.748-32.467-28.12-48.7-4.711-8.157-11.094-14.933-17.757-18.849-36.822-21.644-73.644-43.289-110.475-64.933-7.055-4.149-13.429-4.568-17.989-1.887-4.403,2.587-7.113,8.066-7.113,15.851v182.727c0,15.867,11.244,35.335,25.103,43.484,46.204,27.159,92.402,54.309,138.606,81.467,7.168,4.215,13.636,4.581,18.206,1.757,4.282-2.645,6.899-8.065,6.899-15.729v-150.549c0-7.618-2.645-16.479-7.358-24.638Z" fill="#835090"/>
  </g>
  <g>
    <polygon points="959.825 483.829 863.96 428.486 863.964 336.688 959.828 392.031 959.825 483.829" fill="#bfa4c5"/>
    <polygon points="853.254 330.873 912.091 306.699 970.538 398.563 853.254 330.873" fill="#6a2d79"/>
    <path d="M923.913,463.221l-24.042-13.879v-38.081c.002-7.666,5.384-10.773,12.023-6.94h0c6.639,3.833,12.021,13.154,12.02,20.82v38.081Z" fill="#6a2d79"/>
    <g>
      <polygon points="893.968 390.097 874.505 378.861 874.506 356.388 893.969 367.624 893.968 390.097" fill="#6a2d79"/>
      <polygon points="949.284 422.031 929.821 410.795 929.822 388.322 949.285 399.558 949.284 422.031" fill="#6a2d79"/>
    </g>
  </g>
  <path d="M873.578,678.75c.958.556,1.993,1.187,2.985,1.82,1.001.643,2.08,1.35,3.127,2.058,1.035.708,2.135,1.48,3.192,2.243,1.579,1.143,3.257,2.419,4.857,3.671,1.591,1.264,3.235,2.604,4.792,3.933,1.569,1.329,3.127,2.713,4.619,4.085,1.504,1.372,2.929,2.744,4.313,4.128,1.384,1.372,2.669,2.713,3.899,4.063,1.242,1.35,2.342,2.614,3.399,3.899.708.85,1.329,1.644,1.95,2.462.402.534.773,1.045,1.134,1.557.491.698.936,1.372,1.341,2.015,25.37,40.476,50.727,80.963,76.072,121.451,2.679,4.27,3.666,5.548,7.687,8.285-127.692-75.049-253.28-148.571-380.963-223.62-.055-.034-.108-.065-.164-.099-3.878-2.277-7.233-5.589-9.946-9.912-25.348-40.488-50.705-80.975-76.072-121.451-.436-.708-.859-1.427-1.187-2.07-.349-.643-.643-1.295-.871-1.873-.238-.566-.414-1.134-.534-1.634-.173-.741-.217-1.427-.13-1.971s.306-1.001.652-1.35c.337-.337.816-.566,1.406-.686.599-.12,1.307-.13,2.135-.034.828.108,1.743.315,2.79.643,1.045.315,2.135.729,3.365,1.273.816.349,1.634.741,2.527,1.187.587.294,1.177.599,1.798.927.828.457,1.678.936,2.549,1.449l329.279,193.552Z" fill="#6a2d79"/>
  <g>
    <path d="M925.816,448.206c-9.373-16.232-18.748-32.467-28.12-48.7-4.711-8.157-11.094-14.933-17.757-18.849-36.822-21.644-73.644-43.289-110.475-64.933-7.055-4.149-13.429-4.568-17.989-1.887-4.403,2.587-7.113,8.066-7.113,15.851v182.727c0,15.867,11.244,35.335,25.103,43.484,46.204,27.159,92.402,54.309,138.606,81.467,7.168,4.215,13.636,4.581,18.206,1.757,4.282-2.645,6.899-8.065,6.899-15.729v-150.549c0-7.618-2.645-16.479-7.358-24.638Z" fill="#6a2d79"/>
    <polygon points="911.35 646.013 926.276 639.122 928.797 618.69 907.729 616.057 911.35 646.013" fill="#6a2d79"/>
    <polygon points="753.012 312.877 737.54 320.448 782.968 350.733 779.017 330.324 753.012 312.877" fill="#6a2d79"/>
    <path d="M912.978,454.131c-9.373-16.232-18.748-32.467-28.12-48.7-4.711-8.157-11.094-14.933-17.757-18.849-36.822-21.644-73.644-43.289-110.475-64.933-7.055-4.149-13.429-4.568-17.989-1.887-4.403,2.587-7.113,8.066-7.113,15.851v182.727c0,15.867,11.244,35.335,25.103,43.484,46.204,27.159,92.402,54.309,138.606,81.467,7.168,4.215,13.636,4.581,18.206,1.757,4.282-2.645,6.899-8.065,6.899-15.729v-150.549c0-7.618-2.645-16.479-7.358-24.638Z" fill="#835090"/>
  </g>
  <g>
    <polygon points="873.278 582.002 777.413 526.659 777.416 434.861 873.281 490.203 873.278 582.002" fill="#bfa4c5"/>
    <polygon points="766.707 429.045 825.544 404.872 883.991 496.736 766.707 429.045" fill="#6a2d79"/>
    <path d="M837.366,561.393l-24.042-13.879v-38.081c.002-7.666,5.384-10.773,12.023-6.94h0c6.639,3.833,12.021,13.154,12.02,20.82v38.081Z" fill="#6a2d79"/>
    <g>
      <polygon points="807.421 488.27 787.958 477.034 787.959 454.56 807.422 465.796 807.421 488.27" fill="#6a2d79"/>
      <polygon points="862.737 520.204 843.274 508.968 843.275 486.494 862.738 497.73 862.737 520.204" fill="#6a2d79"/>
    </g>
  </g>
</svg>