<?xml version="1.0" encoding="UTF-8"?>
<svg id="a" data-name="Layer 1" xmlns="http://www.w3.org/2000/svg" viewBox="320.70 93.93 1225.59 957.89" preserveAspectRatio="xMidYMid meet">
  <g>
    <path d="M853.203,820.271s22.008,18.04,45.821,0l2.191,53.164s-.722,15.875-12.628,15.875-39.326,5.051-39.326-12.989,3.943-56.051,3.943-56.051Z" fill="#b8cced"/>
    <rect x="853.203" y="787.532" width="46.181" height="31.75" fill="#42a99c"/>
    <rect x="924.64" y="790.318" width="46.181" height="31.75" fill="#42a99c"/>
    <path d="M845.987,687.954v109.681s25.977,21.167,59.651,0v-106.795s-56.765-2.886-59.651-2.886Z" fill="#028c7b"/>
    <path d="M918.146,690.739v109.681s25.977,21.167,59.651,0v-106.795s-56.765-2.886-59.651-2.886Z" fill="#028c7b"/>
    <path d="M853.203,810.262s22.008,18.04,45.821,0l2.191,53.164s-.722,15.875-12.628,15.875-39.326,5.051-39.326-12.989,3.943-56.051,3.943-56.051Z" fill="#6994da"/>
    <path d="M860.615,816.682s-.673-5.721,7.067-5.721h19.182s6.057,1.346,5.048,6.73c-1.01,5.384-14.47,5.384-14.47,5.384l-16.826-6.394Z" fill="#6994da"/>
    <path d="M924.882,823.056s22.008,18.04,45.821,0l2.191,53.164s-.722,15.875-12.628,15.875-39.326,5.051-39.326-12.989,3.943-56.051,3.943-56.051Z" fill="#b8cced"/>
    <path d="M924.882,813.048s22.008,18.04,45.821,0l2.191,53.164s-.722,15.875-12.628,15.875-39.326,5.051-39.326-12.989,3.943-56.051,3.943-56.051Z" fill="#6994da"/>
    <path d="M932.293,816.682s-.673-5.721,7.067-5.721h19.182s6.057,1.346,5.048,6.73-14.47,5.384-14.47,5.384l-16.826-6.394Z" fill="#6994da"/>
    <path d="M865.996,826.486c5.334,3.553,10.667,7.106,16.001,10.66.403.268.779-.381.379-.648-5.334-3.553-10.667-7.106-16.001-10.66-.403-.268-.779.381-.379.648h0Z" fill="#5283d4"/>
    <path d="M882.182,827.209c-5.372,2.447-10.744,4.894-16.115,7.341-.18.082-.234.355-.135.513,3.612,5.703,8.727,10.393,14.731,13.484.428.221.808-.426.379-.648-5.892-3.033-10.915-7.615-14.462-13.215l-.135.513c5.372-2.447,10.744-4.894,16.115-7.341.439-.2.058-.846-.379-.648h0Z" fill="#5283d4"/>
    <path d="M882.173,836.923c-1.873,1.469-3.746,2.939-5.62,4.408-1.81,1.42-3.668,2.797-5.432,4.274-1.272,1.065-2.439,2.512-2.02,4.28.398,1.678,2.016,2.843,3.487,3.543,1.719.818,3.815,1.408,4.819,3.169.239.419.887.042.648-.379-1.728-3.03-6.064-2.744-7.862-5.664-1.047-1.701.087-3.26,1.403-4.372,1.654-1.398,3.409-2.69,5.114-4.027,1.998-1.567,3.996-3.135,5.994-4.702.379-.298-.155-.825-.53-.53h0Z" fill="#5283d4"/>
    <path d="M881.334,848.097c-4.086,1.725-7.859,4.167-11.113,7.182-.927.858-1.808,1.764-2.644,2.711-.319.36.21.893.53.53,2.91-3.292,6.382-6.063,10.244-8.16,1.093-.594,2.216-1.131,3.362-1.615.443-.187.061-.833-.379-.648h0Z" fill="#5283d4"/>
    <path d="M874.785,822.635c-.809-2.205-2.285-4.08-4.205-5.428-1.745-1.225-4.258-2.29-6.436-1.974-.874.127-1.82.632-1.84,1.63-.021,1.049,1.021,1.69,1.872,2.041,1.465.604,2.995,1.079,4.487,1.611,1.533.547,3.058,1.146,4.612,1.633,1.315.412,2.652.555,3.943-.01,1.163-.508,2.099-1.401,3.048-2.218,1.054-.907,2.198-1.675,3.473-2.238,1.219-.539,2.671-1.034,4.02-.985.587.021,1.247.196,1.54.757.309.591-.051,1.259-.473,1.683-1.063,1.068-2.547.749-3.853.394-1.346-.366-2.637-.679-4.043-.526-1.3.141-2.541.57-3.713,1.14-3.029,1.474-5.667,3.768-8.346,5.778-2.52,1.891-5.316,4.58-8.662,4.601-.482.003-.484.753,0,.75,2.738-.017,4.999-1.671,7.099-3.246,2.442-1.832,4.845-3.738,7.355-5.477,2.245-1.555,4.863-3.041,7.692-2.824,2.323.178,5.087,1.969,7.061-.118.599-.633.965-1.551.597-2.395-.427-.979-1.526-1.291-2.511-1.27-2.481.054-5.082,1.312-7.002,2.813-1.003.784-1.89,1.729-2.988,2.387-1.424.852-2.863.68-4.379.168-1.508-.51-3.002-1.068-4.502-1.603-1.453-.519-3.013-.936-4.406-1.599-.519-.247-1.375-.744-1.133-1.45.208-.607,1.083-.72,1.623-.723,1.335-.006,2.737.422,3.928,1,2.471,1.198,4.468,3.309,5.418,5.896.165.449.89.255.723-.199h0Z" fill="#5283d4"/>
    <path d="M874.85,822.88c1.87,3.377,4.649,6.233,7.962,8.214.939.561,1.919,1.043,2.93,1.459.189.078.41-.084.461-.262.062-.214-.076-.385-.262-.461-3.416-1.404-6.453-3.744-8.705-6.67-.647-.84-1.226-1.731-1.739-2.658-.234-.422-.882-.044-.648.379h0Z" fill="#5283d4"/>
    <path d="M932.293,819.467s-.673-5.721,7.067-5.721h19.182s6.057,1.346,5.048,6.73-14.47,5.384-14.47,5.384l-16.826-6.394Z" fill="#6994da"/>
    <path d="M937.674,829.271c5.334,3.553,10.667,7.106,16.001,10.66.403.268.779-.381.379-.648-5.334-3.553-10.667-7.106-16.001-10.66-.403-.268-.779.381-.379.648h0Z" fill="#5283d4"/>
    <path d="M953.861,829.994c-5.372,2.447-10.744,4.894-16.115,7.341-.18.082-.234.355-.135.513,3.612,5.703,8.727,10.393,14.731,13.484.428.221.808-.426.379-.648-5.892-3.033-10.915-7.615-14.462-13.215l-.135.513c5.372-2.447,10.744-4.894,16.115-7.341.439-.2.058-.846-.379-.648h0Z" fill="#5283d4"/>
    <path d="M953.851,839.709c-1.873,1.469-3.746,2.939-5.62,4.408-1.81,1.42-3.668,2.797-5.432,4.274-1.272,1.065-2.439,2.512-2.02,4.28.398,1.678,2.016,2.843,3.487,3.543,1.719.818,3.815,1.408,4.819,3.169.239.419.887.042.648-.379-1.728-3.03-6.064-2.744-7.862-5.664-1.047-1.701.087-3.26,1.403-4.372,1.654-1.398,3.409-2.69,5.114-4.027,1.998-1.567,3.996-3.135,5.994-4.702.379-.298-.155-.825-.53-.53h0Z" fill="#5283d4"/>
    <path d="M953.013,850.883c-4.086,1.725-7.859,4.167-11.113,7.182-.927.858-1.808,1.764-2.644,2.711-.319.36.21.893.53.53,2.91-3.292,6.382-6.063,10.244-8.16,1.093-.594,2.216-1.131,3.362-1.615.443-.187.061-.833-.379-.648h0Z" fill="#5283d4"/>
    <path d="M946.463,825.421c-.809-2.205-2.285-4.08-4.205-5.428-1.745-1.225-4.258-2.29-6.436-1.974-.874.127-1.82.632-1.84,1.63-.021,1.049,1.021,1.69,1.872,2.041,1.465.604,2.995,1.079,4.487,1.611,1.533.547,3.058,1.146,4.612,1.633,1.315.412,2.652.555,3.943-.01,1.163-.508,2.099-1.401,3.048-2.218,1.054-.907,2.198-1.675,3.473-2.238,1.219-.539,2.671-1.034,4.02-.985.587.021,1.247.196,1.54.757.309.591-.051,1.259-.473,1.683-1.063,1.068-2.547.749-3.853.394-1.346-.366-2.637-.679-4.043-.526-1.3.141-2.541.57-3.713,1.14-3.029,1.474-5.667,3.768-8.346,5.778-2.52,1.891-5.316,4.58-8.662,4.601-.482.003-.484.753,0,.75,2.738-.017,4.999-1.671,7.099-3.246,2.442-1.832,4.845-3.738,7.355-5.477,2.245-1.555,4.863-3.041,7.692-2.824,2.323.178,5.087,1.969,7.061-.118.599-.633.965-1.551.597-2.395-.427-.979-1.526-1.291-2.511-1.27-2.481.054-5.082,1.312-7.002,2.813-1.003.784-1.89,1.729-2.988,2.387-1.424.852-2.863.68-4.379.168-1.508-.51-3.002-1.068-4.502-1.603-1.453-.519-3.013-.936-4.406-1.599-.519-.247-1.375-.744-1.133-1.45.208-.607,1.083-.72,1.623-.723,1.335-.006,2.737.422,3.928,1,2.471,1.198,4.468,3.309,5.418,5.896.165.449.89.255.723-.199h0Z" fill="#5283d4"/>
    <path d="M946.528,825.665c1.87,3.377,4.649,6.233,7.962,8.214.939.561,1.919,1.043,2.93,1.459.189.078.41-.084.461-.262.062-.214-.076-.385-.262-.461-3.416-1.404-6.453-3.744-8.705-6.67-.647-.84-1.226-1.731-1.739-2.658-.234-.422-.882-.044-.648.379h0Z" fill="#5283d4"/>
  </g>
  <path d="M982.748,345.434s-118.854,24.917-122.889,17.987c-3.603-6.191-32.277-77.029-12.997-161.326,2.372-10.441,6.052-17.239,11.294-26.37,0,0,7.494-12.684,20.984-18.566,18.356-7.977,44.536-13.552,65.941,4.497.185.154.4.339.585.524,7.915,6.991,14.106,19.527,19.003,34.896,17.74,55.654,18.079,148.36,18.079,148.36Z" fill="#aa0062"/>
  <ellipse cx="907.15" cy="203.894" rx="44.946" ry="47.005" fill="#f7a08e"/>
  <path d="M880.343,291.348s-64.205,3.1-80.145,55.792c-15.941,52.692-34.538,97.857-19.926,120.439,14.612,22.582,38.523,16.383,46.936,9.299,8.413-7.085,8.119,9.057,8.119,9.057l3.584,17.922s4.779,15.234,20.312,16.728c10.176.978,33.279,2.822,68.702,1.494,35.423-1.328,37.338-5.377,37.338-5.377,0,0,24.494-8.065,26.286-28.377,1.833-20.773,1.705-20.745,1.705-20.745,0,0,7.527,23.911,34.538,14.612,27.01-9.299,22.14-44.279,18.597-56.235-3.542-11.955-21.697-80.145-21.697-80.145,0,0-9.741-35.423-52.692-47.379-42.951-11.955-59.334-8.856-59.334-8.856l-32.324,1.771Z" fill="#fad45c"/>
  <path d="M982.915,366.005l1.794,17.794,4.068-11.489,3.036-1.848c-3.481,9.889-5.925,18.256-5.371,28.948.826,15.934,5.064,33.411,6.258,49.794.984,13.504,2.821,39.391-2.91,51.348-1.134,2.367-4.07,4.122-2.972.592,11.924-38.316-3.423-86.239-5.669-125.801-.133-2.338-.293-5.787-.01-8.015.155-1.223.62-2.747,1.776-1.323Z" fill="#fdebb2"/>
  <path d="M844.927,370.385l-1.794,17.794-4.068-11.489-3.036-1.848c3.481,9.889,5.925,18.256,5.371,28.948-.826,15.934-5.064,33.411-6.258,49.794-.984,13.504-2.821,39.391,2.91,51.348,1.134,2.367,4.07,4.122,2.972.592-11.924-38.316,3.423-86.239,5.669-125.801.133-2.338.293-5.787.01-8.015-.155-1.223-.62-2.747-1.776-1.323Z" fill="#fdebb2"/>
  <path d="M857.555,500.109l35.997,2.706c22.05-.409,44.846-1.376,66.5-5.64,1.572-.31,8.406-2.732,8.712-2.4,2.645,2.868-6.678,4.634-7.971,4.921-10.824,2.397-27.598,4.263-38.742,4.854-20.721,1.1-43.13.21-63.606-2.661-.013-.194-.857-.967-.89-1.779Z" fill="#b83e8b"/>
  <g>
    <ellipse cx="917.649" cy="933.489" rx="94.884" ry="40.498" fill="#3e2a57"/>
    <ellipse cx="917.649" cy="923.165" rx="94.884" ry="40.498" fill="#5d4c72"/>
  </g>
  <path d="M939.516,561.119v365.219c-7.465,1.003-15.404,1.56-23.622,1.56-6.964,0-13.677-.39-20.112-1.142v-365.637h43.734Z" fill="#5d4c72"/>
  <path d="M566.513,271.111c26.969,56.244,32.53,71.829,13.808,111.908-3.718,7.96-133.962,7.348-133.962,7.348,0,0-14.261-82.059,22.944-119.747,37.205-37.691,97.21.492,97.21.492Z" fill="#562602"/>
  <path d="M470.971,405.622s21.876,38.669,60.967,37.437c.813-.074,8.684-4.241,9.378-4.304l.463-.042.233-.021c22.164-2.605,24.027-25.644,22.636-30.653-.148-.336-.169-.569-.169-.569,0,0-14.645-7.066-24.515-9.079-9.984-2.006-32.947-1.776-32.947-1.776-25.955,4.235-36.046,9.008-36.046,9.008Z" fill="#a85326"/>
  <path d="M526.931,417.167c9.807-2.354,17.032-15.6,17.032-15.6-2.234-3.725-4.288-9.862-5.846-16.326-1.864-7.421-3.364-15.254-4.152-20.745-.739-4.145-1.059-6.793-1.059-6.793l-11.474-.807-22.755-1.766s1.019,7.705.896,17.001c-.245,10.907-4.299,23.542-10.783,29.396-12.098,10.971,28.228,18.017,38.142,15.639Z" fill="#a85326"/>
  <path d="M499.578,372.131c8.815,7.122,21.577,13.655,38.541,13.109-1.864-7.421-3.364-15.254-4.152-20.745l-12.53-7.6-22.755-1.766s1.019,7.705.896,17.001Z" fill="#a85326"/>
  <path d="M549.066,381.06c-6.624,4.912-24.916-2.105-35.003-7.718-3.502-1.95-6.669-4.369-9.399-7.244-26.585-27.991-64.778-97.19,13.312-104.883,19.686-1.937,47.81,6.302,51.419,43.148.843,8.607-1.669,15.719.297,30.098,1.966,14.379-7.725,37.029-20.627,46.598Z" fill="#a85326"/>
  <path d="M545.843,356.264c.966-.217,9.437-2.257,8.883-7.141-.081-.663-.528-1.519-1.626-3.56-2.629-4.881-8.093-15.043-4.233-20.351l-2.124-1.543c-4.827,6.642.944,17.372,4.05,23.139.587,1.096,1.247,2.328,1.332,2.664.219,1.96-4.614,3.734-6.856,4.231l.575,2.561Z" fill="#93430c"/>
  <path d="M517.372,320.367c.057-.031,6.09-3.072,16.939-4.062l.043-.004-.279-3.055-.048.004c-11.499,1.05-17.804,4.253-18.064,4.386l1.41,2.731Z" fill="#562602"/>
  <path d="M569.318,312.584l.992-2.911c-6.719-2.31-16.129.905-16.526,1.044l1.005,2.906c.086-.028,8.793-3.007,14.529-1.04Z" fill="#562602"/>
  <path d="M560.357,257.393c4.963,4.674,12.466,16.068,8.892,21.877-15.39,25.016-59.248,34.218-59.248,34.218-.199.221,1.415-.162-7.617,2.641.51,17.544-5.527,18.786-10.495,21.56l-4.791-7.527-8.697,6.54s-30.572-42.529-6.317-70.298c28.629-32.782,71.326-24.975,88.272-9.012Z" fill="#562602"/>
  <path d="M552.978,363.073s-4.131,1.277-8.316,1.424c-4.599.162-10.986-2.124-10.986-2.124,0,0,3.188,9.112,10.678,9.448,7.488.34,6.696-5.79,6.696-5.79,1.311-.704,1.898-2.059,1.928-2.959Z" fill="#fff"/>
  <path d="M488.181,329.723c-6.165-9.737-16.676-5.396-17.155,2.07-.598,9.331,7.698,9.485,13.712,18.107,4.283,6.14,10.483-1.384,8.417-8.853-1.901-6.885-4.974-11.325-4.974-11.325Z" fill="#a85326"/>
  <path d="M485.592,334.694c-4.126-6.054-8.72-7.406-10.653-4.937-1.93,2.466-.127,7.683,2.818,7.203,4.086-.671,7.337,7.475,8.655,6.716,2.972-1.719.173-7.521-.82-8.981Z" fill="#93430c"/>
  <path d="M488.835,348.214l2.466,6.959c-1.176,1.368-2.571,1.656-4.191.861l.015-7.467c.383-.923.965-.988,1.71-.354Z" fill="#93ddfc"/>
  <circle cx="524.434" cy="329.158" r="2.169" fill="#003051"/>
  <circle cx="559.056" cy="326.619" r="2.169" fill="#003051"/>
  <path d="M531.88,255.966c-11.054-1.685-22.583.593-32.227,6.239-2.688,1.574-5.216,3.411-7.548,5.476-.362.321.17.849.53.53,8.167-7.231,18.844-11.475,29.728-11.997,3.112-.149,6.236.005,9.317.475.472.072.676-.651.199-.723h0Z" fill="#421d03"/>
  <path d="M472.818,285.755c-5.178,7.948-8.909,16.829-10.949,26.095-.574,2.61-1.01,5.247-1.319,7.901-.056.479.695.475.75,0,1.087-9.324,3.874-18.443,8.183-26.783,1.211-2.344,2.543-4.623,3.983-6.834.264-.406-.385-.782-.648-.379h0Z" fill="#421d03"/>
  <path d="M457.581,338.213c-1.327,8.96-1.891,18.025-1.653,27.08.068,2.571.201,5.14.394,7.704.036.478.786.482.75,0-.675-8.957-.585-17.967.288-26.907.25-2.567.567-5.127.944-7.678.07-.472-.653-.676-.723-.199h0Z" fill="#421d03"/>
  <path d="M473.49,363.361c-.663,8.55-1.326,17.1-1.989,25.651-.037.481.713.479.75,0,.663-8.55,1.326-17.1,1.989-25.651.037-.481-.713-.479-.75,0h0Z" fill="#421d03"/>
  <path d="M579.955,336.188c.576,8.586,1.151,17.171,1.727,25.757.164,2.447.328,4.894.492,7.341.032.479.782.483.75,0-.576-8.586-1.151-17.171-1.727-25.757-.164-2.447-.328-4.894-.492-7.341-.032-.479-.782-.483-.75,0h0Z" fill="#421d03"/>
  <path d="M571.269,357.919c-.262,8.337-.524,16.674-.786,25.011-.015.483.735.482.75,0,.262-8.337.524-16.674.786-25.011.015-.483-.735-.482-.75,0h0Z" fill="#421d03"/>
  <path d="M547.551,274.853c-8.805,8.652-19.812,14.983-31.699,18.302-3.398.949-6.864,1.651-10.363,2.092-.472.06-.478.81,0,.75,12.445-1.57,24.429-6.353,34.545-13.771,2.843-2.085,5.534-4.371,8.048-6.842.345-.339-.186-.869-.53-.53h0Z" fill="#421d03"/>
  <polygon points="692.471 895.638 686.226 918.736 700.601 949.321 732.699 916.099 724.376 870.323 692.471 895.638" fill="#ff9c8c"/>
  <path d="M765.136,960.944s-27.864-21.789-32.436-44.844l-31.181,4.166-14.069,14.987,38.232,30.585,33.95,9.176,7.035-8.87-2.294-4.129" fill="#ff9c8c"/>
  <path d="M685.262,918.573c-8.6,11.974-7.932,29.758,1.543,41.052,3.462,4.127,9.148,7.565,14.041,5.312,16.127,20.452,42.472,32.408,68.484,31.079,6.057-.31,13.054-1.996,15.518-7.537,2.53-5.69-1.216-12.238-5.713-16.545s-9.029-7.55-14.076-11.144c-2.265,5.249-6.453,5.983-12.137,6.597-5.683.614-11.38-.965-16.711-3.028-21.871-8.465-40.212-25.68-50.045-46.971" fill="#003967"/>
  <polygon points="611.053 895.638 604.808 918.736 619.183 949.321 651.281 916.099 642.958 870.323 611.053 895.638" fill="#ff9c8c"/>
  <path d="M683.718,960.944s-27.864-21.789-32.436-44.844l-31.181,4.166-14.069,14.987,38.232,30.585,33.95,9.176,7.035-8.87-2.294-4.129" fill="#ff9c8c"/>
  <path d="M603.844,918.573c-8.6,11.974-7.932,29.758,1.543,41.052,3.462,4.127,9.148,7.565,14.041,5.312,16.127,20.452,42.472,32.408,68.484,31.079,6.057-.31,13.054-1.996,15.518-7.537,2.53-5.69-1.216-12.238-5.713-16.545s-9.029-7.55-14.076-11.144c-2.265,5.249-6.453,5.983-12.137,6.597-5.683.614-11.38-.965-16.711-3.028-21.871-8.465-40.212-25.68-50.045-46.971" fill="#003967"/>
  <path d="M429.608,439.001l-38.388,13.78s-15.749,2.953-14.764,32.482c.984,29.529,16.733,174.22,16.733,174.22,0,0,.918,28.655,16.41,39.789s93.434,59.062,93.434,59.062c0,0,36.211,13.08,73.004,5.334l7.34-41.596s-62.735-.491-94.203-23.245c-31.468-22.753-40.612-15.013-45.937-38.735-5.325-23.722,29.296-195.133,29.296-195.133l6.778-41.634-49.703,15.675Z" fill="#5d4c72"/>
  <path d="M519.009,757.552l9.682,198.303s.968,9.682-6.778,9.682c-7.746,0-9.44-9.44-9.44-9.44l-9.924-199.214,16.46.669Z" fill="#5d4c72"/>
  <path d="M501.834,657.538l65.394,198.303s.968,9.682-6.778,9.682c-7.746,0-9.44-9.44-9.44-9.44l-65.636-199.214,16.46.669Z" fill="#5d4c72"/>
  <path d="M1214.866,657.538l-65.394,198.303s-.968,9.682,6.778,9.682c7.746,0,9.44-9.44,9.44-9.44l65.636-199.214-16.46.669Z" fill="#5d4c72"/>
  <path d="M1325.542,657.538l-65.394,198.303s-.968,9.682,6.778,9.682c7.746,0,9.44-9.44,9.44-9.44l65.636-199.214-16.46.669Z" fill="#5d4c72"/>
  <path d="M982.635,596.367l65.394,198.303s.968,9.682-6.778,9.682c-7.746,0-9.44-9.44-9.44-9.44l-65.636-199.214,16.46.669Z" fill="#5d4c72"/>
  <path d="M855.437,596.367l-65.394,198.303s-.968,9.682,6.778,9.682,9.44-9.44,9.44-9.44l65.636-199.214-16.46.669Z" fill="#5d4c72"/>
  <path d="M422.185,705.082l-28.563,182.028s-.968,9.682-8.714,8.23c-7.746-1.452-4.841-13.555-4.841-13.555l28.563-188.321,13.555,11.619Z" fill="#5d4c72"/>
  <polygon points="655.559 748.376 692.261 734.919 645.16 670.689 605.399 681.7 655.559 748.376" fill="#5d4c72"/>
  <path d="M659.654,674.971l65.394,198.303s.968,9.682-6.778,9.682c-7.746,0-9.44-9.44-9.44-9.44l-65.636-199.214,16.46.669Z" fill="#5d4c72"/>
  <path d="M602.752,612.8l98.103,20.879s48.793,10.202,55.003,35.486c6.21,25.284-2.661,121.54-2.661,121.54l-9.759,102.909s-8.871,9.759-64.762,1.331c0,0-5.323-137.065-2.218-180.091l-54.116-11.089-108.232-58.108,1.257-30.86,87.384-1.996Z" fill="#77ac4a"/>
  <path d="M432.493,661.181s-1.774,44.801,36.817,51.898c38.591,7.097,105.127,15.525,105.127,15.525,0,0-9.315-17.743,15.969,178.317,0,0,36.373,9.315,70.528-2.661v-193.399s9.315-60.326-50.124-66.093c-59.439-5.766-177.28-31.274-177.28-31.274l-1.037,47.686Z" fill="#94be70"/>
  <path d="M434.635,578.732l-3.684,47.042s13.374,24.461,73.655,21.697c60.281-2.765,72.473-21.653,72.473-21.653l-5.818-86.291-30.644-107.129-18.158,2.941-49.322,14.942-9.431,41.635-29.071,86.816Z" fill="#7a4488"/>
  <polygon points="596.903 529.727 602.284 574.065 566.34 624.645 560.528 559.644 596.903 529.727" fill="#7a4488"/>
  <polygon points="1199.842 748.376 1163.14 734.919 1210.241 670.689 1250.002 681.7 1199.842 748.376" fill="#5d4c72"/>
  <path d="M1425.793,439.001l38.388,13.78s15.749,2.953,14.764,32.482c-.984,29.529-16.733,174.22-16.733,174.22,0,0-.918,28.655-16.41,39.789s-93.434,59.062-93.434,59.062c0,0-36.211,13.08-73.004,5.334l-7.34-41.596s62.735-.491,94.203-23.245c31.468-22.753,40.612-15.013,45.937-38.735,5.325-23.722-29.296-195.133-29.296-195.133l-6.778-41.634,49.703,15.675Z" fill="#5d4c72"/>
  <path d="M1336.392,757.552l-9.682,198.303s-.968,9.682,6.778,9.682,9.44-9.44,9.44-9.44l9.924-199.214-16.46.669Z" fill="#5d4c72"/>
  <path d="M1433.215,705.082l28.563,182.028s.968,9.682,8.714,8.23c7.746-1.452,4.841-13.555,4.841-13.555l-28.563-188.321-13.555,11.619Z" fill="#5d4c72"/>
  <polygon points="1249.695 895.638 1258.018 919.22 1219.524 929.277 1209.467 916.099 1217.79 870.323 1249.695 895.638" fill="#3e2a57"/>
  <polygon points="1163.69 880.033 1174.788 914.019 1125.196 911.244 1135.6 882.807 1163.69 880.033" fill="#3e2a57"/>
  <path d="M1257.996,612.8l-98.103,20.879s-48.793,10.202-55.003,35.486c-6.21,25.284,2.661,121.54,2.661,121.54l9.759,102.909s8.871,9.759,64.762,1.331c0,0,5.323-137.065,2.218-180.091l54.116-11.089,108.232-58.108-1.257-30.86-87.384-1.996Z" fill="#26567e"/>
  <path d="M1428.256,661.181s1.774,44.801-36.817,51.898c-38.591,7.097-105.127,15.525-105.127,15.525,0,0,9.315-17.743-15.969,178.317,0,0-36.373,9.315-70.528-2.661v-193.399s-9.315-60.326,50.124-66.093c59.439-5.766,180.387-30.416,180.387-30.416l-2.069,46.829Z" fill="#336185"/>
  <g>
    <path d="M1179.11,932.513l.884,9.729-17.247,4.422s-8.845-1.769-19.016,2.653c-10.171,4.422-42.012,14.594-65.892,9.287,0,0-10.164-.121-7.518-6.633,2.646-6.513,48.546-13.328,48.546-13.328l60.242-6.13" fill="#3e2a57"/>
    <path d="M1174.246,905.538s6.191,11.498,4.865,26.976c0,0-25.649,6.633-37.589,12.382-11.94,5.749-57.047,13.709-71.199,7.076,0,0-4.422-12.382,17.689-19.016,22.111-6.633,38.032-27.86,38.032-27.86,0,0,30.956,10.613,48.203.442Z" fill="#5e4e74"/>
  </g>
  <g>
    <path d="M1262.688,939.796l.884,9.729-17.247,4.422s-8.845-1.769-19.016,2.653c-10.171,4.422-42.012,14.594-65.892,9.287,0,0-10.164-.121-7.518-6.633,2.646-6.513,48.546-13.328,48.546-13.328l60.242-6.13" fill="#3e2a57"/>
    <path d="M1257.823,912.82s6.191,11.498,4.865,26.976c0,0-25.649,6.633-37.589,12.382-11.94,5.749-57.047,13.709-71.199,7.076,0,0-4.422-12.382,17.689-19.016,22.111-6.633,38.032-27.86,38.032-27.86,0,0,30.956,10.613,48.203.442Z" fill="#5e4e74"/>
  </g>
  <g>
    <ellipse cx="917.649" cy="629.17" rx="339.493" ry="144.9" fill="#3e2a57"/>
    <ellipse cx="917.649" cy="614.841" rx="339.493" ry="144.9" fill="#5d4c72"/>
  </g>
  <g>
    <path d="M1184.051,601.255s-19.269,22.155-24.745,25.423c-5.476,3.268-5.364-.264-5.364-.264,0,0,8.939-11.453,6.737-13.361-2.202-1.908-21.691,13.784-22.418,18.898-.727,5.114-5.205,3.653-4.86,1.685,0,0-3.22,1.972-4.015-1.211-.795-3.183-.325-13.584,3.236-20.399,3.561-6.816,8.387-17.312,29.761-26.066,13.546-5.548,14.023-3.799,14.023-3.799l7.645,19.093Z" fill="#ff9c8c"/>
    <path d="M1132.506,631.982l1.053-.203c-1.337-6.934,16.621-20.192,16.803-20.326l-.634-.865c-.764.56-18.686,13.798-17.222,21.394Z" fill="#e86453"/>
    <path d="M1129.894,622.61l1.006.372c2.492-6.755,14.663-15.639,14.785-15.727l-.63-.868c-.511.371-12.557,9.164-15.161,16.224Z" fill="#e86453"/>
    <rect x="1132.178" y="604.912" width="12.662" height="1.073" transform="translate(-96.8 975.29) rotate(-44.671)" fill="#e86453"/>
  </g>
  <path d="M679.789,563.011s24.904,15.553,31.096,17.077c6.192,1.524,5.053-1.821,5.053-1.821,0,0-11.897-8.339-10.349-10.807,1.548-2.468,24.773,6.84,26.964,11.518,2.191,4.678,6.046,1.972,5.141.19,0,0,3.656.944,3.485-2.332-.17-3.276-3.661-13.085-9.059-18.562-5.399-5.476-13.082-14.103-36.081-16.225-14.576-1.345-14.521.467-14.521.467l-1.728,20.494Z" fill="#a85326"/>
  <path d="M738.066,577.324l-1.066.114c-.749-7.022-21.799-14.45-22.011-14.525l.353-1.013c.894.312,21.904,7.732,22.724,15.423Z" fill="#93430c"/>
  <path d="M737.823,567.598l-.853.649c-4.358-5.731-18.594-10.668-18.738-10.717l.348-1.015c.597.205,14.688,5.092,19.242,11.082Z" fill="#93430c"/>
  <rect x="724.031" y="547.375" width="1.073" height="12.662" transform="translate(-102.29 938.277) rotate(-62.33)" fill="#93430c"/>
  <polygon points="1389.664 332.83 1377.244 348.503 1373.4 337.858 1381.976 330.465 1389.664 332.83" fill="#6a5b7e"/>
  <path d="M1379.531,375.92l-.809-39.541s15.082.591,15.673-13.012c.591-13.603-7.689-14.49-11.237-14.49s-9.167,12.42-9.167,12.42l6.801-42.879-1.479-16.264-5.027-5.027s-11.533-12.42-38.443-12.42-37.852,24.544-39.922,29.572c-2.07,5.027-14.49,70.676,11.533,97.291,0,0,4.731,7.393,17.743,7.984l-3.799,24.622,12.843,23.929,7.165,1.758s7.411-16.941,17.169-19.603c9.759-2.661,19.181-27.242,20.955-34.339Z" fill="#fd987e"/>
  <path d="M1374.287,257.127s9.759,13.012-2.661,22.77c-12.42,9.759-.591,16.56-.887,31.937-.296,15.377,3.253,10.942,5.914,5.619,2.661-5.323,7.393-10.35,12.42-6.506,5.027,3.844,4.14,5.027,4.14,5.027,0,0,6.21-28.98,0-41.696-6.21-12.716-12.716-15.673-18.926-17.152Z" fill="#6a5b7e"/>
  <path d="M1305.089,259.345s-13.307,13.307-13.603,49.533c0,0-8.871-10.646-2.957-32.233,5.914-21.587,16.56-17.299,16.56-17.299Z" fill="#6a5b7e"/>
  <path d="M1338.366,301.93c4.736,1.241,9.471,2.482,14.207,3.723,1.055.276,2.193-.35,2.485-1.411.287-1.045-.351-2.207-1.411-2.485-4.736-1.241-9.471-2.482-14.207-3.723-1.055-.276-2.193.35-2.485,1.411-.287,1.045.351,2.207,1.411,2.485h0Z" fill="#6a5b7e"/>
  <path d="M1310.028,298.542c-4.703-.184-9.457.621-13.823,2.381-1.011.408-1.724,1.347-1.411,2.485.264.96,1.467,1.821,2.485,1.411,4.166-1.68,8.313-2.41,12.749-2.237,1.057.041,2.067-.959,2.02-2.02-.051-1.13-.887-1.976-2.02-2.02h0Z" fill="#6a5b7e"/>
  <path d="M1342.629,318.142c2.599,0,2.604-4.04,0-4.04s-2.604,4.04,0,4.04h0Z" fill="#003051"/>
  <path d="M1306.699,317.921c2.599,0,2.604-4.04,0-4.04s-2.604,4.04,0,4.04h0Z" fill="#003051"/>
  <path d="M1319.481,318.871c-.918,2.709-1.651,5.475-2.171,8.288-.492,2.666-1.048,5.564-.895,8.285.151,2.689,1.495,5.012,3.989,6.162,2.756,1.271,5.679.884,8.573.393,1.076-.183,1.679-1.509,1.411-2.485-.313-1.139-1.405-1.594-2.485-1.411-1.893.322-4.092.746-5.878-.193-1.797-.945-1.649-2.837-1.499-4.615.383-4.549,1.386-9.03,2.851-13.35.836-2.468-3.064-3.527-3.896-1.074h0Z" fill="#f27e6f"/>
  <path d="M1339.449,349.28c-6.885,4.736-16.129,5.452-23.58,1.577-2.304-1.198-4.349,2.287-2.039,3.488,8.67,4.509,19.572,3.984,27.658-1.577,2.129-1.464.11-4.967-2.039-3.488h0Z" fill="#f27e6f"/>
  <path d="M1387.654,315.63c-2.542-.229-5.249.82-6.992,2.683-.942,1.006-1.633,2.22-2.032,3.539-.409,1.355-.424,2.731-.206,4.116.074.468.538.979.928,1.207.433.253,1.071.361,1.556.204.489-.158.96-.461,1.207-.928.27-.51.293-.99.204-1.556-.066-.42.036.442.01.049-.008-.123-.018-.245-.022-.368-.008-.246-.002-.492.018-.737l.011-.123c.025-.22.016-.163-.027.171.044-.104.043-.254.065-.363.046-.221.103-.44.17-.655.037-.118.076-.234.119-.349.16-.43-.103.203-.016.028.101-.202.196-.405.31-.601.123-.213.283-.405.405-.616-.254.438-.118.152-.008.025.08-.092.163-.183.248-.27.169-.174.35-.331.533-.489.268-.233-.279.194-.074.059.101-.066.198-.138.299-.203.186-.119.378-.23.575-.33.09-.046.253-.086.326-.156-.298.123-.348.144-.148.065l.113-.042c.227-.083.458-.154.692-.213.117-.029.235-.056.353-.079.2-.039.45.012-.061-.004.483.015.955-.062,1.444-.018,1.055.095,2.066-.997,2.02-2.02-.053-1.176-.889-1.918-2.02-2.02h0Z" fill="#f27e6f"/>
  <path d="M1378.122,289.615c.053.039.106.078.158.118-.017-.013-.1-.078-.009-.007s.18.143.268.216c.177.146.351.297.52.452.339.309.664.635.973.975.643.707,1.05,1.254,1.577,2.12.239.393.46.797.663,1.209.102.206.198.415.291.626.02.045.04.09.059.136-.017-.041-.063-.156.012.032.042.107.085.214.126.321.331.875.584,1.78.749,2.701.023.129.045.259.065.388.007.049.015.097.021.146.026.179-.026-.239.009.073.028.245.052.489.068.735.037.541.041,1.083.017,1.624-.023.529.481,1.034,1.01,1.01.567-.025.985-.444,1.01-1.01.178-4.09-1.326-8.155-3.987-11.245-.766-.89-1.638-1.666-2.58-2.365-.426-.316-1.146-.084-1.382.362-.279.528-.092,1.044.362,1.382h0Z" fill="#5d4c72"/>
  <path d="M1324.911,383.073s-7.541,5.766-10.202,11.977c-2.661,6.21-42.583,15.969-52.785,41.696-10.202,25.727-28.832,98.474-28.832,98.474,0,0-3.105,16.856-15.082,19.517-11.977,2.661-64.762,28.832-64.762,28.832,0,0,37.26,5.766,23.953,31.05,0,0,23.953,1.774,79.843-15.525l.444,13.751s30.607,20.848,78.956,9.759c48.35-11.089,113.555-45.688,113.555-45.688l-21.292-123.314-49.311-79.033s1.849,13.383-29.645,31.57c0,0-2.218.444-6.21,7.541-3.992,7.097-7.097,12.42-7.097,12.42l-9.315-18.63s-5.766-9.759-2.218-24.397Z" fill="#8cade2"/>
  <path d="M1334.713,427.575c-6.697,21.335-5.958,44.025-7.681,66.084-1.792,22.938-5.223,45.744-10.246,68.197-2.814,12.582-6.135,25.046-9.931,37.367-.384,1.245,1.566,1.778,1.948.537,6.739-21.87,11.956-44.201,15.572-66.799,1.779-11.121,3.18-22.304,4.191-33.521,1.018-11.299,1.44-22.626,2.145-33.946.785-12.624,2.148-25.267,5.951-37.382.39-1.243-1.559-1.775-1.948-.537h0Z" fill="#7099db"/>
  <path d="M1233.406,552.692c4.876-.616,9.78,1.323,13.057,4.972.897.999,1.651,2.148,2.249,3.417.232.493.941.62,1.382.362.505-.296.596-.887.362-1.382-2.295-4.872-7.201-8.407-12.491-9.274-1.512-.248-3.037-.308-4.558-.116-.541.068-1.01.415-1.01,1.01,0,.493.465,1.079,1.01,1.01h0Z" fill="#7099db"/>
  <path d="M1272.276,474.047c-.609,31.567-4.382,63.047-11.304,93.854-1.936,8.615-4.12,17.172-6.535,25.664-.356,1.253,1.592,1.787,1.948.537,8.623-30.333,14.206-61.514,16.619-92.957.692-9.018,1.117-18.055,1.292-27.098.025-1.3-1.995-1.3-2.02,0h0Z" fill="#7099db"/>
  <path d="M1330.432,425.037c-.496-4.384-1.333-9.653-5.46-12.144-4.583-2.767-10.297-.245-13.498,3.435-1.992,2.291-3.389,4.994-4.747,7.687.615.259,1.231.519,1.846.778,2.032-7.17,4.064-14.34,6.096-21.511.355-1.253-1.593-1.788-1.948-.537-2.032,7.17-4.064,14.34-6.096,21.511-.305,1.078,1.321,1.82,1.846.778,2.034-4.034,4.31-8.655,8.708-10.534,1.877-.802,4.144-1.076,6.059-.241,1.76.768,2.962,2.342,3.692,4.074.89,2.112,1.225,4.441,1.481,6.703.061.542.42,1.01,1.01,1.01.498,0,1.072-.464,1.01-1.01h0Z" fill="#7099db"/>
  <path d="M1339.733,441.605c-.195.08-.389.156-.566.272-.172.113-.339.242-.488.385-.235.225-.442.499-.593.788-.155.298-.286.623-.343.955-.035.205-.066.415-.07.624-.004.209.027.416.057.623.021.143.055.283.105.419.078.21.166.423.288.613l.158.204c.091.098.2.168.325.209.079.046.164.069.255.069.134.03.268.024.403-.018.187-.036.359-.114.533-.19.095-.042.186-.093.27-.153.151-.108.304-.222.432-.356.127-.133.24-.283.343-.435.061-.09.114-.186.158-.285.076-.169.153-.342.201-.522.075-.281.118-.59.089-.882-.041-.409-.133-.798-.359-1.149-.142-.219-.347-.394-.604-.464-.242-.067-.564-.037-.778.102-.216.139-.405.346-.464.604-.059.258-.046.549.102.778.045.07.084.143.117.219l-.102-.241c.048.117.08.238.098.363-.012-.089-.024-.179-.036-.268.019.145.018.29,0,.435l.036-.268c-.022.165-.066.326-.13.48l.102-.241c-.063.148-.143.286-.241.414l.158-.204c-.086.11-.183.209-.293.296l.204-.158c-.105.081-.218.148-.341.2l.241-.102c-.089.036-.18.063-.274.081.38.155.76.309,1.141.464-.061-.095-.113-.194-.157-.298.034.08.068.161.102.241-.068-.164-.112-.336-.137-.512l.036.268c-.026-.203-.024-.408.003-.612l-.036.268c.03-.211.087-.416.168-.613l-.102.241c.081-.189.183-.367.309-.53-.053.068-.105.136-.158.204.11-.14.234-.266.374-.375l-.204.158c.131-.1.274-.184.426-.248l-.241.102.019-.008c.131-.031.246-.092.343-.181.11-.071.197-.166.26-.283.127-.216.18-.536.102-.778-.079-.244-.231-.48-.464-.604l-.241-.102c-.179-.048-.358-.048-.537,0h0Z" fill="#7099db"/>
  <path d="M1337.469,490.692c-.411-.197-.865-.325-1.325-.275-.229.025-.457.053-.675.13-.214.076-.43.166-.624.285s-.379.262-.547.416-.308.338-.442.523c-.087.119-.159.248-.218.383-.091.21-.179.413-.215.639-.036.231-.068.452-.04.684.019.155.035.316.078.468.04.139.103.275.16.407.05.116.113.223.189.323.125.165.245.327.405.459.157.13.322.26.502.358.183.098.379.18.576.245.122.04.248.068.375.086.211.031.422.063.635.056.46-.014.879-.122,1.29-.324.4-.197.731-.528.969-.901l-.158.204c.166-.131.29-.297.415-.466.125-.169.2-.36.279-.553.048-.117.083-.239.104-.364.035-.208.067-.422.062-.635-.019-.758-.31-1.525-.855-2.061-.315-.31-.73-.559-1.167-.649-.267-.055-.538-.039-.778.102-.21.123-.409.363-.464.604-.059.259-.046.549.102.778.137.213.347.411.604.464.092.019.182.047.269.083-.08-.034-.161-.068-.241-.102.111.048.214.109.31.182l-.204-.158c.109.085.206.183.291.292l-.158-.204c.1.13.181.272.246.422l-.102-.241c.073.175.123.358.148.546l-.036-.268c.021.169.023.339.001.509l.036-.268c-.02.149-.058.294-.115.433l.102-.241c-.049.116-.112.225-.188.326l.158-.204c-.052.067-.109.129-.172.185-.098.088-.149.144-.238.275-.025.037-.049.073-.076.108l.158-.204c-.074.095-.159.179-.254.254l.204-.158c-.112.086-.235.157-.365.212l.241-.102c-.154.063-.315.105-.48.127l.268-.036c-.185.023-.372.022-.558-.001l.268.036c-.191-.026-.378-.076-.556-.15l.241.102c-.153-.065-.298-.148-.43-.25l.204.158c-.107-.084-.203-.179-.287-.286l.158.204c-.076-.1-.14-.208-.189-.323l.102.241c-.049-.117-.082-.239-.1-.365.012.089.024.179.036.268-.017-.132-.016-.264,0-.396l-.036.268c.021-.144.06-.283.116-.418l-.102.241c.066-.154.152-.298.254-.432l-.158.204c.113-.145.244-.275.389-.388l-.204.158c.146-.112.303-.205.472-.278l-.241.102c.154-.064.314-.11.48-.133l-.268.036c.138-.017.275-.018.413,0l-.268-.036c.126.018.248.051.366.099l-.241-.102c.025.011.05.022.075.034.116.074.241.114.376.12.134.03.268.024.403-.018.234-.065.488-.246.604-.464.124-.234.186-.518.102-.778-.077-.239-.229-.491-.464-.604h0Z" fill="#7099db"/>
  <path d="M1329.736,542.658c.084,0,.168.005.252.016l-.268-.036c.165.023.324.068.477.131-.08-.034-.161-.068-.241-.102.167.071.323.163.467.273l-.204-.158c.163.126.309.272.436.435-.053-.068-.105-.136-.158-.204.131.17.24.355.326.553l-.102-.241c.08.189.136.387.164.59l-.036-.268c.023.179.024.36,0,.539l.036-.268c-.023.159-.065.312-.127.46l.102-.241c-.062.142-.14.275-.235.398.053-.068.105-.136.158-.204-.103.131-.222.248-.354.351l.204-.158c-.156.119-.327.217-.508.293l.241-.102c-.203.084-.416.14-.634.17l.268-.036c-.211.027-.423.028-.633,0l.268.036c-.187-.026-.369-.073-.544-.145l.241.102c-.154-.065-.299-.148-.432-.25l.204.158c-.118-.092-.223-.197-.315-.315l.158.204c-.099-.128-.179-.268-.243-.416l.102.241c-.07-.168-.117-.344-.142-.525.012.089.024.179.036.268-.028-.211-.027-.424,0-.635l-.036.268c.03-.219.087-.433.172-.637l-.102.241c.08-.189.182-.367.308-.529l-.158.204c.104-.132.222-.251.354-.355l-.204.158c.129-.099.268-.181.417-.244l-.241.102c.026-.011.053-.021.08-.031.252-.092.464-.226.604-.464.127-.216.18-.536.102-.778-.079-.244-.231-.48-.464-.604-.229-.121-.526-.195-.778-.102-.174.064-.35.135-.512.226-.157.089-.299.203-.44.315-.224.178-.402.404-.566.637-.166.236-.282.506-.382.775-.104.277-.145.566-.178.859-.034.294-.001.58.043.872.044.287.146.549.268.813.119.258.299.497.494.701.125.131.273.24.417.348.084.063.172.119.264.167.247.129.516.238.791.293.286.057.585.094.878.076.575-.036,1.147-.187,1.64-.492.526-.326.942-.787,1.183-1.357.138-.327.209-.648.229-1.006.017-.301-.027-.615-.102-.906-.075-.292-.198-.581-.349-.843-.151-.261-.342-.509-.555-.722-.211-.211-.458-.403-.721-.546-.26-.141-.551-.263-.845-.312-.189-.032-.383-.061-.576-.061-.259,0-.531.112-.714.296-.175.175-.307.463-.296.714.012.261.098.532.296.714.197.181.441.296.714.296h0Z" fill="#7099db"/>
  <path d="M1321.219,587.518c-1.18-.729-2.773-.587-3.905.171-.558.374-1.064.878-1.34,1.498-.181.405-.283.778-.319,1.223-.029.358.022.736.122,1.08.201.686.619,1.335,1.167,1.794.278.233.574.45.906.6.199.09.403.178.613.24.214.063.432.091.653.119,1.381.175,2.747-.677,3.325-1.919.284-.609.455-1.273.42-1.95-.033-.653-.209-1.338-.6-1.872-.121-.165-.245-.329-.391-.473-.184-.183-.454-.296-.714-.296-.248,0-.544.11-.714.296-.369.402-.401,1.03,0,1.428.072.071.138.146.2.226l-.158-.204c.12.158.219.329.297.512l-.102-.241c.086.209.144.426.175.65l-.036-.268c.035.263.034.528,0,.791l.036-.268c-.037.273-.109.539-.215.793l.102-.241c-.097.226-.219.439-.368.634l.158-.204c-.128.163-.272.31-.435.439l.204-.158c-.158.122-.329.223-.513.3.08-.034.161-.068.241-.102-.177.072-.36.121-.549.148l.268-.036c-.211.027-.422.025-.632-.002l.268.036c-.242-.034-.476-.101-.701-.196l.241.102c-.236-.102-.457-.233-.661-.39l.204.158c-.203-.158-.385-.339-.545-.542l.158.204c-.149-.194-.273-.403-.369-.628l.102.241c-.08-.196-.136-.4-.165-.61l.036.268c-.024-.192-.023-.384.001-.576l-.036.268c.028-.196.081-.386.157-.569l-.102.241c.082-.189.186-.365.31-.529l-.158.204c.15-.194.324-.366.518-.516l-.204.158c.212-.162.443-.295.689-.399-.08.034-.161.068-.241.102.246-.102.502-.172.766-.208l-.268.036c.233-.029.466-.031.699,0l-.268-.036c.204.029.402.083.591.162l-.241-.102c.105.045.205.098.302.158.45.278,1.131.112,1.382-.362.261-.494.118-1.085-.362-1.382h0Z" fill="#7099db"/>
  <g>
    <path d="M1337.545,602.878s-29.041-5.576-35.412-4.761c-6.37.815-4.087,3.544-4.087,3.544,0,0,14.203,3.518,13.644,6.398-.559,2.88-25.756,2.563-29.512-1.038-3.755-3.6-6.396.341-4.899,1.687,0,0-3.777.439-2.429,3.455,1.349,3.016,8.187,10.965,15.246,14.152,7.059,3.186,17.408,8.503,39.786,2.152,14.182-4.025,13.473-5.708,13.473-5.708l-5.812-19.881Z" fill="#ff9c8c"/>
    <path d="M1277.601,610.576l.96-.494c3.251,6.326,25.723,5.667,25.95,5.659l.035,1.08c-.953.031-23.385.684-26.946-6.245Z" fill="#e86453"/>
    <path d="M1281.358,619.626l.566-.92c6.174,3.803,21.34,3.276,21.493,3.27l.041,1.08c-.636.024-15.647.545-22.099-3.43Z" fill="#e86453"/>
    <rect x="1298.312" y="621.491" width="1.081" height="12.752" transform="translate(526.8455 1846.5721) rotate(-83.4464)" fill="#e86453"/>
  </g>
  <path d="M1379.434,374.595s10.682,7.591,13.344,15.575c0,0,35.042,13.307,50.568,25.727,15.525,12.42,17.299,16.856,21.735,32.825,4.436,15.969,23.066,67.867,25.284,117.104,2.218,49.237-11.977,45.688-46.575,54.56s-105.571,13.307-105.571,13.307c0,0,3.105-25.284-9.759-36.817l97.143-30.163-15.969-78.956-30.199-113.161Z" fill="#8cade2"/>
  <path d="M1442.428,422.771c-8.663,1.433-16.624,6.347-21.98,13.276-1.516,1.961-2.819,4.07-3.87,6.315-.231.494-.138,1.089.362,1.382.438.256,1.149.134,1.382-.362,3.545-7.568,10.041-13.673,17.81-16.764,2.203-.877,4.495-1.512,6.834-1.899.539-.089.839-.756.705-1.242-.157-.572-.702-.795-1.242-.705h0Z" fill="#7099db"/>
  <path d="M1391.68,394.033c-10.1,11.396-18.574,24.172-25.112,37.926.615.08,1.231.161,1.846.241-2.049-6.239-4.595-13.16-11.152-15.874-6.052-2.505-11.888,1.069-14.572,6.596-.565,1.165,1.176,2.19,1.744,1.02,2.389-4.921,7.474-8.125,12.794-5.421,5.42,2.755,7.464,8.818,9.237,14.217.248.756,1.449,1.076,1.846.241,6.464-13.598,14.809-26.248,24.796-37.517.86-.97-.564-2.404-1.428-1.428h0Z" fill="#7099db"/>
  <path d="M1426.899,566.845c6.891-.566,13.917,1.761,19.145,6.288,1.493,1.293,2.846,2.752,3.993,4.361.316.444.881.655,1.382.362.438-.256.681-.935.362-1.382-4.336-6.081-11.15-10.268-18.537-11.401-2.103-.323-4.223-.422-6.345-.248-1.286.106-1.298,2.127,0,2.02h0Z" fill="#7099db"/>
  <path d="M1409.655,497.583c2.061,10.604,4.121,21.209,6.182,31.813,1.041,5.357,2.082,10.714,3.123,16.071.467,2.405.935,4.81,1.402,7.215.54,2.78,1.342,5.641,1.54,8.47.386,5.537-4.696,6.672-8.993,7.906-5.145,1.477-10.29,2.955-15.435,4.432-10.29,2.955-20.58,5.91-30.87,8.865-11.576,3.324-23.153,6.649-34.729,9.973-1.247.358-.717,2.308.537,1.948,21.652-6.218,43.304-12.435,64.956-18.653,5.359-1.539,10.719-3.078,16.078-4.617,3.569-1.025,8.189-1.997,9.866-5.771.856-1.927.692-4.032.353-6.062-.449-2.68-1.028-5.344-1.546-8.012-1.083-5.575-2.167-11.151-3.25-16.726-2.422-12.463-4.843-24.926-7.265-37.389-.248-1.275-2.195-.735-1.948.537h0Z" fill="#7099db"/>
  <path d="M1380.853,255.849c5.713,3.927,6.936,10.809,6.267,13.757-1.211,5.334-5.609,9.562-10.657,11.667-5.048,2.105-10.704,2.316-16.143,1.732-5.439-.584-10.765-1.924-16.16-2.821-12.568-2.088-25.535-1.741-37.973,1.017-5.74,1.273-11.407,3.059-17.272,3.469-5.865.411-12.138-.74-16.526-4.653-4.388-3.913-6.149-11.053-2.802-15.887,1.902,3.638,7.089,4.329,10.859,2.705,3.77-1.625,6.536-4.877,9.445-7.775,11.607-11.565,27.706-21.351,44.068-22.223,16.362-.872,28.903,4.741,47.101,19.116" fill="#6a5b7e"/>
  <path d="M1379.163,280.365c5.84,1.699,10.343,7.736,11.162,15.135.245,2.212.149,4.481-.267,6.65-.292,1.522,1.597,2.171,1.89.647.831-4.326.514-8.894-.889-12.984-1.302-3.796-3.564-7-6.372-9.197-1.532-1.199-3.238-2.083-5.001-2.596-1.227-.357-1.75,1.988-.521,2.346h0Z" fill="#5d4c72"/>
  <path d="M1346.683,273.583c-4.538-2.125-9.358-3.612-14.31-4.382-4.677-.727-9.534-.931-14.223-.194-8.673,1.364-16.606,5.607-25.296,6.89-5.038.744-10.095.187-14.671-2.129-.43-.218-.81.429-.379.648,3.911,1.981,8.212,2.791,12.579,2.498,4.293-.288,8.462-1.482,12.538-2.799,4.192-1.355,8.345-2.878,12.65-3.848,4.637-1.046,9.385-1.161,14.104-.666,5.75.603,11.393,2.179,16.629,4.63.435.203.816-.443.379-.648h0Z" fill="#5d4c72"/>
  <path d="M548.684,399.933s36.376,4.097,50.695,25.003c21.221,30.982,53.08,88.24,68.793,94.728,15.713,6.488,31.398,12.429,31.231,25.495-.176,13.753-8.758,27.101-29.82,27.013-21.061-.088-66.884-28.718-72.68-42.015l-24.752,30.348-42.574,5.779-1.954-132.066s35.38-6.618,21.061-34.285Z" fill="#7a4488"/>
  <path d="M543.839,597s29.041-5.576,35.412-4.761c6.37.815,4.087,3.544,4.087,3.544,0,0-14.203,3.518-13.644,6.398.559,2.88,25.756,2.563,29.512-1.038,3.755-3.6,6.396.341,4.899,1.687,0,0,3.777.439,2.429,3.455-1.349,3.016-8.187,10.965-15.246,14.152-7.059,3.186-17.408,8.503-39.786,2.152-14.182-4.025-13.473-5.708-13.473-5.708l5.812-19.881Z" fill="#a85326"/>
  <path d="M603.783,604.697l-.96-.494c-3.251,6.326-25.723,5.667-25.95,5.659l-.035,1.08c.953.031,23.385.684,26.946-6.245Z" fill="#93430c"/>
  <path d="M600.026,613.747l-.566-.92c-6.174,3.803-21.34,3.276-21.493,3.27l-.041,1.08c.636.024,15.647.545,22.099-3.43Z" fill="#93430c"/>
  <rect x="576.156" y="621.449" width="12.752" height="1.081" transform="translate(-67.183 70.55) rotate(-6.554)" fill="#93430c"/>
  <path d="M486.434,488.565l2.384,78.079s45.668,10.386,71.22,23.888c0,0-16.675,13.967-12.418,24.771,4.257,10.804,6.202,8.682,6.202,8.682,0,0-64.09,11.659-85.784-2.847-21.694-14.506-46.233-31.389-48.636-139.072,0,0-10.053-53.919,50.276-76.17,0,0,6.625,28.311,57.944,28.322l-41.189,54.347Z" fill="#7a4488"/>
  <path d="M487.522,421.348l-.665,78.828,40.246,70.18,46.565-2.993,21.62-29.935,1.615-7.701s-13.743-14.464-16.028-39.071c-2.285-24.607-29.001-75.93-29.001-75.93,0,0-21.487,32.754-64.351,6.622Z" fill="#7a4488"/>
  <path d="M486.76,491.04c.128,9.595.256,19.19.384,28.784s.256,19.19.384,28.784c.072,5.4.144,10.799.216,16.199.002.173.116.308.275.362,9.588,3.199,19.094,6.64,28.582,10.123,9.669,3.549,19.319,7.148,29.016,10.62,5.316,1.903,10.646,3.767,16.002,5.554.459.153.656-.571.199-.723-9.588-3.199-19.094-6.64-28.582-10.123-9.669-3.549-19.319-7.148-29.016-10.62-5.316-1.903-10.646-3.767-16.002-5.554l.275.362c-.128-9.595-.256-19.19-.384-28.784s-.256-19.19-.384-28.784c-.072-5.4-.144-10.799-.216-16.199-.006-.482-.756-.484-.75,0h0Z" fill="#733981"/>
  <path d="M429.851,564.122c.932,8.946,3.666,17.641,7.865,25.588s9.799,15.092,16.464,21.076,14.376,10.777,22.756,13.934c10.39,3.914,21.625,5.074,32.665,4.696,11.884-.407,23.634-2.516,35.273-4.82,1.434-.284,2.866-.571,4.299-.859.255-.051.321-.349.224-.551-4.279-8.886-1.627-20.145,5.276-26.95,1.944-1.917,4.236-3.473,6.763-4.513.44-.181.247-.907-.199-.723-9.478,3.901-15.289,14.393-14.603,24.478.191,2.808.895,5.551,2.117,8.087l.224-.551c-11.539,2.321-23.134,4.608-34.897,5.419-11.279.778-22.8.157-33.634-3.288-8.433-2.681-16.301-7.066-23.142-12.667-6.885-5.638-12.763-12.497-17.275-20.166s-7.634-16.118-9.001-24.9c-.17-1.093-.31-2.189-.424-3.289-.05-.475-.8-.48-.75,0h0Z" fill="#733981"/>
  <path d="M485.143,400.392l-15.598,5.505s7.799,35.097,46.566,33.72c38.767-1.376,43.355-17.434,44.043-37.39l-13.763-2.982s1.835,26.609-22.71,26.839c-24.545.229-33.72-5.047-38.537-25.692Z" fill="#7a4488"/>
  <path d="M499.5,426.353c-.948,1.686-1.8,3.42-2.707,5.128-.282.53-.57,1.057-.864,1.58-.237.421.411.8.648.379.948-1.686,1.8-3.42,2.707-5.128.282-.53.57-1.057.864-1.58.237-.421-.411-.8-.648-.379h0Z" fill="#733981"/>
  <path d="M493.824,423.983c-.693.572-1.319,1.21-1.893,1.9-.501.601-.977,1.222-1.517,1.79-.374.394-.774.762-1.193,1.108-.156.129-.134.397,0,.53.155.155.374.129.53,0,.693-.572,1.319-1.21,1.893-1.9.501-.601.977-1.222,1.517-1.79.374-.394.774-.762,1.193-1.108.156-.129.134-.397,0-.53-.155-.155-.374-.129-.53,0h0Z" fill="#733981"/>
  <path d="M484.172,424.552c2.14-1.378,4.28-2.756,6.42-4.134.404-.26.029-.91-.379-.648-2.14,1.378-4.28,2.756-6.42,4.134-.404.26-.029.91.379.648h0Z" fill="#733981"/>
  <path d="M480.057,419.298c2.217-1.224,4.435-2.447,6.652-3.671.423-.233.045-.881-.379-.648-2.217,1.224-4.435,2.447-6.652,3.671-.423.233-.045.881.379.648h0Z" fill="#733981"/>
  <path d="M477.061,414.022c2.566-1.078,5.132-2.156,7.698-3.234.187-.078.321-.248.262-.461-.048-.176-.273-.341-.461-.262-2.566,1.078-5.132,2.156-7.698,3.234-.187.078-.321.248-.262.461.048.176.273.341.461.262h0Z" fill="#733981"/>
  <path d="M474.453,408.534c2.757-1.137,5.514-2.274,8.27-3.411.187-.077.32-.249.262-.461-.049-.177-.273-.34-.461-.262-2.757,1.137-5.514,2.274-8.27,3.411-.187.077-.32.249-.262.461.049.177.273.34.461.262h0Z" fill="#733981"/>
  <path d="M505.321,427.612c-.478,2.673-.957,5.345-1.435,8.018-.036.199.054.404.262.461.181.05.425-.061.461-.262.478-2.673.957-5.345,1.435-8.018.036-.199-.054-.404-.262-.461-.181-.05-.425.061-.461.262h0Z" fill="#733981"/>
  <path d="M513.401,428.377c-.076,2.982-.152,5.964-.228,8.946-.012.483.738.483.75,0,.076-2.982.152-5.964.228-8.946.012-.483-.738-.483-.75,0h0Z" fill="#733981"/>
  <path d="M521.312,428.623c.308,3.058.616,6.117.923,9.175.02.201.158.375.375.375.187,0,.395-.172.375-.375-.308-3.058-.616-6.117-.923-9.175-.02-.201-.158-.375-.375-.375-.187,0-.395.172-.375.375h0Z" fill="#733981"/>
  <path d="M528.678,429.373c.674,2.603,1.348,5.207,2.022,7.81.121.467.844.269.723-.199-.674-2.603-1.348-5.207-2.022-7.81-.121-.467-.844-.269-.723.199h0Z" fill="#733981"/>
  <path d="M534.555,427.779c1.345,2.54,2.69,5.08,4.034,7.62.226.427.874.048.648-.379-1.345-2.54-2.69-5.08-4.034-7.62-.226-.427-.874-.048-.648.379h0Z" fill="#733981"/>
  <path d="M541.116,424.017c1.36,1.384,2.72,2.767,4.08,4.151.383.39.767.78,1.15,1.17.339.345.869-.186.53-.53-1.36-1.384-2.72-2.767-4.08-4.151-.383-.39-.767-.78-1.15-1.17-.339-.345-.869.186-.53.53h0Z" fill="#733981"/>
  <path d="M544.08,418.472c2.994,1.816,5.988,3.632,8.981,5.447.414.251.791-.397.379-.648-2.994-1.816-5.988-3.632-8.981-5.447-.414-.251-.791.397-.379.648h0Z" fill="#733981"/>
  <path d="M547.466,413.758c2.759,1.13,5.519,2.261,8.278,3.391.187.077.412-.083.461-.262.059-.215-.074-.384-.262-.461-2.759-1.13-5.519-2.261-8.278-3.391-.187-.077-.412.083-.461.262-.059.215.074.384.262.461h0Z" fill="#733981"/>
  <path d="M549.722,408.121c2.524.839,5.048,1.678,7.572,2.517.459.153.656-.571.199-.723-2.524-.839-5.048-1.678-7.572-2.517-.459-.153-.656.571-.199.723h0Z" fill="#733981"/>
  <path d="M549.737,403.02c3.135.688,6.27,1.376,9.405,2.064.47.103.671-.62.199-.723-3.135-.688-6.27-1.376-9.405-2.064-.47-.103-.671.62-.199.723h0Z" fill="#733981"/>
  <path d="M582.849,460.164c2.54,12.609,4.93,25.247,7.167,37.913s4.308,25.277,6.235,37.952c1.084,7.132,2.119,14.272,3.108,21.418.066.476.789.273.723-.199-1.762-12.741-3.675-25.46-5.742-38.155s-4.272-25.283-6.635-37.884c-1.33-7.091-2.707-14.172-4.132-21.244-.095-.473-.818-.273-.723.199h0Z" fill="#733981"/>
  <path d="M961.326,223.299c-1.592-7.017-9.531-5.373-9.992-5.834-.346-.346.607-4.242-.524-6.127-.786-1.33-11.343-8.274-13.826-10.683-6.075-5.897-11.448-14.391-16.821-20.99.115,6.263,5.991,14.768,10.181,19.45.388.419,12.171,10.107,4.294,6.944-9.468-3.812-17.764-22.006-20.099-31.505l-8.662,11.249c-6.766,7.52-14.621,12.726-23.66,17.209-2.912,1.445-17.984,6.661-18.643,7.415-.754.859.408,7.573-.105,8.065-.67.628-8.431-1.833-9.95,4.839-1.278,5.624.157,13.386,4.881,17.083,2.524,1.969,7.573,2.367,8.641,3.613,1.026,1.194,2.252,8.264,3.383,10.914,2.011,4.692,5.195,9.636,8.358,13.616.953,1.184,5.143,6.379,6.043,7.08-.042.335-.084.67-.084,1.016,0,.723.126,1.435.293,2.126-.042,0-.073-.01-.115-.01.021,5.541-1.1,8.253-2.042,13.281-.126.66-.241,1.278-.335,1.864-1.006,5.918-.566,8.557,5.509,12.893,10.694,7.625,28.091,7.719,38.806.105,4.87-3.446,6.787-7.321,6.337-12.893-.052-.628-.136-1.288-.251-1.969-.272-1.665-2.158-4.43-2.608-7.091-1.163-6.839-1.163-8.023,2.608-13.344,4.881-6.892,8.002-10.233,11.731-18.403,1.026-2.262,2.032-7.971,3.079-9.186,1.016-1.184,5.687-1.623,8.033-3.215,5.185-3.519,6.86-11.689,5.541-17.512ZM959.074,224.493c-.23-.356-.482-.702-.796-1.026.063.052.147.073.199.136" fill="#f7a08e"/>
  <path d="M904.319,253.776c-.937-.122-9.162-1.326-9.059-6.014.019-.637.37-1.489,1.236-3.523,2.075-4.865,6.385-14.994,2.257-19.702l1.884-1.65c5.162,5.892.61,16.587-1.841,22.335-.463,1.092-.983,2.32-1.035,2.646-.038,1.881,4.708,3.147,6.88,3.425l-.324,2.483Z" fill="#f47a6b"/>
  <path d="M928.254,217.202c-.057-.024-6.053-2.391-16.445-2.391h-.041v-2.927h.046c11.016,0,17.284,2.497,17.543,2.6l-1.103,2.717Z" fill="#aa0062"/>
  <path d="M877.756,218.738c.057-.024,6.053-2.391,16.445-2.391h.041v-2.927h-.046c-11.016,0-17.284,2.497-17.543,2.6l1.103,2.717Z" fill="#aa0062"/>
  <circle cx="922.307" cy="226.166" r="2.07" fill="#003153"/>
  <circle cx="886.626" cy="226.739" r="2.07" fill="#003153"/>
  <path d="M948.966,228.175c2.739-4.928,6.165-6.286,7.819-4.529,1.652,1.755.635,5.879-1.656,5.717-3.178-.228-5.1,6.242-6.163,5.752-2.398-1.109-.659-5.752,0-6.94Z" fill="#f47a6b"/>
  <path d="M864.585,229.008c-2.739-4.928-6.165-6.286-7.819-4.529-1.652,1.755-.635,5.879,1.656,5.717,3.178-.228,5.1,6.242,6.163,5.752,2.398-1.109.659-5.752,0-6.94Z" fill="#f47a6b"/>
  <path d="M830.729,474.118c-20.083,21.548-46.323,5.017-67.122-4.65-20.799-9.667-37.815-27.222-46.829-48.312-3.375-7.896-5.487-17.55-.67-24.659,3.913-5.775,11.524-8.127,18.477-7.551,6.952.576,13.439,3.595,19.709,6.653,16.563,8.077,31.451,17.917,45.341,30.027,13.89,12.11,26.733,26.852,30.575,44.875" fill="#fad45c"/>
  <path d="M1042.328,453.402c7.511,28.482-20.47,41.856-39.743,54.291s-43.198,17.461-65.846,13.833c-8.479-1.358-17.771-4.722-21.214-12.589-2.797-6.391-.726-14.083,3.471-19.656,4.196-5.573,10.211-9.449,16.142-13.121,15.668-9.7,31.933-17.043,49.586-22.33,17.653-5.287,36.974-8.285,54.267-1.92" fill="#fad45c"/>
  <g>
    <path d="M734.163,393.547s-18.478-22.819-23.836-26.277c-5.358-3.458-5.37.075-5.37.075,0,0,8.531,11.76,6.264,13.589-2.268,1.829-21.193-14.538-21.74-19.674-.547-5.137-5.074-3.834-4.798-1.854,0,0-3.149-2.084-4.055,1.069-.906,3.153-.802,13.564,2.517,20.5,3.32,6.937,7.774,17.596,28.826,27.095,13.342,6.02,13.881,4.289,13.881,4.289l8.311-18.813Z" fill="#ff9c8c"/>
    <path d="M683.729,361.027l1.045.24c-1.58,6.883,15.901,20.764,16.078,20.904l-.664.842c-.743-.587-18.19-14.446-16.459-21.986Z" fill="#e86453"/>
    <path d="M680.79,370.302l1.018-.336c2.253,6.838,14.104,16.144,14.224,16.237l-.66.846c-.498-.389-12.227-9.6-14.582-16.747Z" fill="#e86453"/>
    <rect x="688.26" y="381.424" width="1.073" height="12.662" transform="translate(-78.369 578.151) rotate(-43.315)" fill="#e86453"/>
  </g>
  <path d="M716.052,410.231c7.737-3.906,14.04-10.579,17.499-18.525,2.23,1.272,4.767,3.08,4.608,5.642-.074,1.185-.743,2.239-1.393,3.232-1.751,2.672-3.519,5.334-5.303,7.984-1.484,2.204-3.019,4.443-5.147,6.034s-4.991,2.445-7.49,1.545-4.238-3.928-3.168-6.36" fill="#fad45c"/>
  <path d="M990.518,451.188c-11.71,2.898-23.032,7.42-33.903,12.606-9.673,4.615-19.264,9.794-27.885,16.197-2.958,2.197-6.077,4.588-8.208,7.641-.277.397.373.772.648.379,1.832-2.624,4.476-4.731,6.993-6.659,3.79-2.902,7.823-5.489,11.925-7.925,10.166-6.037,20.894-11.21,31.916-15.483,6.113-2.37,12.347-4.458,18.714-6.034.468-.116.27-.839-.199-.723h0Z" fill="#fdebb2"/>
  <g>
    <path d="M931.388,491.817s-29.351.79-35.355,2.94c-6.003,2.15-3.207,4.309-3.207,4.309,0,0,14.524.38,14.596,3.292.073,2.912-24.429,7.982-28.839,5.292-4.41-2.69-6.129,1.696-4.39,2.681,0,0-3.569,1.232-1.618,3.869,1.952,2.637,10.279,8.886,17.804,10.469,7.525,1.583,18.696,4.531,39.04-6.404,12.893-6.93,11.847-8.41,11.847-8.41l-9.879-18.039Z" fill="#ff9c8c"/>
    <path d="M874.902,512.074l.826-.684c4.503,5.44,26.153.005,26.372-.05l.265,1.04c-.918.233-22.53,5.653-27.462-.306Z" fill="#e86453"/>
    <path d="M880.476,520.047l.352-1.013c6.798,2.37,21.393-1.377,21.54-1.416l.27,1.038c-.611.159-15.056,3.868-22.162,1.39Z" fill="#e86453"/>
    <rect x="892.869" y="523.77" width="12.662" height="1.073" transform="translate(-48.816 94.511) rotate(-5.858)" fill="#e86453"/>
  </g>
  <path d="M937.371,514.117c-.221-8.664-3.557-17.216-9.261-23.741,2.104-1.471,4.823-2.992,7.071-1.751,1.039.574,1.706,1.629,2.325,2.642,1.667,2.726,3.316,5.462,4.949,8.209,1.358,2.284,2.725,4.629,3.253,7.233.528,2.604.075,5.557-1.808,7.431s-5.363,2.151-7.104.144" fill="#fad45c"/>
  <path d="M881.955,290.16c-2.342,4.935-.863,10.761,2.655,14.732,3.717,4.197,9.15,6.305,14.551,7.274,3.037.544,6.137.826,9.219.938,3.109.113,6.241-.017,9.3-.611,5.075-.986,10.068-3.403,13.322-7.524,3.535-4.477,5.048-11.205,1.528-16.128-.278-.389-.929-.015-.648.379,3.054,4.271,2.097,9.948-.632,14.129-2.701,4.138-7.247,6.777-11.95,8.008-5.609,1.468-11.599,1.192-17.303.484-5.353-.664-10.835-2.138-15.03-5.694-4.413-3.741-6.991-10.075-4.365-15.607.206-.434-.441-.815-.648-.379h0Z" fill="#fdebb2"/>
  <path d="M951.242,210.05l5.659.809-4.058-28.914-11.836-20.459-3.909,3.026c-4.972-5.628-17.23-9.616-31.598-9.616-18.158,0-32.946,6.365-33.894,14.37l-11.928,10.989-1.353,30.773,4.861.872-.803,3.693c21.249-3.364,37.183-21.628,42.814-28.955,7.203,7.134,26.671,24.593,47.815,27.941l-1.77-4.528Z" fill="#aa0062"/>
  <path d="M893.254,170.538c-1.536,7.134-4.764,13.848-9.246,19.599-4.465,5.73-10.14,10.519-16.575,13.896-3.64,1.91-7.515,3.345-11.524,4.254-.471.107-.271.83.199.723,7.219-1.635,13.971-4.995,19.759-9.593,5.757-4.573,10.558-10.382,13.906-16.931,1.9-3.716,3.326-7.668,4.205-11.748.101-.471-.621-.672-.723-.199h0Z" fill="#b83e8b"/>
  <path d="M909.27,160.233c6.877,1.289,13.791,3.018,20.046,6.236,5.805,2.986,10.743,7.291,14.554,12.587,2.512,3.491,4.545,7.302,6.282,11.23.195.441.841.059.648-.379-2.946-6.664-6.809-13.028-12.237-17.967-4.831-4.396-10.677-7.387-16.853-9.411-3.998-1.31-8.108-2.246-12.24-3.02-.472-.088-.674.634-.199.723h0Z" fill="#b83e8b"/>
  <path d="M913.63,177.436c3.923,5.409,9.129,9.882,14.333,14.013,5.882,4.668,12.082,8.941,18.442,12.93,3.024,1.897,6.091,3.729,9.213,5.46.422.234.801-.413.379-.648-5.865-3.253-11.557-6.832-17.088-10.624-6.109-4.188-12.082-8.653-17.505-13.709-2.574-2.399-5.056-4.947-7.126-7.801-.281-.387-.932-.013-.648.379h0Z" fill="#b83e8b"/>
  <path d="M965.008,244.976c2.26,7.876,3.837,15.946,4.679,24.098.238,2.304.416,4.614.54,6.927.026.48.776.483.75,0-.441-8.209-1.595-16.378-3.465-24.384-.536-2.295-1.132-4.575-1.782-6.84-.133-.463-.857-.266-.723.199h0Z" fill="#b83e8b"/>
  <path d="M957.718,257.378c.857,10.59,1.714,21.181,2.571,31.771.039.478.789.482.75,0-.857-10.59-1.714-21.181-2.571-31.771-.039-.478-.789-.482-.75,0h0Z" fill="#b83e8b"/>
  <path d="M945.162,263.81c.213,3.721.427,7.441.64,11.162.028.48.778.483.75,0-.213-3.721-.427-7.441-.64-11.162-.028-.48-.778-.483-.75,0h0Z" fill="#b83e8b"/>
  <path d="M849.446,247.929c.205,9.399.41,18.798.615,28.197.058,2.662.116,5.323.174,7.985.011.482.761.484.75,0-.205-9.399-.41-18.798-.615-28.197-.058-2.662-.116-5.323-.174-7.985-.011-.482-.761-.484-.75,0h0Z" fill="#b83e8b"/>
  <path d="M864.911,268.888c.413,5.639.825,11.278,1.238,16.917.035.479.785.482.75,0-.413-5.639-.825-11.278-1.238-16.917-.035-.479-.785-.482-.75,0h0Z" fill="#b83e8b"/>
  <path d="M883.776,165.437c-8.478,3.392-15.256,10.427-18.562,18.917-.934,2.399-1.562,4.898-1.895,7.45-.062.477.688.473.75,0,1.143-8.768,6.176-16.895,13.342-22.034,2.035-1.459,4.239-2.68,6.564-3.61.443-.177.249-.903-.199-.723h0Z" fill="#b83e8b"/>
  <path d="M920.038,258.177c-4.852,4.671-12.108,6.456-18.543,4.355-1.989-.65-3.157,2.391-1.163,3.042,7.487,2.445,16.087.595,21.785-4.891,1.5-1.444-.565-3.964-2.08-2.506h0Z" fill="#f27e6f"/>
  <g>
    <polygon points="822.279 625.652 802.515 635.864 900.674 693.837 1029.467 616.1 937.237 569.326 822.279 625.652" fill="#00365f"/>
    <polygon points="820.242 633.599 820.631 520.652 854.236 540.053 853.848 653 820.242 633.599" fill="#0048bf"/>
    <polygon points="853.711 652.918 853.706 539.587 870.365 517.517 887.151 519.693 887.316 633.518 853.711 652.918" fill="#9ebae7"/>
    <polygon points="819.435 520.12 853.612 539.84 870.571 517.241 836.742 497.725 819.435 520.12" fill="#00365f"/>
    <polygon points="870.257 517.442 887.131 519.745 853.616 500.028 836.742 497.725 870.257 517.442" fill="#b39cbb"/>
    <g>
      <polygon points="867.532 551.081 871.459 548.814 871.459 544.279 867.532 546.546 867.532 551.081" fill="#00365f"/>
      <polygon points="873.822 547.45 877.749 545.183 877.749 540.648 873.822 542.915 873.822 547.45" fill="#00365f"/>
      <polygon points="867.532 543.556 871.459 541.289 871.459 536.755 867.532 539.022 867.532 543.556" fill="#00365f"/>
      <polygon points="873.822 539.925 877.749 537.658 877.749 533.124 873.822 535.391 873.822 539.925" fill="#00365f"/>
    </g>
    <polygon points="841.017 645.611 827.573 637.85 827.574 609.33 841.018 617.091 841.017 645.611" fill="#00365f"/>
    <polygon points="1004.336 619.912 949.316 651.676 949.314 564.496 976.823 528.978 1004.334 532.733 1004.336 619.912" fill="#f1f8f0"/>
    <polygon points="949.517 651.71 894.497 619.947 894.5 532.767 949.52 564.531 949.517 651.71" fill="#6b2d77"/>
    <polygon points="893.965 533.343 949.685 565.494 977.335 528.65 922.181 496.831 893.965 533.343" fill="#00365f"/>
    <polygon points="976.823 528.978 1004.334 532.733 949.692 500.586 922.181 496.831 976.823 528.978" fill="#b39cbb"/>
    <g>
      <polygon points="973.043 575.132 978.151 572.183 978.151 566.285 973.043 569.234 973.043 575.132" fill="#00365f"/>
      <polygon points="981.225 570.408 986.333 567.46 986.332 561.562 981.224 564.51 981.225 570.408" fill="#00365f"/>
      <polygon points="973.043 565.344 978.151 562.395 978.151 556.497 973.043 559.446 973.043 565.344" fill="#00365f"/>
      <polygon points="981.225 560.621 986.333 557.672 986.332 551.774 981.224 554.723 981.225 560.621" fill="#00365f"/>
    </g>
    <polygon points="988.872 629.411 974.779 637.547 974.778 606.916 988.87 598.78 988.872 629.411" fill="#00365f"/>
    <g>
      <polygon points="936.444 658.088 899.095 679.649 899.093 620.47 917.768 596.359 936.443 598.908 936.444 658.088" fill="#d47daf"/>
      <polygon points="899.232 679.673 861.882 658.111 861.884 598.931 899.233 620.493 899.232 679.673" fill="#aa0062"/>
      <polygon points="861.521 599.322 899.346 621.147 918.115 596.136 880.675 574.536 861.521 599.322" fill="#00365f"/>
      <polygon points="917.768 596.359 936.443 598.908 899.35 577.085 880.675 574.536 917.768 596.359" fill="#b39cbb"/>
      <g>
        <polygon points="913.319 630.047 917.246 627.78 917.246 623.245 913.319 625.512 913.319 630.047" fill="#00365f"/>
        <polygon points="919.609 626.416 923.536 624.149 923.535 619.614 919.608 621.881 919.609 626.416" fill="#00365f"/>
        <polygon points="913.319 622.522 917.246 620.255 917.246 615.721 913.319 617.988 913.319 622.522" fill="#00365f"/>
        <polygon points="919.609 618.891 923.536 616.624 923.535 612.09 919.608 614.357 919.609 618.891" fill="#00365f"/>
      </g>
      <polygon points="885.156 671.962 871.712 664.201 871.713 635.681 885.157 643.442 885.156 671.962" fill="#00365f"/>
    </g>
  </g>
</svg>