<?xml version="1.0" encoding="UTF-8"?>
<svg id="a" data-name="Layer 1" xmlns="http://www.w3.org/2000/svg" xmlns:xlink="http://www.w3.org/1999/xlink" viewBox="508.47 314.52 779.72 477.00" preserveAspectRatio="xMidYMid meet">
  <defs>
    <clipPath id="b">
      <path d="M861.459,487.789l.071-25.148c-.048,16.883,6.382,33.782,19.28,49.337l-.071,25.148c-12.898-15.555-19.328-32.454-19.28-49.337Z" fill="#fbdd7d"/>
    </clipPath>
  </defs>
  <path d="M1166.202,430.388c-.017,4.224-1.54,8.448-4.585,12.362-6.805-8.663-19.925-13.429-29.697-15.666-16.57-3.777-34.369-2.409-50.018,4.31-5.119,2.194-10.074,4.972-13.954,8.956-.706.731-1.368,1.488-1.97,2.288-8.689-11.158-5.171-24.716,10.599-33.878,20.406-11.864,53.597-11.864,74.141,0,10.005,5.764,15.159,13.274,15.468,20.836.017.267.017.533.017.791Z" fill="#f8bc00"/>
  <g>
    <path d="M861.459,487.789l.071-25.148c-.048,16.883,6.382,33.782,19.28,49.337l-.071,25.148c-12.898-15.555-19.328-32.454-19.28-49.337Z" fill="#fbdd7d"/>
    <g clip-path="url(#b)">
      <path d="M861.53,462.641l-.071,25.148c-.048,16.883,6.382,33.782,19.28,49.337l.071-25.149c-12.898-15.555-19.328-32.453-19.28-49.336Z" fill="#fbdd7d"/>
    </g>
  </g>
  <polygon points="907.442 528.74 907.37 553.888 892.779 545.463 892.85 520.315 907.442 528.74" fill="#fbdd7d"/>
  <path d="M1252.5,465.963c-.581,18.846-11.042,37.428-23.435,51.149-12.825,14.199-29.177,24.878-46.495,33.015-43.242,20.318-91.555,28.123-139.099,26.046-23.638-1.046-47.254-4.444-70.077-10.743l-.071,25.148c-.006,2.104,30.289,6.583,33.262,7.045,11.848,1.843,23.796,3.045,35.774,3.604,47.267,2.199,96.394-4.875,139.296-25.533,4.176-2.011,8.289-4.153,12.328-6.428,14.966-8.431,29.039-18.844,39.833-32.207,7.761-9.609,13.748-20.801,16.731-32.823,3.25-13.098,1.932-27.113,1.977-40.499.008.742,0,1.484-.022,2.225Z" fill="#fbdd7d"/>
  <polygon points="914.797 599.483 914.726 624.631 847.698 616.284 847.769 591.136 914.797 599.483" fill="#fbdd7d"/>
  <polygon points="808.721 659.156 808.65 684.304 762.175 689.708 762.246 664.559 808.721 659.156" fill="#fbdd7d"/>
  <polygon points="892.85 520.315 892.779 545.463 557.149 740.51 557.22 715.362 892.85 520.315" fill="#f8bc00"/>
  <polygon points="907.441 537.101 571.811 732.148 557.219 723.724 892.849 528.677 907.441 537.101" fill="#f9c933"/>
  <polygon points="907.441 528.739 907.369 553.887 571.74 748.934 571.811 723.786 907.441 528.739" fill="#c08c01"/>
  <g>
    <polygon points="973.394 565.431 973.323 590.579 914.726 624.631 914.797 599.483 973.394 565.431" fill="#f8bc00"/>
    <polygon points="847.769 591.136 847.698 616.284 818.361 633.152 818.432 608.004 847.769 591.136" fill="#f8bc00"/>
    <polygon points="824.956 649.721 824.885 674.869 808.65 684.304 808.721 659.156 824.956 649.721" fill="#f8bc00"/>
    <polygon points="762.246 664.559 762.175 689.708 726.488 710.446 726.559 685.298 762.246 664.559" fill="#f8bc00"/>
    <polygon points="729.056 706.1 728.985 731.248 686.254 756.08 686.326 730.932 729.056 706.1" fill="#f8bc00"/>
  </g>
  <polygon points="686.326 730.932 686.254 756.08 584.109 756.076 584.181 730.928 686.326 730.932" fill="#fbdd7d"/>
  <path d="M1194.811,383.139c-76.595-44.228-200.379-44.228-276.469-.013-59.985,34.861-72.424,86.776-37.526,128.856l-336.837,195.74,13.241,7.638,335.627-195.048,14.598,8.428-335.64,195.048,12.377,7.145h102.139l42.734-24.829-2.493-20.805,35.688-20.744,46.473-5.405,16.227-9.428-6.516-41.722,29.333-16.869,67.032,8.354,58.591-34.059c72.782,20.09,162.347,12.698,222.32-22.15,76.102-44.215,75.694-115.923-.901-160.138ZM1211.729,461.621c-1.111,21.583-15.783,42.956-44.067,59.394-59.122,34.355-155.622,34.367-215.126,0-28.814-16.634-43.758-38.316-44.782-60.158-.049-1.148-.062-2.283-.037-3.431.012-.345.012-.691.025-1.036.012-.358.037-.716.062-1.074.025-.345.037-.691.062-1.036.037-.358.074-.716.111-1.074.025-.345.062-.691.099-1.024.049-.358.099-.715.148-1.073.049-.346.099-.691.16-1.037.049-.358.123-.703.185-1.061.062-.346.123-.691.198-1.036.074-.358.16-.716.234-1.062.074-.345.148-.69.235-1.024.086-.358.185-.715.284-1.073.086-.333.173-.679.271-1.024.111-.345.222-.703.333-1.061.099-.333.21-.679.321-1.012.111-.358.247-.703.37-1.061.111-.333.234-.679.358-1.012.136-.358.272-.704.42-1.062.123-.333.259-.666.395-.999.148-.358.309-.704.457-1.049.148-.333.296-.679.444-1.012.16-.345.333-.691.506-1.036.16-.333.321-.666.494-1,.173-.345.358-.691.543-1.036.173-.333.345-.666.531-1,.185-.345.395-.679.592-1.024.185-.333.37-.666.568-1,.21-.333.432-.678.642-1.024.197-.321.395-.654.605-.975.222-.345.457-.678.691-1.024.21-.321.432-.641.654-.962.234-.345.481-.678.728-1.024.234-.309.457-.629.691-.95.247-.333.518-.678.777-1.012.234-.309.481-.63.728-.95.272-.333.543-.666.827-1,.247-.309.506-.629.765-.938.284-.333.58-.666.876-1,.272-.309.531-.617.814-.926.296-.321.605-.654.913-.975.284-.309.555-.617.851-.926.309-.321.642-.642.963-.975.296-.296.58-.605.888-.901.333-.333.691-.654,1.024-.988.309-.283.605-.58.913-.876.358-.333.74-.654,1.098-.987.309-.284.617-.568.938-.839.37-.333.765-.666,1.148-1,.321-.271.629-.543.962-.814.383-.333.79-.642,1.185-.963.333-.284.666-.555,1.012-.839.407-.309.827-.63,1.234-.95.358-.259.703-.543,1.061-.803.432-.333.889-.666,1.345-.987.345-.247.679-.506,1.024-.753.469-.333.95-.666,1.419-.988.346-.246.691-.481,1.037-.728.518-.345,1.049-.691,1.567-1.036.333-.21.654-.419.987-.642.592-.383,1.209-.765,1.826-1.148.271-.16.531-.333.802-.506.889-.542,1.802-1.086,2.715-1.616,59.122-34.355,155.622-34.355,215.138,0,.926.543,1.851,1.086,2.752,1.629.296.185.58.371.876.556.605.37,1.197.74,1.789,1.11.37.234.74.481,1.098.728.494.321.999.642,1.481.963.358.246.703.481,1.061.728.481.333.963.666,1.432,1,.358.246.691.493,1.036.753.457.321.926.654,1.37.987.358.272.703.544,1.061.815.419.321.839.642,1.259.963.345.271.679.543,1.012.827.407.321.827.642,1.222.975.333.284.654.555.987.839.382.333.777.654,1.148.988.333.284.642.568.95.851.37.333.753.666,1.111,1,.309.284.617.58.926.876.346.333.703.654,1.049,1,.296.296.592.592.888.888.333.333.666.666.987,1,.296.309.568.605.864.913.309.333.629.666.926,1,.284.309.543.617.814.926.296.333.605.666.901,1.012.259.309.506.617.765.926.284.345.58.691.852,1.024.247.321.494.629.728.95.272.345.543.678.802,1.024.247.321.469.641.703.962.247.345.506.678.74,1.024.222.321.444.654.666.975.234.345.469.691.691,1.036.21.321.407.642.617.962.222.346.444.704.654,1.049.198.333.383.654.58.988.197.345.407.691.605,1.048.185.334.358.666.531.988.197.358.382.703.568,1.061.173.333.321.666.494.987.173.358.346.716.506,1.074.16.333.309.666.457,1,.16.346.321.703.469,1.061.148.334.271.679.407,1.012.148.358.296.716.432,1.074.123.333.234.678.358,1.012.136.358.259.716.383,1.074.111.333.222.679.321,1.024.111.358.234.704.333,1.062.111.345.197.691.284,1.036.099.358.197.716.296,1.074.086.345.16.678.234,1.024.086.358.173.728.247,1.086.074.333.136.678.197,1.024.062.358.136.716.198,1.086.062.346.099.691.148,1.024.062.37.111.728.16,1.086.037.346.074.691.111,1.049.037.358.074.716.111,1.074.025.345.049.691.074,1.036.012.371.049.728.062,1.086.012.346.012.691.025,1.037.012.358.012.728.025,1.086,0,.901-.037,1.79-.074,2.69Z" fill="#facd42"/>
  <polygon points="571.811 723.786 571.788 732.135 557.219 723.724 557.22 715.362 543.984 707.72 543.912 732.869 557.149 740.51 571.739 748.934 571.741 748.506 571.74 748.935 584.109 756.076 584.181 730.928 571.811 723.786" fill="#f9ca36"/>
  <path d="M914.695,500.222c-.282-.33-.551-.663-.827-.994.275.331.544.664.827.994Z" fill="none"/>
  <path d="M912.971,498.142c-.269-.334-.524-.671-.786-1.007.261.336.517.673.786,1.007Z" fill="none"/>
  <path d="M916.514,502.283c-.296-.326-.579-.655-.869-.982.289.327.572.656.869.982Z" fill="none"/>
  <path d="M918.424,504.322c-.31-.321-.607-.645-.909-.968.303.323.599.647.909.968Z" fill="none"/>
  <path d="M907.003,489.642c-.213-.352-.414-.706-.62-1.06.206.354.407.707.62,1.06Z" fill="none"/>
  <path d="M911.339,496.042c-.256-.34-.498-.682-.746-1.023.248.341.491.683.746,1.023Z" fill="none"/>
  <path d="M908.355,491.791c-.227-.346-.44-.696-.66-1.044.219.348.433.697.66,1.044Z" fill="none"/>
  <path d="M909.802,493.927c-.242-.345-.471-.691-.705-1.037.234.346.463.692.705,1.037Z" fill="none"/>
  <path d="M920.427,506.338c-.32-.313-.627-.63-.94-.945.313.315.62.631.94.945Z" fill="none"/>
  <path d="M931.842,516.056c-.384-.286-.753-.577-1.13-.865.377.288.747.578,1.13.865Z" fill="none"/>
  <path d="M934.405,517.919c-.396-.28-.777-.565-1.167-.847.389.282.771.567,1.167.847Z" fill="none"/>
  <path d="M937.06,519.752c-.412-.277-.809-.559-1.215-.838.405.279.803.561,1.215.838Z" fill="none"/>
  <path d="M929.374,514.166c-.373-.293-.732-.591-1.098-.886.366.295.725.592,1.098.886Z" fill="none"/>
  <path d="M924.713,510.302c-.35-.306-.686-.616-1.029-.924.343.308.679.618,1.029.924Z" fill="none"/>
  <path d="M922.527,508.335c-.341-.315-.667-.633-1.001-.95.333.316.66.635,1.001.95Z" fill="none"/>
  <path d="M926.997,512.247c-.354-.293-.695-.591-1.043-.886.348.295.688.593,1.043.886Z" fill="none"/>
  <path d="M898.266,465.254c-.046-.371-.081-.741-.12-1.111.039.371.074.741.12,1.111Z" fill="none"/>
  <path d="M939.806,521.553c-.398-.254-.782-.513-1.174-.769.392.256.776.515,1.174.769Z" fill="none"/>
  <path d="M898.03,462.996c-.031-.369-.051-.739-.075-1.109.023.37.044.74.075,1.109Z" fill="none"/>
  <path d="M898.595,467.507c-.062-.369-.112-.739-.166-1.109.054.37.104.74.166,1.109Z" fill="none"/>
  <path d="M920.904,422.457c.244-.317.483-.634.734-.95-.251.316-.49.633-.734.95Z" fill="none"/>
  <path d="M922.458,420.508c.258-.314.511-.629.776-.941-.265.312-.518.627-.776.941Z" fill="none"/>
  <path d="M899.017,469.757c-.077-.368-.142-.736-.211-1.104.069.368.134.736.211,1.104Z" fill="none"/>
  <path d="M905.744,487.478c-.198-.354-.384-.711-.575-1.067.191.355.376.712.575,1.067Z" fill="none"/>
  <path d="M897.887,460.737c-.016-.371-.021-.741-.029-1.112.008.371.013.741.029,1.112Z" fill="none"/>
  <path d="M903.503,483.108c-.168-.358-.323-.719-.483-1.079.16.36.316.719.483,1.079Z" fill="none"/>
  <path d="M904.576,485.298c-.182-.355-.352-.712-.526-1.067.174.356.344.712.526,1.067Z" fill="none"/>
  <path d="M902.523,480.906c-.153-.362-.294-.725-.44-1.088.146.363.287.726.44,1.088Z" fill="none"/>
  <path d="M900.841,476.47c-.122-.362-.232-.725-.346-1.089.114.363.224.727.346,1.089Z" fill="none"/>
  <path d="M900.14,474.238c-.107-.363-.202-.728-.301-1.092.099.364.194.728.301,1.092Z" fill="none"/>
  <path d="M899.532,472.001c-.092-.366-.172-.734-.257-1.101.084.367.165.734.257,1.101Z" fill="none"/>
  <path d="M901.636,478.693c-.138-.363-.264-.728-.394-1.092.13.364.256.728.394,1.092Z" fill="none"/>
  <path d="M1201.457,504.465c-.34.355-.693.706-1.041,1.058.348-.352.702-.703,1.041-1.058Z" fill="none"/>
  <path d="M1217.974,479.016c-.141.377-.294.752-.443,1.127.149-.375.302-.751.443-1.127Z" fill="none"/>
  <path d="M1216.141,483.403c-.172.371-.356.741-.535,1.111.18-.37.364-.74.535-1.111Z" fill="none"/>
  <path d="M1219.438,474.596c-.108.375-.228.75-.345,1.124.116-.375.236-.75.345-1.124Z" fill="none"/>
  <path d="M1218.751,476.812c-.125.377-.261.751-.394,1.127.133-.375.269-.75.394-1.127Z" fill="none"/>
  <path d="M1217.103,481.216c-.156.372-.323.742-.487,1.113.163-.371.331-.742.487-1.113Z" fill="none"/>
  <path d="M1212.701,489.891c-.219.365-.45.727-.677,1.091.227-.363.458-.726.677-1.091Z" fill="none"/>
  <path d="M1213.94,487.74c-.203.366-.418.73-.628,1.095.211-.365.426-.729.628-1.095Z" fill="none"/>
  <path d="M1215.087,485.577c-.188.371-.389.74-.585,1.11.196-.37.397-.739.585-1.11Z" fill="none"/>
  <path d="M1220.535,470.144c-.078.379-.167.757-.252,1.136.086-.379.175-.757.252-1.136Z" fill="none"/>
  <path d="M1221.625,461.187c-.015.378-.041.756-.064,1.134.023-.378.049-.756.064-1.134Z" fill="none"/>
  <path d="M942.645,523.322c-.295-.18-.58-.363-.872-.543.293.181.577.364.872.543Z" fill="none"/>
  <path d="M1221.491,463.429c-.031.38-.072.76-.111,1.139.038-.38.08-.759.111-1.139Z" fill="none"/>
  <path d="M1220.946,467.909c-.062.38-.135.76-.205,1.139.07-.379.143-.759.205-1.139Z" fill="none"/>
  <path d="M1211.372,492.023c-.237.367-.488.731-.733,1.097.246-.365.496-.73.733-1.097Z" fill="none"/>
  <path d="M1221.264,465.671c-.046.381-.104.761-.158,1.141.054-.38.112-.76.158-1.141Z" fill="none"/>
  <path d="M1220.033,472.373c-.093.378-.198.754-.299,1.132.101-.377.206-.754.299-1.132Z" fill="none"/>
  <path d="M1188.23,516.114c-.458.345-.932.684-1.4,1.025.468-.341.941-.68,1.4-1.025Z" fill="none"/>
  <path d="M1185.7,517.965c-.483.345-.982.685-1.475,1.026.493-.341.992-.681,1.475-1.026Z" fill="none"/>
  <path d="M1190.662,514.239c-.433.342-.88.68-1.322,1.02.442-.34.889-.678,1.322-1.02Z" fill="none"/>
  <path d="M1183.083,519.784c-.543.368-1.103.73-1.657,1.094.555-.364,1.114-.726,1.657-1.094Z" fill="none"/>
  <path d="M1193.006,512.334c-.404.337-.822.67-1.235,1.005.412-.335.831-.668,1.235-1.005Z" fill="none"/>
  <path d="M1177.568,523.333c-.95.581-1.915,1.156-2.896,1.726.981-.57,1.946-1.145,2.896-1.726Z" fill="none"/>
  <path d="M1180.372,521.574c-.629.405-1.275.804-1.919,1.204.644-.4,1.29-.799,1.919-1.204Z" fill="none"/>
  <path d="M1208.436,496.243c-.269.361-.552.719-.829,1.079.277-.36.56-.718.829-1.079Z" fill="none"/>
  <path d="M1205.131,500.394c-.305.359-.623.715-.936,1.072.313-.357.631-.713.936-1.072Z" fill="none"/>
  <path d="M1195.258,510.402c-.392.345-.798.686-1.198,1.028.4-.342.806-.683,1.198-1.028Z" fill="none"/>
  <path d="M1209.95,494.142c-.255.366-.523.73-.786,1.094.263-.365.531-.728.786-1.094Z" fill="none"/>
  <path d="M1206.828,498.33c-.284.356-.581.71-.873,1.065.292-.355.589-.708.873-1.065Z" fill="none"/>
  <path d="M1197.417,508.446c-.378.352-.771.701-1.158,1.051.387-.35.78-.698,1.158-1.051Z" fill="none"/>
  <path d="M924.103,418.572c.27-.309.535-.618.812-.926-.277.307-.542.617-.812.926Z" fill="none"/>
  <path d="M1203.341,502.439c-.321.355-.655.707-.984,1.06.329-.353.663-.705.984-1.06Z" fill="none"/>
  <path d="M1199.484,506.466c-.362.356-.738.709-1.109,1.063.371-.354.747-.707,1.109-1.063Z" fill="none"/>
  <path d="M1211.687,455.727c.023.36.049.721.064,1.081-.015-.36-.041-.721-.064-1.081Z" fill="none"/>
  <path d="M1211.508,453.607c.038.359.078.718.108,1.077-.03-.359-.071-.718-.108-1.077Z" fill="none"/>
  <path d="M1211.778,457.848c.008.36.019.721.019,1.08,0-.36-.011-.72-.019-1.08Z" fill="none"/>
  <path d="M1211.241,451.483c.053.361.109.723.154,1.085-.045-.362-.101-.723-.154-1.085Z" fill="none"/>
  <path d="M907.972,453.21c.035-.345.067-.689.109-1.034-.042.345-.074.689-.109,1.034Z" fill="none"/>
  <path d="M907.802,455.317c.021-.344.038-.689.066-1.033-.028.344-.046.689-.066,1.033Z" fill="none"/>
  <path d="M907.717,457.426c.007-.346.01-.692.024-1.037-.014.345-.017.691-.024,1.037Z" fill="none"/>
  <path d="M1210.447,447.262c.083.359.168.718.243,1.077-.075-.359-.161-.718-.243-1.077Z" fill="none"/>
  <path d="M1207.805,438.876c.143.357.291.714.427,1.072-.136-.358-.283-.715-.427-1.072Z" fill="none"/>
  <path d="M1208.599,440.965c.127.356.259.712.379,1.069-.12-.357-.251-.713-.379-1.069Z" fill="none"/>
  <path d="M1210.887,449.366c.068.362.139.724.2,1.086-.06-.362-.132-.724-.2-1.086Z" fill="none"/>
  <path d="M1206.926,436.8c.159.357.322.713.473,1.07-.151-.357-.314-.713-.473-1.07Z" fill="none"/>
  <path d="M908.228,451.112c.049-.346.096-.693.152-1.039-.056.346-.102.692-.152,1.039Z" fill="none"/>
  <path d="M1209.303,443.057c.112.357.228.714.333,1.071-.105-.357-.221-.714-.333-1.071Z" fill="none"/>
  <path d="M1209.92,445.159c.097.357.198.713.287,1.07-.089-.357-.19-.713-.287-1.07Z" fill="none"/>
  <path d="M912.447,436.532c.148-.336.291-.672.446-1.007-.155.335-.298.671-.446,1.007Z" fill="none"/>
  <path d="M914.426,432.452c.177-.334.35-.669.534-1.001-.184.333-.357.668-.534,1.001Z" fill="none"/>
  <path d="M916.76,428.405c.203-.325.401-.652.611-.977-.21.325-.408.651-.611.977Z" fill="none"/>
  <path d="M915.549,430.423c.191-.33.376-.662.574-.991-.198.329-.383.66-.574.991Z" fill="none"/>
  <path d="M918.056,426.405c.217-.322.428-.645.651-.966-.223.321-.435.644-.651.966Z" fill="none"/>
  <path d="M1166.952,401.433c-59.508-34.357-156.015-34.352-215.129.001-28.299,16.445-42.976,37.827-44.068,59.419,1.029,21.846,15.963,43.532,44.776,60.167,59.508,34.357,156.016,34.352,215.137-.005,28.284-16.437,42.954-37.807,44.056-59.389-1.02-21.854-15.947-43.551-44.772-60.193Z" fill="none"/>
  <path d="M920.13,423.465c-.236.317-.461.637-.69.955.23-.318.454-.638.69-.955Z" fill="none"/>
  <path d="M909.519,444.817c.091-.34.179-.681.277-1.021-.098.34-.186.681-.277,1.021Z" fill="none"/>
  <path d="M910.121,442.735c.105-.34.207-.68.319-1.02-.112.339-.214.68-.319,1.02Z" fill="none"/>
  <path d="M908.572,449.009c.063-.344.123-.689.194-1.033-.07.344-.13.689-.194,1.033Z" fill="none"/>
  <path d="M925.829,416.661c.285-.306.563-.613.855-.917-.291.304-.57.611-.855.917Z" fill="none"/>
  <path d="M910.811,440.654c.119-.337.234-.674.36-1.011-.126.336-.241.674-.36,1.011Z" fill="none"/>
  <path d="M1205.961,434.738c.174.354.352.707.517,1.062-.166-.355-.344-.709-.517-1.062Z" fill="none"/>
  <path d="M911.586,438.587c.133-.336.263-.673.403-1.009-.14.336-.269.672-.403,1.009Z" fill="none"/>
  <path d="M913.392,434.489c.163-.336.322-.673.492-1.009-.17.336-.329.672-.492,1.009Z" fill="none"/>
  <path d="M909.003,446.908c.077-.342.15-.683.234-1.024-.084.341-.157.682-.234,1.024Z" fill="none"/>
  <path d="M1166.966,396.404c.933.539,1.851,1.083,2.755,1.632-.904-.549-1.822-1.093-2.755-1.632Z" fill="none"/>
  <path d="M942.904,402.077c.346-.239.685-.481,1.036-.719-.351.237-.69.48-1.036.719Z" fill="none"/>
  <path d="M945.509,400.322c.326-.214.645-.431.976-.644-.331.213-.649.43-.976.644Z" fill="none"/>
  <path d="M948.312,398.531c.27-.167.532-.338.805-.505-.273.167-.535.337-.805.505Z" fill="none"/>
  <path d="M1176.028,402.12c.48.33.966.659,1.436.992-.47-.333-.956-.662-1.436-.992Z" fill="none"/>
  <path d="M1170.603,398.585c.598.369,1.199.738,1.784,1.112-.585-.374-1.186-.742-1.784-1.112Z" fill="none"/>
  <path d="M1173.493,400.422c.493.322.991.642,1.474.967-.483-.325-.982-.645-1.474-.967Z" fill="none"/>
  <path d="M938.053,405.615c.351-.27.696-.542,1.053-.811-.357.269-.702.541-1.053.811Z" fill="none"/>
  <path d="M940.453,403.818c.343-.25.678-.502,1.026-.75-.348.248-.683.5-1.026.75Z" fill="none"/>
  <path d="M1204.909,432.689c.188.351.381.703.562,1.055-.181-.352-.373-.703-.562-1.055Z" fill="none"/>
  <path d="M927.641,414.772c.299-.303.592-.607.897-.908-.305.301-.598.605-.897.908Z" fill="none"/>
  <path d="M929.564,412.88c.304-.291.602-.584.913-.873-.311.289-.609.582-.913.873Z" fill="none"/>
  <path d="M1178.502,403.866c.456.33.917.659,1.364.992-.447-.333-.908-.662-1.364-.992Z" fill="none"/>
  <path d="M933.656,409.181c.321-.275.635-.551.962-.824-.327.273-.641.55-.962.824Z" fill="none"/>
  <path d="M935.798,407.396c.341-.277.676-.555,1.023-.83-.347.275-.682.554-1.023.83Z" fill="none"/>
  <path d="M931.574,411.011c.31-.28.614-.562.93-.841-.316.279-.62.561-.93.841Z" fill="none"/>
  <path d="M1198.321,422.623c.267.343.539.686.799,1.03-.259-.345-.531-.687-.799-1.03Z" fill="none"/>
  <path d="M1203.765,430.644c.204.351.413.701.61,1.053-.197-.352-.405-.703-.61-1.053Z" fill="none"/>
  <path d="M1199.82,424.614c.249.342.503.683.744,1.026-.241-.343-.495-.685-.744-1.026Z" fill="none"/>
  <path d="M1196.737,420.654c.285.342.574.684.85,1.029-.276-.345-.566-.686-.85-1.029Z" fill="none"/>
  <path d="M1180.923,405.667c.422.322.85.644,1.263.968-.413-.325-.841-.646-1.263-.968Z" fill="none"/>
  <path d="M1202.533,428.612c.221.351.447.701.66,1.053-.213-.352-.439-.703-.66-1.053Z" fill="none"/>
  <path d="M1201.223,426.61c.234.345.473.69.7,1.036-.226-.346-.465-.691-.7-1.036Z" fill="none"/>
  <path d="M1195.071,418.71c.3.339.605.678.897,1.019-.292-.342-.597-.68-.897-1.019Z" fill="none"/>
  <path d="M1185.405,409.277c.386.328.778.655,1.156.986-.378-.331-.769-.657-1.156-.986Z" fill="none"/>
  <path d="M1193.325,416.792c.313.334.631.666.936,1.001-.305-.335-.623-.667-.936-1.001Z" fill="none"/>
  <path d="M1183.204,407.456c.405.326.815.65,1.211.979-.396-.329-.807-.653-1.211-.979Z" fill="none"/>
  <path d="M1187.509,411.114c.37.332.746.663,1.107.997-.362-.334-.737-.665-1.107-.997Z" fill="none"/>
  <path d="M1191.479,414.882c.33.331.665.662.987.995-.322-.333-.657-.663-.987-.995Z" fill="none"/>
  <path d="M1189.537,412.985c.351.333.706.664,1.049.998-.342-.334-.698-.666-1.049-.998Z" fill="none"/>
  <path d="M1211.765,458.066c-.017-.353-.017-.697-.026-1.041-.008-.361-.052-.714-.06-1.084-.026-.344-.052-.688-.077-1.041-.034-.353-.069-.714-.112-1.067-.034-.361-.069-.705-.112-1.05-.043-.361-.095-.723-.155-1.093-.052-.327-.086-.671-.147-1.024-.068-.37-.137-.723-.198-1.084-.068-.344-.129-.688-.198-1.024-.077-.361-.163-.731-.249-1.084-.077-.344-.146-.68-.232-1.024-.103-.361-.198-.714-.301-1.075-.086-.344-.172-.688-.284-1.032-.095-.361-.224-.705-.327-1.067-.103-.344-.215-.688-.327-1.024-.12-.353-.241-.714-.378-1.075-.129-.327-.232-.68-.361-1.007-.138-.361-.284-.714-.43-1.075-.138-.335-.258-.68-.405-1.015-.155-.353-.31-.714-.473-1.058-.146-.336-.292-.671-.456-.998-.163-.361-.336-.714-.508-1.075-.172-.318-.318-.654-.49-.989-.189-.353-.37-.705-.568-1.058-.172-.318-.344-.654-.533-.989-.198-.361-.405-.705-.602-1.05-.198-.335-.387-.654-.585-.989-.206-.344-.43-.697-.654-1.05-.207-.318-.405-.637-.611-.955-.224-.353-.456-.697-.697-1.041-.215-.318-.439-.654-.662-.972-.232-.344-.49-.68-.74-1.024-.232-.327-.456-.645-.706-.964-.258-.344-.533-.68-.8-1.024-.232-.327-.482-.628-.731-.955-.267-.327-.568-.68-.852-1.024-.258-.31-.507-.611-.765-.92-.293-.344-.602-.68-.895-1.015-.276-.31-.533-.619-.817-.92-.292-.336-.62-.671-.929-1.007-.292-.31-.568-.602-.86-.912-.318-.336-.654-.662-.989-.998-.292-.293-.594-.594-.886-.886-.344-.344-.706-.671-1.05-.998-.31-.301-.619-.594-.929-.878-.353-.336-.74-.671-1.11-.998-.301-.284-.611-.568-.946-.852-.37-.336-.766-.663-1.144-.989-.336-.284-.662-.559-.99-.843-.396-.327-.817-.654-1.222-.972-.335-.284-.671-.559-1.015-.826-.422-.318-.835-.645-1.256-.964-.362-.275-.706-.542-1.067-.817-.439-.327-.912-.662-1.368-.989-.344-.258-.68-.499-1.033-.749-.473-.335-.955-.662-1.437-.998-.353-.249-.697-.482-1.058-.731-.482-.318-.989-.637-1.48-.964-.361-.241-.731-.49-1.101-.723-.594-.37-1.179-.74-1.79-1.11-.292-.189-.576-.37-.878-.559-.895-.542-1.824-1.084-2.744-1.626-59.524-34.36-156.023-34.36-215.143,0-.912.525-1.824,1.075-2.71,1.617-.275.172-.533.344-.809.499-.611.387-1.23.766-1.824,1.153-.336.224-.654.43-.989.637-.516.353-1.05.697-1.566,1.041-.344.25-.688.482-1.032.723-.473.327-.955.663-1.419.989-.353.249-.68.508-1.024.757-.465.318-.921.654-1.351.981-.352.267-.705.551-1.058.809-.404.318-.826.637-1.239.946-.344.284-.671.559-1.006.843-.396.318-.8.628-1.187.964-.336.267-.645.542-.964.809-.378.336-.774.671-1.144.998-.318.275-.628.559-.938.843-.361.335-.74.654-1.101.989-.31.293-.602.594-.912.878-.335.327-.688.654-1.024.981-.31.301-.594.611-.886.903-.327.336-.654.654-.964.972-.301.31-.568.619-.851.929-.31.318-.62.654-.912.972-.284.31-.542.619-.817.929-.292.336-.594.662-.878.998-.258.31-.516.628-.766.938-.284.336-.55.671-.826.998-.249.327-.49.645-.731.955-.258.327-.525.68-.775,1.007-.232.327-.456.645-.688.955-.249.344-.499.68-.731,1.024-.224.318-.447.637-.654.964-.232.344-.465.68-.688,1.024-.215.318-.413.654-.611.972-.206.344-.43.688-.636,1.024-.198.336-.387.671-.568.998-.198.344-.405.68-.594,1.024-.181.335-.361.671-.533,1.006-.181.344-.37.688-.542,1.032-.172.335-.327.671-.491.998-.172.344-.344.697-.507,1.041-.146.327-.292.68-.447,1.007-.146.353-.301.697-.456,1.05-.129.335-.267.671-.396.998-.146.361-.284.705-.413,1.067-.129.336-.249.68-.362,1.007-.12.361-.258.705-.37,1.067-.112.335-.224.68-.318,1.006-.112.361-.224.723-.336,1.067-.095.344-.181.688-.267,1.024-.103.353-.197.714-.284,1.075-.095.327-.163.68-.241,1.024-.069.344-.155.697-.232,1.058-.077.344-.137.688-.198,1.041-.06.353-.137.697-.181,1.058-.069.344-.112.688-.163,1.032-.052.361-.103.723-.146,1.075-.043.336-.077.68-.103,1.024-.034.361-.069.714-.112,1.075-.026.344-.034.688-.06,1.041-.026.353-.051.714-.06,1.067-.008.344-.008.697-.026,1.041-.026,1.144-.009,2.28.034,3.433,1.024,21.834,15.976,43.522,44.787,60.152,59.507,34.369,156.007,34.36,215.126,0,28.287-16.432,42.955-37.81,44.065-59.395.034-.895.077-1.781.077-2.684-.017-.361-.017-.731-.026-1.084ZM1161.601,442.967c-2.512,3.243-6.065,6.28-10.65,8.947-20.406,11.872-53.605,11.872-74.149,0-4.672-2.693-8.285-5.773-10.84-9.059-8.689-11.158-5.171-24.716,10.599-33.878,20.406-11.864,53.597-11.864,74.141,0,10.005,5.764,15.159,13.274,15.468,20.836.017.267.017.533.017.791-.017,4.224-1.54,8.448-4.585,12.362Z" fill="#facd42"/>
  <path d="M914.681,500.439c-.282-.33-.551-.663-.827-.994.275.331.544.664.827.994Z" fill="none"/>
  <path d="M912.957,498.359c-.269-.334-.524-.671-.786-1.007.261.336.517.673.786,1.007Z" fill="none"/>
  <path d="M916.499,502.5c-.296-.326-.579-.655-.869-.982.289.327.572.656.869.982Z" fill="none"/>
  <path d="M918.41,504.538c-.31-.321-.607-.645-.909-.968.303.323.599.647.909.968Z" fill="none"/>
  <path d="M906.988,489.858c-.213-.352-.414-.706-.62-1.06.206.354.407.707.62,1.06Z" fill="none"/>
  <path d="M911.325,496.259c-.256-.34-.498-.682-.746-1.023.248.341.491.683.746,1.023Z" fill="none"/>
  <path d="M908.341,492.008c-.227-.346-.44-.696-.66-1.044.219.348.433.697.66,1.044Z" fill="none"/>
  <path d="M909.787,494.143c-.242-.345-.471-.691-.705-1.037.234.346.463.692.705,1.037Z" fill="none"/>
  <path d="M920.412,506.555c-.32-.313-.627-.63-.94-.945.313.315.62.631.94.945Z" fill="none"/>
  <path d="M931.827,516.273c-.384-.286-.753-.577-1.13-.865.377.288.747.578,1.13.865Z" fill="none"/>
  <path d="M934.39,518.136c-.396-.28-.777-.565-1.167-.847.389.282.771.567,1.167.847Z" fill="none"/>
  <path d="M937.046,519.968c-.412-.277-.809-.559-1.215-.838.405.279.803.561,1.215.838Z" fill="none"/>
  <path d="M929.359,514.383c-.373-.293-.732-.591-1.098-.886.366.295.725.592,1.098.886Z" fill="none"/>
  <path d="M924.698,510.519c-.35-.306-.686-.616-1.029-.924.343.308.679.618,1.029.924Z" fill="none"/>
  <path d="M922.512,508.552c-.341-.315-.667-.633-1.001-.95.333.316.66.635,1.001.95Z" fill="none"/>
  <path d="M926.982,512.464c-.354-.293-.695-.591-1.043-.886.348.295.688.593,1.043.886Z" fill="none"/>
  <path d="M898.251,465.47c-.046-.371-.081-.741-.12-1.111.039.371.074.741.12,1.111Z" fill="none"/>
  <path d="M939.792,521.769c-.398-.254-.782-.513-1.174-.769.392.256.776.515,1.174.769Z" fill="none"/>
  <path d="M898.015,463.213c-.031-.369-.051-.739-.075-1.109.023.37.044.74.075,1.109Z" fill="none"/>
  <path d="M898.58,467.723c-.062-.369-.112-.739-.166-1.109.054.37.104.74.166,1.109Z" fill="none"/>
  <path d="M920.89,422.673c.244-.317.483-.634.734-.95-.251.316-.49.633-.734.95Z" fill="none"/>
  <path d="M922.443,420.725c.258-.314.511-.629.776-.941-.265.312-.518.627-.776.941Z" fill="none"/>
  <path d="M899.002,469.973c-.077-.368-.142-.736-.211-1.104.069.368.134.736.211,1.104Z" fill="none"/>
  <path d="M905.73,487.695c-.198-.354-.384-.711-.575-1.067.191.355.376.712.575,1.067Z" fill="none"/>
  <path d="M897.873,460.954c-.016-.371-.021-.741-.029-1.112.008.371.013.741.029,1.112Z" fill="none"/>
  <path d="M903.489,483.324c-.168-.358-.323-.719-.483-1.079.16.36.316.719.483,1.079Z" fill="none"/>
  <path d="M904.562,485.515c-.182-.355-.352-.712-.526-1.067.174.356.344.712.526,1.067Z" fill="none"/>
  <path d="M902.508,481.123c-.153-.362-.294-.725-.44-1.088.146.363.287.726.44,1.088Z" fill="none"/>
  <path d="M900.827,476.686c-.122-.362-.232-.725-.346-1.089.114.363.224.727.346,1.089Z" fill="none"/>
  <path d="M900.125,474.454c-.107-.363-.202-.728-.301-1.092.099.364.194.728.301,1.092Z" fill="none"/>
  <path d="M899.517,472.217c-.092-.366-.172-.734-.257-1.101.084.367.165.734.257,1.101Z" fill="none"/>
  <path d="M901.621,478.91c-.138-.363-.264-.728-.394-1.092.13.364.256.728.394,1.092Z" fill="none"/>
  <path d="M1201.442,504.681c-.34.355-.693.706-1.041,1.058.348-.352.702-.703,1.041-1.058Z" fill="none"/>
  <path d="M1217.96,479.233c-.141.377-.294.752-.443,1.127.149-.375.302-.751.443-1.127Z" fill="none"/>
  <path d="M1216.126,483.619c-.172.371-.356.741-.535,1.111.18-.37.364-.74.535-1.111Z" fill="none"/>
  <path d="M1219.423,474.813c-.108.375-.228.75-.345,1.124.116-.375.236-.75.345-1.124Z" fill="none"/>
  <path d="M1218.737,477.028c-.125.377-.261.751-.394,1.127.133-.375.269-.75.394-1.127Z" fill="none"/>
  <path d="M1217.088,481.432c-.156.372-.323.742-.487,1.113.163-.371.331-.742.487-1.113Z" fill="none"/>
  <path d="M1212.686,490.107c-.219.365-.45.727-.677,1.091.227-.363.458-.726.677-1.091Z" fill="none"/>
  <path d="M1213.926,487.957c-.203.366-.418.73-.628,1.095.211-.365.426-.729.628-1.095Z" fill="none"/>
  <path d="M1215.072,485.794c-.188.371-.389.74-.585,1.11.196-.37.397-.739.585-1.11Z" fill="none"/>
  <path d="M1220.52,470.361c-.078.379-.167.757-.252,1.136.086-.379.175-.757.252-1.136Z" fill="none"/>
  <path d="M1221.61,461.404c-.015.378-.041.756-.064,1.134.023-.378.049-.756.064-1.134Z" fill="none"/>
  <path d="M942.63,523.538c-.295-.18-.58-.363-.872-.543.293.181.577.364.872.543Z" fill="none"/>
  <path d="M1221.476,463.646c-.031.38-.072.76-.111,1.139.038-.38.08-.759.111-1.139Z" fill="none"/>
  <path d="M1220.931,468.125c-.062.38-.135.76-.205,1.139.07-.379.143-.759.205-1.139Z" fill="none"/>
  <path d="M1211.357,492.24c-.237.367-.488.731-.733,1.097.246-.365.496-.73.733-1.097Z" fill="none"/>
  <path d="M1221.249,465.887c-.046.381-.104.761-.158,1.141.054-.38.112-.76.158-1.141Z" fill="none"/>
  <path d="M1220.018,472.589c-.093.378-.198.754-.299,1.132.101-.377.206-.754.299-1.132Z" fill="none"/>
  <path d="M1188.215,516.331c-.458.345-.932.684-1.4,1.025.468-.341.941-.68,1.4-1.025Z" fill="none"/>
  <path d="M1185.686,518.182c-.483.345-.982.685-1.475,1.026.493-.341.992-.681,1.475-1.026Z" fill="none"/>
  <path d="M1190.647,514.456c-.433.342-.88.68-1.322,1.02.442-.34.889-.678,1.322-1.02Z" fill="none"/>
  <path d="M1183.068,520.001c-.543.368-1.103.73-1.657,1.094.555-.364,1.114-.726,1.657-1.094Z" fill="none"/>
  <path d="M1192.991,512.55c-.404.337-.822.67-1.235,1.005.412-.335.831-.668,1.235-1.005Z" fill="none"/>
  <path d="M1177.553,523.549c-.95.581-1.915,1.156-2.896,1.726.981-.57,1.946-1.145,2.896-1.726Z" fill="none"/>
  <path d="M1180.357,521.79c-.629.405-1.275.804-1.919,1.204.644-.4,1.29-.799,1.919-1.204Z" fill="none"/>
  <path d="M1208.421,496.46c-.269.361-.552.719-.829,1.079.277-.36.56-.718.829-1.079Z" fill="none"/>
  <path d="M1205.116,500.61c-.305.359-.623.715-.936,1.072.313-.357.631-.713.936-1.072Z" fill="none"/>
  <path d="M1195.243,510.619c-.392.345-.798.686-1.198,1.028.4-.342.806-.683,1.198-1.028Z" fill="none"/>
  <path d="M1209.935,494.358c-.255.366-.523.73-.786,1.094.263-.365.531-.728.786-1.094Z" fill="none"/>
  <path d="M1206.813,498.547c-.284.356-.581.71-.873,1.065.292-.355.589-.708.873-1.065Z" fill="none"/>
  <path d="M1197.403,508.662c-.378.352-.771.701-1.158,1.051.387-.35.78-.698,1.158-1.051Z" fill="none"/>
  <path d="M924.088,418.789c.27-.309.535-.618.812-.926-.277.307-.542.617-.812.926Z" fill="none"/>
  <path d="M1203.326,502.655c-.321.355-.655.707-.984,1.06.329-.353.663-.705.984-1.06Z" fill="none"/>
  <path d="M1199.469,506.682c-.362.356-.738.709-1.109,1.063.371-.354.747-.707,1.109-1.063Z" fill="none"/>
  <path d="M1211.672,455.943c.023.36.049.721.064,1.081-.015-.36-.041-.721-.064-1.081Z" fill="none"/>
  <path d="M1211.494,453.824c.038.359.078.718.108,1.077-.03-.359-.071-.718-.108-1.077Z" fill="none"/>
  <path d="M1211.763,458.064c.008.36.019.721.019,1.08,0-.36-.011-.72-.019-1.08Z" fill="none"/>
  <path d="M1211.227,451.699c.053.361.109.723.154,1.085-.045-.362-.101-.723-.154-1.085Z" fill="none"/>
  <path d="M907.957,453.427c.035-.345.067-.689.109-1.034-.042.345-.074.689-.109,1.034Z" fill="none"/>
  <path d="M907.787,455.533c.021-.344.038-.689.066-1.033-.028.344-.046.689-.066,1.033Z" fill="none"/>
  <path d="M907.703,457.643c.007-.346.01-.692.024-1.037-.014.345-.017.691-.024,1.037Z" fill="none"/>
  <path d="M1210.433,447.478c.083.359.168.718.243,1.077-.075-.359-.161-.718-.243-1.077Z" fill="none"/>
  <path d="M1207.791,439.092c.143.357.291.714.427,1.072-.136-.358-.283-.715-.427-1.072Z" fill="none"/>
  <path d="M1208.584,441.181c.127.356.259.712.379,1.069-.12-.357-.251-.713-.379-1.069Z" fill="none"/>
  <path d="M1210.873,449.582c.068.362.139.724.2,1.086-.06-.362-.132-.724-.2-1.086Z" fill="none"/>
  <path d="M1206.911,437.016c.159.357.322.713.473,1.07-.151-.357-.314-.713-.473-1.07Z" fill="none"/>
  <path d="M908.213,451.329c.049-.346.096-.693.152-1.039-.056.346-.102.692-.152,1.039Z" fill="none"/>
  <path d="M1209.288,443.274c.112.357.228.714.333,1.071-.105-.357-.221-.714-.333-1.071Z" fill="none"/>
  <path d="M1209.905,445.376c.097.357.198.713.287,1.07-.089-.357-.19-.713-.287-1.07Z" fill="none"/>
  <path d="M912.432,436.748c.148-.336.291-.672.446-1.007-.155.335-.298.671-.446,1.007Z" fill="none"/>
  <path d="M914.411,432.668c.177-.334.35-.669.534-1.001-.184.333-.357.668-.534,1.001Z" fill="none"/>
  <path d="M916.746,428.622c.203-.325.401-.652.611-.977-.21.325-.408.651-.611.977Z" fill="none"/>
  <path d="M915.534,430.64c.191-.33.376-.662.574-.991-.198.329-.383.66-.574.991Z" fill="none"/>
  <path d="M918.042,426.622c.217-.322.428-.645.651-.966-.223.321-.435.644-.651.966Z" fill="none"/>
  <path d="M1166.937,401.65c-59.508-34.357-156.015-34.352-215.129.001-28.299,16.445-42.976,37.827-44.068,59.419,1.029,21.846,15.963,43.532,44.776,60.167,59.508,34.357,156.016,34.352,215.137-.005,28.284-16.437,42.954-37.807,44.056-59.389-1.02-21.854-15.947-43.551-44.772-60.193Z" fill="none"/>
  <path d="M920.115,423.681c-.236.317-.461.637-.69.955.23-.318.454-.638.69-.955Z" fill="none"/>
  <path d="M909.504,445.033c.091-.34.179-.681.277-1.021-.098.34-.186.681-.277,1.021Z" fill="none"/>
  <path d="M910.106,442.951c.105-.34.207-.68.319-1.02-.112.339-.214.68-.319,1.02Z" fill="none"/>
  <path d="M908.557,449.226c.063-.344.123-.689.194-1.033-.07.344-.13.689-.194,1.033Z" fill="none"/>
  <path d="M925.815,416.878c.285-.306.563-.613.855-.917-.291.304-.57.611-.855.917Z" fill="none"/>
  <path d="M910.797,440.87c.119-.337.234-.674.36-1.011-.126.336-.241.674-.36,1.011Z" fill="none"/>
  <path d="M1205.946,434.955c.174.354.352.707.517,1.062-.166-.355-.344-.709-.517-1.062Z" fill="none"/>
  <path d="M911.571,438.804c.133-.336.263-.673.403-1.009-.14.336-.269.672-.403,1.009Z" fill="none"/>
  <path d="M913.377,434.706c.163-.336.322-.673.492-1.009-.17.336-.329.672-.492,1.009Z" fill="none"/>
  <path d="M908.988,447.124c.077-.342.15-.683.234-1.024-.084.341-.157.682-.234,1.024Z" fill="none"/>
  <path d="M1166.952,396.62c.933.539,1.851,1.083,2.755,1.632-.904-.549-1.822-1.093-2.755-1.632Z" fill="none"/>
  <path d="M942.889,402.293c.346-.239.685-.481,1.036-.719-.351.237-.69.48-1.036.719Z" fill="none"/>
  <path d="M945.494,400.538c.326-.214.645-.431.976-.644-.331.213-.649.43-.976.644Z" fill="none"/>
  <path d="M948.298,398.747c.27-.167.532-.338.805-.505-.273.167-.535.337-.805.505Z" fill="none"/>
  <path d="M1176.013,402.337c.48.33.966.659,1.436.992-.47-.333-.956-.662-1.436-.992Z" fill="none"/>
  <path d="M1170.589,398.802c.598.369,1.199.738,1.784,1.112-.585-.374-1.186-.742-1.784-1.112Z" fill="none"/>
  <path d="M1173.478,400.638c.493.322.991.642,1.474.967-.483-.325-.982-.645-1.474-.967Z" fill="none"/>
  <path d="M938.038,405.832c.351-.27.696-.542,1.053-.811-.357.269-.702.541-1.053.811Z" fill="none"/>
  <path d="M940.438,404.035c.343-.25.678-.502,1.026-.75-.348.248-.683.5-1.026.75Z" fill="none"/>
  <path d="M1204.894,432.905c.188.351.381.703.562,1.055-.181-.352-.373-.703-.562-1.055Z" fill="none"/>
  <path d="M927.626,414.988c.299-.303.592-.607.897-.908-.305.301-.598.605-.897.908Z" fill="none"/>
  <path d="M929.549,413.096c.304-.291.602-.584.913-.873-.311.289-.609.582-.913.873Z" fill="none"/>
  <path d="M1178.487,404.082c.456.33.917.659,1.364.992-.447-.333-.908-.662-1.364-.992Z" fill="none"/>
  <path d="M933.641,409.397c.321-.275.635-.551.962-.824-.327.273-.641.55-.962.824Z" fill="none"/>
  <path d="M935.783,407.613c.341-.277.676-.555,1.023-.83-.347.275-.682.554-1.023.83Z" fill="none"/>
  <path d="M931.56,411.227c.31-.28.614-.562.93-.841-.316.279-.62.561-.93.841Z" fill="none"/>
  <path d="M1198.307,422.84c.267.343.539.686.799,1.03-.259-.345-.531-.687-.799-1.03Z" fill="none"/>
  <path d="M1203.75,430.861c.204.351.413.701.61,1.053-.197-.352-.405-.703-.61-1.053Z" fill="none"/>
  <path d="M1199.805,424.83c.249.342.503.683.744,1.026-.241-.343-.495-.685-.744-1.026Z" fill="none"/>
  <path d="M1196.723,420.87c.285.342.574.684.85,1.029-.276-.345-.566-.686-.85-1.029Z" fill="none"/>
  <path d="M1180.908,405.883c.422.322.85.644,1.263.968-.413-.325-.841-.646-1.263-.968Z" fill="none"/>
  <path d="M1202.518,428.829c.221.351.447.701.66,1.053-.213-.352-.439-.703-.66-1.053Z" fill="none"/>
  <path d="M1201.208,426.827c.234.345.473.69.7,1.036-.226-.346-.465-.691-.7-1.036Z" fill="none"/>
  <path d="M1195.057,418.926c.3.339.605.678.897,1.019-.292-.342-.597-.68-.897-1.019Z" fill="none"/>
  <path d="M1185.391,409.493c.386.328.778.655,1.156.986-.378-.331-.769-.657-1.156-.986Z" fill="none"/>
  <path d="M1193.311,417.009c.313.334.631.666.936,1.001-.305-.335-.623-.667-.936-1.001Z" fill="none"/>
  <path d="M1183.19,407.673c.405.326.815.65,1.211.979-.396-.329-.807-.653-1.211-.979Z" fill="none"/>
  <path d="M1187.495,411.331c.37.332.746.663,1.107.997-.362-.334-.737-.665-1.107-.997Z" fill="none"/>
  <path d="M1191.465,415.099c.33.331.665.662.987.995-.322-.333-.657-.663-.987-.995Z" fill="none"/>
  <path d="M1189.522,413.202c.351.333.706.664,1.049.998-.342-.334-.698-.666-1.049-.998Z" fill="none"/>
  <path d="M918.693,425.655c-.223.321-.435.644-.651.966-.229.341-.463.681-.685,1.023-.21.325-.408.651-.611.977-.213.342-.432.684-.637,1.027-.198.329-.383.66-.574.991-.197.342-.399.684-.589,1.027-.184.333-.357.668-.534,1.001-.182.343-.368.685-.542,1.029-.17.336-.329.672-.492,1.009-.167.345-.339.689-.499,1.036-.155.335-.298.671-.446,1.007-.154.349-.312.698-.458,1.047-.14.336-.269.672-.403,1.009-.14.352-.283.703-.415,1.056-.126.336-.241.674-.36,1.011-.125.354-.254.707-.371,1.062-.112.339-.214.68-.319,1.02-.11.353-.223.707-.325,1.06-.098.34-.186.681-.277,1.021-.095.356-.194.711-.282,1.067-.084.341-.157.682-.234,1.024-.08.356-.164.712-.237,1.069-.07.344-.13.689-.194,1.033-.065.355-.134.709-.192,1.064-.056.346-.102.692-.152,1.039-.051.355-.104.709-.147,1.064-.042.345-.074.689-.109,1.034-.036.357-.075.715-.104,1.073-.028.345-.046.689-.066,1.033-.022.357-.046.715-.06,1.073-.014.345-.017.691-.024,1.037-.022,1.142-.016,2.285.038,3.427,1.092-21.592,15.769-42.974,44.068-59.419,59.114-34.353,155.621-34.358,215.129-.001,28.825,16.642,43.752,38.338,44.772,60.193.046-.899.075-1.798.073-2.698,0-.36-.011-.72-.019-1.08-.008-.346-.012-.693-.027-1.04-.015-.36-.041-.721-.064-1.081-.022-.347-.041-.695-.07-1.042-.03-.359-.071-.718-.108-1.077-.036-.347-.069-.693-.113-1.04-.045-.362-.101-.723-.154-1.085-.05-.344-.097-.688-.154-1.031-.06-.362-.132-.724-.2-1.086-.064-.342-.125-.685-.196-1.027-.075-.36-.161-.718-.243-1.077-.079-.344-.155-.689-.241-1.033-.089-.357-.19-.713-.287-1.07-.094-.343-.183-.687-.284-1.031-.105-.357-.221-.714-.333-1.071-.107-.342-.211-.683-.325-1.024-.12-.357-.251-.713-.379-1.069-.121-.339-.239-.679-.367-1.017-.136-.358-.283-.715-.427-1.072-.135-.336-.265-.671-.406-1.006-.151-.357-.314-.713-.473-1.07-.148-.333-.293-.666-.448-.999-.166-.355-.344-.709-.517-1.062-.163-.332-.321-.664-.49-.995-.181-.352-.373-.704-.562-1.055-.177-.33-.35-.662-.534-.991-.197-.352-.405-.703-.61-1.053-.19-.326-.375-.653-.572-.979-.213-.352-.439-.703-.66-1.053-.203-.322-.401-.645-.61-.966-.226-.346-.465-.691-.7-1.036-.219-.324-.433-.648-.659-.97-.241-.343-.495-.685-.744-1.026-.233-.321-.46-.642-.7-.96-.259-.345-.531-.687-.799-1.03-.244-.314-.483-.628-.733-.941-.276-.345-.566-.686-.85-1.029-.256-.309-.506-.618-.769-.925-.292-.342-.597-.68-.897-1.019-.27-.305-.534-.612-.81-.916-.305-.335-.623-.667-.936-1.001-.286-.305-.566-.612-.859-.915-.322-.333-.657-.663-.987-.995-.298-.299-.59-.6-.894-.898-.342-.334-.698-.666-1.049-.998-.307-.291-.607-.584-.92-.874-.362-.334-.737-.665-1.107-.997-.316-.284-.626-.57-.949-.852-.378-.331-.769-.657-1.156-.986-.33-.28-.653-.563-.989-.841-.396-.329-.807-.653-1.211-.979-.34-.274-.672-.55-1.018-.821-.413-.325-.841-.646-1.263-.968-.353-.269-.698-.541-1.057-.809-.447-.333-.908-.662-1.364-.992-.347-.251-.686-.504-1.038-.754-.47-.333-.956-.662-1.436-.992-.354-.243-.701-.49-1.06-.732-.483-.325-.982-.645-1.474-.967-.369-.241-.731-.485-1.105-.725-.585-.374-1.186-.742-1.784-1.112-.295-.183-.583-.368-.882-.549-.904-.549-1.822-1.093-2.755-1.632-59.508-34.357-156.015-34.352-215.129.001-.921.535-1.828,1.076-2.72,1.621-.273.167-.535.337-.805.505-.613.381-1.229.762-1.828,1.147-.331.213-.649.43-.976.644-.525.345-1.055.688-1.569,1.036-.351.237-.69.48-1.036.719-.477.33-.958.659-1.425.991-.348.248-.683.5-1.026.75-.45.328-.906.655-1.347.986-.357.269-.702.541-1.053.811-.411.317-.829.632-1.232.951-.347.275-.682.554-1.023.83-.394.32-.794.638-1.18.96-.327.273-.641.55-.962.824-.385.33-.775.657-1.152.989-.316.279-.62.561-.93.841-.367.332-.739.662-1.098.996-.311.289-.609.582-.913.873-.343.328-.691.654-1.026.984-.305.301-.598.605-.897.908-.32.324-.645.647-.957.972-.291.304-.57.611-.855.917-.306.328-.616.655-.914.985-.277.307-.542.617-.812.926-.291.331-.586.662-.869.995-.265.312-.518.627-.776.941-.274.333-.553.664-.819.998-.251.316-.49.633-.734.95-.259.336-.523.671-.775,1.008-.236.317-.461.637-.69.955-.245.339-.494.678-.732,1.019Z" fill="#fbdd7d"/>
  <path d="M1173.917,392.573c-63.379-36.588-166.135-36.576-229.095,0-31.381,18.239-47.028,42.166-47.004,66.119,0,.383.012.765.025,1.148.012.37.012.741.025,1.111.025.383.049.765.074,1.147.025.371.037.741.074,1.111.037.383.074.765.111,1.147.037.371.074.741.123,1.111.049.382.111.765.16,1.147.062.371.111.74.173,1.111.062.382.136.765.21,1.147.062.37.136.728.21,1.098.074.383.173.765.259,1.148.086.37.16.728.259,1.098.086.383.197.765.309,1.148.099.358.185.728.296,1.086.111.383.235.765.358,1.148.111.358.222.728.345,1.086.123.383.259.753.395,1.135.136.358.259.728.395,1.086.148.383.296.753.444,1.135.148.358.296.716.444,1.086.16.37.333.741.494,1.123.16.358.321.716.494,1.074.173.383.358.753.543,1.123.173.358.345.716.518,1.074.197.37.395.74.605,1.11.185.358.37.716.568,1.061.21.37.432.741.642,1.111.21.346.407.704.617,1.061.222.371.457.728.691,1.099.222.346.432.704.666,1.049.235.37.494.728.74,1.099.235.345.457.691.703,1.036.259.358.531.728.79,1.086.247.346.494.691.753,1.024.272.371.555.728.839,1.098.259.333.518.666.79,1,.284.37.592.728.889,1.086.284.333.555.666.827,1,.321.358.642.716.95,1.074.296.333.58.666.876.987.321.358.666.716,1,1.074.309.321.605.642.913.962.346.358.703.716,1.061,1.074.309.321.617.63.938.95.358.346.728.691,1.098,1.049.333.309.666.629,1,.938.382.358.777.704,1.16,1.049.346.309.679.617,1.024.926.407.358.827.704,1.246,1.061.345.296.691.592,1.036.877.42.357.852.691,1.283,1.036.37.296.728.592,1.098.888.432.346.889.679,1.333,1.024.382.284.753.58,1.135.864.457.345.926.678,1.394,1.024.395.271.777.555,1.172.839.469.333.95.666,1.432,1,.407.272.802.555,1.222.839.518.345,1.049.679,1.567,1.024.395.259.777.518,1.172.777.654.407,1.308.815,1.974,1.221.284.185.568.358.864.543.962.58,1.95,1.161,2.937,1.74,63.367,36.588,166.135,36.588,229.095,0,.987-.568,1.95-1.147,2.9-1.727.296-.185.58-.371.876-.556.654-.407,1.296-.802,1.925-1.209.358-.222.703-.457,1.049-.69.555-.371,1.123-.728,1.666-1.099.382-.259.753-.531,1.135-.79.494-.346,1-.678,1.481-1.024.383-.271.753-.555,1.123-.827.469-.346.95-.678,1.407-1.024.37-.284.74-.568,1.111-.851.432-.345.889-.679,1.32-1.024.37-.296.74-.604,1.111-.901.407-.333.827-.666,1.234-1,.358-.309.703-.604,1.049-.913.407-.333.802-.679,1.197-1.024.346-.296.666-.605,1-.901.395-.358.79-.703,1.16-1.061.333-.296.642-.605.963-.913.37-.358.74-.703,1.111-1.061.309-.309.617-.63.926-.938.346-.358.703-.703,1.049-1.061.296-.321.592-.642.888-.962.333-.358.666-.716.987-1.062.296-.333.568-.654.851-.975.321-.358.642-.716.938-1.073.284-.333.555-.666.827-1,.296-.358.592-.704.876-1.062.259-.333.518-.678.777-1.012.272-.358.555-.716.827-1.074.247-.345.494-.679.728-1.012.259-.37.531-.728.79-1.098.234-.333.457-.679.691-1.024.247-.358.494-.728.728-1.086.222-.345.432-.703.654-1.049.222-.358.457-.728.679-1.086.21-.358.407-.703.605-1.061.21-.358.432-.728.629-1.086.197-.358.383-.704.568-1.062.198-.37.395-.741.58-1.11.185-.345.345-.703.518-1.061.185-.371.37-.741.531-1.11.173-.358.321-.716.481-1.074.16-.37.333-.741.481-1.111.16-.358.296-.716.432-1.074.148-.371.309-.753.444-1.123.136-.358.259-.728.382-1.086.136-.37.272-.753.395-1.123.123-.357.234-.728.345-1.086.111-.383.235-.753.345-1.135.099-.358.198-.728.296-1.086.099-.383.197-.753.296-1.136.086-.357.16-.728.247-1.086.086-.382.173-.765.259-1.135.074-.37.136-.741.197-1.098.074-.383.148-.765.21-1.148.062-.358.111-.728.16-1.086.049-.382.111-.765.16-1.147.037-.37.074-.728.111-1.098.037-.383.086-.765.111-1.148.025-.357.049-.728.074-1.098.025-.383.049-.765.062-1.135.012-.371.012-.741.025-1.111.469-24.483-15.438-49.076-47.719-67.723ZM1211.715,461.838c-1.111,21.583-15.783,42.956-44.067,59.394-59.122,34.355-155.622,34.367-215.126,0-28.814-16.634-43.758-38.316-44.782-60.158-.049-1.148-.062-2.283-.037-3.431.012-.345.012-.691.025-1.036.012-.358.037-.716.062-1.074.025-.345.037-.691.062-1.036.037-.358.074-.716.111-1.074.025-.345.062-.691.099-1.024.049-.358.099-.715.148-1.073.049-.346.099-.691.16-1.037.049-.358.123-.703.185-1.061.062-.346.123-.691.198-1.036.074-.358.16-.716.234-1.062.074-.345.148-.69.235-1.024.086-.358.185-.715.284-1.073.086-.333.173-.679.271-1.024.111-.345.222-.703.333-1.061.099-.333.21-.679.321-1.012.111-.358.247-.703.37-1.061.111-.333.234-.679.358-1.012.136-.358.272-.704.42-1.062.123-.333.259-.666.395-.999.148-.358.309-.704.457-1.049.148-.333.296-.679.444-1.012.16-.345.333-.691.506-1.036.16-.333.321-.666.494-1,.173-.345.358-.691.543-1.036.173-.333.345-.666.531-1,.185-.345.395-.679.592-1.024.185-.333.37-.666.568-1,.21-.333.432-.678.642-1.024.197-.321.395-.654.605-.975.222-.345.457-.678.691-1.024.21-.321.432-.641.654-.962.234-.345.481-.678.728-1.024.234-.309.457-.629.691-.95.247-.333.518-.678.777-1.012.234-.309.481-.63.728-.95.272-.333.543-.666.827-1,.247-.309.506-.629.765-.938.284-.333.58-.666.876-1,.272-.309.531-.617.814-.926.296-.321.605-.654.913-.975.284-.309.555-.617.851-.926.309-.321.642-.642.963-.975.296-.296.58-.605.888-.901.333-.333.691-.654,1.024-.988.309-.283.605-.58.913-.876.358-.333.74-.654,1.098-.987.309-.284.617-.568.938-.839.37-.333.765-.666,1.148-1,.321-.271.629-.543.962-.814.383-.333.79-.642,1.185-.963.333-.284.666-.555,1.012-.839.407-.309.827-.63,1.234-.95.358-.259.703-.543,1.061-.803.432-.333.889-.666,1.345-.987.345-.247.679-.506,1.024-.753.469-.333.95-.666,1.419-.988.346-.246.691-.481,1.037-.728.518-.345,1.049-.691,1.567-1.036.333-.21.654-.419.987-.642.592-.383,1.209-.765,1.826-1.148.271-.16.531-.333.802-.506.889-.542,1.802-1.086,2.715-1.616,59.122-34.355,155.622-34.355,215.138,0,.926.543,1.851,1.086,2.752,1.629.296.185.58.371.876.556.605.37,1.197.74,1.789,1.11.37.234.74.481,1.098.728.494.321.999.642,1.481.963.358.246.703.481,1.061.728.481.333.963.666,1.432,1,.358.246.691.493,1.036.753.457.321.926.654,1.37.987.358.272.703.544,1.061.815.419.321.839.642,1.259.963.345.271.679.543,1.012.827.407.321.827.642,1.222.975.333.284.654.555.987.839.382.333.777.654,1.148.988.333.284.642.568.95.851.37.333.753.666,1.111,1,.309.284.617.58.926.876.346.333.703.654,1.049,1,.296.296.592.592.888.888.333.333.666.666.987,1,.296.309.568.605.864.913.309.333.629.666.926,1,.284.309.543.617.814.926.296.333.605.666.901,1.012.259.309.506.617.765.926.284.345.58.691.852,1.024.247.321.494.629.728.95.272.345.543.678.802,1.024.247.321.469.641.703.962.247.345.506.678.74,1.024.222.321.444.654.666.975.234.345.469.691.691,1.036.21.321.407.642.617.962.222.346.444.704.654,1.049.198.333.383.654.58.988.197.345.407.691.605,1.048.185.334.358.666.531.988.197.358.382.703.568,1.061.173.333.321.666.494.987.173.358.346.716.506,1.074.16.333.309.666.457,1,.16.346.321.703.469,1.061.148.334.271.679.407,1.012.148.358.296.716.432,1.074.123.333.234.678.358,1.012.136.358.259.716.383,1.074.111.333.222.679.321,1.024.111.358.234.704.333,1.062.111.345.197.691.284,1.036.099.358.197.716.296,1.074.086.345.16.678.234,1.024.086.358.173.728.247,1.086.074.333.136.678.197,1.024.062.358.136.716.198,1.086.062.346.099.691.148,1.024.062.37.111.728.16,1.086.037.346.074.691.111,1.049.037.358.074.716.111,1.074.025.345.049.691.074,1.036.012.371.049.728.062,1.086.012.346.012.691.025,1.037.012.358.012.728.025,1.086,0,.901-.037,1.79-.074,2.69Z" fill="#f8bc00"/>
</svg>