<?xml version="1.0" encoding="UTF-8"?>
<svg id="a" data-name="Layer 1" xmlns="http://www.w3.org/2000/svg" viewBox="749.81 219.62 430.55 630.58" preserveAspectRatio="xMidYMid meet">
  <path d="M1151.7,543.911c-.001,33.217-9.817,56.011-21.206,79.021l-85.863,163.239-7.417,14.058c-9.665,10.856-25.997,12.152-44.501,1.469-16.257-9.385-30.866-26.124-40.755-45.066l-12.435-38.06-86.971-266.045c-.749-2.075-1.873-5.668-2.922-8.779-.898-2.943-1.723-5.493-1.723-5.493-8.09-26.124-11.985-51.989-11.984-76.644.004-100.693,70.729-141.525,157.932-91.183,87.204,50.343,157.848,172.788,157.844,273.481Z" fill="#f8bc00"/>
  <polygon points="915.744 248.285 834.738 266.199 868.231 278.662 945.342 270.873 915.744 248.285" fill="#f8bc00"/>
  <polygon points="967.93 819.994 1028.683 807.532 1043.482 736.652 990.517 755.346 967.93 819.994" fill="#f8bc00"/>
  <g>
    <path d="M1094.248,556.374c-.001,33.217-9.817,56.011-21.206,79.021l-85.863,163.239-7.417,14.058c-9.665,10.856-25.997,12.152-44.501,1.469-16.257-9.385-30.866-26.124-40.755-45.066l-12.435-38.06-86.971-266.045c-.749-2.075-1.873-5.668-2.922-8.779-.898-2.943-1.723-5.493-1.723-5.493-8.09-26.124-11.985-51.989-11.984-76.644.004-100.693,70.729-141.525,157.932-91.183,87.204,50.343,157.848,172.788,157.844,273.481Z" fill="#fad45c"/>
    <path d="M1059.52,540.57c-.003,79.472-55.8,111.686-124.626,71.953-68.826-39.733-124.618-136.368-124.615-215.84.003-79.472,55.8-111.686,124.626-71.953,68.826,39.733,124.618,136.368,124.615,215.84Z" fill="#fdecb8"/>
    <path d="M903.149,488.458l24.311,14.035.003-85.866-23.06-5.675-5.719-24.563,36.825,8.668,16.623,9.597-.004,112.081,20.738,11.972v22.085s-69.718-40.248-69.718-40.248v-22.085Z" fill="#003967"/>
  </g>
</svg>