<?xml version="1.0" encoding="UTF-8"?>
<svg id="a" data-name="Layer 1" xmlns="http://www.w3.org/2000/svg" viewBox="477.07 96.13 863.60 929.81" preserveAspectRatio="xMidYMid meet">
  <polygon points="519.331 707.057 968.109 983.675 1298.4 780.368 868.395 505.834 519.331 707.057" fill="#002f4f"/>
  <polygon points="966.274 895.489 537.527 647.952 537.527 661.553 966.274 909.09 966.274 895.489" fill="#295980"/>
  <polygon points="1256.606 727.915 966.274 895.489 966.274 909.09 1256.606 741.516 1256.606 727.915" fill="#547a99"/>
  <polygon points="966.304 895.522 537.557 647.984 827.86 480.379 1256.606 727.915 966.304 895.522" fill="#7090aa"/>
  <g>
    <path d="M803.743,521.185l12.136,7.006c2.189,1.264,5.737,1.264,7.926,0l12.136-7.006c2.188-1.264,2.188-3.313,0-4.576l-12.136-7.006c-2.189-1.264-5.737-1.264-7.925,0l-12.136,7.006c-2.189,1.264-2.189,3.313,0,4.576Z" fill="#003865"/>
    <path d="M865.785,533.84l-12.136-7.007c-2.188-1.264-5.736-1.264-7.925,0l-12.136,7.007c-2.188,1.263-2.188,3.312,0,4.575l12.136,7.007c2.188,1.264,5.737,1.264,7.925,0l12.136-7.007c2.188-1.264,2.188-3.312,0-4.575Z" fill="#003865"/>
    <path d="M895.629,551.071l-12.136-7.007c-2.189-1.264-5.737-1.264-7.925,0l-12.136,7.006c-2.188,1.264-2.188,3.313,0,4.576l12.136,7.006c2.189,1.264,5.737,1.264,7.925,0l12.137-7.006c2.188-1.264,2.188-3.312,0-4.575Z" fill="#003865"/>
    <path d="M893.277,572.877l12.136,7.007c2.188,1.264,5.736,1.264,7.925,0l12.136-7.006c2.188-1.264,2.188-3.313,0-4.576l-12.136-7.006c-2.188-1.264-5.737-1.264-7.925,0l-12.136,7.007c-2.188,1.264-2.189,3.312,0,4.575Z" fill="#003865"/>
    <path d="M923.121,590.108l12.136,7.007c2.188,1.264,5.737,1.264,7.925,0l12.136-7.007c2.189-1.264,2.188-3.312,0-4.575l-12.136-7.007c-2.188-1.264-5.736-1.264-7.925,0l-12.136,7.006c-2.188,1.264-2.188,3.313,0,4.576Z" fill="#003865"/>
    <path d="M952.966,607.339l12.136,7.006c2.189,1.264,5.737,1.264,7.925,0l12.137-7.006c2.188-1.264,2.188-3.313,0-4.576l-12.137-7.006c-2.189-1.264-5.737-1.264-7.925,0l-12.136,7.006c-2.189,1.264-2.189,3.313,0,4.576Z" fill="#003865"/>
    <path d="M1015.008,619.994l-12.136-7.007c-2.188-1.264-5.736-1.264-7.925,0l-12.136,7.007c-2.188,1.263-2.188,3.312,0,4.575l12.136,7.007c2.188,1.264,5.737,1.264,7.925,0l12.136-7.007c2.188-1.264,2.188-3.312,0-4.575Z" fill="#003865"/>
    <path d="M1044.852,637.225l-12.136-7.007c-2.189-1.264-5.737-1.264-7.925,0l-12.136,7.006c-2.188,1.264-2.188,3.313,0,4.576l12.136,7.006c2.189,1.264,5.737,1.264,7.925,0l12.136-7.006c2.188-1.264,2.188-3.312,0-4.575Z" fill="#003865"/>
    <path d="M1042.5,659.031l12.136,7.007c2.188,1.264,5.736,1.264,7.925,0l12.136-7.006c2.188-1.264,2.188-3.313,0-4.576l-12.137-7.007c-2.188-1.263-5.737-1.264-7.925,0l-12.136,7.007c-2.188,1.264-2.189,3.312,0,4.575Z" fill="#003865"/>
    <path d="M1104.542,671.687l-12.136-7.007c-2.188-1.264-5.736-1.264-7.925,0l-12.136,7.006c-2.188,1.264-2.188,3.313,0,4.576l12.136,7.007c2.188,1.264,5.737,1.264,7.925,0l12.136-7.007c2.189-1.264,2.188-3.312,0-4.575Z" fill="#003865"/>
    <path d="M1146.299,695.796l-12.136-7.007c-2.188-1.264-5.736-1.264-7.925,0l-12.136,7.006c-2.188,1.264-2.188,3.313,0,4.576l12.136,7.006c2.188,1.264,5.737,1.264,7.925,0l12.136-7.006c2.189-1.264,2.188-3.312,0-4.575Z" fill="#003865"/>
    <path d="M1176.144,713.026l-12.136-7.007c-2.189-1.264-5.737-1.264-7.925,0l-12.136,7.007c-2.189,1.264-2.189,3.312,0,4.575l12.136,7.007c2.189,1.264,5.737,1.264,7.925,0l12.136-7.006c2.188-1.264,2.188-3.313,0-4.576Z" fill="#003865"/>
    <path d="M1205.989,730.257l-12.136-7.007c-2.188-1.264-5.736-1.264-7.925,0l-12.136,7.006c-2.188,1.264-2.188,3.313,0,4.576l12.136,7.007c2.188,1.264,5.737,1.264,7.925,0l12.136-7.007c2.188-1.264,2.188-3.312,0-4.575Z" fill="#003865"/>
    <path d="M838.839,549.397l-12.136-7.007-29.844-17.23c-2.189-1.264-5.737-1.264-7.925,0l-12.136,7.006c-2.188,1.264-2.188,3.313,0,4.576l29.844,17.23,12.136,7.007c2.188,1.264,5.736,1.264,7.925,0l12.136-7.006c2.188-1.264,2.188-3.313,0-4.576Z" fill="#003865"/>
    <path d="M868.683,566.628l-12.136-7.007c-2.188-1.264-5.736-1.264-7.925,0l-12.136,7.006c-2.188,1.264-2.188,3.313,0,4.576l12.136,7.007c2.188,1.263,5.737,1.264,7.925,0l12.136-7.007c2.189-1.264,2.188-3.312,0-4.575Z" fill="#003865"/>
    <path d="M866.331,588.434l12.136,7.007c2.189,1.264,5.737,1.264,7.925,0l12.136-7.006c2.188-1.264,2.188-3.313,0-4.576l-12.136-7.006c-2.189-1.264-5.737-1.264-7.925,0l-12.136,7.007c-2.188,1.264-2.188,3.312,0,4.575Z" fill="#003865"/>
    <path d="M896.175,605.665l12.136,7.007c2.188,1.264,5.736,1.264,7.925,0l12.136-7.007c2.188-1.264,2.188-3.312,0-4.575l-12.137-7.007c-2.188-1.264-5.737-1.264-7.925,0l-12.136,7.007c-2.188,1.263-2.188,3.312,0,4.575Z" fill="#003865"/>
    <path d="M926.02,622.896l12.136,7.006c2.189,1.264,5.737,1.264,7.925,0l12.136-7.006c2.188-1.264,2.188-3.313,0-4.575l-12.136-7.007c-2.189-1.264-5.737-1.264-7.925,0l-12.136,7.006c-2.188,1.264-2.188,3.313,0,4.576Z" fill="#003865"/>
    <path d="M988.062,635.551l-12.136-7.007c-2.188-1.264-5.737-1.264-7.925,0l-12.136,7.007c-2.189,1.264-2.189,3.312,0,4.575l12.136,7.007c2.188,1.264,5.736,1.264,7.925,0l12.136-7.006c2.188-1.264,2.188-3.313,0-4.576Z" fill="#003865"/>
    <path d="M1017.907,652.783l-12.137-7.007c-2.188-1.264-5.736-1.264-7.925,0l-12.136,7.006c-2.188,1.264-2.188,3.313,0,4.576l12.136,7.007c2.188,1.263,5.737,1.263,7.925,0l12.136-7.007c2.189-1.264,2.188-3.312,0-4.575Z" fill="#003865"/>
    <path d="M1015.554,674.588l12.136,7.007c2.189,1.264,5.737,1.264,7.925,0l12.136-7.006c2.188-1.264,2.188-3.313,0-4.576l-12.136-7.006c-2.189-1.264-5.737-1.264-7.925,0l-12.136,7.007c-2.188,1.264-2.188,3.312,0,4.575Z" fill="#003865"/>
    <path d="M1077.596,687.244l-12.136-7.007c-2.188-1.264-5.737-1.264-7.925,0l-12.136,7.007c-2.188,1.263-2.188,3.312,0,4.575l12.136,7.007c2.188,1.264,5.736,1.264,7.925,0l12.136-7.007c2.188-1.264,2.188-3.312,0-4.575Z" fill="#003865"/>
    <path d="M1119.353,711.353l-12.136-7.007c-2.188-1.264-5.737-1.264-7.925,0l-12.136,7.006c-2.188,1.264-2.188,3.313,0,4.576l12.136,7.006c2.188,1.264,5.737,1.264,7.925,0l12.136-7.007c2.188-1.264,2.188-3.312,0-4.575Z" fill="#003865"/>
    <path d="M1149.198,728.583l-12.136-7.006c-2.189-1.264-5.737-1.264-7.925,0l-12.136,7.007c-2.188,1.264-2.188,3.312,0,4.575l12.136,7.007c2.189,1.264,5.737,1.264,7.925,0l12.136-7.006c2.188-1.264,2.188-3.313,0-4.576Z" fill="#003865"/>
    <path d="M1179.043,745.814l-12.136-7.007c-2.188-1.264-5.737-1.264-7.925,0l-12.136,7.007c-2.189,1.263-2.189,3.312,0,4.575l12.137,7.007c2.188,1.264,5.736,1.264,7.925,0l12.136-7.007c2.188-1.264,2.188-3.312,0-4.575Z" fill="#003865"/>
    <path d="M782.048,547.724l-12.136-7.007c-2.188-1.264-5.736-1.264-7.925,0l-12.136,7.006c-2.188,1.264-2.188,3.313,0,4.576l12.136,7.007c2.188,1.263,5.737,1.264,7.925,0l12.136-7.007c2.188-1.264,2.188-3.312,0-4.575Z" fill="#003865"/>
    <path d="M811.893,564.954l-12.136-7.007c-2.189-1.264-5.737-1.263-7.925,0l-12.136,7.007c-2.188,1.264-2.188,3.312,0,4.575l12.136,7.007c2.189,1.264,5.737,1.264,7.925,0l12.136-7.006c2.188-1.264,2.188-3.313,0-4.576Z" fill="#003865"/>
    <path d="M841.737,582.186l-12.136-7.007c-2.188-1.264-5.737-1.264-7.925,0l-12.136,7.006c-2.189,1.264-2.188,3.313,0,4.576l12.136,7.007c2.188,1.264,5.736,1.264,7.925,0l12.136-7.007c2.188-1.264,2.188-3.312,0-4.575Z" fill="#003865"/>
    <path d="M839.384,603.992l12.136,7.006c2.188,1.264,5.737,1.264,7.925,0l12.136-7.006c2.189-1.264,2.189-3.313,0-4.576l-12.136-7.006c-2.189-1.264-5.737-1.264-7.926,0l-12.136,7.006c-2.188,1.264-2.188,3.313,0,4.576Z" fill="#003865"/>
    <path d="M869.229,621.222l12.136,7.007c2.188,1.264,5.736,1.264,7.925,0l12.136-7.007c2.188-1.263,2.188-3.312,0-4.575l-12.136-7.007c-2.188-1.264-5.737-1.264-7.925,0l-12.136,7.007c-2.189,1.264-2.189,3.312,0,4.575Z" fill="#003865"/>
    <path d="M899.074,638.454l12.136,7.006c2.188,1.264,5.737,1.264,7.925,0l12.136-7.006c2.188-1.264,2.188-3.312,0-4.575l-12.136-7.007c-2.188-1.264-5.736-1.264-7.925,0l-12.136,7.006c-2.188,1.264-2.188,3.313,0,4.576Z" fill="#003865"/>
    <path d="M961.116,651.109l-12.136-7.007c-2.189-1.264-5.737-1.264-7.925,0l-12.136,7.007c-2.188,1.264-2.188,3.312,0,4.575l12.136,7.007c2.189,1.264,5.737,1.264,7.925,0l12.136-7.006c2.188-1.264,2.188-3.313,0-4.576Z" fill="#003865"/>
    <path d="M990.961,668.34l-12.136-7.007c-2.188-1.264-5.737-1.264-7.925,0l-12.136,7.006c-2.189,1.264-2.188,3.313,0,4.576l12.136,7.007c2.188,1.264,5.736,1.264,7.925,0l12.136-7.007c2.188-1.264,2.188-3.312,0-4.575Z" fill="#003865"/>
    <path d="M988.608,690.146l12.136,7.006c2.188,1.264,5.737,1.264,7.925,0l12.136-7.006c2.189-1.264,2.189-3.313,0-4.576l-12.136-7.006c-2.189-1.264-5.737-1.264-7.926,0l-12.136,7.006c-2.188,1.264-2.188,3.313,0,4.576Z" fill="#003865"/>
    <path d="M1050.65,702.801l-12.136-7.007c-2.188-1.264-5.737-1.264-7.925,0l-12.136,7.007c-2.189,1.264-2.189,3.312,0,4.575l12.136,7.007c2.189,1.264,5.737,1.264,7.926,0l12.136-7.007c2.188-1.263,2.188-3.312,0-4.575Z" fill="#003865"/>
    <path d="M1092.408,726.91l-12.136-7.007c-2.188-1.264-5.737-1.264-7.925,0l-12.136,7.006c-2.189,1.264-2.189,3.313,0,4.576l12.136,7.007c2.189,1.264,5.737,1.264,7.926,0l12.136-7.007c2.188-1.264,2.188-3.312,0-4.575Z" fill="#003865"/>
    <path d="M1122.252,744.14l-12.136-7.006c-2.188-1.264-5.736-1.264-7.925,0l-12.136,7.006c-2.188,1.264-2.188,3.313,0,4.576l12.137,7.006c2.188,1.264,5.737,1.264,7.925,0l12.136-7.006c2.188-1.264,2.188-3.313,0-4.576Z" fill="#003865"/>
    <path d="M1152.096,761.372l-12.136-7.007c-2.189-1.264-5.737-1.264-7.925,0l-12.136,7.007c-2.188,1.264-2.188,3.312,0,4.575l12.136,7.007c2.189,1.264,5.737,1.264,7.925,0l12.136-7.007c2.188-1.263,2.188-3.312,0-4.575Z" fill="#003865"/>
    <path d="M755.102,563.281l-12.136-7.007c-2.188-1.264-5.737-1.264-7.925,0l-12.136,7.006c-2.189,1.264-2.188,3.313,0,4.576l12.136,7.007c2.188,1.264,5.736,1.264,7.925,0l12.136-7.007c2.188-1.264,2.188-3.312,0-4.575Z" fill="#003865"/>
    <path d="M784.947,580.512l-12.136-7.006c-2.188-1.264-5.736-1.264-7.925,0l-12.136,7.006c-2.188,1.264-2.188,3.312,0,4.575l12.136,7.007c2.188,1.264,5.737,1.264,7.925,0l12.136-7.006c2.189-1.264,2.189-3.313,0-4.576Z" fill="#003865"/>
    <path d="M814.792,597.743l-12.136-7.007c-2.189-1.264-5.737-1.264-7.925,0l-12.136,7.007c-2.188,1.263-2.188,3.312,0,4.575l12.136,7.007c2.188,1.264,5.736,1.264,7.925,0l12.136-7.007c2.188-1.264,2.188-3.312,0-4.575Z" fill="#003865"/>
    <path d="M812.439,619.549l12.136,7.006c2.188,1.264,5.737,1.264,7.925,0l12.136-7.006c2.188-1.264,2.188-3.313,0-4.575l-12.136-7.007c-2.188-1.264-5.736-1.264-7.925,0l-12.136,7.006c-2.188,1.264-2.188,3.313,0,4.576Z" fill="#003865"/>
    <path d="M842.284,636.78l12.136,7.007c2.189,1.264,5.737,1.264,7.925,0l12.136-7.006c2.189-1.264,2.189-3.313,0-4.576l-12.136-7.007c-2.189-1.264-5.737-1.264-7.925,0l-12.136,7.007c-2.188,1.264-2.188,3.312,0,4.575Z" fill="#003865"/>
    <path d="M872.128,654.011l12.136,7.007c2.188,1.263,5.736,1.264,7.925,0l12.136-7.007c2.188-1.264,2.188-3.312,0-4.575l-12.136-7.007c-2.188-1.264-5.737-1.264-7.925,0l-12.136,7.006c-2.189,1.264-2.188,3.313,0,4.576Z" fill="#003865"/>
    <path d="M934.17,666.666l-12.136-7.006c-2.188-1.264-5.736-1.264-7.925,0l-12.136,7.006c-2.188,1.264-2.188,3.312,0,4.575l12.136,7.007c2.188,1.264,5.737,1.264,7.925,0l12.136-7.006c2.189-1.264,2.189-3.313,0-4.576Z" fill="#003865"/>
    <path d="M964.015,683.897l-12.136-7.007c-2.189-1.264-5.737-1.264-7.925,0l-12.136,7.007c-2.188,1.263-2.188,3.312,0,4.575l12.136,7.007c2.188,1.264,5.736,1.264,7.925,0l12.136-7.007c2.188-1.264,2.188-3.312,0-4.575Z" fill="#003865"/>
    <path d="M1023.704,718.358l-29.844-17.23-12.136-7.007c-2.188-1.264-5.736-1.264-7.925,0l-12.136,7.006c-2.188,1.264-2.188,3.313,0,4.576l12.136,7.006,29.844,17.231c2.189,1.264,5.737,1.264,7.925,0l12.136-7.006c2.189-1.264,2.189-3.313,0-4.576Z" fill="#003865"/>
    <path d="M1065.461,742.467l-12.136-7.007c-2.189-1.264-5.737-1.264-7.925,0l-12.137,7.007c-2.188,1.263-2.188,3.312,0,4.575l12.136,7.007c2.189,1.264,5.737,1.264,7.925,0l12.136-7.007c2.189-1.264,2.189-3.312,0-4.575Z" fill="#003865"/>
    <path d="M1125.151,776.929l-12.136-7.007c-2.188-1.264-5.736-1.264-7.925,0l-12.136,7.007c-2.188,1.264-2.188,3.312,0,4.575l12.136,7.007c2.188,1.264,5.737,1.264,7.925,0l12.136-7.006c2.189-1.264,2.189-3.313,0-4.576Z" fill="#003865"/>
    <path d="M728.156,578.838l-12.136-7.007c-2.189-1.264-5.737-1.264-7.925,0l-12.136,7.006c-2.189,1.264-2.189,3.313,0,4.576l12.136,7.007c2.189,1.264,5.737,1.264,7.925,0l12.136-7.007c2.188-1.264,2.188-3.312,0-4.575Z" fill="#003865"/>
    <path d="M758.001,596.07l-12.136-7.007c-2.188-1.264-5.736-1.264-7.925,0l-12.136,7.006c-2.188,1.264-2.188,3.313,0,4.576l12.136,7.006c2.188,1.264,5.736,1.264,7.925,0l12.136-7.006c2.188-1.264,2.188-3.313,0-4.575Z" fill="#003865"/>
    <path d="M787.845,613.3l-12.136-7.007c-2.189-1.264-5.737-1.264-7.925,0l-12.136,7.007c-2.188,1.264-2.188,3.312,0,4.575l12.136,7.007c2.189,1.264,5.737,1.264,7.925,0l12.136-7.006c2.189-1.264,2.189-3.313,0-4.576Z" fill="#003865"/>
    <path d="M907.224,682.224l-12.136-7.007-17.709-10.224-12.136-7.007-17.709-10.224-12.136-7.006-29.844-17.231c-2.189-1.264-5.737-1.264-7.925,0l-12.136,7.006c-2.189,1.264-2.189,3.313,0,4.576l29.844,17.23,12.136,7.007,17.709,10.224,12.136,7.007,17.709,10.224,12.136,7.006c2.188,1.264,5.736,1.264,7.925,0l12.136-7.006c2.188-1.264,2.188-3.313,0-4.575Z" fill="#003865"/>
    <path d="M937.069,699.454l-12.136-7.007c-2.188-1.264-5.736-1.264-7.925,0l-12.136,7.007c-2.188,1.264-2.188,3.312,0,4.575l12.136,7.007c2.189,1.264,5.737,1.264,7.925,0l12.136-7.007c2.189-1.263,2.189-3.312,0-4.575Z" fill="#003865"/>
    <path d="M966.914,716.685l-12.136-7.007c-2.189-1.264-5.737-1.264-7.925,0l-12.136,7.006c-2.189,1.264-2.189,3.313,0,4.576l12.137,7.007c2.188,1.263,5.736,1.263,7.925,0l12.136-7.007c2.188-1.264,2.188-3.312,0-4.575Z" fill="#003865"/>
    <path d="M996.758,733.916l-12.136-7.006c-2.188-1.264-5.736-1.264-7.925,0l-12.136,7.007c-2.188,1.264-2.188,3.312,0,4.575l12.136,7.007c2.188,1.264,5.737,1.264,7.925,0l12.136-7.006c2.189-1.264,2.188-3.313,0-4.576Z" fill="#003865"/>
    <path d="M1038.515,758.024l-12.136-7.007c-2.188-1.264-5.736-1.264-7.925,0l-12.136,7.007c-2.188,1.264-2.188,3.312,0,4.575l12.136,7.007c2.188,1.264,5.737,1.264,7.925,0l12.136-7.007c2.189-1.263,2.188-3.312,0-4.575Z" fill="#003865"/>
    <path d="M1095.306,759.698l-12.136-7.006c-2.188-1.264-5.737-1.264-7.925,0l-12.136,7.006-26.946,15.557c-2.189,1.264-2.189,3.313,0,4.576l12.136,7.006c2.189,1.264,5.737,1.264,7.925,0l26.946-15.558,12.136-7.006c2.188-1.264,2.188-3.313,0-4.576Z" fill="#003865"/>
    <path d="M1098.205,792.486l-12.136-7.006c-2.188-1.264-5.736-1.264-7.925,0l-12.136,7.007c-2.188,1.264-2.188,3.312,0,4.575l12.136,7.007c2.188,1.264,5.736,1.264,7.925,0l12.136-7.006c2.188-1.264,2.188-3.313,0-4.576Z" fill="#003865"/>
  </g>
  <path d="M930.495,753.583l-77.757,44.893c-1.489.86-3.903.86-5.392,0l-65.458-37.792c-1.489-.86-1.489-2.254,0-3.114l22.549-13.019c1.489-.86,1.489-2.253,0-3.114h0c-1.489-.86-3.903-.86-5.393,0l-22.549,13.019c-1.489.86-3.903.86-5.392,0l-65.458-37.792c-1.489-.86-1.489-2.253,0-3.114l77.756-44.892c1.489-.86,3.903-.86,5.393,0l141.701,81.811c1.489.86,1.489,2.254,0,3.114Z" fill="#003967"/>
  <polygon points="1268.347 385.928 839.601 138.391 827.822 145.192 1256.568 392.729 1268.347 385.928" fill="#7090aa"/>
  <polygon points="1268.348 721.114 1268.348 386.844 1256.568 393.644 1256.568 727.915 1268.348 721.114" fill="#547a99"/>
  <polygon points="1256.568 727.915 827.822 480.379 827.822 145.166 1256.568 392.703 1256.568 727.915" fill="#295980"/>
  <path d="M1249.571,409.301v293.937c0,6.846-4.806,9.62-10.734,6.197l-393.285-227.062c-5.928-3.423-10.734-11.747-10.734-18.592V169.843c0-6.846,4.806-9.62,10.734-6.197l393.285,227.063c5.928,3.422,10.734,11.746,10.734,18.592Z" fill="#d1dbe4"/>
  <path d="M1249.571,409.301v95.782l-414.753-239.458v-95.782c0-6.846,4.806-9.62,10.734-6.197l393.285,227.063c5.928,3.422,10.734,11.746,10.734,18.592Z" fill="#b5c6d3"/>
  <g>
    <polygon points="877.141 195.019 852.277 180.663 852.277 175.618 877.141 189.974 877.141 195.019" fill="#7a98b0"/>
    <polygon points="915.499 217.165 890.635 202.809 890.635 197.764 915.499 212.119 915.499 217.165" fill="#7a98b0"/>
    <polygon points="945.127 234.27 928.992 224.955 928.992 219.91 945.127 229.225 945.127 234.27" fill="#7a98b0"/>
    <polygon points="980.83 254.883 955.966 240.528 955.966 235.483 980.83 249.838 980.83 254.883" fill="#7a98b0"/>
    <polygon points="1034.539 285.893 991.715 261.168 991.715 256.123 1034.539 280.848 1034.539 285.893" fill="#7a98b0"/>
  </g>
  <g>
    <path d="M1016.814,535.465l-112.409-64.894c-5.624-3.247-10.183-11.143-10.183-17.637l.004-108.622c0-6.494,4.56-9.126,10.184-5.88l112.409,64.894c5.624,3.247,10.183,11.143,10.183,17.637l-.004,108.622c0,6.494-4.56,9.126-10.184,5.88Z" fill="#fff"/>
    <g>
      <polygon points="996.322 505.61 924.408 464.094 924.41 407.509 996.324 449.025 996.322 505.61" fill="#7090aa"/>
      <polygon points="960.613 388.831 1001.465 455.466 960.612 431.727 919.759 408.298 960.613 388.831" fill="#002f4f"/>
      <polygon points="944.3 446.071 931.307 438.569 931.307 423.694 944.301 431.195 944.3 446.071" fill="#002f4f"/>
      <polygon points="989.752 472.31 976.758 464.809 976.759 449.934 989.753 457.435 989.752 472.31" fill="#002f4f"/>
      <polygon points="966.595 488.521 953.601 481.02 953.602 455.771 966.596 463.273 966.595 488.521" fill="#002f4f"/>
    </g>
    <path d="M1159.437,617.801l-112.409-64.894c-5.624-3.247-10.183-11.143-10.183-17.637l.004-108.622c0-6.494,4.56-9.126,10.184-5.88l112.409,64.894c5.624,3.247,10.183,11.143,10.183,17.637l-.004,108.622c0,6.494-4.56,9.126-10.184,5.88Z" fill="#fff"/>
    <polygon points="1138.946 587.947 1067.032 546.431 1067.034 489.845 1138.948 531.361 1138.946 587.947" fill="#002f4f"/>
    <polygon points="1103.237 471.167 1144.088 537.803 1103.235 514.064 1062.382 490.634 1103.237 471.167" fill="#7090aa"/>
    <polygon points="1086.924 528.407 1073.93 520.906 1073.931 506.031 1086.924 513.532 1086.924 528.407" fill="#7090aa"/>
    <polygon points="1132.375 554.646 1119.382 547.145 1119.382 532.27 1132.376 539.771 1132.375 554.646" fill="#7090aa"/>
    <polygon points="1109.218 570.857 1096.225 563.356 1096.226 538.108 1109.219 545.609 1109.218 570.857" fill="#7090aa"/>
  </g>
  <g opacity=".4">
    <path d="M1249.572,645.573v57.665c0,6.846-4.806,9.62-10.734,6.197l-53.239-30.737-276.033-478.094,124.648,71.965,215.358,373.004Z" fill="#fff"/>
    <polygon points="1098.579 628.457 1064.995 609.067 834.818 210.399 834.818 171.62 1098.579 628.457" fill="#fff"/>
  </g>
</svg>