<?xml version="1.0" encoding="UTF-8"?>
<svg id="a" data-name="Layer 1" xmlns="http://www.w3.org/2000/svg" viewBox="405.77 240.70 1180.01 648.45" preserveAspectRatio="xMidYMid meet">
  <path d="M721.063,684.439c59.857,34.562,59.857,90.597,0,125.159-59.857,34.562-156.906,34.562-216.763,0-59.857-34.562-59.857-90.597,0-125.159,59.857-34.562,156.906-34.562,216.763,0Z" fill="#cde1bd"/>
  <path d="M976.458,684.439c59.857,34.562,59.857,90.597,0,125.159-59.857,34.562-156.906,34.562-216.763,0-59.857-34.562-59.857-90.597,0-125.159,59.857-34.562,156.906-34.562,216.763,0Z" fill="#cde1bd"/>
  <path d="M1231.853,684.439c59.857,34.562,59.857,90.597,0,125.159-59.857,34.562-156.906,34.562-216.763,0-59.857-34.562-59.857-90.597,0-125.159,59.857-34.562,156.906-34.562,216.763,0Z" fill="#cde1bd"/>
  <path d="M1487.248,684.439c59.857,34.562,59.857,90.597,0,125.159-59.857,34.562-156.906,34.562-216.763,0-59.857-34.562-59.857-90.597,0-125.159,59.857-34.562,156.906-34.562,216.763,0Z" fill="#cde1bd"/>
  <g>
    <path d="M950.854,690.094c43.625,25.189,43.625,66.029,0,91.218-43.625,25.189-114.355,25.189-157.981,0-43.625-25.189-43.625-66.029,0-91.218,43.625-25.189,114.355-25.189,157.981,0Z" fill="#f4be18"/>
    <polygon points="760.081 705.678 760.155 737.077 831.525 780.742 902.894 778.525 973.821 750.598 983.573 738.186 983.573 705.382 760.081 705.678" fill="#f4be18"/>
    <path d="M950.854,661.723c43.625,25.189,43.625,66.029,0,91.218-43.625,25.189-114.355,25.189-157.981,0-43.625-25.189-43.625-66.029,0-91.218,43.625-25.189,114.355-25.189,157.981,0Z" fill="#f9d580"/>
    <path d="M936.036,670.279c35.441,20.464,35.441,53.642,0,74.106-35.441,20.464-92.903,20.464-128.345,0-35.441-20.464-35.441-53.642,0-74.106,35.441-20.464,92.903-20.464,128.345,0Z" fill="#fef8ee"/>
  </g>
  <g>
    <path d="M950.854,650.965c43.625,25.189,43.625,66.029,0,91.218-43.625,25.189-114.355,25.189-157.981,0-43.625-25.189-43.625-66.029,0-91.218,43.625-25.189,114.355-25.189,157.981,0Z" fill="#f4be18"/>
    <polygon points="760.081 666.549 760.155 697.949 831.525 741.613 902.894 739.396 973.821 711.469 983.573 699.057 983.573 666.253 760.081 666.549" fill="#f4be18"/>
    <path d="M950.854,622.594c43.625,25.189,43.625,66.029,0,91.218-43.625,25.189-114.355,25.189-157.981,0-43.625-25.189-43.625-66.029,0-91.218,43.625-25.189,114.355-25.189,157.981,0Z" fill="#f9d580"/>
    <path d="M936.036,631.15c35.441,20.464,35.441,53.642,0,74.106-35.441,20.464-92.903,20.464-128.345,0-35.441-20.464-35.441-53.642,0-74.106,35.441-20.464,92.903-20.464,128.345,0Z" fill="#fef8ee"/>
  </g>
  <g>
    <path d="M950.854,611.836c43.625,25.189,43.625,66.029,0,91.218-43.625,25.189-114.355,25.189-157.981,0-43.625-25.189-43.625-66.029,0-91.218,43.625-25.189,114.355-25.189,157.981,0Z" fill="#f4be18"/>
    <polygon points="760.081 627.42 760.155 658.82 831.525 702.484 902.894 700.267 973.821 672.34 983.573 659.928 983.573 627.124 760.081 627.42" fill="#f4be18"/>
    <path d="M950.854,583.465c43.625,25.189,43.625,66.029,0,91.218-43.625,25.189-114.355,25.189-157.981,0-43.625-25.189-43.625-66.029,0-91.218,43.625-25.189,114.355-25.189,157.981,0Z" fill="#f9d580"/>
    <path d="M936.036,592.021c35.441,20.464,35.441,53.642,0,74.106-35.441,20.464-92.903,20.464-128.345,0-35.441-20.464-35.441-53.642,0-74.106,35.441-20.464,92.903-20.464,128.345,0Z" fill="#fef8ee"/>
  </g>
  <g>
    <path d="M950.854,572.707c43.625,25.189,43.625,66.029,0,91.218-43.625,25.189-114.355,25.189-157.981,0-43.625-25.189-43.625-66.029,0-91.218,43.625-25.189,114.355-25.189,157.981,0Z" fill="#f4be18"/>
    <polygon points="760.081 588.291 760.155 619.691 831.525 663.355 902.894 661.138 973.821 633.211 983.573 620.799 983.573 587.995 760.081 588.291" fill="#f4be18"/>
    <path d="M950.854,544.336c43.625,25.189,43.625,66.029,0,91.218-43.625,25.189-114.355,25.189-157.981,0-43.625-25.189-43.625-66.029,0-91.218,43.625-25.189,114.355-25.189,157.981,0Z" fill="#f9d580"/>
    <path d="M936.036,552.892c35.441,20.464,35.441,53.642,0,74.106-35.441,20.464-92.903,20.464-128.345,0-35.441-20.464-35.441-53.642,0-74.106,35.441-20.464,92.903-20.464,128.345,0Z" fill="#fef8ee"/>
  </g>
  <g>
    <path d="M950.854,533.578c43.625,25.189,43.625,66.029,0,91.218-43.625,25.189-114.355,25.189-157.981,0-43.625-25.189-43.625-66.029,0-91.218,43.625-25.189,114.355-25.189,157.981,0Z" fill="#f4be18"/>
    <polygon points="760.081 549.162 760.155 580.562 831.525 624.226 902.894 622.009 973.821 594.082 983.573 581.67 983.573 548.867 760.081 549.162" fill="#f4be18"/>
    <path d="M950.854,505.208c43.625,25.189,43.625,66.029,0,91.218-43.625,25.189-114.355,25.189-157.981,0-43.625-25.189-43.625-66.029,0-91.218,43.625-25.189,114.355-25.189,157.981,0Z" fill="#f9d580"/>
    <path d="M936.036,513.763c35.441,20.464,35.441,53.642,0,74.106-35.441,20.464-92.903,20.464-128.345,0-35.441-20.464-35.441-53.642,0-74.106,35.441-20.464,92.903-20.464,128.345,0Z" fill="#fef8ee"/>
  </g>
  <g>
    <path d="M950.854,494.449c43.625,25.189,43.625,66.029,0,91.218-43.625,25.189-114.355,25.189-157.981,0-43.625-25.189-43.625-66.029,0-91.218,43.625-25.189,114.355-25.189,157.981,0Z" fill="#f4be18"/>
    <polygon points="760.081 510.033 760.155 541.433 831.525 585.097 902.894 582.881 973.821 554.953 983.573 542.541 983.573 509.738 760.081 510.033" fill="#f4be18"/>
    <path d="M950.854,466.079c43.625,25.189,43.625,66.029,0,91.218-43.625,25.189-114.355,25.189-157.981,0-43.625-25.189-43.625-66.029,0-91.218,43.625-25.189,114.355-25.189,157.981,0Z" fill="#f9d580"/>
    <path d="M936.036,474.635c35.441,20.464,35.441,53.642,0,74.106-35.441,20.464-92.903,20.464-128.345,0-35.441-20.464-35.441-53.642,0-74.106,35.441-20.464,92.903-20.464,128.345,0Z" fill="#fef8ee"/>
  </g>
  <g>
    <path d="M950.854,455.32c43.625,25.189,43.625,66.029,0,91.218-43.625,25.189-114.355,25.189-157.981,0-43.625-25.189-43.625-66.029,0-91.218,43.625-25.189,114.355-25.189,157.981,0Z" fill="#f4be18"/>
    <polygon points="760.081 470.904 760.155 502.304 831.525 545.968 902.894 543.752 973.821 515.824 983.573 503.412 983.573 470.609 760.081 470.904" fill="#f4be18"/>
    <path d="M950.854,426.95c43.625,25.189,43.625,66.029,0,91.218-43.625,25.189-114.355,25.189-157.981,0-43.625-25.189-43.625-66.029,0-91.218,43.625-25.189,114.355-25.189,157.981,0Z" fill="#f9d580"/>
    <path d="M936.036,435.506c35.441,20.464,35.441,53.642,0,74.106-35.441,20.464-92.903,20.464-128.345,0-35.441-20.464-35.441-53.642,0-74.106,35.441-20.464,92.903-20.464,128.345,0Z" fill="#fef8ee"/>
  </g>
  <g>
    <path d="M950.854,416.191c43.625,25.189,43.625,66.029,0,91.218-43.625,25.189-114.355,25.189-157.981,0-43.625-25.189-43.625-66.029,0-91.218,43.625-25.189,114.355-25.189,157.981,0Z" fill="#f4be18"/>
    <polygon points="760.081 431.775 760.155 463.175 831.525 506.839 902.894 504.623 973.821 476.695 983.573 464.283 983.573 431.48 760.081 431.775" fill="#f4be18"/>
    <path d="M950.854,387.821c43.625,25.189,43.625,66.029,0,91.218-43.625,25.189-114.355,25.189-157.981,0-43.625-25.189-43.625-66.029,0-91.218,43.625-25.189,114.355-25.189,157.981,0Z" fill="#f9d580"/>
    <path d="M936.036,396.377c35.441,20.464,35.441,53.642,0,74.106-35.441,20.464-92.903,20.464-128.345,0-35.441-20.464-35.441-53.642,0-74.106,35.441-20.464,92.903-20.464,128.345,0Z" fill="#fef8ee"/>
  </g>
  <g>
    <path d="M696.517,690.094c43.625,25.189,43.625,66.029,0,91.218-43.625,25.189-114.355,25.189-157.981,0-43.625-25.189-43.625-66.029,0-91.218,43.625-25.189,114.355-25.189,157.981,0Z" fill="#f4be18"/>
    <polygon points="505.743 705.678 505.817 737.077 577.187 780.742 648.557 778.525 719.483 750.598 729.235 738.186 729.235 705.382 505.743 705.678" fill="#f4be18"/>
    <path d="M696.517,661.723c43.625,25.189,43.625,66.029,0,91.218-43.625,25.189-114.355,25.189-157.981,0-43.625-25.189-43.625-66.029,0-91.218,43.625-25.189,114.355-25.189,157.981,0Z" fill="#f9d580"/>
    <path d="M681.699,670.279c35.441,20.464,35.441,53.642,0,74.106-35.441,20.464-92.903,20.464-128.345,0s-35.441-53.642,0-74.106c35.441-20.464,92.903-20.464,128.345,0Z" fill="#fef8ee"/>
  </g>
  <g>
    <path d="M696.517,650.965c43.625,25.189,43.625,66.029,0,91.218s-114.355,25.189-157.981,0c-43.625-25.189-43.625-66.029,0-91.218s114.355-25.189,157.981,0Z" fill="#f4be18"/>
    <polygon points="505.743 666.549 505.817 697.949 577.187 741.613 648.557 739.396 719.483 711.469 729.235 699.057 729.235 666.253 505.743 666.549" fill="#f4be18"/>
    <path d="M696.517,622.594c43.625,25.189,43.625,66.029,0,91.218-43.625,25.189-114.355,25.189-157.981,0-43.625-25.189-43.625-66.029,0-91.218,43.625-25.189,114.355-25.189,157.981,0Z" fill="#f9d580"/>
    <path d="M681.699,631.15c35.441,20.464,35.441,53.642,0,74.106-35.441,20.464-92.903,20.464-128.345,0s-35.441-53.642,0-74.106c35.441-20.464,92.903-20.464,128.345,0Z" fill="#fef8ee"/>
  </g>
  <g>
    <path d="M696.517,611.836c43.625,25.189,43.625,66.029,0,91.218-43.625,25.189-114.355,25.189-157.981,0-43.625-25.189-43.625-66.029,0-91.218,43.625-25.189,114.355-25.189,157.981,0Z" fill="#f4be18"/>
    <polygon points="505.743 627.42 505.817 658.82 577.187 702.484 648.557 700.267 719.483 672.34 729.235 659.928 729.235 627.124 505.743 627.42" fill="#f4be18"/>
    <path d="M696.517,583.465c43.625,25.189,43.625,66.029,0,91.218-43.625,25.189-114.355,25.189-157.981,0-43.625-25.189-43.625-66.029,0-91.218,43.625-25.189,114.355-25.189,157.981,0Z" fill="#f9d580"/>
    <path d="M681.699,592.021c35.441,20.464,35.441,53.642,0,74.106-35.441,20.464-92.903,20.464-128.345,0-35.441-20.464-35.441-53.642,0-74.106,35.441-20.464,92.903-20.464,128.345,0Z" fill="#fef8ee"/>
  </g>
  <g>
    <path d="M696.517,572.707c43.625,25.189,43.625,66.029,0,91.218-43.625,25.189-114.355,25.189-157.981,0-43.625-25.189-43.625-66.029,0-91.218s114.355-25.189,157.981,0Z" fill="#f4be18"/>
    <polygon points="505.743 588.291 505.817 619.691 577.187 663.355 648.557 661.138 719.483 633.211 729.235 620.799 729.235 587.995 505.743 588.291" fill="#f4be18"/>
    <path d="M696.517,544.336c43.625,25.189,43.625,66.029,0,91.218-43.625,25.189-114.355,25.189-157.981,0-43.625-25.189-43.625-66.029,0-91.218,43.625-25.189,114.355-25.189,157.981,0Z" fill="#f9d580"/>
    <path d="M681.699,552.892c35.441,20.464,35.441,53.642,0,74.106-35.441,20.464-92.903,20.464-128.345,0-35.441-20.464-35.441-53.642,0-74.106,35.441-20.464,92.903-20.464,128.345,0Z" fill="#fef8ee"/>
  </g>
  <g>
    <path d="M696.517,533.578c43.625,25.189,43.625,66.029,0,91.218-43.625,25.189-114.355,25.189-157.981,0-43.625-25.189-43.625-66.029,0-91.218,43.625-25.189,114.355-25.189,157.981,0Z" fill="#f4be18"/>
    <polygon points="505.743 549.162 505.817 580.562 577.187 624.226 648.557 622.009 719.483 594.082 729.235 581.67 729.235 548.867 505.743 549.162" fill="#f4be18"/>
    <path d="M696.517,505.208c43.625,25.189,43.625,66.029,0,91.218-43.625,25.189-114.355,25.189-157.981,0-43.625-25.189-43.625-66.029,0-91.218,43.625-25.189,114.355-25.189,157.981,0Z" fill="#f9d580"/>
    <path d="M681.699,513.763c35.441,20.464,35.441,53.642,0,74.106-35.441,20.464-92.903,20.464-128.345,0-35.441-20.464-35.441-53.642,0-74.106,35.441-20.464,92.903-20.464,128.345,0Z" fill="#fef8ee"/>
  </g>
  <g>
    <path d="M696.517,494.449c43.625,25.189,43.625,66.029,0,91.218-43.625,25.189-114.355,25.189-157.981,0-43.625-25.189-43.625-66.029,0-91.218,43.625-25.189,114.355-25.189,157.981,0Z" fill="#f4be18"/>
    <polygon points="505.743 510.033 505.817 541.433 577.187 585.097 648.557 582.881 719.483 554.953 729.235 542.541 729.235 509.738 505.743 510.033" fill="#f4be18"/>
    <path d="M696.517,466.079c43.625,25.189,43.625,66.029,0,91.218-43.625,25.189-114.355,25.189-157.981,0-43.625-25.189-43.625-66.029,0-91.218s114.355-25.189,157.981,0Z" fill="#f9d580"/>
    <path d="M681.699,474.635c35.441,20.464,35.441,53.642,0,74.106-35.441,20.464-92.903,20.464-128.345,0-35.441-20.464-35.441-53.642,0-74.106,35.441-20.464,92.903-20.464,128.345,0Z" fill="#fef8ee"/>
  </g>
  <g>
    <path d="M696.517,455.32c43.625,25.189,43.625,66.029,0,91.218-43.625,25.189-114.355,25.189-157.981,0-43.625-25.189-43.625-66.029,0-91.218,43.625-25.189,114.355-25.189,157.981,0Z" fill="#f4be18"/>
    <polygon points="505.743 470.904 505.817 502.304 577.187 545.968 648.557 543.752 719.483 515.824 729.235 503.412 729.235 470.609 505.743 470.904" fill="#f4be18"/>
    <path d="M696.517,426.95c43.625,25.189,43.625,66.029,0,91.218-43.625,25.189-114.355,25.189-157.981,0-43.625-25.189-43.625-66.029,0-91.218,43.625-25.189,114.355-25.189,157.981,0Z" fill="#f9d580"/>
    <path d="M681.699,435.506c35.441,20.464,35.441,53.642,0,74.106-35.441,20.464-92.903,20.464-128.345,0-35.441-20.464-35.441-53.642,0-74.106,35.441-20.464,92.903-20.464,128.345,0Z" fill="#fef8ee"/>
  </g>
  <g>
    <path d="M696.517,416.191c43.625,25.189,43.625,66.029,0,91.218s-114.355,25.189-157.981,0c-43.625-25.189-43.625-66.029,0-91.218,43.625-25.189,114.355-25.189,157.981,0Z" fill="#f4be18"/>
    <polygon points="505.743 431.775 505.817 463.175 577.187 506.839 648.557 504.623 719.483 476.695 729.235 464.283 729.235 431.48 505.743 431.775" fill="#f4be18"/>
    <path d="M696.517,387.821c43.625,25.189,43.625,66.029,0,91.218s-114.355,25.189-157.981,0c-43.625-25.189-43.625-66.029,0-91.218,43.625-25.189,114.355-25.189,157.981,0Z" fill="#f9d580"/>
    <path d="M681.699,396.377c35.441,20.464,35.441,53.642,0,74.106-35.441,20.464-92.903,20.464-128.345,0-35.441-20.464-35.441-53.642,0-74.106,35.441-20.464,92.903-20.464,128.345,0Z" fill="#fef8ee"/>
  </g>
  <g>
    <path d="M696.517,379.508c43.625,25.189,43.625,66.029,0,91.218-43.625,25.189-114.355,25.189-157.981,0-43.625-25.189-43.625-66.029,0-91.218,43.625-25.189,114.355-25.189,157.981,0Z" fill="#f4be18"/>
    <polygon points="505.743 395.092 505.817 426.492 577.187 470.156 648.557 467.939 719.483 440.012 729.235 427.6 729.235 394.796 505.743 395.092" fill="#f4be18"/>
    <path d="M696.517,351.137c43.625,25.189,43.625,66.029,0,91.218-43.625,25.189-114.355,25.189-157.981,0-43.625-25.189-43.625-66.029,0-91.218,43.625-25.189,114.355-25.189,157.981,0Z" fill="#f9d580"/>
    <path d="M681.699,359.693c35.441,20.464,35.441,53.642,0,74.106-35.441,20.464-92.903,20.464-128.345,0-35.441-20.464-35.441-53.642,0-74.106,35.441-20.464,92.903-20.464,128.345,0Z" fill="#fef8ee"/>
  </g>
  <g>
    <path d="M696.517,341.602c43.625,25.189,43.625,66.029,0,91.218-43.625,25.189-114.355,25.189-157.981,0-43.625-25.189-43.625-66.029,0-91.218,43.625-25.189,114.355-25.189,157.981,0Z" fill="#f4be18"/>
    <polygon points="505.743 357.186 505.817 388.586 577.187 432.25 648.557 430.033 719.483 402.106 729.235 389.694 729.235 356.89 505.743 357.186" fill="#f4be18"/>
    <path d="M696.517,313.231c43.625,25.189,43.625,66.029,0,91.218-43.625,25.189-114.355,25.189-157.981,0-43.625-25.189-43.625-66.029,0-91.218,43.625-25.189,114.355-25.189,157.981,0Z" fill="#f9d580"/>
    <path d="M681.699,321.787c35.441,20.464,35.441,53.642,0,74.106-35.441,20.464-92.903,20.464-128.345,0-35.441-20.464-35.441-53.642,0-74.106,35.441-20.464,92.903-20.464,128.345,0Z" fill="#fef8ee"/>
  </g>
  <g>
    <path d="M1205.192,690.094c43.625,25.189,43.625,66.029,0,91.218-43.625,25.189-114.355,25.189-157.981,0-43.625-25.189-43.625-66.029,0-91.218,43.625-25.189,114.355-25.189,157.981,0Z" fill="#f4be18"/>
    <polygon points="1014.419 705.678 1014.493 737.077 1085.863 780.742 1157.232 778.525 1228.159 750.598 1237.911 738.186 1237.911 705.382 1014.419 705.678" fill="#f4be18"/>
    <path d="M1205.192,661.723c43.625,25.189,43.625,66.029,0,91.218-43.625,25.189-114.355,25.189-157.981,0-43.625-25.189-43.625-66.029,0-91.218,43.625-25.189,114.355-25.189,157.981,0Z" fill="#f9d580"/>
    <path d="M1190.374,670.279c35.441,20.464,35.441,53.642,0,74.106-35.441,20.464-92.903,20.464-128.345,0-35.441-20.464-35.441-53.642,0-74.106,35.441-20.464,92.903-20.464,128.345,0Z" fill="#fef8ee"/>
  </g>
  <g>
    <path d="M1205.192,650.965c43.625,25.189,43.625,66.029,0,91.218-43.625,25.189-114.355,25.189-157.981,0-43.625-25.189-43.625-66.029,0-91.218s114.355-25.189,157.981,0Z" fill="#f4be18"/>
    <polygon points="1014.419 666.549 1014.493 697.949 1085.863 741.613 1157.232 739.396 1228.159 711.469 1237.911 699.057 1237.911 666.253 1014.419 666.549" fill="#f4be18"/>
    <path d="M1205.192,622.594c43.625,25.189,43.625,66.029,0,91.218-43.625,25.189-114.355,25.189-157.981,0-43.625-25.189-43.625-66.029,0-91.218,43.625-25.189,114.355-25.189,157.981,0Z" fill="#f9d580"/>
    <path d="M1190.374,631.15c35.441,20.464,35.441,53.642,0,74.106-35.441,20.464-92.903,20.464-128.345,0-35.441-20.464-35.441-53.642,0-74.106,35.441-20.464,92.903-20.464,128.345,0Z" fill="#fef8ee"/>
  </g>
  <g>
    <path d="M1205.192,611.836c43.625,25.189,43.625,66.029,0,91.218-43.625,25.189-114.355,25.189-157.981,0-43.625-25.189-43.625-66.029,0-91.218,43.625-25.189,114.355-25.189,157.981,0Z" fill="#f4be18"/>
    <polygon points="1014.419 627.42 1014.493 658.82 1085.863 702.484 1157.232 700.267 1228.159 672.34 1237.911 659.928 1237.911 627.124 1014.419 627.42" fill="#f4be18"/>
    <path d="M1205.192,583.465c43.625,25.189,43.625,66.029,0,91.218-43.625,25.189-114.355,25.189-157.981,0-43.625-25.189-43.625-66.029,0-91.218,43.625-25.189,114.355-25.189,157.981,0Z" fill="#f9d580"/>
    <path d="M1190.374,592.021c35.441,20.464,35.441,53.642,0,74.106-35.441,20.464-92.903,20.464-128.345,0-35.441-20.464-35.441-53.642,0-74.106,35.441-20.464,92.903-20.464,128.345,0Z" fill="#fef8ee"/>
  </g>
  <g>
    <path d="M1205.192,572.707c43.625,25.189,43.625,66.029,0,91.218-43.625,25.189-114.355,25.189-157.981,0-43.625-25.189-43.625-66.029,0-91.218s114.355-25.189,157.981,0Z" fill="#f4be18"/>
    <polygon points="1014.419 588.291 1014.493 619.691 1085.863 663.355 1157.232 661.138 1228.159 633.211 1237.911 620.799 1237.911 587.995 1014.419 588.291" fill="#f4be18"/>
    <path d="M1205.192,544.336c43.625,25.189,43.625,66.029,0,91.218-43.625,25.189-114.355,25.189-157.981,0-43.625-25.189-43.625-66.029,0-91.218,43.625-25.189,114.355-25.189,157.981,0Z" fill="#f9d580"/>
    <path d="M1190.374,552.892c35.441,20.464,35.441,53.642,0,74.106-35.441,20.464-92.903,20.464-128.345,0-35.441-20.464-35.441-53.642,0-74.106,35.441-20.464,92.903-20.464,128.345,0Z" fill="#fef8ee"/>
  </g>
  <g>
    <path d="M1205.192,533.578c43.625,25.189,43.625,66.029,0,91.218-43.625,25.189-114.355,25.189-157.981,0-43.625-25.189-43.625-66.029,0-91.218,43.625-25.189,114.355-25.189,157.981,0Z" fill="#f4be18"/>
    <polygon points="1014.419 549.162 1014.493 580.562 1085.863 624.226 1157.232 622.009 1228.159 594.082 1237.911 581.67 1237.911 548.867 1014.419 549.162" fill="#f4be18"/>
    <path d="M1205.192,505.208c43.625,25.189,43.625,66.029,0,91.218s-114.355,25.189-157.981,0c-43.625-25.189-43.625-66.029,0-91.218,43.625-25.189,114.355-25.189,157.981,0Z" fill="#f9d580"/>
    <path d="M1190.374,513.763c35.441,20.464,35.441,53.642,0,74.106-35.441,20.464-92.903,20.464-128.345,0-35.441-20.464-35.441-53.642,0-74.106,35.441-20.464,92.903-20.464,128.345,0Z" fill="#fef8ee"/>
  </g>
  <g>
    <path d="M1463.199,690.094c43.625,25.189,43.625,66.029,0,91.218-43.625,25.189-114.355,25.189-157.981,0-43.625-25.189-43.625-66.029,0-91.218,43.625-25.189,114.355-25.189,157.981,0Z" fill="#f4be18"/>
    <polygon points="1272.425 705.678 1272.499 737.077 1343.869 780.742 1415.239 778.525 1486.165 750.598 1495.917 738.186 1495.917 705.382 1272.425 705.678" fill="#f4be18"/>
    <path d="M1463.199,661.723c43.625,25.189,43.625,66.029,0,91.218-43.625,25.189-114.355,25.189-157.981,0-43.625-25.189-43.625-66.029,0-91.218,43.625-25.189,114.355-25.189,157.981,0Z" fill="#f9d580"/>
    <path d="M1448.381,670.279c35.441,20.464,35.441,53.642,0,74.106-35.441,20.464-92.903,20.464-128.345,0s-35.441-53.642,0-74.106c35.441-20.464,92.903-20.464,128.345,0Z" fill="#fef8ee"/>
  </g>
  <g>
    <path d="M1463.199,650.965c43.625,25.189,43.625,66.029,0,91.218-43.625,25.189-114.355,25.189-157.981,0-43.625-25.189-43.625-66.029,0-91.218,43.625-25.189,114.355-25.189,157.981,0Z" fill="#f4be18"/>
    <polygon points="1272.425 666.549 1272.499 697.949 1343.869 741.613 1415.239 739.396 1486.165 711.469 1495.917 699.057 1495.917 666.253 1272.425 666.549" fill="#f4be18"/>
    <path d="M1463.199,622.594c43.625,25.189,43.625,66.029,0,91.218-43.625,25.189-114.355,25.189-157.981,0-43.625-25.189-43.625-66.029,0-91.218,43.625-25.189,114.355-25.189,157.981,0Z" fill="#f9d580"/>
    <path d="M1448.381,631.15c35.441,20.464,35.441,53.642,0,74.106-35.441,20.464-92.903,20.464-128.345,0s-35.441-53.642,0-74.106c35.441-20.464,92.903-20.464,128.345,0Z" fill="#fef8ee"/>
  </g>
  <g>
    <path d="M1463.199,611.836c43.625,25.189,43.625,66.029,0,91.218-43.625,25.189-114.355,25.189-157.981,0-43.625-25.189-43.625-66.029,0-91.218,43.625-25.189,114.355-25.189,157.981,0Z" fill="#f4be18"/>
    <polygon points="1272.425 627.42 1272.499 658.82 1343.869 702.484 1415.239 700.267 1486.165 672.34 1495.917 659.928 1495.917 627.124 1272.425 627.42" fill="#f4be18"/>
    <path d="M1463.199,583.465c43.625,25.189,43.625,66.029,0,91.218-43.625,25.189-114.355,25.189-157.981,0-43.625-25.189-43.625-66.029,0-91.218,43.625-25.189,114.355-25.189,157.981,0Z" fill="#f9d580"/>
    <path d="M1448.381,592.021c35.441,20.464,35.441,53.642,0,74.106-35.441,20.464-92.903,20.464-128.345,0-35.441-20.464-35.441-53.642,0-74.106,35.441-20.464,92.903-20.464,128.345,0Z" fill="#fef8ee"/>
  </g>
  <g>
    <path d="M610.067,384.691c-1.132,0-2.11-.239-2.937-.716l-40.264-23.248c-.826-.477-1.251-1.048-1.272-1.714-.022-.665.38-1.237,1.207-1.714s1.828-.716,3.002-.716c1.175,0,2.176.239,3.002.715l20.751,11.982-.391-25.998c-.087-.753.304-1.381,1.174-1.884.739-.427,1.631-.653,2.675-.678,1.044-.025,1.936.176,2.676.603.871.503,1.305,1.03,1.305,1.582l-.065,17.37,39.088,2.6c1.088.076,1.958.301,2.61.678.827.428,1.24.968,1.241,1.621-.001.653-.415,1.218-1.24,1.695-1.001.578-2.176.804-3.524.678l-38.306-2.675.066,8.629,12.203,7.046c.827.477,1.229,1.049,1.207,1.715-.023.665-.447,1.237-1.273,1.714-.827.478-1.806.716-2.936.716Z" fill="#173a64"/>
    <path d="M652.614,360.125c-1.131,0-2.11-.239-2.937-.716l-27.995-16.165c-.826-.477-1.25-1.048-1.273-1.715-.022-.665.381-1.237,1.208-1.714.826-.477,1.827-.716,3.001-.716,1.175,0,2.176.239,3.002.716l2.806,1.62c-1.044-4.119.326-7.272,4.111-9.458l.326-.188c.826-.477,1.795-.708,2.904-.697,1.11.013,2.078.258,2.904.735.827.477,1.218,1.03,1.175,1.658-.044.629-.501,1.193-1.371,1.696l-.326.188c-2.088,1.206-3.491,2.607-4.209,4.202-.718,1.595-.772,3.246-.163,4.955l19.838,11.455c.827.477,1.229,1.049,1.208,1.714-.023.665-.447,1.237-1.273,1.714s-1.807.716-2.936.716Z" fill="#173a64"/>
  </g>
  <g>
    <path d="M865.402,457.834c-1.132,0-2.11-.239-2.937-.716l-40.264-23.248c-.826-.477-1.251-1.048-1.272-1.714-.022-.665.38-1.237,1.207-1.714s1.828-.716,3.002-.716c1.175,0,2.176.239,3.002.715l20.751,11.982-.391-25.998c-.087-.753.304-1.381,1.174-1.884.739-.427,1.631-.653,2.675-.678,1.044-.025,1.936.176,2.676.603.871.503,1.305,1.03,1.305,1.582l-.065,17.37,39.088,2.6c1.088.076,1.958.301,2.61.678.827.428,1.24.968,1.241,1.621-.001.653-.415,1.218-1.24,1.695-1.001.578-2.176.804-3.524.678l-38.306-2.675.066,8.629,12.203,7.046c.827.477,1.229,1.049,1.207,1.715-.023.665-.447,1.237-1.273,1.714s-1.806.716-2.936.716Z" fill="#173a64"/>
    <path d="M907.949,433.268c-1.131,0-2.11-.239-2.937-.716l-27.995-16.165c-.826-.477-1.25-1.048-1.273-1.715-.022-.665.381-1.237,1.208-1.714s1.827-.716,3.001-.716c1.175,0,2.176.239,3.002.716l2.806,1.62c-1.044-4.119.326-7.272,4.111-9.458l.326-.188c.826-.477,1.795-.708,2.904-.697,1.11.013,2.078.258,2.904.735s1.218,1.03,1.175,1.658c-.044.629-.501,1.193-1.371,1.696l-.326.188c-2.088,1.206-3.491,2.607-4.209,4.202-.718,1.595-.772,3.246-.163,4.955l19.838,11.455c.827.477,1.229,1.049,1.208,1.714-.023.665-.447,1.237-1.273,1.714-.827.478-1.807.716-2.936.716Z" fill="#173a64"/>
  </g>
  <g>
    <path d="M1119.407,574.863c-1.132,0-2.11-.239-2.937-.716l-40.264-23.248c-.826-.477-1.251-1.048-1.272-1.714-.022-.665.38-1.237,1.207-1.714s1.828-.716,3.002-.716c1.175,0,2.176.239,3.002.715l20.751,11.982-.391-25.998c-.087-.753.304-1.381,1.174-1.884.739-.427,1.631-.653,2.675-.678,1.044-.025,1.936.176,2.676.603.871.503,1.305,1.03,1.305,1.582l-.065,17.37,39.088,2.6c1.088.076,1.958.301,2.61.678.827.428,1.24.968,1.241,1.621-.001.653-.415,1.218-1.24,1.695-1.001.578-2.176.804-3.524.678l-38.306-2.675.066,8.629,12.203,7.046c.827.477,1.229,1.049,1.207,1.715-.023.665-.447,1.237-1.273,1.714s-1.806.716-2.936.716Z" fill="#173a64"/>
    <path d="M1161.954,550.296c-1.131,0-2.11-.239-2.937-.716l-27.995-16.165c-.826-.477-1.25-1.048-1.273-1.715-.022-.665.381-1.237,1.208-1.714s1.827-.716,3.001-.716c1.175,0,2.176.239,3.002.716l2.806,1.62c-1.044-4.119.326-7.272,4.111-9.458l.326-.188c.826-.477,1.795-.708,2.904-.697,1.11.013,2.078.258,2.904.735s1.218,1.03,1.175,1.658c-.044.629-.501,1.193-1.371,1.696l-.326.188c-2.088,1.206-3.491,2.607-4.209,4.202-.718,1.595-.772,3.246-.163,4.955l19.838,11.455c.827.477,1.229,1.049,1.208,1.714-.023.665-.447,1.237-1.273,1.714-.827.478-1.807.716-2.936.716Z" fill="#173a64"/>
  </g>
  <g>
    <path d="M1377.402,651.995c-1.132,0-2.11-.239-2.937-.716l-40.264-23.248c-.826-.477-1.251-1.048-1.272-1.714-.022-.665.38-1.237,1.207-1.714s1.828-.716,3.002-.716c1.175,0,2.176.239,3.002.715l20.751,11.982-.391-25.998c-.087-.753.304-1.381,1.174-1.884.739-.427,1.631-.653,2.675-.678,1.044-.025,1.936.176,2.676.603.871.503,1.305,1.03,1.305,1.582l-.065,17.37,39.088,2.6c1.088.076,1.958.301,2.61.678.827.428,1.24.968,1.241,1.621-.001.653-.415,1.218-1.24,1.695-1.001.578-2.176.804-3.524.678l-38.306-2.675.066,8.629,12.203,7.046c.827.477,1.229,1.049,1.207,1.715-.023.665-.447,1.237-1.273,1.714s-1.806.716-2.936.716Z" fill="#173a64"/>
    <path d="M1419.949,627.429c-1.131,0-2.11-.239-2.937-.716l-27.995-16.165c-.826-.477-1.25-1.048-1.273-1.715-.022-.665.381-1.237,1.208-1.714.826-.477,1.827-.716,3.001-.716,1.175,0,2.176.239,3.002.716l2.806,1.62c-1.044-4.119.326-7.272,4.111-9.458l.326-.188c.826-.477,1.795-.708,2.904-.697,1.11.013,2.078.258,2.904.735.827.477,1.218,1.03,1.175,1.658-.044.629-.501,1.193-1.371,1.696l-.326.188c-2.088,1.206-3.491,2.607-4.209,4.202-.718,1.595-.772,3.246-.163,4.955l19.838,11.455c.827.477,1.229,1.049,1.208,1.714-.023.665-.447,1.237-1.273,1.714s-1.807.716-2.936.716Z" fill="#173a64"/>
  </g>
</svg>