<?xml version="1.0" encoding="UTF-8"?>
<svg xmlns="http://www.w3.org/2000/svg" viewBox="557.83 91.39 905.80 921.01" preserveAspectRatio="xMidYMid meet">
  <g isolation="isolate">
    <g id="a" data-name="Layer 1">
      <g>
        <polygon points="1005.851 486.512 599.694 730.255 1009.593 970.528 1421.771 716.715 1005.851 486.512" fill="#003967"/>
        <g>
          <path d="M1353.052,707.088l-349.411,201.732v-40.889l338.569-195.473v-11.186l10.842-6.26v52.075Z" fill="#784085"/>
          <path d="M1003.641,908.82l-360.54-208.158v-40.888l360.54,208.157v40.889Z" fill="#6a2d79"/>
          <path d="M981.674,464.31l-338.565,195.471,360.53,208.149,338.565-195.47-360.53-208.15ZM1003.639,848.07l-300.762-173.645-25.381-14.644,315.008-181.88,326.166,188.289-25.381,14.667-289.65,167.212Z" fill="#ab89b4"/>
          <path d="M1342.21,672.459l-360.54-208.158v-11.186l360.54,208.158v11.186Z" fill="#ab89b4"/>
          <path d="M964.634,149.345l27.879-16.096,360.54,208.158-27.879,16.096-360.54-208.157Z" fill="#91639c"/>
          <path d="M1325.173,357.502l27.879-16.096v313.606l-10.842,6.26v-305.403l-17.037,9.836v-8.203Z" fill="#784085"/>
          <path d="M981.67,453.115V167.384l343.503,198.322,17.037-9.836v305.403l-360.54-208.158Z" fill="#91639c"/>
          <path d="M964.634,157.548v-8.203l360.54,208.157v8.203l-343.503-198.322-17.037-9.836Z" fill="#784085"/>
          <path d="M992.512,477.893l326.156,188.306-25.389,14.658-117.765-67.992-1.806-3.89-25.841-25.836-36.542-21.095-44.754-14.915-6.714-1.038-67.345-38.882v-29.316Z" fill="#6a2d79"/>
          <path d="M677.486,659.774l315.027-181.881v29.316l-66.121,38.175-11.324,1.752-44.75,14.919-36.537,21.098-25.834,25.839-3.027,6.523-102.046,58.916-25.388-14.658Z" fill="#784085"/>
          <path d="M1175.507,612.855l11.579,24.937v50.669l-13.357,28.82-25.849,25.826-36.54,21.1-44.75,14.925-49.897,7.719h-51.675l-49.92-7.719-44.751-14.901-36.539-21.101-25.849-25.825-13.381-28.82v-50.669l10.34-22.293-102.04,58.903,300.762,173.645,289.65-167.212-117.783-68.003Z" fill="#91639c"/>
          <path d="M992.512,507.209l67.345,38.882-43.202-6.681-51.675.002-38.589,5.972,66.121-38.175Z" fill="#91639c"/>
          <path d="M1158.402,599.818c77.281,44.618,77.281,116.959,0,161.577-77.281,44.618-202.579,44.618-279.86,0-77.281-44.619-77.281-116.959,0-161.577,77.281-44.619,202.579-44.619,279.86,0Z" fill="#c2a49d" mix-blend-mode="multiply"/>
          <polygon points="1187.086 667.617 1187.086 688.46 1173.729 717.28 1147.88 743.106 1111.34 764.206 1066.59 779.131 1016.693 786.85 965.018 786.85 915.098 779.131 870.347 764.23 833.808 743.129 807.959 717.304 794.577 688.484 794.577 667.641 807.959 696.461 833.808 722.31 870.347 743.387 915.098 758.311 965.018 766.031 1016.693 766.031 1066.59 758.311 1111.34 743.387 1147.88 722.286 1173.729 696.437 1187.086 667.617" fill="#f6be00"/>
          <polygon points="677.496 660.998 724.528 687.873 1013.534 520.563 992.504 479.118 677.496 660.998" fill="#6a2d79" mix-blend-mode="multiply" opacity=".5"/>
          <path d="M1175.507,612.855l-1.801-3.883-25.849-25.825-36.54-21.1-44.75-14.924-6.714-1.029-43.206-6.69h-51.675l-38.575,5.988-11.322,1.755-44.751,14.901-36.539,21.1-25.825,25.849-3.041,6.527-10.34,22.293v29.826l13.381,28.82,25.849,25.849,36.539,21.077,44.751,14.924,49.92,7.72h51.675l49.897-7.72,44.75-14.924,36.54-21.101,25.849-25.849,13.357-28.82v-29.826l-11.579-24.937ZM1167.529,666.144l-12.024,25.942-23.276,23.276-32.89,18.995-40.283,13.427-44.937,6.948h-46.528l-44.938-6.948-40.306-13.427-32.89-18.995-23.276-23.253-12.047-25.943v-26.878l12.047-25.943,23.253-23.252,32.89-18.995,40.282-13.451,44.961-6.948h46.505l44.961,6.948,40.282,13.427,32.914,18.995,23.253,23.276,12.047,25.943v26.855Z" fill="#f9d55c"/>
          <path d="M1155.482,622.984l-23.253-23.276-32.914-18.995-40.282-13.427-44.961-6.948h-46.505l-44.961,6.971-40.282,13.427-32.89,18.995-23.253,23.252-12.047,25.943v17.241l12.047,25.943,23.276,23.253,32.89,18.995,40.306,13.427,44.938,6.948h46.528l44.937-6.948,40.283-13.427,32.89-18.995,23.276-23.276,12.024-25.942v-17.217l-12.047-25.943Z" fill="#fbe28f"/>
          <polygon points="1167.529 639.289 1167.529 648.927 1155.482 622.984 1132.23 599.708 1099.316 580.713 1059.034 567.286 1014.073 560.338 967.567 560.338 922.607 567.309 882.324 580.736 849.434 599.731 826.181 622.984 814.134 648.927 814.134 639.289 826.181 613.346 849.434 590.094 882.324 571.098 922.607 557.648 967.567 550.7 1014.073 550.7 1059.034 557.648 1099.316 571.075 1132.23 590.07 1155.482 613.346 1167.529 639.289" fill="#f6be00"/>
          <path d="M1035.414,589.765c-11.116-3.483-21.775-8.443-33.117-11.098-12.378-2.897-25.219-2.967-37.931-2.964-16.564.004-33.789.256-48.644,7.584-4.306,2.124-8.788,5.581-8.913,10.381-.086,3.311,1.83,7.181-.434,9.599-.907.968-2.258,1.355-3.539,1.697-7.428,1.988-14.879,3.892-22.351,5.711-9.734,2.37-19.994,4.852-27.288,11.721-11.872,11.18-10.792,33.041,2.124,42.996,3.42,2.636,7.438,4.485,10.585,7.442,3.147,2.957,5.329,7.611,3.678,11.601-.72,1.739-2.08,3.143-2.884,4.845-2.792,5.909,1.958,12.666,7.215,16.549,10.535,7.782,24.446,10.813,37.264,8.121,9.914-2.083,19.515-7.418,29.55-6.031,11.385,1.575,19.61,11.181,28.472,18.499,7.882,6.51,16.979,11.544,26.682,14.765,8.041,2.669,16.85,4.078,24.962,1.629,8.942-2.699,15.827-9.639,23.175-15.403,11.736-9.206,25.489-15.829,40.004-19.265,12.943-3.063,26.962-3.821,37.997-11.246,3.667-2.468,7.03-5.889,7.905-10.222,1.011-5.007-1.457-9.964-3.332-14.715-1.875-4.751-3.069-10.573.031-14.633,1.866-2.444,4.903-3.675,7.153-5.771,3.782-3.523,4.927-9.215,4.068-14.312-.859-5.096-3.445-9.725-6.212-14.091-4.528-7.146-10.467-14.433-18.796-15.914-6.864-1.221-13.729,1.818-20.687,2.247-6.959.428-15.511-3.964-14.723-10.891.187-1.645.904-3.315.423-4.899-1.773-5.835-13.402-.549-17.194-.253-8.525.666-17.145-1.143-25.24-3.679Z" fill="#fbd766"/>
          <path d="M1028.213,573.559c16.64,9.607,16.64,25.184,0,34.79-16.64,9.607-43.619,9.607-60.258,0-16.64-9.607-16.64-25.183,0-34.79,16.64-9.607,43.619-9.607,60.258,0Z" fill="#aa0062"/>
          <path d="M1021.938,577.182c13.175,7.606,13.175,19.939,0,27.545-13.175,7.606-34.535,7.606-47.71,0-13.175-7.606-13.175-19.939,0-27.545,13.175-7.606,34.535-7.606,47.71,0Z" fill="#c65495"/>
          <g>
            <path d="M998.711,586.083c5.976,3.45,5.976,9.044,0,12.494-5.976,3.45-15.664,3.45-21.639,0-5.976-3.45-5.976-9.043,0-12.494,5.976-3.45,15.664-3.45,21.639,0Z" fill="#eabfd7"/>
            <path d="M1012.415,580.331c4.131,2.385,4.131,6.252,0,8.637-4.13,2.385-10.828,2.385-14.959,0-4.131-2.385-4.131-6.252,0-8.637,4.131-2.385,10.828-2.385,14.959,0Z" fill="#eabfd7"/>
            <path d="M1013.331,591.121c4.131,2.385,4.131,6.252,0,8.636-4.13,2.385-10.828,2.385-14.959,0-4.131-2.385-4.131-6.251,0-8.636,4.131-2.385,10.828-2.385,14.959,0Z" fill="#eabfd7"/>
            <path d="M982.365,577.373c1.444-1.476,4.688-1.954,7.598-2.176.325-.025.67-.047.97.03.502.129.691.476.83.782,1.544,3.412,3.713,6.729,6.461,9.878-.095-.109-4.022,1.062-4.936.667-.965-.417-1.639-2.849-2.236-3.544-1.956-2.281-4.968-4.264-8.686-5.637Z" fill="#eabfd7"/>
            <path d="M1024.552,586.35c.208-.052.428-.106.652-.089.323.025.556.189.725.349,1.461,1.383.649,3.224-.931,4.562-.165.14-.361.287-.646.329-.558.083-.991-.261-1.35-.521-1.171-.848-3.212-1.154-5.084-1.07-1.872.084-3.644.498-5.414.861-.536.11-1.129.215-1.661.098-1.014-.223-1.628-1.819-.99-2.318.756-.591,3.606-.441,4.845-.554,3.387-.307,6.708-.861,9.854-1.648Z" fill="#eabfd7"/>
            <path d="M994.493,603.949c-.53.799-1.399,1.512-1.943,2.308-.544.796-.716,1.758.119,2.465.389.33.957.572,1.516.806.551.231,1.155.47,1.836.465.96-.008,1.677-.485,2.348-.881,1.829-1.079,4.432-2.014,4.61-3.52.113-.961-.845-1.837-1.566-2.706-.832-1.002-1.381-2.083-1.618-3.186-.084-.39-.161-.822-.66-1.089-.56-.3-1.437-.273-2.174-.158-2.764.436-2.016.749-1.846,2.289.12,1.084.059,2.182-.622,3.208Z" fill="#eabfd7"/>
          </g>
          <path d="M916.825,610.727c12.756,7.365,12.756,19.306,0,26.671-12.756,7.365-33.439,7.365-46.195,0-12.756-7.365-12.756-19.306,0-26.671,12.756-7.365,33.439-7.365,46.195,0Z" fill="#aa0062"/>
          <path d="M912.014,613.505c10.1,5.831,10.1,15.285,0,21.116-10.1,5.831-26.475,5.831-36.575,0-10.1-5.831-10.1-15.285,0-21.116,10.1-5.831,26.475-5.831,36.575,0Z" fill="#c65495"/>
          <g>
            <path d="M894.208,620.328c4.581,2.645,4.581,6.933,0,9.578-4.581,2.645-12.008,2.645-16.589,0-4.581-2.645-4.581-6.933,0-9.578,4.581-2.645,12.008-2.645,16.589,0Z" fill="#eabfd7"/>
            <path d="M904.713,615.919c3.167,1.828,3.167,4.793,0,6.621-3.166,1.828-8.301,1.828-11.467,0-3.166-1.828-3.166-4.793,0-6.621,3.167-1.828,8.301-1.828,11.467,0Z" fill="#eabfd7"/>
            <path d="M905.416,624.19c3.166,1.829,3.166,4.793,0,6.621-3.167,1.829-8.301,1.829-11.467,0-3.167-1.828-3.167-4.792,0-6.621,3.166-1.828,8.301-1.828,11.467,0Z" fill="#eabfd7"/>
            <path d="M881.677,613.651c1.106-1.131,3.594-1.498,5.825-1.668.249-.019.513-.036.743.023.385.099.53.365.636.6,1.183,2.615,2.847,5.158,4.953,7.573-.073-.084-3.083.814-3.784.511-.74-.32-1.257-2.184-1.714-2.717-1.5-1.748-3.809-3.269-6.659-4.321Z" fill="#eabfd7"/>
            <path d="M914.018,620.533c.159-.04.328-.081.5-.068.248.019.426.145.556.268,1.12,1.06.498,2.472-.714,3.497-.127.107-.277.22-.495.252-.428.063-.76-.2-1.035-.4-.897-.65-2.462-.885-3.897-.82-1.435.064-2.793.382-4.15.66-.411.084-.866.165-1.273.075-.777-.171-1.249-1.394-.759-1.777.579-.453,2.764-.338,3.715-.424,2.597-.236,5.142-.66,7.554-1.263Z" fill="#eabfd7"/>
            <path d="M890.975,634.024c-.406.613-1.073,1.159-1.49,1.769-.417.61-.548,1.347.091,1.89.298.253.734.438,1.162.618.422.177.886.36,1.407.356.736-.006,1.285-.371,1.8-.675,1.402-.827,3.398-1.544,3.534-2.699.087-.737-.648-1.408-1.201-2.074-.637-.769-1.058-1.597-1.24-2.443-.064-.299-.123-.63-.506-.835-.429-.23-1.102-.21-1.667-.121-2.119.334-1.546.575-1.415,1.754.092.831.045,1.672-.477,2.459Z" fill="#eabfd7"/>
          </g>
          <path d="M1021.181,702.325c12.756,7.365,12.756,19.306,0,26.671-12.756,7.365-33.439,7.365-46.195,0-12.756-7.365-12.756-19.306,0-26.671,12.756-7.365,33.439-7.365,46.195,0Z" fill="#aa0062"/>
          <path d="M1016.371,705.102c10.1,5.831,10.1,15.285,0,21.116-10.1,5.831-26.475,5.831-36.575,0-10.1-5.831-10.1-15.285,0-21.116,10.1-5.831,26.475-5.831,36.575,0Z" fill="#c65495"/>
          <g>
            <path d="M998.565,711.926c4.581,2.645,4.581,6.933,0,9.578-4.581,2.645-12.009,2.645-16.59,0-4.581-2.645-4.581-6.933,0-9.578,4.581-2.645,12.009-2.645,16.59,0Z" fill="#eabfd7"/>
            <path d="M1009.07,707.517c3.167,1.828,3.167,4.793,0,6.621-3.166,1.828-8.301,1.828-11.467,0-3.166-1.828-3.166-4.793,0-6.621,3.167-1.828,8.301-1.828,11.467,0Z" fill="#eabfd7"/>
            <path d="M1009.772,715.788c3.167,1.828,3.167,4.793,0,6.621-3.166,1.828-8.301,1.828-11.467,0-3.166-1.828-3.166-4.793,0-6.621,3.167-1.828,8.301-1.828,11.467,0Z" fill="#eabfd7"/>
            <path d="M986.033,705.248c1.106-1.131,3.593-1.498,5.825-1.668.249-.019.513-.036.743.023.385.099.53.364.636.6,1.183,2.615,2.847,5.158,4.953,7.573-.073-.083-3.084.814-3.784.511-.74-.319-1.257-2.184-1.714-2.717-1.5-1.748-3.809-3.268-6.659-4.321Z" fill="#eabfd7"/>
            <path d="M1018.375,712.13c.159-.04.328-.081.499-.068.248.019.426.145.557.268,1.12,1.06.498,2.471-.714,3.497-.127.107-.277.22-.495.252-.428.063-.76-.2-1.035-.399-.898-.65-2.462-.885-3.898-.82-1.435.064-2.793.382-4.15.66-.411.084-.866.165-1.273.075-.777-.171-1.248-1.394-.759-1.777.579-.453,2.764-.338,3.715-.424,2.597-.236,5.142-.66,7.554-1.264Z" fill="#eabfd7"/>
            <path d="M995.331,725.622c-.406.612-1.073,1.159-1.49,1.769-.417.611-.548,1.347.091,1.89.298.252.734.438,1.162.618.422.177.886.36,1.407.356.736-.006,1.285-.371,1.8-.675,1.402-.827,3.398-1.544,3.534-2.698.087-.737-.648-1.409-1.201-2.074-.638-.769-1.058-1.597-1.24-2.442-.064-.299-.123-.63-.506-.835-.429-.23-1.102-.21-1.667-.121-2.119.334-1.546.575-1.415,1.754.092.831.045,1.672-.477,2.459Z" fill="#eabfd7"/>
          </g>
          <path d="M1096.455,665.696c12.756,7.365,12.756,19.306,0,26.671-12.756,7.365-33.439,7.365-46.195,0-12.756-7.365-12.756-19.306,0-26.671,12.756-7.365,33.439-7.365,46.195,0Z" fill="#aa0062"/>
          <path d="M1091.645,668.473c10.1,5.831,10.1,15.285,0,21.117-10.1,5.831-26.475,5.831-36.575,0-10.1-5.831-10.1-15.285,0-21.117,10.1-5.831,26.475-5.831,36.575,0Z" fill="#c65495"/>
          <g>
            <path d="M1073.839,675.297c4.581,2.645,4.581,6.933,0,9.578-4.581,2.645-12.008,2.645-16.59,0-4.581-2.645-4.581-6.933,0-9.578,4.581-2.645,12.009-2.645,16.59,0Z" fill="#eabfd7"/>
            <path d="M1084.344,670.888c3.167,1.828,3.167,4.793,0,6.621-3.166,1.828-8.301,1.828-11.467,0-3.166-1.828-3.166-4.793,0-6.621,3.167-1.828,8.301-1.828,11.467,0Z" fill="#eabfd7"/>
            <path d="M1085.046,679.16c3.167,1.828,3.167,4.793,0,6.621-3.166,1.828-8.301,1.828-11.467,0-3.166-1.828-3.166-4.793,0-6.621,3.167-1.828,8.301-1.828,11.467,0Z" fill="#eabfd7"/>
            <path d="M1061.308,668.62c1.106-1.131,3.593-1.498,5.825-1.668.249-.019.513-.036.743.023.385.099.53.364.636.6,1.183,2.615,2.847,5.158,4.953,7.573-.073-.083-3.084.814-3.784.511-.74-.319-1.257-2.184-1.714-2.717-1.5-1.748-3.809-3.268-6.659-4.321Z" fill="#eabfd7"/>
            <path d="M1093.649,675.502c.159-.04.328-.081.499-.068.248.019.426.145.557.268,1.12,1.06.498,2.472-.714,3.498-.127.107-.277.22-.495.252-.428.063-.76-.2-1.035-.399-.898-.65-2.462-.885-3.897-.82-1.435.064-2.793.382-4.15.66-.411.084-.866.165-1.273.075-.777-.171-1.248-1.394-.759-1.777.579-.453,2.764-.338,3.715-.424,2.597-.236,5.142-.66,7.554-1.264Z" fill="#eabfd7"/>
            <path d="M1070.605,688.993c-.406.613-1.073,1.159-1.49,1.769-.417.611-.548,1.347.091,1.89.298.252.734.438,1.162.618.422.177.886.361,1.407.356.736-.006,1.285-.371,1.8-.675,1.402-.827,3.398-1.544,3.534-2.698.087-.737-.648-1.409-1.201-2.074-.638-.769-1.058-1.597-1.24-2.442-.064-.299-.123-.63-.506-.835-.429-.23-1.102-.21-1.667-.121-2.119.334-1.546.574-1.415,1.754.092.831.045,1.672-.477,2.459Z" fill="#eabfd7"/>
          </g>
          <path d="M914.671,677.236c12.756,7.365,12.756,19.306,0,26.671-12.756,7.365-33.439,7.365-46.195,0-12.756-7.365-12.756-19.306,0-26.671,12.756-7.365,33.439-7.365,46.195,0Z" fill="#aa0062"/>
          <path d="M909.861,680.013c10.1,5.831,10.1,15.285,0,21.116-10.1,5.831-26.475,5.831-36.575,0-10.1-5.831-10.1-15.285,0-21.116,10.1-5.831,26.475-5.831,36.575,0Z" fill="#c65495"/>
          <g>
            <path d="M892.055,686.836c4.581,2.645,4.581,6.933,0,9.578-4.581,2.645-12.008,2.645-16.589,0-4.581-2.645-4.581-6.933,0-9.578,4.581-2.645,12.008-2.645,16.589,0Z" fill="#eabfd7"/>
            <path d="M902.56,682.427c3.167,1.828,3.167,4.792,0,6.62-3.166,1.829-8.301,1.829-11.467,0-3.166-1.828-3.166-4.792,0-6.62,3.167-1.829,8.301-1.829,11.467,0Z" fill="#eabfd7"/>
            <path d="M903.262,690.699c3.167,1.828,3.167,4.792,0,6.621-3.167,1.828-8.301,1.828-11.468,0-3.166-1.829-3.166-4.793,0-6.621,3.167-1.829,8.301-1.829,11.468,0Z" fill="#eabfd7"/>
            <path d="M879.523,680.159c1.107-1.131,3.594-1.498,5.825-1.668.249-.019.513-.036.743.023.385.099.53.365.636.6,1.183,2.615,2.847,5.158,4.953,7.573-.073-.083-3.084.814-3.784.511-.74-.32-1.257-2.184-1.714-2.717-1.499-1.748-3.808-3.269-6.659-4.321Z" fill="#eabfd7"/>
            <path d="M911.864,687.041c.159-.04.328-.081.5-.068.248.019.426.145.557.268,1.12,1.06.498,2.472-.714,3.497-.127.107-.277.22-.495.252-.428.063-.76-.2-1.035-.399-.897-.65-2.462-.885-3.897-.82-1.435.065-2.794.382-4.15.66-.411.084-.866.165-1.274.075-.777-.171-1.248-1.394-.759-1.777.579-.453,2.765-.338,3.715-.424,2.597-.236,5.142-.66,7.554-1.263Z" fill="#eabfd7"/>
            <path d="M888.821,700.532c-.406.613-1.073,1.159-1.49,1.769-.417.61-.548,1.347.091,1.89.298.253.734.438,1.163.618.422.177.886.36,1.407.356.736-.006,1.285-.372,1.8-.675,1.402-.827,3.398-1.544,3.534-2.698.086-.737-.648-1.409-1.201-2.075-.638-.769-1.059-1.597-1.24-2.442-.064-.299-.123-.63-.506-.835-.429-.23-1.102-.21-1.667-.121-2.119.334-1.546.575-1.415,1.755.092.831.045,1.672-.477,2.459Z" fill="#eabfd7"/>
          </g>
          <path d="M1137.476,628.38c9.904,5.718,9.904,14.989,0,20.707-9.904,5.718-25.961,5.718-35.865,0-9.904-5.718-9.904-14.989,0-20.707,9.904-5.718,25.961-5.718,35.865,0Z" fill="#aa0062"/>
          <path d="M1133.741,630.536c7.841,4.527,7.841,11.867,0,16.394-7.841,4.527-20.555,4.527-28.396,0-7.841-4.527-7.841-11.867,0-16.394,7.841-4.527,20.555-4.527,28.396,0Z" fill="#c65495"/>
          <g>
            <path d="M1119.917,635.834c3.557,2.053,3.557,5.383,0,7.436-3.556,2.053-9.323,2.053-12.879,0-3.557-2.053-3.557-5.383,0-7.436,3.557-2.053,9.323-2.053,12.879,0Z" fill="#eabfd7"/>
            <path d="M1128.073,632.41c2.458,1.419,2.458,3.721,0,5.14-2.459,1.42-6.445,1.42-8.903,0-2.459-1.419-2.459-3.721,0-5.14,2.458-1.419,6.444-1.419,8.903,0Z" fill="#eabfd7"/>
            <path d="M1128.618,638.832c2.459,1.419,2.459,3.721,0,5.14s-6.444,1.419-8.903,0c-2.458-1.419-2.458-3.721,0-5.14,2.459-1.42,6.444-1.42,8.903,0Z" fill="#eabfd7"/>
            <path d="M1110.188,630.649c.859-.879,2.79-1.163,4.522-1.295.194-.015.399-.028.577.018.299.077.411.283.494.466.919,2.031,2.21,4.005,3.846,5.879-.056-.065-2.394.632-2.938.397-.574-.248-.976-1.696-1.331-2.11-1.164-1.357-2.957-2.538-5.17-3.355Z" fill="#eabfd7"/>
            <path d="M1135.297,635.992c.123-.031.254-.063.388-.053.192.015.331.112.432.208.869.823.386,1.919-.554,2.715-.099.084-.215.171-.385.196-.332.049-.59-.155-.804-.31-.697-.505-1.911-.687-3.026-.637-1.114.05-2.169.297-3.222.512-.319.066-.672.128-.989.059-.603-.133-.969-1.082-.59-1.38.45-.352,2.146-.262,2.884-.329,2.016-.183,3.992-.512,5.865-.981Z" fill="#eabfd7"/>
            <path d="M1117.406,646.467c-.315.476-.833.9-1.156,1.374-.324.474-.425,1.046.071,1.467.231.196.57.34.903.48.328.137.687.28,1.093.276.571-.004.997-.289,1.398-.524,1.088-.642,2.638-1.199,2.744-2.095.067-.572-.503-1.094-.932-1.611-.495-.597-.822-1.24-.963-1.896-.05-.232-.096-.489-.393-.649-.333-.178-.856-.163-1.294-.094-1.645.259-1.2.446-1.099,1.362.071.645.035,1.299-.37,1.909Z" fill="#eabfd7"/>
          </g>
          <path d="M894.982,586.759c-2.621-.02-4.856,2.809-4.228,5.354.098.396.264.795.576,1.057.563.472,1.395.365,2.114.217,1.597-.328,3.238-.753,4.506-1.778,1.268-1.025,2.061-2.808,1.474-4.329-.587-1.521-2.864-2.233-3.956-1.021l-.487.501Z" fill="#f6be00"/>
          <path d="M826.526,644.279c-.358.664-.722,1.463-.384,2.138.326.653,1.148.855,1.872.95,3.128.408,6.343.141,9.36-.779.518-.158,1.053-.349,1.417-.749.666-.733.525-1.907.075-2.789-.826-1.618-2.485-2.684-4.227-3.201-4.98-1.479-5.945.414-8.113,4.432Z" fill="#f6be00"/>
          <path d="M939.917,654.544c-.993.139-1.2,1.654-.517,2.388.683.734,1.782.864,2.783.916.852.044,1.727.061,2.536-.211.809-.272,1.551-.89,1.745-1.721.317-1.361-.99-2.665-2.37-2.884s-2.755.324-4.047.855c.233-.146.465-.291.698-.437l-.829,1.093Z" fill="#f6be00"/>
          <path d="M943.957,587.013c-.859.356-1.718.712-2.577,1.068-.299.124-.61.257-.813.509-.283.352-.288.854-.193,1.296.399,1.859,2.385,3.141,4.281,3,1.896-.141,3.572-1.518,4.353-3.252.109-.241.204-.511.134-.766-.113-.413-.587-.594-1.001-.703-1.108-.293-2.237-.504-3.375-.63l-.809-.522Z" fill="#f6be00"/>
          <path d="M1019.169,663.979c2.767-.053,8.495-1.452,7.694-5.149-.411-1.899-2.251-3.042-3.953-3.637-3.047-1.065-9.216-1.068-10.575,2.681-1.415,3.907,3.739,6.164,6.834,6.104Z" fill="#f6be00"/>
          <path d="M1069.259,652.88c.81-.101,1.672-.397,2.328-.878.611-.448,1.042-1.056,1.082-1.816.079-1.473-1.363-2.563-2.741-3.088-4.692-1.786-10.759,7.039-.669,5.782Z" fill="#f6be00"/>
          <path d="M1048.773,613.817c1.992.201,4.008-.312,5.815-1.174.323-.154.663-.342.813-.667.12-.259.096-.56.064-.844-.134-1.188-.374-2.391-.976-3.424-1.772-3.044-8.073-2.226-10.457-.06-3.043,2.765,2.095,5.979,4.741,6.168Z" fill="#f6be00"/>
          <path d="M1052.546,578.049c.296-.119.588-.248.874-.388.515-.253,1.046-.574,1.279-1.098.325-.732-.064-1.615-.671-2.136-2.241-1.923-6.643-.154-8.173,2.008-2.817,3.982,4.868,2.342,6.691,1.614Z" fill="#f6be00"/>
          <path d="M994.336,625.999c.319-.314.495-.75.571-1.191.787-4.543-8.26-8.381-10.291-3.801-2.284,5.15,6.859,7.802,9.72,4.992Z" fill="#f6be00"/>
          <path d="M941.295,733.835c.721.392,1.491.766,2.312.769.79.004,1.548-.341,2.187-.806,7.908-5.762-2.553-13.289-8.973-11.93-9.689,2.051.367,9.731,4.475,11.967Z" fill="#f6be00"/>
          <path d="M1069.316,728.33c.577.526,1.43.594,2.211.577,1.996-.045,3.984-.474,5.82-1.258.66-.282,1.324-.627,1.76-1.197.888-1.161.5-2.959-.568-3.956-1.83-1.708-5.902-1.653-8.105-.65-2.14.975-3.063,4.712-1.119,6.484Z" fill="#f6be00"/>
          <path d="M1065.99,624.201c1.778-.898,3.723-1.481,5.375-2.594,1.652-1.113,3.02-2.966,2.795-4.945,1.085,3.243,2.128,6.982.372,9.916-1.786,2.984-5.642,3.796-9.012,4.658-3.056.781-5.392,3.249-8.07,3.9.612-4.59,4.497-8.894,8.54-10.936Z" fill="#028c7b"/>
          <path d="M974.496,659.511c1.967-.317,3.996-.283,5.908-.842s3.777-1.91,4.163-3.864c.051,3.419-.09,7.298-2.653,9.562-2.607,2.302-6.528,1.906-10,1.705-3.149-.183-6.123,1.46-8.872,1.269,1.975-4.188,6.983-7.111,11.455-7.83Z" fill="#028c7b"/>
          <path d="M920.277,579.335c1.967-.316,3.996-.282,5.908-.842,1.911-.559,3.777-1.91,4.163-3.864.051,3.419-.09,7.299-2.653,9.562-2.607,2.302-6.528,1.906-10,1.704-3.149-.182-6.123,1.461-8.872,1.27,1.976-4.188,6.983-7.111,11.455-7.83Z" fill="#028c7b"/>
          <path d="M846.454,659.511c1.967-.317,3.996-.283,5.908-.842,1.912-.559,3.777-1.91,4.163-3.864.051,3.419-.09,7.298-2.653,9.562-2.607,2.302-6.528,1.906-10,1.705-3.15-.183-6.123,1.46-8.873,1.269,1.976-4.188,6.983-7.111,11.455-7.83Z" fill="#028c7b"/>
          <path d="M1137.26,676.219c1.967-.317,3.996-.283,5.908-.842s3.777-1.91,4.163-3.864c.051,3.419-.09,7.298-2.653,9.562-2.607,2.302-6.528,1.906-10,1.705-3.15-.183-6.123,1.46-8.873,1.269,1.976-4.188,6.983-7.111,11.455-7.83Z" fill="#028c7b"/>
          <path d="M937.847,707.86c1.967-.317,3.996-.283,5.908-.842s3.777-1.91,4.163-3.864c.051,3.419-.09,7.298-2.653,9.562-2.607,2.302-6.528,1.906-10,1.705-3.15-.183-6.123,1.46-8.873,1.269,1.976-4.188,6.983-7.111,11.455-7.83Z" fill="#028c7b"/>
          <path d="M939.347,602.089c-2.98,1.72-2.98,4.51,0,6.23,2.979,1.72,7.811,1.72,10.79,0,2.98-1.72,2.98-4.51,0-6.23-2.98-1.72-7.81-1.72-10.79,0ZM946.527,606.886c-1.777,1.026-4.658,1.026-6.435,0-1.777-1.026-1.777-2.689,0-3.715,1.777-1.026,4.658-1.026,6.435,0,1.777,1.026,1.777,2.689,0,3.715Z" fill="#003967"/>
          <path d="M900.242,654.759c-2.98,1.72-2.98,4.51,0,6.23,2.98,1.72,7.81,1.72,10.79,0,2.98-1.72,2.98-4.51,0-6.23-2.98-1.72-7.811-1.72-10.79,0ZM907.422,659.556c-1.777,1.026-4.658,1.026-6.435,0-1.777-1.026-1.777-2.69,0-3.715,1.777-1.026,4.658-1.026,6.435,0,1.777,1.026,1.777,2.689,0,3.715Z" fill="#003967"/>
          <path d="M1042.1,708.945c-2.98,1.72-2.98,4.51,0,6.23,2.98,1.72,7.811,1.72,10.79,0,2.98-1.72,2.98-4.51,0-6.23-2.979-1.72-7.81-1.72-10.79,0ZM1049.28,713.742c-1.777,1.026-4.658,1.026-6.435,0-1.777-1.026-1.777-2.689,0-3.715,1.777-1.026,4.658-1.026,6.435,0,1.777,1.026,1.777,2.689,0,3.715Z" fill="#003967"/>
          <path d="M1083.341,601.067c-2.98,1.72-2.98,4.51,0,6.23,2.98,1.72,7.811,1.72,10.791,0,2.98-1.72,2.98-4.509,0-6.23-2.98-1.72-7.811-1.72-10.79,0ZM1090.52,605.864c-1.777,1.026-4.658,1.026-6.435,0-1.777-1.026-1.777-2.689,0-3.715,1.777-1.026,4.658-1.026,6.435,0,1.777,1.026,1.777,2.689,0,3.715Z" fill="#003967"/>
          <path d="M1014.122,631.179c-2.979,1.72-2.979,4.51,0,6.23,2.98,1.72,7.811,1.72,10.79,0,2.98-1.72,2.98-4.51,0-6.23-2.98-1.72-7.811-1.72-10.79,0ZM1021.302,635.976c-1.777,1.026-4.658,1.026-6.435,0-1.777-1.026-1.777-2.689,0-3.715,1.777-1.026,4.658-1.026,6.435,0,1.777,1.026,1.777,2.689,0,3.715Z" fill="#003967"/>
          <path d="M830.947,800.033l-33.625-19.414c-6.582-3.8-11.918-12.217-11.918-18.799h0c0-6.582,5.336-8.837,11.918-5.037l33.625,19.414c6.582,3.8,11.918,12.217,11.918,18.799h0c0,6.582-5.336,8.838-11.918,5.037Z" fill="#91639c"/>
          <polygon points="1008.588 182.925 1023.497 212.292 1342.204 394.922 1342.21 355.869 1325.173 365.706 1008.588 182.925" fill="#6a2d79" mix-blend-mode="multiply" opacity=".5"/>
        </g>
      </g>
    </g>
  </g>
</svg>