<?xml version="1.0" encoding="UTF-8"?>
<svg id="a" data-name="Layer 1" xmlns="http://www.w3.org/2000/svg" viewBox="674.04 209.99 615.01 727.46" preserveAspectRatio="xMidYMid meet">
  <path d="M845.416,419.006c7.105,61.38,29.621,129.575,67.55,195.539,37.92,65.969,85.427,119.553,134.717,156.272l67.459,117.32,70.839-40.9c93.343-54.567,93.343-230.416,0-392.77-93.341-162.354-244.68-249.729-338.022-195.162l-70.843,40.904,68.301,118.797Z" fill="#76ab48"/>
  <path d="M1115.138,495.37c93.347,162.35,93.347,338.199,0,392.771-93.343,54.567-244.68-32.808-338.022-195.162-93.347-162.35-93.347-338.199,0-392.77,93.343-54.568,244.68,32.807,338.022,195.161Z" fill="#97bf74"/>
  <path d="M1083.231,514.024c75.719,131.699,75.719,274.35,0,318.616-75.719,44.266-198.489-26.614-274.208-158.316-75.723-131.699-75.723-274.346,0-318.612,75.719-44.266,198.489,26.61,274.208,158.312Z" fill="#bed8a9"/>
  <g>
    <g>
      <path d="M948.727,741.916h0c-20.308-11.724-36.771-40.238-36.77-63.687l.008-219.616c0-23.449,16.465-32.955,36.773-21.231h0c20.308,11.724,36.771,40.238,36.77,63.687l-.008,219.616c0,23.449-16.465,32.955-36.773,21.231Z" fill="#adbfce"/>
      <path d="M816.863,516.449h0c0-23.45,16.465-32.955,36.773-21.231l190.197,109.801c20.308,11.724,36.771,40.238,36.77,63.687h0c0,23.45-16.465,32.955-36.773,21.231l-190.197-109.801c-20.308-11.724-36.771-40.238-36.77-63.687Z" fill="#adbfce"/>
    </g>
    <polygon points="868.284 507.754 836.811 525.927 803.486 506.685 827.535 492.794 868.284 507.754" fill="#adbfce"/>
    <polygon points="963.441 449.196 931.968 467.369 902.169 446.58 925.795 433.156 963.441 449.196" fill="#adbfce"/>
    <polygon points="1070.739 692.133 1046.621 705.942 1016.822 685.153 1040.448 671.729 1070.739 692.133" fill="#adbfce"/>
    <polygon points="975.869 743.822 951.751 757.631 921.952 736.842 945.578 723.419 975.869 743.822" fill="#adbfce"/>
    <g>
      <path d="M927.184,754.32h0c-20.308-11.724-36.771-40.238-36.77-63.687l.008-219.616c0-23.449,16.465-32.955,36.773-21.231h0c20.308,11.724,36.771,40.238,36.77,63.687l-.008,219.616c0,23.449-16.465,32.955-36.773,21.231Z" fill="#fff"/>
      <path d="M795.319,528.852h0c0-23.45,16.465-32.955,36.773-21.231l190.197,109.801c20.308,11.724,36.771,40.238,36.77,63.687h0c0,23.45-16.465,32.955-36.773,21.231l-190.197-109.801c-20.308-11.724-36.771-40.238-36.77-63.687Z" fill="#fff"/>
    </g>
  </g>
</svg>