<?xml version="1.0" encoding="UTF-8"?>
<svg id="a" data-name="Layer 1" xmlns="http://www.w3.org/2000/svg" viewBox="459.64 90.46 918.68 910.37" preserveAspectRatio="xMidYMid meet">
  <g>
    <path d="M898.607,330.822c0,57.498-24.436,109.305-63.495,145.57-11.101,10.31-23.39,19.37-36.635,26.949-3.509,2.004-7.082,3.918-10.731,5.704-3.075,1.518-6.189,2.96-9.353,4.313-.881.383-1.761.766-2.654,1.123-23.339,9.634-48.91,14.955-75.733,14.955-24.142,0-47.264-4.3-68.663-12.186-5.972-2.208-11.803-4.684-17.494-7.427-1.722-.829-3.445-1.697-5.155-2.59-.88-.447-1.761-.906-2.641-1.391-4.466-2.399-8.83-4.963-13.092-7.694-55.061-35.308-91.555-97.055-91.555-167.326,0-109.688,88.914-198.602,198.602-198.602s198.602,88.914,198.602,198.602Z" fill="#002f4f"/>
    <path d="M621.085,222.667c-53.719,144.427-.855,275.561,5.148,285.853s181.845-26.592,181.845-26.592c0,0-.855-225.593-55.755-271.911-54.899-46.322-131.239,12.65-131.239,12.65Z" fill="#fce7a3"/>
    <path d="M631.341,517.251c-5.972-2.208-11.803-4.684-17.494-7.427-1.722-.829-3.445-1.697-5.155-2.59-.88-.447-1.761-.906-2.641-1.391-4.466-2.399-8.83-4.963-13.092-7.694,2.628-21.348,6.699-40.731,12.875-55.61v-.012c2.947-7.12,6.38-13.195,10.374-17.967,0,0,0,.026.013.089,0,.026,0,.064.013.102.498,3.011,6.916,42.186,13.934,85.303.396,2.386.791,4.785,1.174,7.197Z" fill="#028c7b"/>
    <path d="M806.592,410.689s-.37,2.705-.97,7.72v.012c-1.353,11.421-3.892,34.784-5.959,65.256-.421,6.265-.817,12.837-1.187,19.663-3.509,2.004-7.082,3.918-10.731,5.704-3.075,1.518-6.189,2.96-9.353,4.313-.881.383-1.761.766-2.654,1.123-23.339,9.634-48.91,14.955-75.733,14.955-24.142,0-47.264-4.3-68.663-12.186-5.972-2.208-11.803-4.684-17.494-7.427.804-1.25,1.646-2.513,2.527-3.789,1.595-2.361,2.475-7.618,2.884-14.394.804-13.168-.191-32.067-1.263-46.447-.064-.931-.127-1.837-.191-2.718-.766-9.775-1.493-16.933-1.582-17.826-.013-.064-.013-.089-.013-.089,4.925-5.347,13.653-11.854,24.436-17.941,8.333-4.696,17.903-9.124,27.881-12.569,5.997-2.067,12.161-3.777,18.286-4.951,19.549-3.726,37.311-3.828,52.815-2.016,9.979,1.161,19.013,3.127,27.001,5.449.038.012.064.026.077.026,20.442,5.921,33.93,14.139,38.319,17.061,1.034.676,1.569,1.072,1.569,1.072Z" fill="#028c7b"/>
    <path d="M766.715,392.567s-34.825,50.115-87.778,53.27c-1.107,0-2.206.155-3.151.155h-.948c-30.258-.786-35.615-31.675-34.353-38.611.159-.472.159-.79.159-.79,0,0,18.909-11.349,31.992-15.286,13.238-3.94,44.282-6.46,44.282-6.46,35.615.948,49.798,7.722,49.798,7.722Z" fill="#fda492"/>
    <path d="M692.555,415.061c-13.536-1.97-24.928-18.971-24.928-18.971,2.559-5.307,4.575-13.85,5.884-22.772,1.603-10.254,2.663-21.018,3.05-28.531.488-5.69.592-9.305.592-9.305l15.398-2.504,30.517-5.191s-.426,10.532.886,23.074c1.676,14.701,8.709,31.268,18.189,38.375,17.693,13.327-35.906,27.815-49.589,25.826Z" fill="#fda492"/>
    <path d="M723.947,350.86c-11.028,10.707-27.459,21.104-50.44,22.458,1.603-10.254,2.663-21.018,3.05-28.531l15.986-11.81,30.517-5.191s-.426,10.532.886,23.074Z" fill="#fda492"/>
    <path d="M658.206,369.021c9.553,5.818,33.393-5.915,46.326-14.74,4.49-3.066,8.469-6.724,11.802-10.943,32.457-41.085,75.511-139.259-30.912-140.022-26.828-.19-63.798,14.407-64.131,64.619-.077,11.729,4.192,21.026,3.309,40.69-.882,19.664,14.999,49.062,33.606,60.396Z" fill="#fda492"/>
    <path d="M659.502,335.133c-1.332-.174-13.025-1.885-12.878-8.55.027-.906.526-2.117,1.757-5.009,2.95-6.917,9.077-21.316,3.209-28.009l2.679-2.346c7.339,8.376.867,23.581-2.617,31.752-.658,1.552-1.397,3.298-1.471,3.762-.054,2.675,6.693,4.475,9.781,4.869l-.46,3.53Z" fill="#f28373"/>
    <path d="M693.531,283.136c-.081-.035-8.605-3.399-23.379-3.399h-.058v-4.161h.066c15.661,0,24.572,3.549,24.939,3.697l-1.568,3.863Z" fill="#fce7a3"/>
    <path d="M622.409,279.03l-1.699-3.809c8.791-3.948,21.897-.766,22.45-.627l-.999,4.049c-.12-.027-12.247-2.977-19.752.387Z" fill="#fce7a3"/>
    <path d="M627.708,203.379c-6.127,6.925-14.856,23.24-9.313,30.645,23.871,31.891,84.244,38.913,84.244,38.913.296.275-1.931-.044,10.614,2.628,1.475,23.759,9.781,24.692,16.834,27.827l5.543-10.757,12.553,7.761s36.049-61.213-.135-95.728c-42.71-40.748-99.417-24.94-120.339-1.289Z" fill="#fce7a3"/>
    <path d="M650.704,345.208s5.736,1.216,11.407.898c6.232-.348,14.577-4.223,14.577-4.223,0,0-3.182,12.7-13.257,14.078-10.072,1.382-9.758-6.995-9.758-6.995-1.858-.79-2.818-2.547-2.969-3.759Z" fill="#fff"/>
    <path d="M734.112,292.175c7.126-13.912,21.858-9.344,23.426.681,1.959,12.53-9.228,13.761-16.288,26.147-5.028,8.821-14.33-.577-12.46-10.919,1.719-9.534,5.322-15.909,5.322-15.909Z" fill="#fda492"/>
    <path d="M738.222,298.569c4.827-8.686,10.865-11.078,13.78-7.982,2.911,3.093,1.119,10.362-2.919,10.076-5.601-.403-8.988,11.001-10.862,10.138-4.227-1.955-1.161-10.138,0-12.232Z" fill="#f28373"/>
    <path d="M735.509,317.23l-2.473,9.704c1.757,1.703,3.677,1.92,5.767.646l-.941-10.083c-.631-1.2-1.425-1.216-2.354-.267Z" fill="#93ddfc"/>
    <path d="M618.211,442.513c-.064.906-.14,1.799-.217,2.68-.957,11.624-2.348,21.998-3.777,30.931v.013c-1.238,7.72-2.501,14.355-3.522,19.779-.855,4.53-1.595,8.371-2.003,11.319-.88-.447-1.761-.906-2.641-1.391.446-2.794,1.11-6.265,1.901-10.463,1.276-6.725,2.909-15.389,4.415-25.686,1.187-8.154,2.284-17.342,3.037-27.422l2.399.204.408.038Z" fill="#42a99c"/>
    <path d="M835.111,476.392c-11.101,10.31-23.39,19.37-36.635,26.949-3.509,2.004-7.082,3.918-10.731,5.704-.408-7.975-.727-15.631-.906-22.777-.472-17.303-.204-31.658,1.174-40.386,3.305-20.787,13.424-30.982,17.163-34.096.893-.753,1.417-1.097,1.417-1.097,12.773,15.427,21.922,39.059,28.519,65.703Z" fill="#028c7b"/>
    <path d="M778.392,513.358c-.881.383-1.761.766-2.654,1.123-1.225-8.817-2.271-17.367-3.075-25.393-2.36-23.479-2.578-42.517,1.429-50.76l2.539,1.199c-3.803,7.822-3.56,26.197-1.263,49.038.791,7.823,1.825,16.168,3.024,24.794Z" fill="#42a99c"/>
    <circle cx="685.076" cy="295.88" r="2.942" fill="#002f4f"/>
    <circle cx="638.001" cy="296.721" r="2.942" fill="#002f4f"/>
    <path d="M666.374,199.14c14.384-3.539,29.901-1.93,43.308,4.355,3.793,1.778,7.398,3.927,10.776,6.403.779.571,1.529-.73.757-1.295-12.212-8.952-27.523-13.46-42.637-12.745-4.249.201-8.472.82-12.603,1.836-.937.231-.54,1.677.399,1.446h0Z" fill="#fbde82"/>
    <path d="M748.497,231.719c10.095,12.799,17.115,27.879,20.476,43.824.199.944,1.645.545,1.446-.399-3.417-16.213-10.604-31.481-20.862-44.486-.597-.757-1.652.31-1.061,1.061h0Z" fill="#fbde82"/>
    <path d="M775.29,300.247c3.689,15.23,5.678,30.827,5.932,46.495.016.964,1.516.967,1.5,0-.256-15.797-2.266-31.539-5.985-46.894-.227-.938-1.674-.541-1.446.399h0Z" fill="#fbde82"/>
    <path d="M756.873,336.043c1.95,11.467,3.9,22.934,5.849,34.401.161.95,1.607.547,1.446-.399-1.95-11.467-3.9-22.934-5.849-34.401-.161-.95-1.607-.547-1.446.399h0Z" fill="#fbde82"/>
    <path d="M785.167,370.69c.812,6.168,1.625,12.337,2.437,18.505" fill="#fbde82"/>
    <path d="M609.696,312.268c.361,14.993.722,29.986,1.084,44.978.023.964,1.523.967,1.5,0-.361-14.993-.722-29.986-1.084-44.978-.023-.964-1.523-.967-1.5,0h0Z" fill="#fbde82"/>
    <path d="M628.719,363.936c1.382,11.228,2.763,22.456,4.145,33.684.116.946,1.618.957,1.5,0-1.382-11.228-2.763-22.456-4.145-33.684-.116-.946-1.618-.957-1.5,0h0Z" fill="#fbde82"/>
    <path d="M646.301,226.305c13.178,10.763,29.046,18.101,45.791,21.142,4.768.866,9.595,1.382,14.438,1.553.965.034.964-1.466,0-1.5-16.674-.588-33.107-5.468-47.43-14.022-4.109-2.454-8.033-5.206-11.739-8.234-.742-.606-1.809.449-1.061,1.061h0Z" fill="#fbde82"/>
  </g>
  <g>
    <path d="M892.525,760.105c0,45.992-15.455,88.327-41.363,121.951-.201.255-.402.51-.603.764-.1.141-.201.28-.314.408-1.633,2.088-3.304,4.139-5.013,6.151-.477.56-.955,1.134-1.445,1.682-25.909,29.816-60.524,51.684-99.802,61.504-1.395.356-2.777.688-4.184.993-6.333,1.439-12.778,2.56-19.337,3.363-1.382.165-2.777.318-4.171.458-6.358.637-12.804.955-19.325.955-49.995,0-95.618-19.015-130.196-50.309-2.613-2.356-5.164-4.802-7.652-7.31-3.468-3.49-6.81-7.12-10.014-10.865-2.991-3.489-5.855-7.094-8.607-10.787-.327-.446-.653-.892-.98-1.338-23.961-32.911-38.121-73.591-38.121-117.621,0-109.482,87.564-198.242,195.57-198.242s195.558,88.76,195.558,198.242Z" fill="#002f4f"/>
    <ellipse cx="651.215" cy="744.093" rx="16.229" ry="16.451" fill="#aa0062"/>
    <ellipse cx="651.215" cy="694.092" rx="16.229" ry="16.451" fill="#aa0062"/>
    <path d="M851.161,882.056c-.201.255-.402.51-.603.764-.1.141-.201.28-.314.408-1.633,2.088-3.304,4.139-5.013,6.151-.477.56-.955,1.134-1.445,1.682.276-1.592.528-3.07.766-4.445.402-2.229.754-4.165,1.043-5.731.339-1.846.591-3.197.741-3.986.1-.497.151-.764.151-.764.98,1.236,1.948,2.471,2.915,3.693.201.242.389.484.565.726.402.509.792,1.006,1.194,1.502Z" fill="#43ad89"/>
    <path d="M850.244,883.229c-1.633,2.088-3.304,4.139-5.013,6.151-.477.56-.955,1.134-1.445,1.682-25.909,29.816-60.524,51.684-99.802,61.504-1.395.356-2.777.688-4.184.993-6.333,1.439-12.778,2.56-19.337,3.363-1.382.165-2.777.318-4.171.458-6.358.637-12.804.955-19.325.955-49.995,0-95.618-19.015-130.196-50.309-2.613-2.356-5.164-4.802-7.652-7.31-3.468-3.49-6.81-7.12-10.014-10.865-2.991-3.489-5.855-7.094-8.607-10.787,2.752-1.847,5.554-3.592,8.393-5.286,21.209-12.57,44.63-21.218,68.767-26.759,8.004-1.834,16.095-3.337,24.2-4.522,1.118-.165,2.224-.318,3.342-.471,16.937-2.305,33.963-3.274,50.561-3.159,15.806.089,31.236,1.146,45.849,2.929,2.023.255,4.021.509,6.006.79h.038c6.76.93,13.344,2.025,19.676,3.235,38.662,7.425,68.415,19.665,79.007,31.077.98,1.044,1.797,2.089,2.425,3.108.616.981,1.081,1.949,1.382,2.904.038.101.063.203.1.318Z" fill="#93ddfc"/>
    <path d="M640.899,845.272s-3.4,47.585,89.579,63.112c0,0,37.585-47.553,17.967-63.112-19.618-15.559-107.546,0-107.546,0Z" fill="#fff"/>
    <path d="M748.454,845.323s0,.17-.167.335c-.827,3.689-8.595,33.176-25.292,36.861-8.595,1.842-18.682-.17-28.927-4.189l-.33-.17c-26.282-10.22-52.894-32.842-52.894-32.842,0,0,11.403-29.322,13.057-65.344.167-3.854.167-7.709.167-11.563-.167-10.39-1.325-20.944-3.802-31.329-.497-1.847-.99-3.52-1.488-5.362,0,0,84.963-2.851,82.318,23.795-1.157,11.393,1.488,27.979,4.797,43.227,1.32,6.7,2.975,13.066,4.462,18.763,3.133,11.567,8.098,27.819,8.098,27.819Z" fill="#fda492"/>
    <path d="M653.879,780.006c-2.455,37.59,31.554,52.81,47.667,53.708,26.395,1.467,39.036-9.354,38.887-16.192-1.524-5.637-3.142-12.085-4.575-18.786l-82.915-65.816-2.677,4.203c2.482,10.399,3.581,20.976,3.775,31.215.077,3.946.023,7.847-.163,11.669Z" fill="#fda492"/>
    <path d="M635.871,686.004l12.944,45.724s14.916,74.203,65.598,85.212c26.983,5.839,45.515-9.038,49.693-21.82,4.178-12.782,11.027-49.203,12.894-73.511,1.411-18.47-2.044-34.675-4.435-44.602l-.014-.046c-.746-3.107-1.37-5.559-1.727-7.337-3.056-14.633-8.654-27.223-16.267-37.402-19.916-26.925-53.242-36.82-86.893-21.531-25.69,11.623-33.62,30.472-35.144,46.407-1.533,15.885,3.35,28.905,3.35,28.905Z" fill="#fda492"/>
    <path d="M714.857,776.156l41.387-5.546s-3.079,18.964-17.868,21.183c-16.756,2.516-23.519-15.637-23.519-15.637Z" fill="#fff"/>
    <path d="M689.447,712.237c.271,0,.538-.055.782-.165,10.53-4.368,27.362-11.439,27.362-11.439l-1.56-3.877s-16.832,7.072-27.362,11.439c-1.049.435-1.564,1.664-1.13,2.727.321.825,1.103,1.316,1.908,1.316Z" fill="#562809"/>
    <path d="M770.92,697.301c.701,0,1.402-.38,1.777-1.036.592-1.008.244-2.291-.723-2.864-.407-.248-9.883-5.816-20.875-5.816-1.13,0-2.075.953-2.075,2.104s.945,2.104,2.075,2.104c9.834,0,18.695,5.156,18.772,5.215.321.188.701.293,1.049.293Z" fill="#562809"/>
    <path d="M730.477,908.385c-93.666,3.57-118.822-41.714-112.805-61.389,6.013-19.675,23.768-16.847,26.011-9.945,2.243,6.902,8.916,36.765,42.405,53.062,33.493,16.301,44.389,18.272,44.389,18.272Z" fill="#fbde82"/>
    <path d="M745.049,833.851c24.853-2.956,28.696,24.849,22.62,42.429-6.076,17.585-37.192,32.104-37.192,32.104,0,0,22.091-27.475,22.642-50.848.167-7.159-4.67-12.264-4.67-12.264l-3.4-11.421Z" fill="#fbde82"/>
    <path d="M720.463,956.921c-1.382.165-2.777.318-4.171.458-3.216-20.136-7.953-38.031-14.877-49.544-.641-1.057-1.294-2.063-1.973-3.019-.666-.93-.465-2.229.452-2.917.302-.229.641-.356.98-.382.565-.089,1.156.089,1.596.484.113.102.226.229.314.356,1.256,1.771,2.45,3.72,3.593,5.833,6.483,12.074,10.994,29.46,14.085,48.73Z" fill="#e7f4fd"/>
    <path d="M748.683,896.308c-.113.51-.239,1.032-.339,1.554-3.053,14.112-4.259,33.598-4.36,54.703-1.395.356-2.777.688-4.184.993.075-19.716,1.093-38.171,3.656-52.436.364-2.025.754-3.961,1.181-5.808.264-1.121,1.433-1.745,2.501-1.554,1.106.268,1.784,1.401,1.545,2.547Z" fill="#e7f4fd"/>
    <path d="M739.249,761.623c3.689,0,7.944-1.283,10.693-3.057,3.097-2.017,3.716-4.23,3.689-5.706-.054-2.291-1.347-5.458-3.287-10.293-1.75-4.368-3.933-9.831-5.792-16.187l-3.929,1.146c1.912,6.577,4.146,12.15,5.95,16.6,1.587,3.932,2.934,7.314,2.961,8.822.027.573-.674,1.393-1.804,2.126-3.26,2.131-8.997,3.029-11.285,1.938l-1.777,3.712c1.293.628,2.88.898,4.58.898Z" fill="#f28373"/>
    <path d="M550.311,873.37l-1.206,16.481c-2.991-3.489-5.855-7.094-8.607-10.787-.327-.446-.653-.892-.98-1.338,3.179-1.669,6.308-2.993,9.373-3.948.477-.14.955-.28,1.42-.407Z" fill="#93ddfc"/>
    <ellipse cx="756.512" cy="712.727" rx="2.897" ry="2.937" fill="#002f4f"/>
    <ellipse cx="712.918" cy="718.88" rx="2.897" ry="2.937" fill="#002f4f"/>
    <path d="M653.443,757.593c-9.745,2.593-30.181,12.061-39.373-5.745-4.671-9.049-4.621-20.747,1.839-28.585-10.88-4.446-18.505-16.051-18.359-27.941.146-11.89,8.052-23.299,19.037-27.47-3.9-7.562-4.487-16.804-1.577-24.811,2.911-8.007,9.274-14.653,17.082-17.841,5.817-2.376,12.319-2.904,17.861-5.88,7.822-4.201,12.512-12.563,19.325-18.292,9.549-8.031,23.486-10.298,35.034-5.697,8.946,3.564,16.182,10.756,25.25,13.985,7.564,2.693,15.818,2.424,23.672,4.057,21.056,4.378,38.126,23.892,39.894,45.607-2.767-1.903-5.535-3.805-8.302-5.708,1.7,5.447-2.264,11.573-7.595,13.427-5.331,1.855-11.364.162-16.024-3.052-4.66-3.214-8.212-7.788-11.686-12.287-19.223,12.565-46.52,10.649-63.851-4.482.041,8.822-4.036,17.575-10.782,23.149-6.746,5.574-16.025,7.858-24.542,6.039,2.046,9.293-2.381,19.264-11.758,19.832" fill="#aa0062"/>
    <path d="M657.094,712.113c-3.603-15.454-21.476-20.766-29.899-11.737-8.428,9.028,3.287,35.243,22.674,41.105,10.444,3.167,13.252-3.533,7.225-29.368Z" fill="#fda492"/>
    <path d="M652.07,717.333c-5.882-18.392-18.537-15.72-20.856-11.338-2.315,4.381,3.658,4.794,8.654,8.657,4.991,3.864-.167,15.037,6.289,16.219,3.5.632,8.048-6.861,5.914-13.538Z" fill="#f28373"/>
    <path d="M644.515,671.177c5.268,9.516,16.309,15.404,27.029,14.416,10.72-.989,20.532-8.801,24.019-19.124,7.293,6.414,17.267,9.585,26.867,8.542,9.6-1.043,18.685-6.284,24.471-14.119,5.21,8.902,14.797,15.017,24.969,15.927,7.742.692,16.533-2.258,19.81-9.401,2.883-6.284.557-14.063-4.076-19.158-4.634-5.095-11.146-7.979-17.631-10.172-24.869-8.411-51.608-8.597-77.824-8.701-8.368-.033-16.806-.059-25.002,1.653-8.195,1.712-16.236,5.313-21.917,11.541-5.681,6.227-8.641,15.35-6.255,23.48" fill="#aa0062"/>
    <path d="M631.319,659.512c-.858-5.685.793-11.736,4.574-16.095,3.645-4.203,9.023-6.667,14.575-6.743.964-.013.967-1.513,0-1.5-6.046.083-11.99,2.804-15.879,7.467-3.992,4.787-5.643,11.132-4.717,17.269.144.951,1.589.547,1.446-.399h0Z" fill="#b92e7e"/>
    <path d="M704.139,648.493c3.394,4.463,8.237,7.734,13.738,8.955,5.866,1.303,12.073.205,17.209-2.881.827-.497.073-1.794-.757-1.295-9.603,5.77-22.108,3.388-28.895-5.536-.577-.758-1.88-.012-1.295.757h0Z" fill="#b92e7e"/>
    <path d="M761.811,655.584c5.682,4.472,14.125,2.76,17.333-3.833,3.783-7.778-2.07-15.374-6.957-20.977-.636-.729-1.693.336-1.061,1.061,4.262,4.886,9.624,11.375,7.072,18.338-2.284,6.231-10.113,8.454-15.327,4.351-.75-.591-1.819.464-1.061,1.061h0Z" fill="#b92e7e"/>
    <path d="M681.67,623.074c2.14-3.989,6.526-6.226,10.96-6.463,5.479-.293,10.68,2.016,15.343,4.657,4.587,2.598,8.951,5.569,13.846,7.585,4.574,1.884,9.437,3.025,14.365,3.431,5.645.465,11.348-.092,16.804-1.607.929-.258.534-1.706-.399-1.446-10.257,2.849-21.423,2.121-31.183-2.171-9.511-4.183-18.355-13.01-29.497-11.892-4.703.472-9.252,2.897-11.534,7.15-.456.85.838,1.609,1.295.757h0Z" fill="#b92e7e"/>
    <path d="M655.697,662.796c7.932,6.172,19.378,4.94,25.669-2.966.595-.748-.46-1.816-1.061-1.061-5.732,7.204-16.208,8.677-23.548,2.966-.753-.586-1.822.468-1.061,1.061h0Z" fill="#b92e7e"/>
    <path d="M614.877,682.011c-6.089,7.585-6.593,18.308-1.089,26.37.541.793,1.841.043,1.295-.757-5.097-7.465-4.829-17.473.854-24.552.599-.746-.456-1.814-1.061-1.061h0Z" fill="#b92e7e"/>
    <path d="M619.991,733.549c-.096,9.712,5.852,18.524,14.953,21.942.905.34,1.296-1.11.399-1.446-8.475-3.183-13.942-11.492-13.852-20.495.01-.965-1.49-.966-1.5,0h0Z" fill="#b92e7e"/>
  </g>
  <g>
    <path d="M939.346,760.471c0,54.92,22.292,104.635,58.315,140.58,5.104,5.092,10.489,9.915,16.129,14.432,1.174.945,2.361,1.876,3.56,2.794,1.365,1.047,2.731,2.067,4.122,3.063,2.016,1.467,4.071,2.896,6.151,4.3,2.846,1.902,5.742,3.727,8.69,5.487,12.058,7.196,24.946,13.156,38.485,17.686,19.842,6.661,41.076,10.259,63.151,10.259,42.505,0,81.883-13.347,114.179-36.086,2.195-1.545,4.351-3.127,6.482-4.747.766-.587,1.518-1.187,2.271-1.786,7.822-6.163,15.172-12.914,21.973-20.174,1.085-1.148,2.144-2.297,3.19-3.471,31.416-35.129,50.518-81.5,50.518-132.337,0-109.688-88.927-198.601-198.614-198.601-109.688,0-198.602,88.914-198.602,198.601Z" fill="#002f4f"/>
    <polyline points="1196.894 829.266 1057.955 815.68 1061.777 791.803 1182.307 784.251 1196.894 829.266" fill="#bfcdd9"/>
    <path d="M997.661,901.051c5.104,5.092,10.489,9.915,16.129,14.432,1.174.945,2.361,1.876,3.56,2.794,1.365,1.047,2.731,2.067,4.122,3.063,2.016,1.467,4.071,2.896,6.151,4.3,2.846,1.902,5.742,3.727,8.69,5.487l-.408-15.874-1.123-44.495-.23-9.098-.281-11.204c-2.616,2.897-5.206,5.908-7.733,9.021-10.259,12.531-19.893,26.682-28.877,41.573Z" fill="#d073a9"/>
    <path d="M1013.79,915.483c1.174.945,2.361,1.876,3.56,2.794,1.365,1.047,2.731,2.067,4.122,3.063,2.016,1.467,4.071,2.896,6.151,4.3,2.846,1.902,5.742,3.727,8.69,5.487,12.058,7.196,24.946,13.156,38.485,17.686,19.842,6.661,41.076,10.259,63.151,10.259,42.505,0,81.883-13.347,114.179-36.086,2.195-1.545,4.351-3.127,6.482-4.747.766-.587,1.518-1.187,2.271-1.786,7.822-6.163,15.172-12.914,21.973-20.174.051-3.688-.281-6.839-1.046-9.367-.268-.88-.587-1.684-.957-2.399-8.83-16.959-63.151-34.006-100.934-44.061-2.896-.766-5.691-1.493-8.358-2.17-16.818-4.3-28.698-6.852-28.698-6.852,0,0-13.641.536-31.735,2.309-5.449.536-11.293,1.187-17.303,1.965-21.846,2.846-45.707,7.439-59.552,14.751-2.871,1.506-5.436,4.619-7.733,9.021-6.048,11.586-10.183,32.118-12.748,56.005Z" fill="#d073a9"/>
    <path d="M1027.622,925.641c2.846,1.902,5.742,3.727,8.69,5.487,12.058,7.196,24.946,13.156,38.485,17.686-9.532-29.821-20.404-54.168-20.404-54.168-6.431,6.649-12.645,13.552-18.49,20.608-2.858,3.432-5.614,6.903-8.281,10.386Z" fill="#d073a9"/>
    <path d="M1260.881,916.453c7.822-6.163,15.172-12.914,21.973-20.174,1.085-1.148,2.144-2.297,3.19-3.471-1.429-2.105-2.846-4.083-4.237-5.895-2.884-3.789-5.691-6.942-8.371-9.34-.293-.255-.574-.51-.855-.74-.459-.396-.919-.753-1.365-1.097,0,0-.102.307-.281.88v.013c-.957,3.011-4.172,13.474-7.477,27.805-.868,3.764-1.736,7.783-2.578,12.02Z" fill="#d073a9"/>
    <path d="M1169.037,832.157c28.309,10.709,11.795,57.191,1.286,57.658-10.509.47-38.432-27.67-38.432-27.67,0,0-43.822,18.353-50.581,12.792-6.759-5.557-4.451-36.682,27.858-47.158,0,0,31.56-6.336,59.869,4.378Z" fill="#c2478d"/>
    <path d="M1127.618,763.068l69.277,66.198c5.777-9.876,80.049-146.814-7.475-194.799l-61.802,128.601Z" fill="#bfcdd9"/>
    <path d="M1174.569,746.668l-5.097,57.002,8.378,7.398s1.518-22.669,14.483-35.825,16.596-31.446-.03-45.702l-17.735,17.128Z" fill="#bfcdd9"/>
    <path d="M1177.566,755.024c.02-2.116-1.24-1.957-1.198-3.941.077-5.227.038-9.997-.109-13.918-1.284-31.687-66.18,19.532-66.18,19.532,1.605,10.017,2.459,19.862,2.854,29.108.641,15.344-.026,28.997-.913,39.146-.962,11.092-2.146,17.942-2.146,17.942h0c13.222,15.012,34.709,19.617,52.924,11.345l7.473-3.391s6.313-58.547,7.296-95.824Z" fill="#fda492"/>
    <path d="M1176.363,751.083l-43.865,4.592s-10.712,14.43-19.57,30.13c.641,15.344-.026,28.997-.913,39.146,26.608-6.904,55.08-24.163,65.497-68.161.021-2.12-1.194-3.723-1.149-5.707Z" fill="#fda492"/>
    <path d="M1175.196,707.83c-7.471,70.646-117.241,107.85-117.241,107.85,0,0-35.868-51.476-33.287-101.641,4.607-89.581,83.878-136.28,146.721-72.531,0,0,11.278-4.324,3.807,66.322Z" fill="#bfcdd9"/>
    <path d="M1122.505,633.477c44.722-.885,65.478,65.68,65.478,65.68,0,0-1.806,29.7-12.493,58.232-8.314,22.189-46.516,61.918-70.353,59.346-16.701-1.806-41.697-30.959-50.651-69.407-1.637-7.026,3.378-16.172,3.194-24.306-.205-9.025-5.418-17.168-3.35-27.509,3.621-18.125,12.648-34.947,26.965-46.635,10.037-8.199,23.641-15.057,41.21-15.401Z" fill="#fda492"/>
    <path d="M1211.892,650.328c34.623,44.54-31.912,93.341-31.912,93.341,0,0-104.888-64.925-76.412-131.331,0,0,69.46-12.008,108.324,37.99Z" fill="#bfcdd9"/>
    <path d="M1184.48,725.114c-7.877-1.327-15.469,4.773-16.957,13.623-1.492,8.853,3.69,17.099,11.562,18.426,7.877,1.323,15.469-4.774,16.957-13.627,1.491-8.849-3.686-17.098-11.563-18.422Z" fill="#fda492"/>
    <path d="M1100.736,767.544c.944-.229,1.537-1.151,1.312-2.091-.206-.938-1.156-1.491-2.065-1.329-2.72.597-8.885,1.104-9.71-1.265-.835-2.489-.263-6.893.365-11.594.683-5.212,1.462-11.12.603-16.409-.153-.955-1.029-1.567-2.006-1.436-.959.152-1.593,1.046-1.44,2.006.795,4.785.043,10.416-.611,15.398-.696,5.329-1.312,9.918-.187,13.188.929,2.708,3.569,3.724,6.334,4.024,3.322.36,6.76-.349,7.406-.491Z" fill="#f28373"/>
    <path d="M1112.816,709.591c7.122.46,19.934,7.135,19.934,7.135,0,0-5.926-7.672-14.962-10.06-10.999-2.908-16.009,5.137-16.009,5.137,0,0,3.92-2.68,11.037-2.212Z" fill="#bfcdd9"/>
    <path d="M1060.374,712.95c8.62-2.695,17.908,1.148,17.908,1.148,0,0-5.533-5.661-15.544-4.797-12.189,1.05-11.06,10.356-11.06,10.356,0,0,1.359-4.421,8.696-6.707Z" fill="#bfcdd9"/>
    <path d="M1181.923,739.169c1.947-4.5,8.027-1.884,7.748-6.262-.275-4.381-14.648-4.763-14.318,7.802.129,4.89,4.626,2.959,6.57-1.54Z" fill="#f28373"/>
    <path d="M1099.095,950.321l34.896-85.636c.483-1.218-.098-2.595-1.309-3.104-1.248-.605-2.615.068-3.101,1.309l-34.9,85.636c-.483,1.218.094,2.594,1.309,3.104.203.093.43.142.641.164,1.026.111,2.05-.464,2.464-1.473Z" fill="#c2478d"/>
    <path d="M1252.127,922.987c2.195-1.545,4.351-3.127,6.482-4.747,1.582-4.836,3.241-9.507,4.849-13.806,5.257-13.998,10.042-24.22,10.17-24.5.383-.791.281-1.684-.191-2.361-.217-.306-.498-.561-.855-.74-.026-.026-.064-.038-.089-.051-.51-.242-1.059-.28-1.557-.166v.013c-.689.153-1.289.612-1.595,1.288-.791,1.646-10.348,22.075-17.214,45.07Z" fill="#c2478d"/>
    <path d="M1059.743,650.147c14.327-28.086,43.82-37.81,43.82-37.81l7.943,58.809s-38.123-2.277-56.986,23.12c0,0-5.046-23.984,5.223-44.119Z" fill="#bfcdd9"/>
    <path d="M1184.779,767.491c1.209.017,2.078-1.159,1.702-2.309l-3.191-9.762-3.481,9.663c-.411,1.139.421,2.342,1.63,2.358l3.34.05Z" fill="#fded97"/>
    <path d="M1183.73,751.507c-2.156-.234-4.101,1.331-4.335,3.491-.234,2.157,1.327,4.101,3.487,4.335,2.16.234,4.101-1.327,4.335-3.487s-1.33-4.105-3.487-4.339Z" fill="#fded97"/>
    <path d="M1017.35,918.278c1.365,1.047,2.731,2.067,4.122,3.063l13.309-50.582,1.621-6.15c.319-1.251-.434-2.552-1.71-2.91-.051-.012-.089-.038-.141-.038-1.174-.383-2.424.51-2.769,1.748l-14.432,54.869Z" fill="#c2478d"/>
    <circle cx="1112.67" cy="724.994" r="2.942" fill="#002f4f"/>
    <circle cx="1070.361" cy="727.432" r="2.942" fill="#002f4f"/>
    <path d="M1087.31,782.922s5.736,1.216,11.407.898c6.232-.348,14.577-4.223,14.577-4.223,0,0-3.182,12.7-13.257,14.078-10.072,1.382-9.758-6.995-9.758-6.995-1.858-.79-2.818-2.547-2.969-3.759Z" fill="#fff"/>
    <path d="M1129.225,651.948c7.062,15.724,18.699,29.262,33.081,38.748,4.076,2.688,8.371,5.03,12.831,7.016.874.389,1.638-.903.757-1.295-15.631-6.959-29.125-18.444-38.529-32.739-2.613-3.972-4.897-8.15-6.845-12.487-.395-.879-1.688-.117-1.295.757h0Z" fill="#e8edf1"/>
    <path d="M1118.13,631.895c18.776-3.947,38.859-.271,55.231,9.663,16.526,10.028,28.301,26.443,33.222,45.077,2.75,10.412,3.329,21.384,1.491,32.004-.163.944,1.282,1.35,1.446.399,3.34-19.3-1.065-39.648-11.808-56.002-10.821-16.472-27.971-27.927-47.147-32.258-10.778-2.435-22.015-2.603-32.834-.329-.944.198-.545,1.645.399,1.446h0Z" fill="#e8edf1"/>
  </g>
  <g>
    <path d="M1336.556,330.822c0,46.423-15.925,89.119-42.62,122.933-4.083,5.181-8.422,10.157-13.003,14.904-1.353,1.417-2.731,2.808-4.147,4.186-.765.74-1.531,1.48-2.31,2.22-5.091,4.824-10.438,9.379-16.027,13.654-33.42,25.546-75.184,40.718-120.496,40.718-67.451,0-127.042-33.624-162.937-85.035-1.646-2.361-3.241-4.747-4.798-7.184-.893-1.417-1.774-2.846-2.641-4.288-.765-1.276-1.518-2.552-2.246-3.841-1.365-2.386-2.693-4.823-3.943-7.274-14.087-27.256-22.037-58.2-22.037-90.994,0-109.675,88.914-198.601,198.602-198.601s198.602,88.927,198.602,198.601Z" fill="#002f4f"/>
    <path d="M967.578,432.93c.868,1.442,1.748,2.871,2.641,4.287,1.557,2.437,3.152,4.823,4.798,7.184,35.895,51.411,95.486,85.035,162.937,85.035,45.312,0,87.076-15.172,120.496-40.718,5.589-4.275,10.936-8.83,16.027-13.654-4.185-30.433-8.498-50.263-8.498-50.263-24.194-10.68-53.785-17.979-85.099-22.343-4.173-.587-8.358-1.123-12.582-1.595-1.735-.191-3.445-.383-5.181-.561h-.013c-6.572-.676-13.181-1.238-19.804-1.672,0,0-.013.013-.013,0-1.608-.115-3.216-.217-4.823-.306h-.013c-22.28-1.302-44.597-1.289-65.767-.115h-.013c-47.609,2.629-89.31,11.076-111.283,23.607,1.251,2.45,2.578,4.887,3.943,7.273l2.246,3.841Z" fill="#24557d"/>
    <path d="M1174.079,361.087c.423,10.455-4.968,30.874-5.385,33.379-.418,2.505-1.097,27.874-1.097,27.874,0,0-3.554,13.174-44.113,12.756-40.559-.418-53.518-28.435-53.518-28.435,0,0,13.8-42.652,23.771-75.232,0,0,79.932,19.197,80.343,29.657Z" fill="#fda492"/>
    <path d="M1101.059,309.561c6.84-2.535,15.38-2.696,21.189-11.075,1.324-.376,2.129-.399,2.129-.399l38.728,52.612,6.715,9.339,6.101,7.884c.09,4.67,1.223,13.746,1.67,17.503-2.899,2.039-5.749,5.707-8.892,9.041-4.014,4.604-8.272,9.071-11.892,9.274-25.584,1.282-55.522-39.712-63.072-72.31,2.57-8.283,5.028-15.512,7.324-21.869Z" fill="#fda492"/>
    <path d="M1101.948,271.948s-19.149-8.027-25.244,13.514c-6.518,23.038,29.556,34.077,29.556,34.077,0,0,4.699,34.822,16.513,52.6,21.249,31.965,37.971,7.484,84.965-12.709,13.347-5.731,15.678-25.322,14.712-42.313-.984-17.348,7.628-27.016,7.807-30.898,2.374-51.02-20.545-100.447-83.164-90.201-64.241,10.502-45.145,75.93-45.145,75.93Z" fill="#fda492"/>
    <path d="M1097.219,304.731c-8.326,1.568-3.632-8.755-7.556-14.623-3.918-5.868-8.135-1.855-6.733-7.21,1.396-5.355,16.191-7.884,19.03,6.25,0,0,3.578,14.015-4.741,15.583Z" fill="#f28373"/>
    <path d="M1213.958,299.87c-8.54-1.145-12.136-3.34-9.542-7.186,2.594-3.853,24.767,1.95,23.789,10.973-.268,2.511-5.707-2.636-14.248-3.787Z" fill="#6a5b7e"/>
    <path d="M1180.531,293.751c-1.873,2.839-9.846-.012-17.581.763-6.154.614-13.012,2.165-12.571.656,1.837-6.345,23.294-11.045,29.103-6.852,0,0,2.916,2.6,1.049,5.433Z" fill="#6a5b7e"/>
    <path d="M1181.271,342.04c-1.705-1.175-2.713-2.982-2.988-5.355-.078-.793.495-1.521,1.288-1.61.805-.072,1.521.489,1.61,1.288.173,1.509.74,2.588,1.736,3.286,2.457,1.7,6.608.674,6.608.686h0c7.138-2.045,4.932-17.14,3.483-22.793-.203-.775.274-1.574,1.05-1.771.751-.197,1.574.274,1.771,1.05.238.942,5.802,23.08-5.552,26.33-.113.036-1.58.394-3.465.394-1.741,0-3.835-.316-5.54-1.503Z" fill="#f28373"/>
    <path d="M1109.003,213.903c-22.626,17.987-7.055,58.051-7.055,58.051l6.608,15.559,6.322-.716s.793-49.499,58.385-64.796c0,0-41.627-26.091-64.259-8.099Z" fill="#6a5b7e"/>
    <path d="M1152.969,235.421c-32.356-5.359-52.866,1.637-52.866,1.637-2.614-3.082-4.004-9.412,3.296-20.186,15.528-22.91,73.519-43.33,115.666-16.76,40.523,25.545,50.031,66.433,19.278,72.198-35.088,6.584-53.017-31.531-85.373-36.89Z" fill="#6a5b7e"/>
    <path d="M1206.688,359.358c-4.676-.65-13.317-9.464-28.978-11.516-14.635-1.92-23.246,4.67-43.088,1.169-19.841-3.501-28.357-29.473-28.357-29.473,0,0,2.63,74.159,50.626,84.184,36.415,7.604,61.695-26.592,65.333-71.028-1.324,11.289-9.649,27.487-15.536,26.664Z" fill="#6a5b7e"/>
    <path d="M1157.303,360.873c19.286-3.25,35.013,7.705,35.013,7.705,0,0-7.425,12.631-19.865,10.604-16.179-2.642-15.148-18.309-15.148-18.309Z" fill="#fff"/>
    <path d="M1293.94,453.758c-4.083,5.18-8.422,10.157-13.003,14.904-1.353,1.417-2.731,2.808-4.147,4.186-.766.74-1.531,1.48-2.31,2.22-5.091,4.824-10.438,9.379-16.027,13.654,4.198-37.988,7.529-63.917,7.529-63.917,9.468,6.482,18.847,16.448,27.958,28.954Z" fill="#24557d"/>
    <circle cx="1166.753" cy="308.239" r="2.942" fill="#002f4f"/>
    <circle cx="1210.325" cy="311.068" r="2.942" fill="#002f4f"/>
    <path d="M1147.731,215.535c27.801,3.839,45.723,29.28,72.035,36.939,7.206,2.097,14.826,2.756,22.196,1.143.943-.206.544-1.653-.399-1.446-13.561,2.967-27.219-2.118-38.766-8.976-11.608-6.894-21.975-15.729-33.948-22.032-6.494-3.419-13.423-6.067-20.721-7.074-.944-.13-1.352,1.315-.399,1.446h0Z" fill="#5d4c72"/>
  </g>
  <circle cx="575.968" cy="167.448" r="28.928" fill="#fad45c"/>
  <circle cx="575.968" cy="167.448" r="21.226" fill="#fdecb8"/>
  <path d="M570.412,174.085h4.141v-12.666l-3.928,1.127-.974-3.136,6.272-1.857h2.831v16.533h3.532v3.258h-11.875v-3.258Z" fill="#003967"/>
  <circle cx="1024.896" cy="167.448" r="28.928" fill="#fad45c"/>
  <circle cx="1024.896" cy="167.448" r="21.226" fill="#fdecb8"/>
  <path d="M1019.339,174.085h4.141v-12.666l-3.928,1.127-.974-3.136,6.272-1.857h2.831v16.533h3.532v3.258h-11.875v-3.258Z" fill="#003967"/>
  <circle cx="575.968" cy="611.501" r="28.928" fill="#fad45c"/>
  <circle cx="575.968" cy="611.501" r="21.226" fill="#fdecb8"/>
  <path d="M570.412,618.139h4.141v-12.666l-3.928,1.127-.974-3.136,6.272-1.857h2.831v16.533h3.532v3.258h-11.875v-3.258Z" fill="#003967"/>
  <circle cx="1024.896" cy="611.501" r="28.928" fill="#fad45c"/>
  <circle cx="1024.896" cy="611.501" r="21.226" fill="#fdecb8"/>
  <path d="M1019.339,618.139h4.141v-12.666l-3.928,1.127-.974-3.136,6.272-1.857h2.831v16.533h3.532v3.258h-11.875v-3.258Z" fill="#003967"/>
</svg>