<?xml version="1.0" encoding="UTF-8"?>
<svg id="a" data-name="Layer 1" xmlns="http://www.w3.org/2000/svg" viewBox="712.77 152.57 328.36 730.49" preserveAspectRatio="xMidYMid meet">
  <polygon points="768.662 849.859 768.662 419.274 745.979 405.541 745.979 824.071 745.979 836.118 768.662 849.859" fill="#bc3683"/>
  <path d="M867.879,210.488c4.821-10.152,17.438-13.793,26.929-7.774,0,0-16.427-10.04-22.735-14.58-7.329-5.275-21.204-2.075-28.602,13.404-7.394,15.471-97.492,204.003-97.492,204.003l22.683,13.733,99.217-208.786Z" fill="#c44f92"/>
  <path d="M843.605,557c8.777-4.8,13.067-17.451,13.067-34.557,0-15.462-3.676-25.408-13.274-20.158-9.193,5.025-13.482,19.553-13.482,34.781,0,15.93,4.696,24.846,13.69,19.934Z" fill="#c95c9a"/>
  <path d="M939.216,568c8.777-4.8,13.067-17.451,13.067-34.556,0-15.463-3.468-25.512-13.067-20.271-9.401,5.137-13.491,19.562-13.491,34.79-.198,16.042,4.497,24.958,13.491,20.037Z" fill="#c95c9a"/>
  <path d="M867.879,210.488l-99.217,208.786v430.585l239.264-144.791v-430.577l-113.118-71.777c-9.491-6.019-22.108-2.378-26.929,7.774ZM879.762,508.182c0,31.868-17.573,58.106-36.779,68.604-20.218,11.052-36.157,2.421-36.157-26.169,0-27.18,14.511-55.726,37.186-68.119,22.882-12.505,35.75-.32,35.75,25.684ZM975.372,519.182c0,31.868-17.572,58.114-36.779,68.604-20.02,10.948-35.958,2.317-36.157-26.169,0-27.171,14.511-55.718,37.177-68.11,22.891-12.514,35.759-.329,35.759,25.675ZM937.572,431.363l-76.404,199.212-16.544,9.046,76.196-199.109,16.751-9.149ZM912.437,259.298c0,16.405-9.759,29.696-21.792,29.696s-21.797-13.292-21.797-29.696,9.759-29.689,21.797-29.689,21.792,13.292,21.792,29.689Z" fill="#c95c9a"/>
  <path d="M868.848,259.298c0,16.405,9.759,29.696,21.797,29.696s21.792-13.292,21.792-29.696-9.759-29.689-21.792-29.689-21.797,13.292-21.797,29.689Z" fill="#bc3683"/>
  <path d="M806.826,550.617c0,28.59,15.938,37.22,36.157,26.169,19.206-10.498,36.779-36.736,36.779-68.604,0-26.004-12.868-38.189-35.75-25.684-22.675,12.393-37.186,40.939-37.186,68.119ZM843.398,502.285c9.598-5.25,13.274,4.696,13.274,20.158,0,17.105-4.29,29.757-13.067,34.557-8.993,4.912-13.69-4.004-13.69-19.934,0-15.229,4.29-29.757,13.482-34.781Z" fill="#fff"/>
  <path d="M902.436,561.618c.199,28.486,16.137,37.116,36.157,26.169,19.207-10.49,36.779-36.736,36.779-68.604,0-26.004-12.868-38.189-35.759-25.675-22.666,12.392-37.177,40.939-37.177,68.11ZM939.216,513.172c9.599-5.241,13.067,4.808,13.067,20.271,0,17.105-4.29,29.757-13.067,34.556-8.994,4.921-13.69-3.995-13.491-20.037,0-15.229,4.09-29.653,13.491-34.79Z" fill="#fff"/>
  <polygon points="861.169 630.576 937.572 431.363 920.821 440.513 844.625 639.621 861.169 630.576" fill="#fff"/>
</svg>