<?xml version="1.0" encoding="UTF-8"?>
<svg id="a" data-name="Layer 1" xmlns="http://www.w3.org/2000/svg" viewBox="469.99 224.31 1049.88 741.51" preserveAspectRatio="xMidYMid meet">
  <polygon points="1472.142 692.023 1080.567 918.099 517.709 593.132 909.282 367.058 1472.142 692.023" fill="#002f4f"/>
  <polygon points="1459.121 663.166 1080.093 881.998 535.269 567.444 914.296 348.613 1459.121 663.166" fill="#eeccdf"/>
  <polygon points="1177.219 534.741 857.655 719.241 844.275 711.517 1163.841 527.016 1177.219 534.741" fill="#c2478d"/>
  <polygon points="1208.466 552.78 888.9 737.282 875.522 729.557 1195.087 545.057 1208.466 552.78" fill="#c2478d"/>
  <polygon points="1146.728 517.136 827.165 701.638 813.785 693.913 1133.349 509.413 1146.728 517.136" fill="#c2478d"/>
  <polygon points="1239.711 570.821 920.147 755.321 906.768 747.597 1226.333 563.096 1239.711 570.821" fill="#c2478d"/>
  <polygon points="762.317 515.546 649.47 580.697 636.091 572.974 748.937 507.822 762.317 515.546" fill="#c2478d"/>
  <polygon points="793.562 533.586 680.716 598.738 667.338 591.014 780.184 525.861 793.562 533.586" fill="#c2478d"/>
  <polygon points="824.809 551.625 711.963 616.778 698.583 609.053 811.43 543.902 824.809 551.625" fill="#c2478d"/>
  <polygon points="856.055 569.666 743.208 634.817 729.83 627.094 842.676 561.941 856.055 569.666" fill="#c2478d"/>
  <polygon points="887.3 587.705 774.455 652.858 761.076 645.133 873.922 579.981 887.3 587.705" fill="#c2478d"/>
  <path d="M1310.113,686.832l-134.21,77.485c-.532.308-1.337.341-1.797.075h0c-.462-.267-.404-.731.128-1.037l134.21-77.487c.532-.306,1.337-.34,1.797-.074h0c.462.266.404.731-.128,1.038Z" fill="#c2478d"/>
  <path d="M1126.648,748.239c4.815.277,9.61-.723,14.015-2.646,4.291-1.873,8.21-4.737,11.27-8.283,1.746-2.023,3.247-4.256,4.389-6.674l-2.337.301c4.256,3.76,10.095,5.668,15.755,5.094,2.824-.286,5.542-1.122,8.005-2.543,2.292-1.322,4.341-3.104,5.968-5.19,1.9-2.436,3.31-5.239,3.963-8.271l-2.72.356c2.623,3.851,7.947,4.021,11.806,2.066,2.095-1.062,3.817-2.833,5.253-4.659,1.543-1.961,2.875-4.071,4.372-6.066.085-.113.17-.226.256-.338.043-.056.084-.114.129-.168-.216.265-.085.109-.038.05.196-.25.393-.5.592-.747.399-.494.807-.981,1.224-1.461.81-.933,1.652-1.838,2.523-2.714s1.773-1.722,2.702-2.536c.465-.407.936-.806,1.414-1.197.232-.19.466-.378.701-.564.111-.088.222-.174.333-.261.208-.163-.018.012-.05.038.081-.067.168-.129.252-.193,1.884-1.43,3.865-2.706,5.899-3.909,1.797-1.063,3.608-2.106,5.339-3.275,3.438-2.323,6.818-5.294,7.904-9.467.146-.562.23-1.134.302-1.71l-2.239,1.285c4.421,2.104,9.319,2.981,14.201,2.698,4.96-.288,9.782-1.647,14.272-3.744,4.537-2.119,8.617-5.074,12.25-8.507,3.766-3.559,7.033-7.619,9.998-11.859,2.942-4.207,5.58-8.617,8.153-13.056.318-.549.636-1.099.953-1.649.389-.675.18-1.659-.534-2.036-.71-.375-1.621-.187-2.036.534-2.527,4.383-5.085,8.755-7.908,12.956-.709,1.055-1.434,2.099-2.18,3.128-.361.499-.728.995-1.099,1.487-.18.238-.359.478-.544.713.249-.316-.066.084-.123.157-.108.138-.217.276-.326.414-1.555,1.962-3.202,3.854-4.96,5.638-.872.885-1.771,1.743-2.698,2.57-.471.42-.95.832-1.436,1.235-.23.191-.461.38-.695.566-.11.088-.22.176-.331.263-.068.054-.137.107-.205.16-.145.114.247-.188.03-.023-1.891,1.436-3.888,2.724-5.988,3.832-.513.27-1.031.53-1.554.779-.254.121-.51.239-.766.355-.136.061-.272.122-.408.182-.061.027-.121.053-.182.079-.044.019-.367.161-.142.062.203-.089,0,0-.051.021-.076.032-.153.063-.229.095-.122.05-.245.099-.368.148-.276.11-.554.216-.833.32-.557.207-1.118.401-1.683.583-1.125.361-2.267.671-3.421.926-.574.126-1.15.239-1.73.336-.257.043-.514.084-.771.121-.08.012-.161.023-.241.034-.202.029.309-.039.106-.014-.161.02-.322.041-.483.059-2.284.262-4.597.289-6.883.035-.127-.014-.254-.029-.381-.045-.037-.005-.356-.04-.087-.011.236.026.02.002-.04-.006-.3-.043-.6-.092-.899-.145-.566-.101-1.13-.22-1.689-.357-1.108-.272-2.198-.617-3.259-1.034-.136-.053-.27-.109-.405-.163-.182-.074-.014.054.087.037-.027.004-.168-.072-.179-.077-.269-.117-.535-.239-.8-.365-.492-.234-1.013-.286-1.502,0-.496.29-.669.745-.737,1.285.061-.482.012-.093-.007.024-.02.124-.043.247-.068.371-.047.229-.101.457-.164.682-.062.222-.131.442-.208.66-.036.102-.074.203-.113.303-.02.05-.041.1-.06.15-.065.171.146-.328.04-.096-.19.414-.394.819-.628,1.21-.117.196-.24.388-.369.576-.061.089-.122.177-.185.265-.041.057-.317.419-.15.207.17-.216-.079.097-.111.137-.069.085-.139.169-.209.252-.16.188-.325.373-.494.553-.324.346-.663.679-1.014.999-.357.327-.726.641-1.104.944-.09.072-.18.144-.271.215-.083.065-.27.173.061-.047-.048.032-.093.071-.139.105-.198.15-.397.296-.598.441-3.437,2.475-7.271,4.328-10.727,6.776-4.009,2.838-7.657,6.179-10.786,9.968-1.559,1.888-2.943,3.894-4.348,5.896-.331.471-.666.94-1.01,1.401-.091.122-.183.243-.275.364-.053.069-.133.225.047-.061-.034.055-.085.109-.125.159-.177.224-.357.446-.541.664-.739.879-1.541,1.709-2.434,2.433-.05.04-.112.08-.156.124.026-.026.272-.203.064-.05-.108.079-.215.159-.324.236-.225.159-.455.311-.692.452-.187.111-.378.216-.572.313-.098.049-.197.096-.296.142-.05.023-.1.045-.15.067-.279.126.339-.13.051-.023-.441.164-.883.314-1.341.424-.215.051-.431.096-.649.132-.054.009-.109.017-.163.026-.243.041.135-.019.15-.019-.136.005-.273.031-.409.042-.46.038-.922.042-1.382.008-.107-.008-.213-.02-.32-.03-.243-.022.145.02.158.023-.051-.011-.106-.016-.157-.024-.234-.038-.466-.087-.695-.148-.201-.053-.4-.115-.596-.186-.049-.018-.097-.037-.145-.055-.221-.08.129.055.141.062-.112-.061-.235-.106-.349-.164-.182-.093-.36-.195-.532-.307-.097-.063-.187-.134-.283-.197-.151-.099.255.211.119.091-.048-.042-.099-.082-.148-.124-.156-.136-.305-.281-.444-.434-.04-.044-.296-.371-.137-.151.161.224-.088-.128-.119-.173-.343-.503-.861-.794-1.483-.711-.553.074-1.114.492-1.237,1.066-.131.61-.292,1.213-.485,1.806-.089.275-.185.547-.287.817-.054.142-.109.284-.166.424-.014.035-.126.319-.03.075.098-.248-.051.114-.07.157-.496,1.111-1.1,2.173-1.796,3.17-.087.125-.176.249-.266.371-.056.076-.39.502-.097.136-.2.25-.398.5-.606.743-.406.474-.835.929-1.283,1.362-.438.423-.895.826-1.37,1.206-.048.038-.095.075-.143.113-.256.205.276-.205.012-.01-.11.081-.219.164-.33.244-.259.187-.522.368-.79.542-.51.331-1.035.638-1.575.918-.27.14-.543.274-.819.4-.134.062-.289.111-.417.185.299-.173.201-.083.103-.044-.099.039-.197.08-.297.119-1.194.465-2.437.799-3.702,1-.101.016-.659.071-.175.028-.159.014-.318.038-.477.055-.319.032-.638.057-.958.073-.656.033-1.314.032-1.969-.001-.304-.016-.608-.038-.911-.068-.16-.016-.319-.035-.478-.053-.329-.037.279.041.062.009-.111-.016-.222-.032-.333-.049-.634-.1-1.263-.23-1.883-.391-.698-.181-1.387-.399-2.061-.655-.165-.063-.328-.128-.492-.194-.317-.128.313.14.001,0-.088-.039-.176-.077-.264-.117-.321-.145-.638-.299-.951-.461-.653-.34-1.287-.717-1.895-1.132-.146-.099-.29-.2-.432-.304-.065-.047-.129-.094-.194-.142-.039-.029-.077-.058-.115-.087-.088-.067-.051-.038.111.086-.13-.031-.343-.273-.449-.362-.148-.123-.294-.249-.438-.376-.364-.321-.765-.475-1.25-.409-.427.057-.893.299-1.087.711-.485,1.027-1.031,2.023-1.638,2.983-.295.466-.604.923-.925,1.371-.161.224-.326.445-.492.664-.152.201.044-.065.064-.083-.054.049-.096.123-.142.181-.095.12-.191.239-.288.358-.708.866-1.466,1.691-2.267,2.471-.406.396-.824.78-1.252,1.153-.197.171-.396.34-.597.506-.231.191-.509.363-.719.576.02-.02.283-.216.082-.064-.049.037-.098.074-.147.111-.11.083-.221.166-.333.247-.235.172-.473.342-.713.507-.468.323-.944.633-1.429.929-.956.585-1.944,1.119-2.957,1.598-.25.118-.501.233-.754.344-.111.049-.232.088-.338.146.336-.184.16-.068.058-.025-.085.035-.17.07-.256.104-.526.212-1.059.41-1.596.592-1.059.36-2.138.661-3.231.9-.613.134-1.231.248-1.852.342-.119.018-.635.081-.15.024-.152.018-.304.039-.456.056-.319.037-.64.068-.96.094-1.269.102-2.544.116-3.816.042-.779-.045-1.523.717-1.488,1.488.038.845.654,1.44,1.488,1.488h0Z" fill="#c2478d"/>
  <g>
    <rect x="1277.976" y="293.206" width="12.526" height="288.254" fill="#d88ab7"/>
    <rect x="1290.501" y="293.206" width="12.526" height="288.254" fill="#f6e5ef"/>
    <rect x="1302.133" y="293.206" width="12.526" height="288.254" fill="#d88ab7"/>
    <polygon points="1314.66 581.457 1299.421 629.036 1296.184 639.146 1292.995 629.036 1277.973 581.457 1314.66 581.457" fill="#fdfafc"/>
    <polygon points="1299.421 629.036 1296.184 639.146 1292.995 629.036 1299.421 629.036" fill="#c2478d"/>
    <path d="M1285.779,272.033h20.739c4.663,0,8.449,3.786,8.449,8.449v12.696h-37.636v-12.696c0-4.663,3.786-8.449,8.449-8.449Z" fill="#c2478d"/>
  </g>
</svg>