<?xml version="1.0" encoding="UTF-8"?>
<svg id="a" data-name="Layer 1" xmlns="http://www.w3.org/2000/svg" viewBox="721.12 166.72 567.92 691.43" preserveAspectRatio="xMidYMid meet">
  <path d="M752.547,418.533l252.532-95.787,252.532,95.787v312.4l-252.532,95.788-252.532-95.788v-312.4Z" fill="#97d0c9" fill-rule="evenodd"/>
  <path d="M1257.61,418.533l-252.532,95.788v312.4l252.532-95.788v-312.4Z" fill="#64b9ae" fill-rule="evenodd"/>
  <path d="M1257.61,418.533l-252.532,95.788-252.532-95.788,252.532-95.787,252.532,95.787Z" fill="#38a497" fill-rule="evenodd"/>
  <path d="M871.199,426.82c-4.577,0-8.286-3.709-8.286-8.286s3.709-8.286,8.286-8.286h267.757c4.577,0,8.286,3.709,8.286,8.286s-3.709,8.286-8.286,8.286h-267.757Z" fill="#028c7b" fill-rule="evenodd"/>
  <path d="M826.601,555.255c-6.267,6.634-9.413,16.707-9.413,27.572s3.146,22.524,9.413,32.347l52.438,82.134,52.115-55.732c6.19-6.619,9.283-16.615,9.283-27.395s-3.095-22.367-9.283-32.132c-6.202-9.773-14.36-15.966-22.53-18.066-8.182-2.103-16.379-.11-22.607,6.5-2.317,2.466-4.648,4.93-6.98,7.395-2.317-3.654-4.635-7.308-6.966-10.968-6.228-9.816-14.45-16.04-22.684-18.155-8.26-2.121-16.521-.127-22.788,6.5h.001Z" fill="#c65495" fill-rule="evenodd"/>
  <path d="M889.562,686.056l41.592-44.478c6.19-6.619,9.283-16.615,9.283-27.395s-3.095-22.367-9.283-32.132c-6.202-9.773-14.36-15.966-22.53-18.066-8.182-2.103-16.379-.11-22.607,6.5-2.317,2.466-4.648,4.93-6.98,7.395-2.317-3.654-4.635-7.308-6.966-10.968-2.683-4.23-5.738-7.792-9.004-10.646-13.135-3.042-28.954,2.465-29.827,23.974,0,10.864,3.146,22.524,9.413,32.347l46.907,73.47h.001Z" fill="#d98cb8" fill-rule="evenodd"/>
  <path d="M1128.836,537.182c18.726-5.614,36.058-1.71,49.089,9.185,13.179,11.019,22.078,29.374,23.358,52.565,1.305,23.668-5.516,47.856-17.706,67.721-12.327,20.087-30.041,35.576-50.064,41.48-19.994,5.897-38.211,1.03-51.356-11.496-12.977-12.366-20.913-32.082-20.913-56.04,0-23.476,7.665-46.702,19.946-65.291,12.149-18.388,28.945-32.515,47.645-38.124h0Z" fill="#804c8d" fill-rule="evenodd"/>
  <path d="M1128.836,537.182c2.745-.823,5.461-1.439,8.137-1.862,8.872,1.476,16.968,5.282,23.862,11.047,13.179,11.019,22.078,29.374,23.358,52.565,1.305,23.668-5.516,47.856-17.706,67.721-12.327,20.087-30.041,35.576-50.064,41.48-2.689.793-5.345,1.389-7.96,1.801-9.975-1.661-18.938-6.275-26.305-13.296-12.977-12.366-20.913-32.082-20.913-56.04,0-23.476,7.665-46.702,19.946-65.291,12.149-18.388,28.945-32.515,47.645-38.124h0Z" fill="#c9b3cf" fill-rule="evenodd"/>
  <g>
    <path d="M1089.758,653.695c-1.895-4.147-.069-9.046,4.078-10.94,4.147-1.895,9.046-.069,10.94,4.078,2.442,5.328,6.126,9.278,10.57,11.382,4.197,1.987,9.236,2.373,14.708.754,5.929-1.755,11.472-5.536,16.177-10.625,5.108-5.524,9.193-12.527,11.739-20.172,1.429-4.325,6.097-6.673,10.422-5.244,4.325,1.429,6.673,6.097,5.244,10.422-3.283,9.863-8.608,18.956-15.299,26.192-6.687,7.231-14.767,12.664-23.621,15.286-9.562,2.83-18.633,2.03-26.424-1.66-7.975-3.777-14.436-10.536-18.533-19.474h-.001Z" fill="#6a2d79" fill-rule="evenodd"/>
    <path d="M1143.845,591.311c0-4.559,3.696-8.253,8.254-8.253s8.253,3.696,8.253,8.253l-.007,5.002c0,4.559-3.696,8.254-8.254,8.254s-8.254-3.696-8.254-8.254l.007-5.002h.001ZM1100.949,602.565c0-4.559,3.696-8.254,8.254-8.254s8.253,3.696,8.253,8.254l.004,6.524c0,4.559-3.696,8.254-8.254,8.254s-8.254-3.696-8.254-8.254l-.003-6.524Z" fill="#6a2d79" fill-rule="evenodd"/>
  </g>
  <path d="M1005.078,198.151c65.594,0,118.767,53.174,118.767,118.767,0,43.075-22.932,80.793-57.254,101.615h-123.026c-34.321-20.821-57.254-58.54-57.254-101.615,0-65.594,53.173-118.767,118.767-118.767Z" fill="#f8bc00" fill-rule="evenodd"/>
  <path d="M943.58,418.533c-34.329-20.817-57.269-58.534-57.269-101.616,0-64.351,51.18-116.742,115.056-118.703,63.876,1.961,115.057,54.352,115.057,118.703,0,43.081-22.941,80.799-57.269,101.616h-115.575Z" fill="#f9c626" fill-rule="evenodd"/>
  <circle cx="1005.144" cy="317.097" r="94.801" fill="#f8bc00"/>
  <path d="M1011.173,222.36c49.493,3.143,88.664,44.272,88.664,94.558s-39.171,91.416-88.664,94.558c-49.493-3.143-88.664-44.272-88.664-94.558s39.171-91.415,88.664-94.558h0Z" fill="#fbd96e" fill-rule="evenodd"/>
</svg>