<?xml version="1.0" encoding="UTF-8"?>
<svg id="a" data-name="Layer 1" xmlns="http://www.w3.org/2000/svg" viewBox="577.94 90.70 692.97 886.56" preserveAspectRatio="xMidYMid meet">
  <path d="M732.922,451.194l-74.299-74.305c-11.302-11.296-11.302-29.62,0-40.916,11.302-11.302,29.62-11.302,40.916,0l74.305,74.299-40.922,40.922Z" fill="#d37aad"/>
  <path d="M883.905,936.967c-30.278,0-54.825-24.541-54.825-54.825v-71.568h109.649v71.568c0,30.284-24.547,54.825-54.825,54.825Z" fill="#d37aad"/>
  <path d="M1121.325,853.574c-30.278,0-54.825-24.541-54.825-54.819v-71.575h109.643v71.575c0,30.278-24.541,54.819-54.819,54.819Z" fill="#d37aad"/>
  <path d="M704.968,831.333c-30.278,0-54.819-24.547-54.819-54.825v-112.33h109.643v112.33c0,30.278-24.547,54.825-54.825,54.825Z" fill="#d37aad"/>
  <path d="M650.076,433.86c-74.778,129.517-13.319,304.998,137.271,391.945,150.59,86.947,333.289,52.433,408.074-77.084,74.778-129.517,13.319-304.998-137.271-391.945-150.596-86.941-333.296-52.433-408.074,77.084Z" fill="#e2a8c9"/>
  <path d="M878.789,557.683c17.525-20.593,38.653-39.895,63.003-56.805,6.309-4.378,12.692-8.473,19.123-12.335l-12.974-18.232c-14.788-20.784-45.257-22.284-68.045-3.345-22.794,18.933-29.276,51.129-14.487,71.913l13.38,18.804Z" fill="#d37aad"/>
  <path d="M1161.915,453.125l3.148-25.531c2.952-23.944-13.442-40.916-36.617-37.903-23.17,3.013-44.347,24.867-47.298,48.811l-.996,8.098c29.38-3.333,57.297-1.168,81.764,6.524Z" fill="#d37aad"/>
  <path d="M1146.401,449.104l1.74-14.087c1.802-14.659-8.234-25.051-22.419-23.206-14.186,1.845-27.154,15.225-28.962,29.884l-.443,3.603c17.531-.787,34.367.498,50.084,3.806Z" fill="#e2a8c9"/>
  <path d="M893.091,541.997c14.358-14.721,30.647-28.581,48.706-41.119.547-.381,1.095-.738,1.648-1.113l-8.227-11.554c-9.051-12.728-27.708-13.645-41.66-2.048-13.952,11.591-17.924,31.305-8.873,44.027l8.406,11.806Z" fill="#e2a8c9"/>
  <path d="M1230.618,657.765c0,41.758-34.699,95.642-77.496,120.355-42.803,24.713-77.502,10.89-77.502-30.868s34.699-95.648,77.502-120.361c42.797-24.707,77.496-10.89,77.496,30.874Z" fill="#d37aad"/>
  <path d="M1122.253,765.557l-1.863,1.076c-6.905,3.985-12.501-.246-12.501-9.451v-57.124c0-9.205,5.596-19.898,12.501-23.883l1.863-1.082c6.905-3.985,12.501.246,12.501,9.451v57.131c0,9.205-5.596,19.898-12.501,23.883Z" fill="#c1458c"/>
  <path d="M1185.847,728.841l-1.863,1.076c-6.905,3.991-12.501-.246-12.501-9.445v-57.131c0-9.205,5.596-19.898,12.501-23.883l1.863-1.082c6.905-3.985,12.501.246,12.501,9.451v57.131c0,9.205-5.596,19.898-12.501,23.883Z" fill="#c1458c"/>
  <path d="M1057.904,622.15c0,12.556-10.183,22.745-22.745,22.745s-22.745-10.189-22.745-22.745,10.183-22.745,22.745-22.745,22.745,10.183,22.745,22.745Z" fill="#c1458c"/>
  <path d="M1207.657,560.217c0,12.562-10.183,22.745-22.745,22.745s-22.739-10.183-22.739-22.745,10.183-22.745,22.739-22.745,22.745,10.183,22.745,22.745Z" fill="#c1458c"/>
  <path d="M1005.729,462.97c-5.885,0-11.763-2.3-16.16-6.875-.461-.48-47.046-48.061-127.9-77.693-11.628-4.261-17.599-17.143-13.337-28.771,4.261-11.628,17.143-17.599,28.771-13.337,91.141,33.401,142.67,86.498,144.822,88.743,8.566,8.947,8.258,23.145-.689,31.711-4.341,4.157-9.931,6.223-15.508,6.223Z" fill="#c1458c"/>
  <path d="M1042.777,297.106c0-60.242-36.624-130.224-81.807-156.308-18.871-10.896-36.242-12.378-50.084-6.051l-.012-.031-36.476,21.257s-30.29,12.187-30.29,67.246c0,60.236,36.624,130.224,81.807,156.308,22.358,12.907,42.613,12.63,57.383,1.771l.006.012,31.182-18.072c17.322-10.004,28.292-33.18,28.292-66.133Z" fill="#f8bc00"/>
  <path d="M1007.722,317.681c0,60.242-36.63,87.931-81.807,61.847-45.183-26.084-81.813-96.066-81.813-156.308s36.63-87.931,81.813-61.847c45.177,26.084,81.807,96.066,81.807,156.308Z" fill="#fbdd7d"/>
  <path d="M982.074,302.874c0,41.352-25.143,60.359-56.159,42.453-31.016-17.906-56.159-65.948-56.159-107.3s25.143-60.359,56.159-42.453c31.016,17.906,56.159,65.948,56.159,107.3Z" fill="#f8bc00"/>
  <path d="M964.66,292.82c0,28.531-17.346,41.641-38.745,29.288-21.399-12.353-38.745-45.497-38.745-74.028s17.346-41.641,38.745-29.288c21.399,12.353,38.745,45.497,38.745,74.028Z" fill="#fbdd7d"/>
</svg>