<?xml version="1.0" encoding="UTF-8"?>
<svg id="a" data-name="Layer 1" xmlns="http://www.w3.org/2000/svg" viewBox="422.27 105.62 1027.11 889.72" preserveAspectRatio="xMidYMid meet">
  <polyline points="1005.154 439.541 468.959 736.722 839.221 948.651 1402.692 613.308 1045.798 450.618" fill="#003967"/>
  <g>
    <path d="M847.059,841.825l-236.304-136.432v28.03l236.304,136.432v-28.03Z" fill="#0047bb"/>
    <path d="M1254.516,606.584l-407.452,235.242v28.025l407.452-235.237v-28.03Z" fill="#215fc4"/>
    <path d="M1018.213,470.147l-407.448,235.242,236.304,136.432,407.447-235.242-236.303-136.432Z" fill="#6993d7"/>
    <path d="M847.059,590.632l-222.638-128.542v244.636l222.638,128.543v-244.637h0Z" fill="#aa0062"/>
    <path d="M1239.316,364.162l-392.253,226.47v244.637l392.253-226.47v-244.637Z" fill="#bd3884"/>
    <path d="M1239.316,537.198l-392.253,226.47v45.984l392.253-226.47v-45.984Z" fill="#f9d55c"/>
    <path d="M624.426,635.125l222.643,128.542v45.984l-222.643-128.542v-45.984Z" fill="#f8bc00"/>
    <path d="M841.867,547.2l-236.307-136.432v49.535l236.307,136.432v-49.535Z" fill="#0047bb"/>
    <path d="M1258.193,306.829l-416.327,240.366v49.535l416.327-240.366v-49.535Z" fill="#215fc4"/>
    <path d="M1021.88,170.402l-416.327,240.366,236.304,136.432,416.327-240.366-236.304-136.432h0Z" fill="#6993d7"/>
    <path d="M1037.489,222.659c-11.74,6.78-30.799,6.78-42.539,0-11.739-6.774-11.739-17.781,0-24.56,11.74-6.774,30.799-6.774,42.539,0,11.739,6.78,11.739,17.786,0,24.56Z" fill="#ca619d"/>
    <path d="M1046.295,210.384v11.836c0,4.444-2.938,8.888-8.806,12.28-11.74,6.774-30.799,6.774-42.539,0-5.674-3.276-8.603-7.537-8.796-11.832v-.005c-.014-.299,0-11.831,0-11.831h0c.193,4.294,3.122,8.555,8.796,11.831,11.74,6.78,30.799,6.78,42.539,0,5.867-3.386,8.806-7.831,8.806-12.279h0Z" fill="#aa0062"/>
    <path d="M1028.471,169.375c-6.765,3.903-17.742,3.903-24.503,0-6.76-3.904-6.76-10.24,0-14.148,6.76-3.899,17.738-3.899,24.503,0,6.76,3.908,6.76,10.244,0,14.148Z" fill="#ca619d"/>
    <path d="M1033.528,161.915h.015l6.991,44.198h0c.897,4.184-1.433,8.551-6.986,11.759-9.564,5.52-25.092,5.52-34.655,0-5.67-3.272-7.976-7.754-6.924-12.015h0l6.934-43.754h0c-.087,2.62,1.602,5.259,5.066,7.261,6.765,3.903,17.738,3.903,24.503,0,3.546-2.05,5.23-4.767,5.056-7.45Z" fill="#aa0062"/>
    <path d="M795.724,383.106l-82.158-47.437v28.512l82.158,47.437v-28.512Z" fill="#0047bb"/>
    <path d="M1231.573,275.418l-389.711,224.998v28.512l389.711-224.998v-28.512Z" fill="#215fc4"/>
    <path d="M841.867,500.416l-124.663-71.973v28.513l124.663,71.972v-28.512Z" fill="#0047bb"/>
    <path d="M1045.46,238.925l-82.158-47.437-249.741,144.186,82.158,47.436-78.52,45.337,124.658,71.973,389.711-224.998-124.664-71.972-61.444,35.474h0Z" fill="#6993d7"/>
    <path d="M974.723,223.619l-31.344,18.099,9.056,5.226,31.34-18.095-9.053-5.23Z" fill="#fff"/>
    <path d="M792.206,328.996l11.142-6.432,9.056,5.226-11.141,6.432,11.141,6.437-9.056,5.226-11.142-6.432-11.146,6.432-9.053-5.226,11.142-6.437-11.142-6.432,9.053-5.226,11.146,6.432Z" fill="#fff"/>
    <path d="M1155.05,267.958c-6.982,4.029-18.326,4.029-25.313,0-6.982-4.035-6.982-10.586,0-14.615,6.986-4.035,18.331-4.035,25.313,0,6.986,4.029,6.986,10.581,0,14.615Z" fill="#f9d55c"/>
    <path d="M948.474,387.212c-6.982,4.034-18.325,4.034-25.313,0-6.982-4.029-6.982-10.582,0-14.611,6.987-4.035,18.331-4.035,25.313,0,6.987,4.029,6.987,10.582,0,14.611Z" fill="#f9d55c"/>
    <path d="M1104.738,297.005c-6.987,4.034-18.331,4.034-25.313,0-6.987-4.034-6.987-10.582,0-14.615,6.982-4.034,18.325-4.034,25.313,0,6.982,4.034,6.982,10.582,0,14.615Z" fill="#f9d55c"/>
    <path d="M898.162,416.264c-6.986,4.034-18.331,4.034-25.313,0-6.986-4.034-6.986-10.582,0-14.615,6.982-4.034,18.326-4.034,25.313,0,6.982,4.034,6.982,10.582,0,14.615Z" fill="#f9d55c"/>
    <path d="M1051.772,327.583c-6.982,4.034-18.325,4.034-25.313,0-6.982-4.03-6.982-10.577,0-14.611,6.987-4.035,18.331-4.035,25.313,0,6.987,4.034,6.987,10.581,0,14.611Z" fill="#f9d55c"/>
    <path d="M845.197,446.851c-6.983,4.034-18.326,4.034-25.313,0-6.983-4.029-6.983-10.582,0-14.611,6.986-4.035,18.33-4.035,25.313,0,6.986,4.029,6.986,10.582,0,14.611Z" fill="#f9d55c"/>
    <path d="M720.104,405.9c-11.735,6.78-30.799,6.78-42.539,0-11.734-6.775-11.734-17.781,0-24.56,11.74-6.774,30.804-6.774,42.539,0,11.739,6.78,11.739,17.785,0,24.56Z" fill="#ca619d"/>
    <path d="M998.801,358.165c-6.986,4.034-18.326,4.034-25.313,0-6.986-4.034-6.986-10.582,0-14.615,6.986-4.034,18.326-4.034,25.313,0,6.986,4.034,6.986,10.582,0,14.615Z" fill="#f9d55c"/>
    <path d="M1160.295,260.642v7.04c0,2.644-1.746,5.289-5.235,7.305-6.986,4.034-18.331,4.034-25.313,0-3.378-1.949-5.119-4.482-5.235-7.04h0c-.01-.178,0-7.039,0-7.039h0c.116,2.557,1.857,5.09,5.235,7.039,6.982,4.035,18.326,4.035,25.313,0,3.489-2.016,5.235-4.661,5.235-7.305Z" fill="#f8bc00"/>
    <path d="M953.72,379.911v7.04c0,2.644-1.747,5.289-5.235,7.306-6.987,4.034-18.331,4.034-25.313,0-3.378-1.95-5.12-4.483-5.236-7.04h0c-.01-.179,0-7.04,0-7.04h0c.116,2.557,1.858,5.091,5.236,7.04,6.982,4.034,18.325,4.034,25.313,0,3.488-2.017,5.235-4.662,5.235-7.306Z" fill="#f8bc00"/>
    <path d="M1109.974,289.69v7.04c0,2.649-1.752,5.293-5.24,7.31-6.987,4.034-18.331,4.034-25.313,0-3.378-1.949-5.12-4.487-5.236-7.04v-.005c-.005-.173,0-7.04,0-7.04h0c.116,2.557,1.858,5.096,5.236,7.045,6.982,4.029,18.325,4.029,25.313,0,3.488-2.016,5.24-4.666,5.24-7.31Z" fill="#f8bc00"/>
    <path d="M903.398,408.959v7.04c0,2.649-1.746,5.294-5.24,7.31-6.986,4.029-18.326,4.029-25.313,0-3.378-1.949-5.119-4.487-5.235-7.04v-.005c-.005-.173,0-7.04,0-7.04h0c.116,2.558,1.858,5.096,5.235,7.04,6.986,4.034,18.326,4.034,25.313,0,3.494-2.012,5.24-4.661,5.24-7.305Z" fill="#f8bc00"/>
    <path d="M1057.007,320.281v7.04c0,2.644-1.746,5.289-5.24,7.305-6.982,4.035-18.325,4.035-25.313,0-3.372-1.949-5.115-4.482-5.23-7.039h0c-.01-.179,0-7.04,0-7.04h0c.116,2.557,1.858,5.09,5.23,7.04,6.987,4.034,18.331,4.034,25.313,0,3.494-2.017,5.24-4.662,5.24-7.306Z" fill="#f8bc00"/>
    <path d="M850.432,439.541v7.039c0,2.644-1.743,5.289-5.235,7.306-6.987,4.034-18.331,4.034-25.313,0-3.378-1.95-5.119-4.483-5.235-7.04h0c-.005-.179,0-7.04,0-7.04h0c.116,2.557,1.857,5.091,5.235,7.04,6.982,4.034,18.325,4.034,25.313,0,3.493-2.017,5.235-4.662,5.235-7.305Z" fill="#f8bc00"/>
    <path d="M728.909,393.615v11.836c0,4.444-2.934,8.888-8.806,12.275-11.735,6.78-30.799,6.78-42.539,0-5.669-3.272-8.603-7.532-8.791-11.831h0c-.014-.299,0-11.831,0-11.831h0c.189,4.294,3.122,8.56,8.791,11.831,11.74,6.78,30.804,6.78,42.539,0,5.872-3.387,8.806-7.831,8.806-12.28h0Z" fill="#aa0062"/>
    <path d="M1004.036,350.859v7.04c0,2.648-1.746,5.293-5.24,7.31-6.982,4.034-18.326,4.034-25.313,0-3.373-1.949-5.119-4.488-5.23-7.04v-.005c-.01-.174,0-7.04,0-7.04h0c.111,2.557,1.857,5.096,5.23,7.045,6.986,4.029,18.331,4.029,25.313,0,3.494-2.017,5.24-4.667,5.24-7.31h0Z" fill="#f8bc00"/>
    <path d="M711.086,352.606c-6.76,3.903-17.738,3.903-24.498,0-6.76-3.904-6.76-10.244,0-14.147,6.76-3.899,17.738-3.899,24.498,0,6.76,3.903,6.76,10.244,0,14.147Z" fill="#ca619d"/>
    <path d="M716.147,345.156h.01l6.992,44.198h0c.897,4.183-1.428,8.55-6.987,11.759-9.558,5.52-25.086,5.52-34.649,0-5.67-3.276-7.977-7.754-6.929-12.015h0l6.934-43.755h.005c-.087,2.62,1.602,5.26,5.066,7.262,6.76,3.903,17.738,3.903,24.498,0,3.546-2.051,5.235-4.767,5.061-7.45h0Z" fill="#aa0062"/>
  </g>
</svg>