<?xml version="1.0" encoding="UTF-8"?>
<svg id="a" data-name="Layer 1" xmlns="http://www.w3.org/2000/svg" viewBox="587.86 257.51 860.75 626.84" preserveAspectRatio="xMidYMid meet">
  <polygon points="1130.05 365.077 626.984 688.432 880.593 845.223 1409.487 541.943 1130.05 365.077" fill="#003967"/>
  <g>
    <path d="M1380.997,439.685v37.412c0,9.806-7.174,20.153-21.163,28.229l-436.193,251.83c-12.39,7.15-27.869,11.225-43.047,12.053-16.14.89-31.955-1.875-43.372-8.472l-195.287-112.738c-10.035-5.793-14.95-13.544-14.95-21.668v-37.411c0,6.466,3.113,12.703,9.458,17.906,1.623,1.322,3.449,2.584,5.492,3.762l195.287,112.737c11.417,6.598,27.232,9.362,43.372,8.473,15.178-.829,30.657-4.903,43.047-12.054l436.193-251.83c4.663-2.691,8.557-5.624,11.693-8.725,6.273-6.177,9.47-12.967,9.47-19.505Z" fill="#295980"/>
    <path d="M1380.997,439.685c0,6.538-3.197,13.327-9.47,19.505-3.136,3.101-7.031,6.033-11.693,8.725l-436.193,251.83c-25.574,14.77-64.27,16.381-86.419,3.581l-195.287-112.737c-2.043-1.178-3.869-2.439-5.492-3.762-6.345-5.203-9.458-11.44-9.458-17.906,0-9.806,7.163-20.153,21.163-28.229l436.181-251.842c25.585-14.77,64.282-16.368,86.431-3.581l195.275,112.75c10.035,5.793,14.962,13.545,14.962,21.668Z" fill="#7090aa"/>
    <path d="M1340.076,466.052c-2.163,1.959-4.723,3.809-7.678,5.516l-220.596,127.351-142.717,85.353-29.01,16.753-16.2,9.349c-5.876,3.389-12.726,5.889-20.034,7.475-20.202,4.411-43.9,1.923-60.184-7.475l-174.172-100.552c-22.148-12.787-22.148-33.529,0-46.316l253.952-149.575,36.234-20.923,29.01-16.753,89.315-51.568c2.957-1.707,6.166-3.185,9.554-4.435,7.439-2.751,15.755-4.41,24.252-4.951,16.548-1.07,33.745,2.068,46.424,9.386l174.172,100.564c19.192,11.08,21.751,28.133,7.678,40.8Z" fill="#d1dbe4"/>
    <path d="M1286.278,390.39l-67.673-39.071c-2.327-1.344-2.036-3.691.652-5.243h0c2.688-1.552,6.754-1.721,9.081-.376l67.673,39.071c2.327,1.343,2.036,3.691-.652,5.243h0c-2.688,1.552-6.754,1.72-9.081.376Z" fill="#295980"/>
    <path d="M1340.074,466.05l-252.52-145.792c21.939-8.124,51.475-6.645,70.667,4.435l174.171,100.558c19.202,11.086,21.753,28.133,7.682,40.799Z" fill="#b5c6d3"/>
    <polygon points="1263.287 408.53 1187.181 364.59 1195.834 359.595 1271.94 403.534 1263.287 408.53" fill="#fff"/>
    <path d="M1380.997,439.685v37.412c0,9.806-7.174,20.153-21.163,28.229l-436.193,251.83c-12.39,7.15-27.869,11.225-43.047,12.053v-37.411c15.178-.829,30.657-4.903,43.047-12.054l436.193-251.83c4.663-2.691,8.557-5.624,11.693-8.725,6.273-6.177,9.47-12.967,9.47-19.505Z" fill="#547a99"/>
    <g opacity=".4">
      <path d="M961.82,393.009v293.748l-16.2,9.349c-5.876,3.389-12.726,5.889-20.034,7.475v-289.649l36.234-20.923Z" fill="#fff"/>
      <path d="M1113.952,315.302v283.617l-123.121,71.085v-293.748l89.315-51.568c2.957-1.707,6.166-3.185,9.554-4.435,7.439-2.751,15.755-4.41,24.252-4.951Z" fill="#fff"/>
    </g>
  </g>
</svg>