<?xml version="1.0" encoding="UTF-8"?>
<svg id="a" data-name="Layer 1" xmlns="http://www.w3.org/2000/svg" viewBox="396.36 12.24 1055.91 980.81" preserveAspectRatio="xMidYMid meet">
  <path d="M1404.272,525.332v47.628c0,12.484-9.134,25.657-26.942,35.938l-555.309,320.6c-15.774,9.103-35.48,14.29-54.803,15.345-20.547,1.133-40.681-2.387-55.216-10.785l-248.616-143.525c-12.775-7.375-19.033-17.242-19.033-27.585v-47.627c0,8.231,3.963,16.172,12.041,22.796,2.066,1.684,4.391,3.29,6.992,4.789l248.616,143.524c14.535,8.4,34.669,11.918,55.216,10.786,19.323-1.056,39.029-6.242,54.803-15.346l555.309-320.6c5.936-3.426,10.893-7.16,14.886-11.107,7.986-7.864,12.056-16.507,12.056-24.831Z" fill="#0a8a7b"/>
  <path d="M1404.272,525.332c0,8.324-4.07,16.967-12.056,24.831-3.993,3.947-8.95,7.681-14.886,11.107l-555.309,320.6c-32.557,18.804-81.821,20.854-110.018,4.559l-248.616-143.524c-2.601-1.499-4.926-3.106-6.992-4.789-8.078-6.624-12.041-14.564-12.041-22.796,0-12.484,9.119-25.657,26.942-35.938l555.294-320.616c32.572-18.803,81.836-20.838,110.033-4.559l248.601,143.539c12.775,7.375,19.048,17.243,19.048,27.585Z" fill="#5d9e92"/>
  <path d="M1352.177,558.899c-2.753,2.494-6.012,4.85-9.775,7.022l-280.837,162.129-181.69,108.661-36.933,21.327-20.624,11.903c-7.481,4.315-16.201,7.497-25.504,9.516-25.718,5.616-55.888,2.448-76.619-9.516l-221.735-128.01c-28.196-16.279-28.196-42.685,0-58.964l323.301-190.421,46.129-26.636,36.933-21.327,113.705-65.651c3.764-2.173,7.849-4.054,12.163-5.646,9.47-3.503,20.058-5.614,30.875-6.303,21.067-1.362,42.961,2.632,59.102,11.949l221.735,128.026c24.433,14.106,27.691,35.816,9.775,51.942Z" fill="#d3dfdc"/>
  <path d="M1283.688,462.576l-86.153-49.74c-2.963-1.711-2.592-4.699.83-6.675h0c3.422-1.976,8.598-2.191,11.561-.479l86.153,49.74c2.963,1.71,2.592,4.699-.83,6.675h0c-3.423,1.976-8.598,2.19-11.561.479Z" fill="#0a8a7b"/>
  <path d="M1352.175,558.896l-321.478-185.605c27.93-10.343,65.532-8.46,89.965,5.646l221.733,128.018c24.446,14.114,27.693,35.816,9.78,51.941Z" fill="#88b2aa"/>
  <polygon points="1254.418 485.67 1157.529 429.73 1168.545 423.371 1265.435 479.309 1254.418 485.67" fill="#fff"/>
  <path d="M1404.272,525.332v47.628c0,12.484-9.134,25.657-26.942,35.938l-555.309,320.6c-15.774,9.103-35.48,14.29-54.803,15.345v-47.627c19.323-1.056,39.029-6.242,54.803-15.346l555.309-320.6c5.936-3.426,10.893-7.16,14.886-11.107,7.986-7.864,12.056-16.507,12.056-24.831Z" fill="#0a8a7b"/>
  <g opacity=".4">
    <path d="M870.627,465.909v373.965l-20.624,11.903c-7.481,4.315-16.201,7.497-25.504,9.516v-368.747l46.129-26.636Z" fill="#fff"/>
    <path d="M1064.302,366.982v361.068l-156.743,90.496v-373.965l113.705-65.651c3.764-2.173,7.849-4.054,12.163-5.646,9.47-3.503,20.058-5.614,30.875-6.303Z" fill="#fff"/>
  </g>
  <path d="M729.599,335.871c14.847-9.396,41.366-28.065,58.248-23.387,17.537,4.861,39.33,23.36,56.426,29.588,9.907,7.254,30.462,18.155,41.935,24.65,29.124,17.874,59.586,34.066,89.066,51.274,17.751,10.359,45.124,23.951,59.373,37.766,11.402,10.945,19.373,24.97,22.932,40.366,4.085,17.452,1.907,34.856,2.42,52.342.811,27.303-1.666,58.748.128,85.716,2.989,44.953-17.494,50.12-52.34,70.031-6.989,3.068-12.968,5.403-20.427,2.148-18.718-8.171-36.967-19.48-54.661-29.645l-106.56-61.529c-15.202,10.025-41.351,23.819-57.878,33.229-.555-21.698-.114-45.09-.1-66.915-56.483-30.972-54.163-59.048-53.935-116.375.256-21.533.285-43.067.071-64.599-.541-19.462-6.477-56.456,15.302-64.661Z" fill="#b95c7f"/>
  <path d="M729.599,335.871c14.847-9.396,41.366-28.065,58.248-23.387,17.537,4.861,43.287,25.056,60.383,31.284,9.907,7.254,26.505,16.459,37.978,22.954,29.124,17.874,59.586,34.066,89.066,51.274,17.751,10.359,45.124,23.951,59.373,37.766,11.402,10.945,19.373,24.97,22.932,40.366,4.085,17.452,1.907,34.856,2.42,52.342.811,27.303-1.666,58.748.128,85.716,2.989,44.953-17.494,50.12-52.34,70.031.598-.821,1.196-1.651,1.765-2.491,1.537-2.287,4.156-6.477,4.327-9.011,1.082-17.007-2.431-104.918-2.833-112.359-.601-101.812-30.106-108.846-96.596-145.889-36.91-20.562-79.087-47.008-119.129-68.487-8.897-5.826-18.22-11.01-27.857-15.511-14.188-8.233-24.854-14.129-37.864-14.599Z" fill="#a91f64"/>
  <path d="M561.762,81.724c11.41-7.59,35.403-23.668,49.505-21.242,10.477,1.801,222.202,124.423,242.458,138.7,7.943,5.596,15.06,13.163,20.284,21.353,5.623,8.82,9.224,19.201,10.961,29.487,2.619,15.659,1.594,32.344,1.566,48.171-.057,22.838.014,45.693-.327,68.528-11.473-6.495-35.066-18.391-44.973-25.644-13.068-6.073-35.851-23.732-53.388-28.594-16.882-4.678-43.401,13.991-58.248,23.387-21.779,8.205-15.843,45.199-15.302,64.661-14.619-8.734-34.974-21.34-49.935-28.741-.172.092-9.786-4.811-9.784-4.832l-11.882,5.959c-15.644,7.932-31.359,17.324-46.601,26.109l.168-67.73c-18.192-9.418-30.91-16.015-42.297-34.411-6.411-10.484-10.498-22.222-11.984-34.421-1.664-13.028-1.954-151.174.246-160.323,3.308-11.877,7.768-14.593,18.393-20.025l1.14-.394Z" fill="#90dcfc"/>
  <path d="M561.762,81.724c11.41-7.59,35.403-23.668,49.505-21.242,10.477,1.801,222.202,124.423,242.458,138.7,7.943,5.596,15.06,13.163,20.284,21.353,5.623,8.82,9.224,19.201,10.961,29.487,2.619,15.659,1.594,32.344,1.566,48.171-.057,22.838.014,45.693-.327,68.528-11.473-6.495-35.066-18.391-44.973-25.644.103-.164,5.557-58.24-7.211-82.785-18.306-35.198-38.405-41.581-70.959-60.424l-85.066-49.182-77.013-44.751c-8.401-4.902-31.431-18.989-39.223-22.212Z" fill="#49c5fa"/>
</svg>