<?xml version="1.0" encoding="UTF-8"?>
<svg id="a" data-name="Layer 1" xmlns="http://www.w3.org/2000/svg" viewBox="737.92 77.09 470.67 858.52" preserveAspectRatio="xMidYMid meet">
  <polygon points="870.208 627.459 907.304 648.881 907.304 408.095 870.208 386.672 870.208 627.459" fill="#3870cd"/>
  <polygon points="907.304 648.881 1167.302 498.771 1167.302 257.985 907.304 408.095 907.304 648.881" fill="#6994da"/>
  <path d="M1150.705,286.731v202.458l-226.805,130.946v-202.458l226.805-130.946Z" fill="#bfd1ef"/>
  <polygon points="907.304 408.095 870.208 386.672 1130.206 236.562 1167.302 257.985 907.304 408.095" fill="#91b0e4"/>
  <path d="M1125.747,218.502c0-10.217-6.212-14.914-13.875-10.49-7.663,4.424-13.875,16.294-13.875,26.511s6.212,14.913,13.875,10.489c7.663-4.424,13.875-16.294,13.875-26.511Z" fill="none" stroke="#e6e1f1" stroke-miterlimit="10" stroke-width="2.507"/>
  <line x1="1111.872" y1="268.893" x2="1111.872" y2="245.013" fill="none" stroke="#e6e1f1" stroke-linecap="round" stroke-miterlimit="10" stroke-width="2.507"/>
  <path d="M943.654,323.414c0-10.217-6.212-14.913-13.875-10.489-7.663,4.424-13.875,16.294-13.875,26.511s6.212,14.914,13.875,10.49c7.663-4.424,13.875-16.294,13.875-26.511Z" fill="none" stroke="#e6e1f1" stroke-miterlimit="10" stroke-width="2.507"/>
  <line x1="929.78" y1="373.805" x2="929.78" y2="349.925" fill="none" stroke="#e6e1f1" stroke-linecap="round" stroke-miterlimit="10" stroke-width="2.507"/>
  <polygon points="1150.705 286.731 1150.705 489.189 1142.653 484.54 1142.653 291.38 1150.705 286.731" fill="#3870cd"/>
  <polygon points="1150.705 489.189 923.901 620.135 923.901 610.837 1142.653 484.54 1150.705 489.189" fill="#91b0e4"/>
  <polygon points="862.706 315.334 814.037 343.433 814.037 408.326 814.037 896.585 862.706 868.486 862.706 380.227 1169.561 202.425 1169.561 137.532 862.706 315.334" fill="#6994da"/>
  <polygon points="776.94 875.163 814.037 896.585 814.037 343.433 776.94 322.011 776.94 875.163" fill="#3870cd"/>
  <polygon points="1169.561 137.532 1132.46 116.112 776.94 322.011 814.037 343.433 1169.561 137.532" fill="#91b0e4"/>
  <g>
    <path d="M956.406,480.593l-9.027,5.211v-7.587s25.799-14.894,25.799-14.894l-.48,7.864-8.493,4.903v32.503s-7.797,4.502-7.797,4.502v-32.503Z" fill="#003967"/>
    <path d="M976.383,463.57c0-2.652,1.87-5.953,4.166-7.278,2.404-1.388,4.273-.308,4.273,2.406,0,2.651-1.869,5.767-4.219,7.123-2.35,1.357-4.22.4-4.22-2.251ZM976.918,471.649l7.371-4.255v29.604s-7.37,4.255-7.37,4.255v-29.604Z" fill="#003967"/>
    <path d="M990.485,450.433l7.371-4.255v33.367c.001,2.405.536,2.837,2.672,1.604l-.481,7.432c-6.409,3.7-9.561,2.99-9.561-4.103v-34.045Z" fill="#003967"/>
    <path d="M1015.54,469.769c2.991.432,4.7-.124,6.624-1.234,1.762-1.018,2.35-2.22,2.35-3.207,0-3.331-10.416,3.176-10.416-6.445,0-6.044,4.593-12.027,9.507-14.864,3.312-1.912,5.929-2.189,8.333-1.911l-2.563,7.647c-1.656-.092-3.846.432-5.501,1.388-1.389.802-2.03,1.788-2.03,2.837,0,4.07,10.416-2.868,10.417,6.63,0,5.428-4.647,12.058-10.042,15.172-3.686,2.128-6.784,2.497-9.348,1.942l2.671-7.956Z" fill="#003967"/>
    <path d="M1046.467,444.142c1.015-.586,2.19-1.203,3.152-1.572v-1.233c0-3.454-1.122-4.41-3.793-2.868-1.923,1.11-4.006,3.115-6.196,5.796l-2.778-4.502c3.258-4.225,6.089-6.908,9.935-9.128,5.608-3.238,10.202-1.942,10.203,6.692v17.701s-5.822,3.361-5.822,3.361l-.534-2.283-.214.124c-1.602,2.961-3.472,5.273-6.837,7.217-4.166,2.405-7.852,1.263-7.852-4.288,0-6.846,5.608-12.057,10.736-15.018ZM1045.987,454.905c1.335-.771,2.778-2.221,3.632-3.701v-3.454c-.642.185-1.71.678-2.564,1.171-1.816,1.049-3.578,2.807-3.578,4.842,0,1.604.801,2.128,2.51,1.142Z" fill="#003967"/>
    <path d="M1062.918,408.617l7.371-4.255v33.367c.001,2.405.536,2.837,2.672,1.604l-.48,7.432c-6.41,3.7-9.562,2.991-9.562-4.102v-34.045Z" fill="#003967"/>
    <path d="M1087.225,442.446c3.632-2.097,4.968-5.335,4.967-8.295v-1.912c-1.335,2.127-3.579,4.533-5.822,5.828-6.517,3.762-10.469.123-10.47-8.943,0-8.203,3.739-17.455,10.95-21.617,2.564-1.48,4.754-1.387,6.143-.401l.213-.124.534-2.775,5.822-3.361v29.05c.001,7.339-4.272,15.172-12.337,19.828-3.312,1.911-6.303,2.775-9.294,3.083l1.976-7.925c2.19-.031,4.754-.957,7.318-2.437ZM1092.192,425.825v-12.459c-1.122-.34-2.297-.339-3.846.555-3.098,1.789-4.701,5.119-4.701,10.731,0,5.798,1.817,6.662,4.327,5.212,1.656-.956,3.044-2.375,4.22-4.04Z" fill="#003967"/>
    <path d="M1106.135,417.467c2.991.432,4.7-.124,6.624-1.234,1.762-1.018,2.35-2.22,2.35-3.206,0-3.331-10.416,3.175-10.416-6.446,0-6.044,4.593-12.026,9.507-14.863,3.312-1.912,5.929-2.19,8.333-1.911l-2.563,7.646c-1.656-.092-3.846.433-5.501,1.389-1.389.801-2.03,1.788-2.03,2.836,0,4.07,10.416-2.868,10.417,6.63,0,5.428-4.647,12.058-10.042,15.172-3.686,2.128-6.784,2.498-9.348,1.942l2.671-7.956Z" fill="#003967"/>
  </g>
</svg>