<?xml version="1.0" encoding="UTF-8"?>
<svg id="a" data-name="Layer 1" xmlns="http://www.w3.org/2000/svg" xmlns:xlink="http://www.w3.org/1999/xlink" viewBox="221.98 152.26 1263.11 836.53" preserveAspectRatio="xMidYMid meet">
  <defs>
    <linearGradient id="b" x1="792.274" y1="580.955" x2="826.666" y2="580.955" gradientUnits="userSpaceOnUse">
      <stop offset="0" stop-color="#796e66"/>
      <stop offset="1" stop-color="#000"/>
    </linearGradient>
    <linearGradient id="c" x1="827.566" y1="640.296" x2="869.983" y2="546.781" gradientUnits="userSpaceOnUse">
      <stop offset=".217" stop-color="#3a3837"/>
      <stop offset=".562" stop-color="#f8e4cf"/>
      <stop offset="1" stop-color="#000"/>
    </linearGradient>
  </defs>
  <path d="M1369.249,236.86v333.77h-833.254V236.86c0-15.03,12.156-27.187,27.187-27.187h778.881c15.005,0,27.187,12.157,27.187,27.187Z" fill="#477bd1"/>
  <rect x="566.95" y="242.729" width="771.342" height="305.626" fill="#759cdd"/>
  <polygon points="566.95 548.355 588.7 534.699 588.7 256.385 566.95 242.729 566.95 548.355" fill="#0047bb"/>
  <polygon points="1338.292 548.355 1316.542 534.699 1316.542 256.385 1338.292 242.729 1338.292 548.355" fill="#0047bb"/>
  <polygon points="566.95 242.729 1338.292 242.729 1316.542 256.385 588.7 256.385 566.95 242.729" fill="#6994da"/>
  <polygon points="1316.542 534.699 588.7 534.699 566.95 548.355 1338.292 548.355 1316.542 534.699" fill="#6994da"/>
  <polygon points="572.704 548.486 530.778 574.81 530.778 574.81 531.116 574.81 572.574 574.81 572.704 548.486" fill="#0047bb"/>
  <polygon points="539.248 569.492 524.388 569.492 483.876 620.409 530.778 597.788 530.778 574.81 539.248 569.492" fill="#477bd1"/>
  <polygon points="955.776 548.478 572.693 548.478 572.693 574.8 955.776 574.8 1338.858 574.8 1338.858 548.478 955.776 548.478" fill="#477bd1"/>
  <polygon points="1338.847 548.486 1380.773 574.81 1380.773 574.81 1380.435 574.81 1338.858 574.8 1338.847 548.486" fill="#0047bb"/>
  <polygon points="1372.303 569.492 1387.163 569.492 1427.675 620.409 1380.773 597.788 1380.773 574.81 1372.303 569.492" fill="#477bd1"/>
  <polygon points="459.755 543.708 680.529 613.966 699.678 573.388 474.919 501.341 459.84 501.341 452.18 522.644 459.755 543.708" fill="#3e2a57"/>
  <path d="M522.313,385.012v15.409s-42.546,6.313-96.098,44.431l-6.366,13.742-22.482-15.776,37.34-31.954,61.037-23.338,26.569-2.513Z" fill="#c9d5df"/>
  <path d="M524.108,425.942v13.284s-89.04,9.131-94.696,31.045l-9.563-11.678,7.498-11.647,44.63-16.695,44.591-6.822,7.54,2.513Z" fill="#c9d5df"/>
  <path d="M524.108,410.863v15.08s-90.034,12.164-104.259,32.651c0,0-.94-16.135,30.297-30.138,31.236-14.003,73.962-17.593,73.962-17.593Z" fill="#c9d5df"/>
  <path d="M428.244,528.867v11.848s-51.941.359-56.489,41.768v-43.085l32.553-18.909,23.936,8.378Z" fill="#c9d5df"/>
  <path d="M353.803,569.319s14.601,8.378,17.952,13.165c0,0-.239-28.484,8.856-38.537,9.096-10.053,16.755-14.117,27.048-16.037,9.693-1.809,20.585.957,20.585.957l-.931-17.508-25.398-11.215-40.452,8.617-7.66,60.558Z" fill="#c9d5df"/>
  <path d="M366.49,521.926s-5.266,41.17-12.686,47.393c0,0-10.999-2.394-22.255-2.394l15.074-54.813,19.867,9.814Z" fill="#c9d5df"/>
  <path d="M331.549,494.64s-5.272,12.206-3.835,36.381c1.436,24.175-12.925,35.904-12.925,35.904h16.761s14.595-8.378,15.074-26.569c.479-18.191,0-28.244,0-28.244l-15.074-17.471Z" fill="#c9d5df"/>
  <path d="M522.313,377.113v7.899s-25.919,4.689-56.098,18.826c-27.164,12.724-66.335,32.158-53.05,46.519,0,0,23.913,25.39,25.974,27.705,2.497,2.804,5.883,6.639,3.788,9.495-2.095,2.856-15.614,23.802-15.614,23.802,0,0-.19,2.666-6.665,0-6.474-2.666-41.51-3.047-51.221,10.092-9.711,13.139-38.123-11.852-38.123-11.852,0,0-11.426-9.455,10.771-35.186,19.52-22.628,45.049-46.395,71.808-61.396,23.697-13.284,68.936-37.699,108.43-35.904Z" fill="#a6baca"/>
  <path d="M430.758,497.87s-12.806,19.987-2.513,42.845c0,0,19.691,7.763,31.511,2.992,0,0-2.07-38.777,15.164-42.367l-31.992-13.784s-7.259,2.105-12.169,10.313Z" fill="#477091"/>
  <path d="M360.368,624.354l14.362-23.936s2.834-17.413-9.335-27.048c-12.169-9.634-35.278-21.884-55.053-11.729l-19.627,28.963s23.457-5.34,38.058,2.117c14.601,7.457,29.681,19.186,31.595,31.632Z" fill="#a6baca"/>
  <ellipse cx="324.902" cy="608.683" rx="24.774" ry="38.773" transform="translate(-363.389 656.765) rotate(-65.904)" fill="#c9d5df"/>
  <path d="M716.22,322.948v7.181s57.263,26.627,55.827,54.392c-1.436,27.766,19.811-7.478,19.811-7.478l-10.532-32.553-27.287-11.011-37.819-10.532Z" fill="#c9d5df"/>
  <path d="M807.614,344.149s15.839,19.083,17.634,47.267c1.121,17.596,12.184,42.711,22.619,53.605,26.169,27.321,126.861,131.24,126.861,131.24l37.34,36.79-61.755,10.053-67.499-62.712-73.244-69.893s-17.713-19.556-58.882-24.893c-50.229-6.511-69.681-52.306-69.681-52.306l94.574,26.933,32.033-96.085Z" fill="#c9d5df"/>
  <path d="M571.596,425.17s-18.67-3.351-29.202,23.936c-10.532,27.287-4.308,33.032-4.308,33.032l33.51-56.968Z" fill="#de9cc2"/>
  <path d="M571.596,425.17l200.105,111.063s-20.585,20.585-19.149,36.861l-214.466-90.957s3.83-27.287,33.51-56.968Z" fill="#aa0062"/>
  <path d="M825.317,560.169s8.928,27.332-19.149,41.572l-13.894-4.609,7.312-30.74,25.731-6.223Z" fill="url(#b)"/>
  <polygon points="900.117 615.939 812.755 569.345 799.586 566.392 797.431 580.753 804.253 588.116 862.417 615.939 900.117 615.939" fill="url(#c)"/>
  <path d="M771.7,536.233s13.883,4.787,19.149,7.181c0,0,11.489-5.745,21.064,0,9.574,5.745,16.755,12.925,13.404,16.755-3.351,3.83-10.526,4.514-15.199,12.925-4.189,7.54-9.694,20.911-3.949,28.647,0,0-6.223,15.243-24.415,0-18.191-15.243-7.66-15.721-15.319-20.987-7.66-5.266-13.883-7.66-13.883-7.66,0,0-5.266-27.287,19.149-36.861Z" fill="#477091"/>
  <path d="M1373.44,316.395s16.635-9.115,35.298,13.406c18.663,22.521,14.59,29.947,14.59,29.947l-49.888-43.353Z" fill="#8e5f99"/>
  <path d="M1373.44,316.395l-154.395,168.935s26.063,12.97,29.877,28.858l174.405-154.44s-12.309-24.652-49.888-43.353Z" fill="#6a2d79"/>
  <path d="M1175.824,525.074s.228,28.752,31.376,33.324l11.707-8.788-16.708-26.819-26.374,2.283Z" fill="#24557d"/>
  <polygon points="1122.643 601.738 1190.651 529.78 1202.198 522.792 1208.808 535.722 1204.682 544.872 1158.385 589.749 1122.643 601.738" fill="#c9d5df"/>
  <path d="M1219.044,485.33s-11.64,8.954-15.871,12.898c0,0-12.72-1.793-19.97,6.699-7.25,8.491-11.775,17.583-7.38,20.148,4.395,2.565,11.416.932,18.521,7.421,6.369,5.816,15.841,16.743,12.855,25.904,0,0,10.748,12.472,23.147-7.764,12.399-20.237,2.262-17.341,7.849-24.77,5.587-7.428,10.726-11.677,10.726-11.677,0,0-3.685-27.545-29.877-28.858Z" fill="#477091"/>
  <path d="M764.608,456.441s24.792-7.999,61.653,27.186c36.861,35.185,130.212,126.726,130.212,126.726l36.861-.01-105.102-104.528s-79.683-71.737-70.243-122.958l-53.381,73.584Z" fill="#a6baca"/>
  <path d="M716.22,322.948l44.521,24.415s11.522,6.281,12.925,15.319c3.291,21.195-8.916,36.992-8.916,36.992h0s-15.977,22.979-40.392,13.752c-9.615-3.634-44.521-27.287-44.521-27.287,0,0-6.223-2.872-6.223,1.915s6.702,38.776,31.117,53.617c24.415,14.84,58.404,30.159,87.606-4.308,29.202-34.468,29.681-56.01,20.106-84.255-9.574-28.244-59.132-34.389-72.466-35.294-12.896-.875-20.405-.61-23.756,5.135Z" fill="#a6baca"/>
  <polygon points="1047.692 433.475 1041.469 429.645 1001.735 466.028 1022.32 493.315 1061.575 464.113 1047.692 433.475" fill="#c9d5df"/>
  <path d="M1001.735,466.028l-10.532-15.319-28.723,15.319-21.064-25.372-12.447,5.266s6.702,31.117-8.617,47.393c-15.319,16.276-126.382,62.712-161.328,106.276h82.818s172.657-79.343,179.998-98.616c2.22-5.827.479-7.66.479-7.66l-20.585-27.287Z" fill="#f8bc00"/>
  <polygon points="1112.678 486.732 1121.654 493.315 1097.958 540.588 1064.208 529.817 1079.647 486.732 1112.678 486.732" fill="#c9d5df"/>
  <path d="M1064.208,529.817l52.061,16.516-12.207,31.595,33.391,19.747-5.745,8.617s-18.67,0-20.465,3.231h-79.587s12.806-72.526,32.553-79.707Z" fill="#f8bc00"/>
  <path d="M1068.884,480.997c.916.661,1.882,1.323,2.874,1.984,35.172,22.965,68.565-13.301,68.565-13.301,40.564-22.965,60.325-53.84,60.325-53.84l47.736-88.325-6.104-7.553-33.367,30.874,2.136,6.104-6.816-1.424,4.68,8.621-6.841-.356v7.172s-6.46-2.518-6.46-2.518v8.621s-9.69-.712-9.69-.712l1.424,6.46-7.884-.356v5.366s-6.816-3.942-6.816-3.942l-36.266,33.748c-1.272-3.688-5.01-7.07-8.723-9.741l-58.773,73.117Z" fill="#c9d5df"/>
  <path d="M1069.177,480.564c-.87-.72-1.754-1.488-2.643-2.282-31.081-28.257-4.39-69.705-4.39-69.705,12.012-45.039,36.917-71.937,36.917-71.937l73.461-68.436,8.847,4.005-21.479,40.065-6.445-.531,3.094,6.238-9.522-2.358,2.067,6.531-6.941,1.806,4.063,5.618-8.344,2.171,3.129,9.198-6.61.248,2.33,7.54-5.193,1.351,5.531,5.604-23.53,43.595c3.889.302,8.104,3.069,11.623,5.99l-55.964,75.289Z" fill="#c9d5df"/>
  <circle cx="1097.743" cy="443.912" r="52.036" fill="#a6baca"/>
  <circle cx="1097.743" cy="443.912" r="26.018" fill="#477091"/>
  <path d="M955.776,620.4h-471.891v274.506c0,20.143,18.499,36.471,41.319,36.471h861.144c22.82,0,41.319-16.329,41.319-36.471v-274.506h-471.891Z" fill="#0048bf"/>
  <polygon points="955.776 574.8 530.781 574.8 530.781 597.791 955.776 597.791 1380.77 597.791 1380.77 574.8 955.776 574.8" fill="#759cdd"/>
  <polygon points="1380.77 597.791 955.776 597.791 530.781 597.791 483.885 620.4 955.776 620.4 1427.666 620.4 1380.77 597.791" fill="#477bd1"/>
  <path d="M735.02,693.987v-33.6c0-7.705-9.436-7.705-9.436-7.705h-46.865s-9.436,0-9.436,7.705v33.6s-1.756,11.558,10.85,11.558v22.408s2.804,7.315,12.557,7.339h.049s1.731,8.046,8.388,8.046c.341,0,.683,0,1.024-.024.342.024.683.024,1.024.024,6.657,0,8.388-8.046,8.388-8.046h.049c9.753-.024,12.557-7.339,12.557-7.339v-22.408c12.606,0,10.85-11.558,10.85-11.558Z" fill="#829eb5"/>
  <path d="M702.151,673.334h0c-5.225,0-9.461,4.236-9.461,9.461v52.497h.049s1.731,8.046,8.388,8.046c.341,0,.683,0,1.024-.024.342.024.683.024,1.024.024,6.657,0,8.388-8.046,8.388-8.046h.049v-52.497c0-5.225-4.236-9.461-9.461-9.461h0Z" fill="#b0c2d0"/>
  <circle cx="677.743" cy="661.482" r="2.94" fill="#b0c2d0"/>
  <circle cx="677.743" cy="696.292" r="2.94" fill="#b0c2d0"/>
  <circle cx="725.607" cy="661.482" r="2.94" fill="#b0c2d0"/>
  <circle cx="725.607" cy="696.292" r="2.94" fill="#b0c2d0"/>
  <path d="M1235.959,693.987v-33.6c0-7.705-9.436-7.705-9.436-7.705h-46.865s-9.436,0-9.436,7.705v33.6s-1.756,11.558,10.85,11.558v22.408s2.804,7.315,12.557,7.339h.049s1.731,8.046,8.388,8.046c.341,0,.683,0,1.024-.024.342.024.683.024,1.024.024,6.657,0,8.388-8.046,8.388-8.046h.049c9.753-.024,12.557-7.339,12.557-7.339v-22.408c12.606,0,10.85-11.558,10.85-11.558Z" fill="#829eb5"/>
  <path d="M1203.091,673.334h0c-5.225,0-9.461,4.236-9.461,9.461v52.497h.049s1.731,8.046,8.388,8.046c.341,0,.683,0,1.024-.024.342.024.683.024,1.024.024,6.657,0,8.388-8.046,8.388-8.046h.049v-52.497c0-5.225-4.236-9.461-9.461-9.461h0Z" fill="#b0c2d0"/>
  <circle cx="1179.158" cy="662.392" r="2.94" fill="#b0c2d0"/>
  <circle cx="1179.158" cy="697.202" r="2.94" fill="#b0c2d0"/>
  <circle cx="1227.023" cy="662.392" r="2.94" fill="#b0c2d0"/>
  <circle cx="1227.023" cy="697.202" r="2.94" fill="#b0c2d0"/>
  <g>
    <path d="M1028.312,791.202c-2.158-2.82-4.93-4.894-8.314-6.224-.692-.272-.732-1.218-.069-1.554,3.004-1.524,5.28-3.578,6.828-6.158,1.866-3.111,2.8-6.948,2.8-11.511v-1.244c0-7.546-2.096-13.106-6.283-16.673-4.19-3.566-10.931-5.35-20.219-5.35h-36.743c-.805,0-1.457.652-1.457,1.457v85.679c0,.805.652,1.457,1.457,1.457h36.493c9.291,0,16.508-1.907,21.652-5.724,5.141-3.815,7.713-9.996,7.713-18.54v-1.991c0-5.724-1.286-10.265-3.858-13.625ZM971.355,756.074l10.047-.007,19.908-.016c4.233,0,7.238.747,9.022,2.239,1.782,1.494,2.676,3.982,2.676,7.465v1.618c0,3.901-.954,6.72-2.863,8.462-1.909,1.742-5.225,2.613-9.954,2.613h-17.932c-.473,0-.857-.384-.857-.857v-15.083l-10.234-5.62c-.409-.199-.268-.814.187-.814ZM1015.373,805.698c0,4.48-.998,7.57-2.987,9.27-1.99,1.701-5.435,2.55-10.329,2.55h-19.798c-.473,0-.857-.384-.857-.857v-24.167c0-.473.384-.857.857-.857h18.927c5.144,0,8.792.914,10.951,2.737,2.154,1.827,3.235,5.062,3.235,9.706v1.618Z" fill="#fff"/>
    <path d="M949.24,762.832c-1.119-5.101-3.154-9.333-6.098-12.692-2.944-3.359-6.946-5.867-12.007-7.527-5.061-1.658-11.491-2.488-19.285-2.488-7.964,0-14.455.892-19.475,2.675-5.02,1.785-8.979,4.377-11.883,7.777-2.904,3.402-4.893,7.634-5.972,12.692-1.079,5.062-1.618,10.869-1.618,17.421v12.069c0,6.803.559,12.755,1.681,17.856,1.119,5.101,3.152,9.332,6.096,12.692,2.944,3.359,6.926,5.869,11.946,7.527,5.017,1.659,11.425,2.488,19.224,2.488,7.962,0,14.473-.892,19.536-2.675,5.058-1.783,9.04-4.374,11.944-7.777,2.904-3.401,4.893-7.631,5.972-12.692,1.078-5.059,1.618-10.867,1.618-17.421v-12.069c0-6.801-.559-12.754-1.678-17.856ZM933.747,792.383c0,5.724-.309,10.35-.932,13.874-.623,3.528-1.742,6.243-3.359,8.15-1.618,1.91-3.838,3.195-6.658,3.858-2.82.665-6.471.995-10.949.995s-8.131-.33-10.951-.995c-2.82-.663-5.038-1.97-6.655-3.92-1.618-1.948-2.719-4.686-3.299-8.212-.58-3.525-.871-8.107-.871-13.75v-11.322c0-5.724.291-10.348.871-13.874.507-3.082,1.413-5.546,2.713-7.392l-8.877-4.789c-.413-.196-.274-.816.183-.816,0,0,27.205-.006,26.886-.006q-2.24,0,0,0c4.478,0,8.129.333,10.949.996,2.82.665,5.04,1.971,6.658,3.919,1.618,1.951,2.737,4.687,3.359,8.212.623,3.528.932,8.11.932,13.75v11.322Z" fill="#fff"/>
    <path d="M865.926,743.945c0-.804-.653-1.456-1.457-1.456h-69.162c-.803,0-1.455.649-1.457,1.452l-.039,11.395c-.003.807.65,1.462,1.457,1.462h25.017c.473,0,.857.384.857.857v71.969c0,.805.652,1.457,1.457,1.457h13.634c.805,0,1.457-.652,1.457-1.457v-66.019l-11.437-5.984c-.413-.195-.274-.816.183-.816l11.265-.011,2.55.003h0s24.225,0,24.225,0c.805,0,1.458-.653,1.457-1.458l-.008-11.395Z" fill="#fff"/>
    <path d="M1107.573,791.202c-2.158-2.82-4.93-4.894-8.314-6.224-.692-.272-.732-1.218-.069-1.554,3.004-1.524,5.28-3.578,6.828-6.158,1.866-3.111,2.8-6.948,2.8-11.511v-1.244c0-7.546-2.096-13.106-6.283-16.673-4.19-3.566-10.931-5.35-20.219-5.35h-36.743c-.805,0-1.457.652-1.457,1.457v85.679c0,.805.652,1.457,1.457,1.457h36.493c9.291,0,16.508-1.907,21.652-5.724,5.142-3.815,7.713-9.996,7.713-18.54v-1.991c0-5.724-1.286-10.265-3.858-13.625ZM1050.625,756.068l10.039-.017h19.908c4.233,0,7.238.747,9.022,2.239,1.782,1.494,2.676,3.982,2.676,7.465v1.618c0,3.901-.954,6.72-2.863,8.462-1.909,1.742-5.225,2.613-9.954,2.613h-17.932c-.473,0-.857-.384-.857-.857v-15.114l-10.226-5.594c-.409-.199-.268-.814.187-.814ZM1094.635,805.698c0,4.48-.997,7.57-2.987,9.27-1.99,1.701-5.435,2.55-10.329,2.55h-19.798c-.473,0-.857-.384-.857-.857v-24.167c0-.473.384-.857.857-.857h18.927c5.144,0,8.792.914,10.951,2.737,2.154,1.827,3.235,5.062,3.235,9.706v1.618Z" fill="#fff"/>
  </g>
</svg>