<?xml version="1.0" encoding="UTF-8"?>
<svg id="a" data-name="Layer 1" xmlns="http://www.w3.org/2000/svg" viewBox="520.46 191.05 793.06 705.08" preserveAspectRatio="xMidYMid meet">
  <path d="M788.417,638.104l-221.231-127.727v221.689l221.231,127.727v-221.69h0Z" fill="#8e5f99"/>
  <path d="M629.232,652.641l-14.893-8.597v85.992l14.893,8.597v-85.993Z" fill="#b496bc"/>
  <path d="M688.574,686.9l-14.892-8.597v85.992l14.892,8.597v-85.993Z" fill="#b496bc"/>
  <path d="M658.549,669.568l-14.893-8.597v85.989l14.893,8.602v-85.993Z" fill="#b496bc"/>
  <path d="M717.882,703.827l-14.892-8.602v85.993l14.892,8.598v-85.989Z" fill="#b496bc"/>
  <path d="M788.417,638.104l-221.231-127.727,478.368-276.185,221.231,127.725-478.368,276.187h0Z" fill="#ffea74"/>
  <path d="M788.417,638.104l478.368-276.187v221.689l-478.368,276.477v-221.979h0Z" fill="#b496bc"/>
  <path d="M784.491,643.349l-227.985-131.627v61.426l227.985,131.627v-61.426Z" fill="#6a2d79"/>
  <path d="M784.491,643.349l-227.985-131.627,492.976-284.62,227.984,131.63-492.975,284.618Z" fill="#885794"/>
  <path d="M824.44,546.658l-100.444-57.993,285.533-164.853,100.444,57.991-285.532,164.855Z" fill="#6a2d79"/>
  <path d="M824.44,546.658l-87.493-50.514,269.559-155.63,87.493,50.514-269.558,155.631Z" fill="#7c4789"/>
  <path d="M830.112,397.157l-41.69-24.068v118.945l41.69,24.068v-118.946Z" fill="#3e2a57"/>
  <path d="M1027.354,283.274l-41.689-24.068v118.948l41.689,24.068v-118.948Z" fill="#3e2a57"/>
  <path d="M1013.887,242.92l-225.47,130.174,41.69,24.068,225.465-130.174-41.685-24.068Z" fill="#4b3963"/>
  <path d="M830.112,397.157v118.946l28.222-16.29v-83.544l169.026-97.586v83.542l28.217-16.292v-118.948l-225.465,130.174Z" fill="#57456d"/>
  <path d="M784.491,643.349l492.975-284.618v61.424l-492.975,284.918v-61.725Z" fill="#9b72a5"/>
  <path d="M1118.587,501.197l-17.207-9.932v61.422l17.207,9.932v-61.422Z" fill="#3e2a57"/>
  <path d="M1118.587,501.197l-17.207-9.932,97.35-55.968,17.207,9.938-97.35,55.963Z" fill="#4b3963"/>
  <path d="M888.314,634.142l-17.207-9.932v61.422l17.207,9.932v-61.422Z" fill="#3e2a57"/>
  <path d="M888.314,634.142l-17.207-9.932,97.35-55.968,17.207,9.933-97.35,55.967Z" fill="#4b3963"/>
  <path d="M888.314,634.142l97.35-55.967v61.421l-97.35,56.266v-61.72Z" fill="#4b3963"/>
  <path d="M888.314,634.142l97.35-55.967v30.773l-97.35,56.266v-31.072Z" fill="#57456d"/>
  <path d="M908.634,636.386l58.826-33.711v30.773l-58.826,34.01v-31.072h0Z" fill="#57456d"/>
  <path d="M1118.587,501.197l97.35-55.963v61.422l-97.35,56.262v-61.72Z" fill="#4b3963"/>
  <path d="M1118.587,501.197l97.35-55.963v30.773l-97.35,56.262v-31.072Z" fill="#57456d"/>
  <path d="M1138.902,503.441l58.826-33.707v30.773l-58.826,34.006v-31.072h0Z" fill="#57456d"/>
</svg>