<?xml version="1.0" encoding="UTF-8"?>
<svg id="a" data-name="Layer 1" xmlns="http://www.w3.org/2000/svg" viewBox="528.46 272.67 807.90 628.40" preserveAspectRatio="xMidYMid meet">
  <path d="M995.889,381.072c-9.692-18.984-1.572-40.368,24.353-55.337,26.517-15.31,64.648-19.864,98.077-13.666l2.343,5.047-47.187,27.244c-14.157,8.172-14.157,21.442,0,29.616,14.152,8.173,37.137,8.173,51.293,0l46.539-26.869,9.675,1.497c10.307,19.173,2.322,40.932-23.954,56.103-25.93,14.969-62.965,19.658-95.845,14.06l-306.543,176.984c9.692,18.984,1.573,40.368-24.357,55.337-26.512,15.309-64.648,19.864-98.073,13.665l-2.343-5.047,47.187-27.244c14.156-8.172,14.156-21.443,0-29.614-14.157-8.173-37.141-8.173-51.298,0l-46.535,26.869-9.679-1.497c-10.307-19.176-2.322-40.934,23.958-56.105,25.926-14.969,62.965-19.656,95.845-14.063l306.543-176.981Z" fill="#b5b5f8"/>
  <path d="M995.889,381.072c-9.692-18.984-1.572-40.368,24.353-55.337,26.517-15.31,64.648-19.864,98.077-13.666l2.343,5.047-47.187,27.244c-14.157,8.172-14.157,21.442,0,29.616,14.152,8.173,37.137,8.173,51.293,0l46.539-26.869,9.675,1.497c10.307,19.173,2.322,40.932-23.954,56.103-25.93,14.969-62.965,19.658-95.845,14.06l-306.543,176.984c9.692,18.984,1.573,40.368-24.357,55.337-26.512,15.309-64.648,19.864-98.073,13.665l-2.343-5.047,47.187-27.244c14.156-8.172,14.156-21.443,0-29.614-14.157-8.173-37.141-8.173-51.298,0l-46.535,26.869-9.679-1.497c-10.307-19.176-2.322-40.934,23.958-56.105,25.926-14.969,62.965-19.656,95.845-14.063l306.543-176.981Z" fill="#67bab0"/>
  <path d="M1185.338,365.206h0v27.036h0c.008,14.297-9.431,28.598-28.309,39.498-25.93,14.971-62.965,19.658-95.845,14.063l-302.587,174.698v18.156h0c-.008,14.285-9.447,28.572-28.313,39.466-26.512,15.307-64.648,19.862-98.073,13.666l-2.343-5.048h0v-27.031l2.343,5.045c33.425,6.198,71.561,1.644,98.073-13.665,25.93-14.969,34.049-36.353,24.357-55.337l306.543-176.984c32.88,5.598,69.915.909,95.845-14.06,18.878-10.9,28.317-25.201,28.309-39.502ZM565.188,611.695c.016,5.577,1.467,11.152,4.355,16.526l9.679,1.497,46.535-26.869c14.157-8.173,37.141-8.173,51.298,0,13.431,7.754,14.12,20.1,2.057,28.325-.648-.444-1.336-.876-2.057-1.293-14.157-8.172-37.141-8.172-51.298,0l-46.535,26.869-9.679-1.497c-2.803-5.214-4.253-10.623-4.347-16.037h-.008v-27.521h0ZM992.08,368.294c.407,4.312,1.679,8.604,3.809,12.778l-3.809,2.2v-14.977h0ZM1120.662,317.116v27.032l-47.187,27.244c-.725.418-1.41.849-2.062,1.291-12.058-8.223-11.374-20.569,2.062-28.323l47.187-27.244Z" fill="#67bab0"/>
  <path d="M633.416,599.467c13.851-4.569,31.821-3.442,43.639,3.381,13.431,7.754,14.12,20.1,2.057,28.325-.648-.444-1.336-.876-2.057-1.293-11.818-6.822-29.788-7.95-43.639-3.381v-27.032Z" fill="#028c7b"/>
  <path d="M995.889,381.072c-9.692-18.982-1.572-40.368,24.353-55.337l.407-.233.513-.291.615-.344.623-.34.46-.248.481-.257.464-.243.485-.253.468-.24.64-.322.643-.32.648-.314.652-.312.326-.155.33-.153.415-.194.571-.261.664-.297.668-.295.668-.289.673-.287.501-.21.68-.279.685-.277.684-.273.688-.269.693-.265.693-.26.416-.153.631-.23.705-.252.705-.247.705-.245.713-.24.713-.236.534-.173.721-.232.721-.224.725-.224.726-.218.729-.213.725-.21.733-.205.733-.204.738-.2.741-.196.742-.192.745-.189.746-.184.745-.179.578-.137.75-.175.758-.169.753-.165c.126-.028.249-.055.375-.081l.749-.159.762-.157.762-.153.762-.149.766-.145.766-.142.766-.139.766-.132.766-.128.762-.126.741-.116.346-.055c.595-.092,1.198-.179,1.793-.265l.452-.065.782-.106.782-.102.778-.1.782-.094.782-.091.778-.088.778-.084.77-.077.742-.073.346-.033c.766-.072,1.531-.136,2.301-.198l.811-.061.791-.057.79-.053.79-.049.791-.045.786-.041.782-.036.774-.035.75-.029c1.153-.042,2.31-.071,3.467-.089l.432-.006.794-.01.795-.004h.79l.795.002.786.006.778.01.77.015.371.006c1.169.026,2.335.063,3.499.112l.795.036.794.039.791.043.79.049.786.049.782.055.779.057.757.059.367.028c1.027.086,2.053.181,3.08.285l.794.083.786.086.787.09.782.091.782.098.774.1.774.103.77.106.746.108.35.053c.493.074.994.149,1.487.228l.84.135.741.124.733.126.346.061.648.116.652.118,2.343,5.047-47.187,27.244-.167.095c-13.989,8.181-13.936,21.38.167,29.521,14.152,8.173,37.137,8.173,51.293,0l46.539-26.869,9.675,1.496.127.24c.139.259.273.519.403.78l.191.383.204.428.098.212c4.33,9.29,4.441,19.104.334,28.423l-.106.232-.102.23-.106.23-.11.226-.106.228-.11.226-.11.224-.114.224-.114.224-.114.224-.118.222-.118.224c-.44.823-.913,1.639-1.422,2.452l-.155.245-.289.452-.293.446-.297.438-.306.438-.306.432-.318.434-.318.43-.326.428-.167.214-.167.214c-.285.359-.574.717-.872,1.072l-.212.253-.375.44-.375.43-.379.422-.383.42-.387.418-.395.413-.395.414-.407.409-.411.41-.42.405-.212.204-.212.202-.216.203-.245.226-.411.379-.444.399-.448.399-.456.395-.464.395-.342.285-.472.391-.485.391-.485.387-.493.387-.501.385-.505.381-.257.192-.257.189-.31.226-.472.34-.53.375-.538.373-.542.371-.55.369-.407.269-.428.279-.411.269-.57.363-.578.359-.582.359-.587.355-.594.352-.302.175-.301.175c-25.93,14.971-62.969,19.658-95.845,14.063l-306.543,176.981c9.692,18.984,1.573,40.368-24.357,55.337l-.407.234-.509.289-.619.344-.623.34-.456.249-.481.257-.464.245-.485.25-.468.241-.64.322-.648.32-.644.316-.652.312-.326.153-.33.153-.415.194-.57.261-.664.299-.668.293-.672.289-.672.287-.497.209-.68.279-.685.277-.684.273-.688.269-.693.265-.696.261-.411.153-.636.23-.701.253-.704.247-.709.244-.713.24-.713.236-.534.175-.717.23-.721.226-.725.222-.725.218-.73.216-.725.208-.733.208-.737.204-.738.198-.737.196-.741.191-.746.19-.745.184-.746.179-.578.136-.754.175-.754.169-.757.167c-.122.026-.249.053-.371.079l-.753.159-.758.157-.762.153-.766.151-.766.145-.761.141-.77.138-.766.133-.766.13-.758.124-.745.118-.342.053c-.599.092-1.198.182-1.797.267l-.452.063-.778.106-.782.102-.782.099-.783.096-.778.089-.782.088-.774.083-.77.078-.746.074-.342.032c-.766.071-1.536.137-2.306.198l-.807.061-.79.057-.791.053-.79.049-.791.045-.786.041-.782.038-.774.033-.75.029c-1.153.043-2.31.071-3.467.091l-.432.004-.794.011-.794.004-.795.002-.79-.004-.787-.006-.782-.01-.766-.012-.371-.008c-1.169-.024-2.334-.063-3.503-.112l-.795-.037-.79-.039-.794-.044-.791-.045-.786-.051-.782-.055-.774-.057-.757-.057-.367-.03c-1.031-.086-2.057-.181-3.08-.285l-.799-.084-.786-.085-.782-.089-.782-.092-.782-.098-.778-.099-.774-.104-.766-.106-.746-.108-.35-.053c-.497-.073-.994-.149-1.491-.228l-.835-.134-.741-.122-.733-.126-.346-.061-.652-.116-.647-.12-2.343-5.047,47.187-27.241.167-.098c13.989-8.18,13.932-21.379-.167-29.519-14.157-8.173-37.141-8.173-51.298,0l-46.535,26.869-9.675-1.497-.131-.24c-.134-.259-.269-.517-.399-.778l-.192-.385-.204-.428-.102-.21c-4.33-9.292-4.44-19.106-.33-28.423l.106-.234.102-.23.106-.228.106-.228.11-.226.11-.226.11-.226.11-.224.114-.224.118-.224.114-.222.118-.222c.444-.823.917-1.642,1.426-2.454l.151-.243.293-.454.293-.444.297-.44.301-.436.31-.434.314-.432.322-.43.326-.43.167-.214.167-.212c.281-.36.574-.717.872-1.073l.208-.251.379-.442.375-.43.379-.422.379-.42.391-.415.391-.416.399-.411.407-.411.411-.409.415-.406.212-.204.216-.201.216-.204.24-.226.415-.379.444-.399.448-.399.456-.395.464-.395.338-.285.477-.393.481-.389.489-.387.493-.387.501-.385.505-.381.257-.19.257-.189.31-.226.472-.34.53-.377.533-.373.542-.371.55-.369.407-.269.428-.281.416-.267.57-.36.574-.361.582-.357.591-.354.594-.354.297-.175.306-.175c25.926-14.969,62.965-19.656,95.845-14.063l306.543-176.981h0ZM749.882,588.393l307.68-177.639c30.252,6.819,65.971,3.181,90.39-10.918,20.284-11.708,28.069-27.92,23.355-43.081l-38.95,22.488c-18.768,10.834-49.241,10.834-68.004,0-18.768-10.834-18.768-28.429,0-39.263l38.95-22.488c-26.264-2.721-54.341,1.774-74.62,13.482-24.423,14.1-30.725,34.721-18.911,52.188l-316.809,182.911c-30.252-6.822-65.971-3.184-90.39,10.916-20.28,11.71-28.065,27.92-23.351,43.083l38.95-22.488c18.764-10.834,49.237-10.834,68.004,0,18.764,10.834,18.764,28.427,0,39.262l-38.95,22.487c26.26,2.721,54.341-1.772,74.62-13.482,24.419-14.098,30.721-34.721,18.907-52.188l9.129-5.269h0Z" fill="#dedefc"/>
  <path d="M995.889,381.072c-9.692-18.982-1.572-40.368,24.353-55.337l.407-.233.513-.291.615-.344.623-.34.46-.248.481-.257.464-.243.485-.253.468-.24.64-.322.643-.32.648-.314.652-.312.326-.155.33-.153.415-.194.571-.261.664-.297.668-.295.668-.289.673-.287.501-.21.68-.279.685-.277.684-.273.688-.269.693-.265.693-.26.416-.153.631-.23.705-.252.705-.247.705-.245.713-.24.713-.236.534-.173.721-.232.721-.224.725-.224.726-.218.729-.213.725-.21.733-.205.733-.204.738-.2.741-.196.742-.192.745-.189.746-.184.745-.179.578-.137.75-.175.758-.169.753-.165c.126-.028.249-.055.375-.081l.749-.159.762-.157.762-.153.762-.149.766-.145.766-.142.766-.139.766-.132.766-.128.762-.126.741-.116.346-.055c.595-.092,1.198-.179,1.793-.265l.452-.065.782-.106.782-.102.778-.1.782-.094.782-.091.778-.088.778-.084.77-.077.742-.073.346-.033c.766-.072,1.531-.136,2.301-.198l.811-.061.791-.057.79-.053.79-.049.791-.045.786-.041.782-.036.774-.035.75-.029c1.153-.042,2.31-.071,3.467-.089l.432-.006.794-.01.795-.004h.79l.795.002.786.006.778.01.77.015.371.006c1.169.026,2.335.063,3.499.112l.795.036.794.039.791.043.79.049.786.049.782.055.779.057.757.059.367.028c1.027.086,2.053.181,3.08.285l.794.083.786.086.787.09.782.091.782.098.774.1.774.103.77.106.746.108.35.053c.493.074.994.149,1.487.228l.84.135.741.124.733.126.346.061.648.116.652.118,2.343,5.047-47.187,27.244-.167.095c-13.989,8.181-13.936,21.38.167,29.521,14.152,8.173,37.137,8.173,51.293,0l46.539-26.869,9.675,1.496.127.24c.139.259.273.519.403.78l.191.383.204.428.098.212c4.33,9.29,4.441,19.104.334,28.423l-.106.232-.102.23-.106.23-.11.226-.106.228-.11.226-.11.224-.114.224-.114.224-.114.224-.118.222-.118.224c-.44.823-.913,1.639-1.422,2.452l-.155.245-.289.452-.293.446-.297.438-.306.438-.306.432-.318.434-.318.43-.326.428-.167.214-.167.214c-.285.359-.574.717-.872,1.072l-.212.253-.375.44-.375.43-.379.422-.383.42-.387.418-.395.413-.395.414-.407.409-.411.41-.42.405-.212.204-.212.202-.216.203-.245.226-.411.379-.444.399-.448.399-.456.395-.464.395-.342.285-.472.391-.485.391-.485.387-.493.387-.501.385-.505.381-.257.192-.257.189-.31.226-.472.34-.53.375-.538.373-.542.371-.55.369-.407.269-.428.279-.411.269-.57.363-.578.359-.582.359-.587.355-.594.352-.302.175-.301.175c-25.93,14.971-62.969,19.658-95.845,14.063l-306.543,176.981c9.692,18.984,1.573,40.368-24.357,55.337l-.407.234-.509.289-.619.344-.623.34-.456.249-.481.257-.464.245-.485.25-.468.241-.64.322-.648.32-.644.316-.652.312-.326.153-.33.153-.415.194-.57.261-.664.299-.668.293-.672.289-.672.287-.497.209-.68.279-.685.277-.684.273-.688.269-.693.265-.696.261-.411.153-.636.23-.701.253-.704.247-.709.244-.713.24-.713.236-.534.175-.717.23-.721.226-.725.222-.725.218-.73.216-.725.208-.733.208-.737.204-.738.198-.737.196-.741.191-.746.19-.745.184-.746.179-.578.136-.754.175-.754.169-.757.167c-.122.026-.249.053-.371.079l-.753.159-.758.157-.762.153-.766.151-.766.145-.761.141-.77.138-.766.133-.766.13-.758.124-.745.118-.342.053c-.599.092-1.198.182-1.797.267l-.452.063-.778.106-.782.102-.782.099-.783.096-.778.089-.782.088-.774.083-.77.078-.746.074-.342.032c-.766.071-1.536.137-2.306.198l-.807.061-.79.057-.791.053-.79.049-.791.045-.786.041-.782.038-.774.033-.75.029c-1.153.043-2.31.071-3.467.091l-.432.004-.794.011-.794.004-.795.002-.79-.004-.787-.006-.782-.01-.766-.012-.371-.008c-1.169-.024-2.334-.063-3.503-.112l-.795-.037-.79-.039-.794-.044-.791-.045-.786-.051-.782-.055-.774-.057-.757-.057-.367-.03c-1.031-.086-2.057-.181-3.08-.285l-.799-.084-.786-.085-.782-.089-.782-.092-.782-.098-.778-.099-.774-.104-.766-.106-.746-.108-.35-.053c-.497-.073-.994-.149-1.491-.228l-.835-.134-.741-.122-.733-.126-.346-.061-.652-.116-.647-.12-2.343-5.047,47.187-27.241.167-.098c13.989-8.18,13.932-21.379-.167-29.519-14.157-8.173-37.141-8.173-51.298,0l-46.535,26.869-9.675-1.497-.131-.24c-.134-.259-.269-.517-.399-.778l-.192-.385-.204-.428-.102-.21c-4.33-9.292-4.44-19.106-.33-28.423l.106-.234.102-.23.106-.228.106-.228.11-.226.11-.226.11-.226.11-.224.114-.224.118-.224.114-.222.118-.222c.444-.823.917-1.642,1.426-2.454l.151-.243.293-.454.293-.444.297-.44.301-.436.31-.434.314-.432.322-.43.326-.43.167-.214.167-.212c.281-.36.574-.717.872-1.073l.208-.251.379-.442.375-.43.379-.422.379-.42.391-.415.391-.416.399-.411.407-.411.411-.409.415-.406.212-.204.216-.201.216-.204.24-.226.415-.379.444-.399.448-.399.456-.395.464-.395.338-.285.477-.393.481-.389.489-.387.493-.387.501-.385.505-.381.257-.19.257-.189.31-.226.472-.34.53-.377.533-.373.542-.371.55-.369.407-.269.428-.281.416-.267.57-.36.574-.361.582-.357.591-.354.594-.354.297-.175.306-.175c25.926-14.969,62.965-19.656,95.845-14.063l306.543-176.981h0ZM749.882,588.393l307.68-177.639c30.252,6.819,65.971,3.181,90.39-10.918,20.284-11.708,28.069-27.92,23.355-43.081l-38.95,22.488c-18.768,10.834-49.241,10.834-68.004,0-18.768-10.834-18.768-28.429,0-39.263l38.95-22.488c-26.264-2.721-54.341,1.774-74.62,13.482-24.423,14.1-30.725,34.721-18.911,52.188l-316.809,182.911c-30.252-6.822-65.971-3.184-90.39,10.916-20.28,11.71-28.065,27.92-23.351,43.083l38.95-22.488c18.764-10.834,49.237-10.834,68.004,0,18.764,10.834,18.764,28.427,0,39.262l-38.95,22.487c26.26,2.721,54.341-1.772,74.62-13.482,24.419-14.098,30.721-34.721,18.907-52.188l9.129-5.269h0Z" fill="#44aa9d"/>
  <path d="M579.222,656.749l-9.679-1.497c-2.803-5.214-4.253-10.623-4.347-16.037h-.008v-27.523h0c.016,5.579,1.467,11.154,4.355,16.528l9.679,1.497v27.032Z" fill="#269c8e"/>
  <path d="M1185.338,368.561v23.681h0c.008,14.297-9.431,28.598-28.309,39.498-25.93,14.971-62.965,19.658-95.845,14.063v-27.034c32.88,5.598,69.915.909,95.845-14.06,17.387-10.038,26.765-22.961,28.134-36.111l.175-.036Z" fill="#028c7b"/>
  <path d="M1080.811,340.124v27.034l-7.337,4.235c-.725.418-1.414.849-2.062,1.291-12.058-8.223-11.374-20.569,2.062-28.323l7.337-4.237Z" fill="#269c8e"/>
  <path d="M700.145,619.067c-.745,6.477-5.402,12.832-13.969,17.778l-38.95,22.487c1.858.194,3.727.35,5.606.471l33.344-19.253c10.201-5.888,14.853-13.774,13.969-21.483ZM1009.772,383.161l-316.809,182.911c-30.252-6.822-65.971-3.184-90.39,10.916-17.273,9.973-25.482,23.211-24.627,36.285.778-11.842,8.987-23.551,24.627-32.58,24.418-14.098,60.138-17.738,90.39-10.916l316.809-182.91v-3.706ZM742.44,596.396l-1.687-2.733v3.705c3.459,5.113,5.365,10.497,5.719,15.904.371-5.691-.974-11.409-4.033-16.876ZM1050.384,361.462c-.888,7.712,3.768,15.597,13.969,21.486,18.764,10.834,49.236,10.834,68.004,0l38.95-22.488c.697,2.249,1.124,4.52,1.271,6.797.232-3.509-.192-7.033-1.271-10.502l-38.95,22.488c-18.768,10.834-49.241,10.834-68.004,0-8.567-4.946-13.224-11.301-13.969-17.781ZM1004.056,367.257c.774-11.84,8.983-23.546,24.627-32.576,18.845-10.881,44.421-15.534,69.014-13.953l5.606-3.237c-26.264-2.721-54.341,1.774-74.62,13.482-17.273,9.973-25.482,23.209-24.627,36.283h0Z" fill="#028c7b"/>
  <path d="M960.195,671.479l299.173-172.726c.424-.352.896-.625,1.41-.815h0c1.727-.637,14.421-6.396,16.825-5.007,2.419,1.395,20.071-5.241,21.803-2.591,2.224,3.406-11.786,16.347-11.786,19.937,0,2.774-11.337,10.889-12.751,12.065v.002c-.424.35-.892.623-1.409.812l-299.174,172.728c1.418-1.177,2.265-3.237,2.265-6.015,0-6.382-4.485-14.155-10.013-17.344-2.408-1.389-4.616-1.683-6.343-1.047ZM958.785,672.294h0ZM972.877,696.698h0Z" fill="#67bab0"/>
  <path d="M1290.683,501.018c.701-.725,1.462-1.411,2.102-2.177,1.1-1.318,2.037-2.774,3.051-4.161.436-.601.835-1.224,1.23-1.858.057-.09.354-.476.249-.597-.118-.141-.619.247-.704.304-.795.53-1.536,1.157-2.265,1.776-.603.509-1.198,1.027-1.776,1.558-2.717,2.185-5.703,4.277-7.765,7.109-.644.886-1.679,2.318-1.43,3.495.24,1.124,1.768.187,2.253-.177,1.556-1.175,2.908-2.742,4.176-4.273.269-.348.566-.677.88-.998Z" fill="#028c7b"/>
  <path d="M979.504,660.413c7.785,5.577,13.126,14.354,14.096,24.402l-29.645,17.116c1.413-1.175,2.261-3.237,2.261-6.013,0-6.384-4.486-14.154-10.014-17.347-2.404-1.389-4.612-1.682-6.339-1.044l29.641-17.114Z" fill="#028c7b"/>
  <path d="M930.545,666.036c-18.935-10.922-34.31-2.055-34.31,19.791s15.374,48.45,34.31,59.372c18.935,10.924,34.309,2.055,34.309-19.791s-15.374-48.449-34.309-59.372Z" fill="#fef2cf"/>
  <path d="M955.355,747.258h0l20.988-12.36c8.531-5.524,11.761-11.148,11.761-23.04,0-21.847-15.37-48.452-34.306-59.374-9.639-5.559-18.352-5.991-24.585-2.198h0l-21.208,12.496v.002c6.029-2.593,13.916-1.725,22.541,3.25,18.935,10.923,34.309,37.526,34.309,59.372,0,10.596-3.617,18.139-9.5,21.85Z" fill="#f8bc00"/>
  <path d="M986.735,699.972l-23.278,13.429c.909,4.076,1.397,8.117,1.397,12.007,0,10.596-3.617,18.139-9.5,21.85h0l20.988-12.36c8.531-5.524,11.761-11.148,11.761-23.04,0-3.852-.476-7.852-1.369-11.887Z" fill="#fad152"/>
  <path d="M905.194,672.111c6.302-3.32,13.024-2.752,21.281,2.01,16.507,9.524,29.91,32.721,29.91,51.768,0,9.522-2.786,15.544-8.763,19.342-36.192,23.005-149.167,105.103-208.376,118.691-21.974,5.043-55.759-51.239-42.254-68.844,33.145-43.203,169.952-102.806,208.201-122.968Z" fill="#f8bc00"/>
  <path d="M955.346,716.234c.677,3.275,1.039,6.522,1.039,9.655,0,9.522-2.839,15.46-8.763,19.342-27.095,17.754-149.167,105.103-208.376,118.691-6.86,1.574-14.878-2.831-22.243-10.172,68.029-26.372,183.216-94.097,238.343-137.516h0Z" fill="#fad152"/>
  <path d="M708.713,810.775c-11.325-6.534-20.52-1.23-20.52,11.837s9.195,28.979,20.52,35.513c11.326,6.532,20.524,1.228,20.524-11.838s-9.199-28.979-20.524-35.512Z" fill="#fad152"/>
  <path d="M719.204,860.849h0l9.349,2.288c13.24,4.387,23.188-3.457,23.188-19.695,0-18.66-13.134-41.386-29.307-50.715-13.517-7.797-24.911-3.787-28.288,8.636l-4.176,12.629h0c3.206-6.416,10.397-8.033,18.744-3.216,11.326,6.532,20.524,22.447,20.524,35.512,0,8.647-4.029,13.894-10.034,14.562Z" fill="#fef2cf"/>
</svg>